<svg id="svg" version="1.1" xmlns="http://www.w3.org/2000/svg" xmlns:xlink="http://www.w3.org/1999/xlink" width="400" height="400" viewBox="0, 0, 400,400"><g id="svgg"><path id="path0" d="M174.400 0.400 C 174.400 0.645,172.455 0.800,169.364 0.800 C 164.842 0.800,164.261 0.880,163.664 1.589 C 163.106 2.253,162.445 2.389,159.510 2.444 C 156.488 2.500,155.988 2.608,155.783 3.254 C 155.579 3.895,155.122 4.000,152.536 4.000 C 149.862 4.000,149.502 4.089,149.316 4.800 C 149.133 5.501,148.770 5.600,146.380 5.600 C 144.005 5.600,143.621 5.703,143.400 6.400 C 143.184 7.082,142.795 7.200,140.773 7.200 C 139.011 7.200,138.400 7.344,138.400 7.757 C 138.400 8.496,137.514 8.800,135.367 8.800 C 134.063 8.800,133.600 8.957,133.600 9.400 C 133.600 9.781,133.198 10.011,132.500 10.030 C 130.558 10.082,129.428 10.408,129.090 11.011 C 128.905 11.342,128.188 11.600,127.456 11.600 C 126.712 11.600,125.788 11.938,125.308 12.385 C 124.844 12.817,123.793 13.216,122.973 13.271 C 121.931 13.341,121.424 13.587,121.293 14.086 C 121.155 14.617,120.708 14.800,119.553 14.800 C 118.267 14.800,118.000 14.937,118.000 15.600 C 118.000 16.264,117.733 16.400,116.427 16.400 C 115.205 16.400,114.797 16.579,114.600 17.200 C 114.432 17.730,113.995 18.000,113.305 18.000 C 112.732 18.000,111.903 18.315,111.463 18.700 C 110.869 19.219,110.740 19.245,110.961 18.800 C 111.138 18.444,111.026 18.484,110.686 18.900 C 110.370 19.285,109.817 19.600,109.456 19.600 C 109.095 19.600,108.440 19.960,108.000 20.400 C 107.560 20.840,106.883 21.200,106.496 21.200 C 106.109 21.200,105.568 21.560,105.293 22.000 C 104.974 22.510,104.360 22.800,103.597 22.800 C 102.667 22.800,102.400 22.978,102.400 23.600 C 102.400 24.252,102.133 24.400,100.963 24.400 C 99.930 24.400,99.473 24.597,99.341 25.100 C 99.223 25.551,98.710 25.832,97.900 25.890 C 97.209 25.940,96.489 26.255,96.302 26.590 C 96.114 26.926,95.706 27.200,95.394 27.200 C 95.083 27.200,94.648 27.536,94.428 27.947 C 94.208 28.358,93.482 28.804,92.814 28.937 C 92.099 29.080,91.600 29.431,91.600 29.790 C 91.600 30.127,91.253 30.400,90.824 30.400 C 90.397 30.400,89.934 30.583,89.796 30.807 C 89.658 31.030,89.349 31.092,89.111 30.945 C 88.850 30.784,88.792 30.863,88.965 31.143 C 89.152 31.446,88.822 31.696,88.027 31.855 C 87.181 32.024,86.800 32.333,86.800 32.850 C 86.800 33.333,86.516 33.600,86.000 33.600 C 85.560 33.600,84.840 33.960,84.400 34.400 C 83.960 34.840,83.342 35.200,83.027 35.200 C 82.712 35.200,82.340 35.560,82.200 36.000 C 82.060 36.440,81.671 36.800,81.336 36.800 C 81.000 36.800,80.631 37.160,80.516 37.600 C 80.359 38.201,79.970 38.400,78.953 38.400 C 78.209 38.400,77.621 38.535,77.647 38.700 C 77.787 39.584,77.516 40.000,76.800 40.000 C 76.267 40.000,76.000 40.267,76.000 40.800 C 76.000 41.333,75.733 41.600,75.200 41.600 C 74.760 41.600,74.400 41.858,74.400 42.173 C 74.400 42.488,74.040 42.860,73.600 43.000 C 73.160 43.140,72.800 43.394,72.800 43.566 C 72.800 43.738,72.085 44.201,71.211 44.595 C 70.337 44.989,69.718 45.467,69.835 45.656 C 70.025 45.963,69.473 46.162,68.724 46.055 C 68.573 46.034,68.339 46.363,68.204 46.788 C 68.069 47.212,67.608 47.670,67.180 47.806 C 66.751 47.943,66.400 48.312,66.400 48.627 C 66.400 48.942,66.040 49.200,65.600 49.200 C 65.067 49.200,64.800 49.467,64.800 50.000 C 64.800 50.533,64.533 50.800,64.000 50.800 C 63.467 50.800,63.200 51.067,63.200 51.600 C 63.200 52.133,62.933 52.400,62.400 52.400 C 61.867 52.400,61.600 52.667,61.600 53.200 C 61.600 53.640,61.342 54.000,61.027 54.000 C 60.712 54.000,60.340 54.360,60.200 54.800 C 60.060 55.240,59.688 55.600,59.373 55.600 C 59.058 55.600,58.800 55.960,58.800 56.400 C 58.800 56.933,58.533 57.200,58.000 57.200 C 57.467 57.200,57.200 57.467,57.200 58.000 C 57.200 58.533,56.933 58.800,56.400 58.800 C 55.960 58.800,55.600 59.058,55.600 59.373 C 55.600 59.688,55.240 60.060,54.800 60.200 C 54.360 60.340,54.000 60.712,54.000 61.027 C 54.000 61.342,53.640 61.600,53.200 61.600 C 52.667 61.600,52.400 61.867,52.400 62.400 C 52.400 62.933,52.133 63.200,51.600 63.200 C 51.067 63.200,50.800 63.467,50.800 64.000 C 50.800 64.533,50.533 64.800,50.000 64.800 C 49.467 64.800,49.200 65.067,49.200 65.600 C 49.200 66.040,48.942 66.400,48.627 66.400 C 48.312 66.400,47.943 66.751,47.806 67.180 C 47.670 67.608,47.212 68.069,46.788 68.204 C 46.363 68.339,46.034 68.573,46.055 68.724 C 46.162 69.473,45.963 70.025,45.656 69.835 C 45.467 69.718,44.989 70.337,44.595 71.211 C 44.201 72.085,43.738 72.800,43.566 72.800 C 43.394 72.800,43.140 73.160,43.000 73.600 C 42.860 74.040,42.488 74.400,42.173 74.400 C 41.858 74.400,41.600 74.760,41.600 75.200 C 41.600 75.733,41.333 76.000,40.800 76.000 C 40.267 76.000,40.000 76.267,40.000 76.800 C 40.000 77.516,39.584 77.787,38.700 77.647 C 38.535 77.621,38.421 77.735,38.447 77.900 C 38.659 79.241,38.306 80.331,37.600 80.516 C 37.160 80.631,36.800 81.000,36.800 81.336 C 36.800 81.671,36.440 82.060,36.000 82.200 C 35.560 82.340,35.200 82.712,35.200 83.027 C 35.200 83.342,34.840 83.960,34.400 84.400 C 33.960 84.840,33.600 85.560,33.600 86.000 C 33.600 86.516,33.333 86.800,32.850 86.800 C 32.333 86.800,32.024 87.181,31.855 88.027 C 31.696 88.822,31.446 89.152,31.143 88.965 C 30.863 88.792,30.784 88.850,30.945 89.111 C 31.092 89.349,31.030 89.658,30.807 89.796 C 30.583 89.934,30.400 90.397,30.400 90.824 C 30.400 91.302,30.126 91.600,29.687 91.600 C 29.197 91.600,28.948 91.943,28.890 92.700 C 28.844 93.305,28.445 94.099,28.003 94.464 C 27.561 94.829,27.200 95.315,27.200 95.544 C 27.200 95.773,26.926 96.114,26.590 96.302 C 26.255 96.489,25.940 97.209,25.890 97.900 C 25.832 98.710,25.551 99.223,25.100 99.341 C 24.597 99.473,24.400 99.930,24.400 100.963 C 24.400 102.133,24.252 102.400,23.600 102.400 C 22.978 102.400,22.800 102.667,22.800 103.597 C 22.800 104.360,22.510 104.974,22.000 105.293 C 21.560 105.568,21.200 106.109,21.200 106.496 C 21.200 106.883,20.840 107.560,20.400 108.000 C 19.960 108.440,19.600 109.095,19.600 109.456 C 19.600 109.817,19.285 110.370,18.900 110.686 C 18.484 111.026,18.444 111.138,18.800 110.961 C 19.245 110.740,19.219 110.869,18.700 111.463 C 18.315 111.903,18.000 112.732,18.000 113.305 C 18.000 113.995,17.730 114.432,17.200 114.600 C 16.579 114.797,16.400 115.205,16.400 116.427 C 16.400 117.733,16.264 118.000,15.600 118.000 C 14.937 118.000,14.800 118.267,14.800 119.553 C 14.800 120.708,14.617 121.155,14.086 121.293 C 13.587 121.424,13.341 121.931,13.271 122.973 C 13.216 123.793,12.817 124.844,12.385 125.308 C 11.938 125.788,11.600 126.712,11.600 127.456 C 11.600 128.188,11.342 128.905,11.011 129.090 C 10.408 129.428,10.082 130.558,10.030 132.500 C 10.011 133.198,9.781 133.600,9.400 133.600 C 8.957 133.600,8.800 134.063,8.800 135.367 C 8.800 137.514,8.496 138.400,7.757 138.400 C 7.344 138.400,7.200 139.011,7.200 140.773 C 7.200 142.795,7.082 143.184,6.400 143.400 C 5.703 143.621,5.600 144.005,5.600 146.380 C 5.600 148.770,5.501 149.133,4.800 149.316 C 4.090 149.502,4.000 149.862,4.000 152.516 C 4.000 155.096,3.898 155.533,3.256 155.701 C 2.607 155.871,2.503 156.352,2.445 159.448 C 2.389 162.444,2.255 163.104,1.589 163.664 C 0.880 164.261,0.800 164.842,0.800 169.364 C 0.800 172.455,0.645 174.400,0.400 174.400 C 0.138 174.400,0.000 183.200,0.000 200.000 C 0.000 216.800,0.138 225.600,0.400 225.600 C 0.646 225.600,0.800 227.584,0.800 230.751 C 0.800 235.426,0.873 235.953,1.589 236.451 C 2.262 236.919,2.387 237.513,2.443 240.490 C 2.500 243.512,2.609 244.012,3.254 244.217 C 3.895 244.421,4.000 244.878,4.000 247.464 C 4.000 250.138,4.089 250.498,4.800 250.684 C 5.484 250.863,5.600 251.230,5.600 253.214 C 5.600 255.898,5.862 256.800,6.643 256.800 C 7.057 256.800,7.200 257.415,7.200 259.200 C 7.200 260.985,7.343 261.600,7.757 261.600 C 8.496 261.600,8.800 262.486,8.800 264.633 C 8.800 265.937,8.957 266.400,9.400 266.400 C 9.781 266.400,10.011 266.802,10.030 267.500 C 10.082 269.442,10.408 270.572,11.011 270.910 C 11.342 271.095,11.600 271.812,11.600 272.544 C 11.600 273.288,11.938 274.212,12.385 274.692 C 12.817 275.156,13.216 276.207,13.271 277.027 C 13.341 278.069,13.587 278.576,14.086 278.707 C 14.617 278.845,14.800 279.292,14.800 280.447 C 14.800 281.733,14.937 282.000,15.600 282.000 C 16.264 282.000,16.400 282.267,16.400 283.573 C 16.400 284.795,16.579 285.203,17.200 285.400 C 17.746 285.573,18.000 286.005,18.000 286.760 C 18.000 287.369,18.135 288.002,18.300 288.167 C 18.465 288.332,18.608 288.677,18.618 288.933 C 18.628 289.190,18.853 289.355,19.118 289.300 C 19.392 289.243,19.600 289.631,19.600 290.200 C 19.600 290.750,19.960 291.560,20.400 292.000 C 20.840 292.440,21.200 293.117,21.200 293.504 C 21.200 293.891,21.560 294.432,22.000 294.707 C 22.510 295.026,22.800 295.640,22.800 296.403 C 22.800 297.333,22.978 297.600,23.600 297.600 C 24.252 297.600,24.400 297.867,24.400 299.037 C 24.400 300.070,24.597 300.527,25.100 300.659 C 25.551 300.777,25.832 301.290,25.890 302.100 C 25.940 302.791,26.255 303.511,26.590 303.698 C 26.926 303.886,27.200 304.279,27.200 304.571 C 27.200 304.863,27.562 305.349,28.003 305.651 C 28.445 305.953,28.844 306.695,28.891 307.300 C 28.948 308.057,29.197 308.400,29.687 308.400 C 30.126 308.400,30.400 308.698,30.400 309.176 C 30.400 309.603,30.583 310.066,30.807 310.204 C 31.030 310.342,31.109 310.623,30.983 310.828 C 30.856 311.032,31.033 311.200,31.376 311.200 C 31.775 311.200,32.000 311.561,32.000 312.200 C 32.000 312.933,32.213 313.200,32.800 313.200 C 33.311 313.200,33.600 313.467,33.600 313.938 C 33.600 314.344,33.960 315.002,34.400 315.400 C 34.840 315.798,35.200 316.473,35.200 316.899 C 35.200 317.338,35.547 317.766,36.000 317.884 C 36.443 318.000,36.800 318.430,36.800 318.847 C 36.800 319.333,37.083 319.600,37.600 319.600 C 38.328 319.600,38.679 320.636,38.447 322.100 C 38.421 322.265,38.760 322.400,39.200 322.400 C 39.733 322.400,40.000 322.667,40.000 323.200 C 40.000 323.916,40.416 324.187,41.300 324.047 C 41.465 324.021,41.600 324.360,41.600 324.800 C 41.600 325.244,41.867 325.600,42.200 325.600 C 42.530 325.600,42.800 325.743,42.800 325.919 C 42.800 326.094,43.070 326.589,43.400 327.019 C 44.431 328.361,45.827 330.570,46.107 331.300 C 46.254 331.685,46.651 332.000,46.987 332.000 C 47.324 332.000,47.600 332.287,47.600 332.637 C 47.600 332.988,47.960 333.369,48.400 333.484 C 48.843 333.600,49.200 334.030,49.200 334.447 C 49.200 334.933,49.483 335.200,50.000 335.200 C 50.533 335.200,50.800 335.467,50.800 336.000 C 50.800 336.533,51.067 336.800,51.600 336.800 C 52.133 336.800,52.400 337.067,52.400 337.600 C 52.400 338.133,52.667 338.400,53.200 338.400 C 53.665 338.400,54.000 338.667,54.000 339.037 C 54.000 339.388,54.360 339.769,54.800 339.884 C 55.243 340.000,55.600 340.430,55.600 340.847 C 55.600 341.333,55.883 341.600,56.400 341.600 C 56.844 341.600,57.200 341.867,57.200 342.200 C 57.200 342.533,57.556 342.800,58.000 342.800 C 58.533 342.800,58.800 343.067,58.800 343.600 C 58.800 344.040,59.058 344.400,59.373 344.400 C 59.688 344.400,60.060 344.760,60.200 345.200 C 60.340 345.640,60.712 346.000,61.027 346.000 C 61.342 346.000,61.600 346.360,61.600 346.800 C 61.600 347.333,61.867 347.600,62.400 347.600 C 62.865 347.600,63.200 347.867,63.200 348.237 C 63.200 348.588,63.560 348.969,64.000 349.084 C 64.443 349.200,64.800 349.630,64.800 350.047 C 64.800 350.533,65.083 350.800,65.600 350.800 C 66.040 350.800,66.400 351.058,66.400 351.373 C 66.400 351.688,66.741 352.054,67.157 352.186 C 67.573 352.318,68.006 352.781,68.119 353.213 C 68.244 353.688,68.666 354.000,69.186 354.000 C 69.660 354.000,69.937 354.178,69.803 354.395 C 69.669 354.612,70.274 355.076,71.149 355.426 C 72.023 355.776,72.837 356.318,72.957 356.631 C 73.077 356.944,73.451 357.200,73.787 357.200 C 74.124 357.200,74.400 357.470,74.400 357.800 C 74.400 358.133,74.756 358.400,75.200 358.400 C 75.733 358.400,76.000 358.667,76.000 359.200 C 76.000 359.733,76.267 360.000,76.800 360.000 C 77.333 360.000,77.600 360.267,77.600 360.800 C 77.600 361.448,77.867 361.600,79.000 361.600 C 80.014 361.600,80.400 361.776,80.400 362.237 C 80.400 362.588,80.754 362.967,81.187 363.081 C 81.619 363.194,82.082 363.627,82.214 364.043 C 82.346 364.459,82.712 364.800,83.027 364.800 C 83.342 364.800,83.960 365.160,84.400 365.600 C 84.840 366.040,85.560 366.400,86.000 366.400 C 86.533 366.400,86.800 366.667,86.800 367.200 C 86.800 367.737,87.067 368.000,87.613 368.000 C 88.059 368.000,88.527 368.265,88.651 368.589 C 88.776 368.913,89.473 369.290,90.202 369.427 C 91.036 369.583,91.600 369.958,91.726 370.438 C 91.857 370.939,92.279 371.200,92.959 371.200 C 93.560 371.200,94.203 371.535,94.493 372.000 C 94.768 372.440,95.225 372.800,95.509 372.800 C 95.793 372.800,96.127 373.065,96.251 373.389 C 96.376 373.713,97.077 374.091,97.811 374.228 C 98.544 374.366,99.241 374.731,99.360 375.039 C 99.488 375.374,100.145 375.600,100.987 375.600 C 102.133 375.600,102.400 375.751,102.400 376.400 C 102.400 377.022,102.667 377.200,103.597 377.200 C 104.360 377.200,104.974 377.490,105.293 378.000 C 105.568 378.440,106.109 378.800,106.496 378.800 C 106.883 378.800,107.560 379.160,108.000 379.600 C 108.440 380.040,109.141 380.400,109.557 380.400 C 109.974 380.400,110.422 380.681,110.554 381.025 C 110.686 381.369,110.963 381.546,111.170 381.419 C 111.376 381.291,111.658 381.370,111.796 381.593 C 111.934 381.817,112.564 382.000,113.197 382.000 C 113.995 382.000,114.424 382.245,114.600 382.800 C 114.797 383.421,115.205 383.600,116.427 383.600 C 117.733 383.600,118.000 383.736,118.000 384.400 C 118.000 385.063,118.267 385.200,119.553 385.200 C 120.770 385.200,121.152 385.373,121.316 386.000 C 121.477 386.615,121.862 386.800,122.979 386.800 C 123.881 386.800,124.760 387.104,125.292 387.600 C 125.787 388.061,126.704 388.400,127.456 388.400 C 128.188 388.400,128.905 388.658,129.090 388.989 C 129.428 389.592,130.558 389.918,132.500 389.970 C 133.159 389.988,133.600 390.223,133.600 390.557 C 133.600 391.296,134.486 391.600,136.633 391.600 C 137.937 391.600,138.400 391.757,138.400 392.200 C 138.400 392.665,138.928 392.800,140.753 392.800 C 142.770 392.800,143.137 392.914,143.316 393.600 C 143.500 394.304,143.862 394.400,146.316 394.400 C 148.770 394.400,149.132 394.496,149.316 395.200 C 149.502 395.911,149.862 396.000,152.536 396.000 C 155.195 396.000,155.576 396.093,155.800 396.800 C 156.029 397.521,156.405 397.600,159.613 397.600 C 162.762 397.600,163.221 397.692,163.600 398.400 C 163.994 399.137,164.438 399.200,169.214 399.200 C 172.405 399.200,174.400 399.354,174.400 399.600 C 174.400 399.863,183.200 400.000,200.000 400.000 C 216.800 400.000,225.600 399.863,225.600 399.600 C 225.600 399.356,227.456 399.200,230.367 399.200 C 235.457 399.200,236.400 399.037,236.400 398.157 C 236.400 397.724,237.178 397.599,239.900 397.594 C 243.304 397.588,244.609 397.282,244.334 396.555 C 244.260 396.360,245.280 396.154,246.600 396.097 C 249.814 395.959,250.800 395.700,250.800 394.992 C 250.800 394.475,254.374 394.054,256.134 394.364 C 256.318 394.396,256.564 394.058,256.681 393.611 C 256.864 392.912,257.219 392.800,259.247 392.800 C 261.072 392.800,261.600 392.665,261.600 392.200 C 261.600 391.757,262.063 391.600,263.367 391.600 C 265.514 391.600,266.400 391.296,266.400 390.557 C 266.400 390.177,266.891 390.000,267.946 390.000 C 268.886 390.000,269.891 389.687,270.509 389.200 C 271.069 388.760,272.049 388.400,272.688 388.400 C 273.326 388.400,274.236 388.040,274.708 387.600 C 275.225 387.118,276.119 386.800,276.956 386.800 C 277.995 386.800,278.410 386.598,278.600 386.000 C 278.797 385.379,279.205 385.200,280.427 385.200 C 281.733 385.200,282.000 385.064,282.000 384.400 C 282.000 383.736,282.267 383.600,283.573 383.600 C 284.795 383.600,285.203 383.421,285.400 382.800 C 285.580 382.234,286.005 382.000,286.853 382.000 C 288.496 382.000,289.908 381.241,289.154 380.763 C 288.777 380.524,289.064 380.410,290.053 380.406 C 291.167 380.401,291.556 380.213,291.716 379.600 C 291.863 379.036,292.262 378.800,293.066 378.800 C 293.774 378.800,294.397 378.496,294.707 378.000 C 295.026 377.490,295.640 377.200,296.403 377.200 C 297.333 377.200,297.600 377.022,297.600 376.400 C 297.600 375.733,297.867 375.600,299.200 375.600 C 300.333 375.600,300.800 375.430,300.800 375.018 C 300.800 374.672,301.356 374.332,302.172 374.179 C 302.927 374.037,303.641 373.669,303.760 373.361 C 303.878 373.052,304.244 372.800,304.573 372.800 C 304.903 372.800,305.365 372.440,305.600 372.000 C 305.880 371.476,306.438 371.200,307.214 371.200 C 308.110 371.200,308.400 371.015,308.400 370.445 C 308.400 369.898,308.787 369.616,309.800 369.426 C 310.638 369.269,311.200 368.930,311.200 368.582 C 311.200 368.228,311.592 368.000,312.200 368.000 C 312.933 368.000,313.200 367.787,313.200 367.200 C 313.200 366.667,313.467 366.400,314.000 366.400 C 314.440 366.400,315.160 366.040,315.600 365.600 C 316.040 365.160,316.687 364.800,317.037 364.800 C 317.388 364.800,317.765 364.457,317.874 364.037 C 317.984 363.617,318.417 363.184,318.837 363.074 C 319.257 362.965,319.600 362.588,319.600 362.237 C 319.600 361.652,320.506 361.389,321.900 361.570 C 322.175 361.606,322.400 361.267,322.400 360.818 C 322.400 360.254,322.661 360.000,323.237 360.000 C 323.738 360.000,324.159 359.679,324.284 359.200 C 324.399 358.760,324.742 358.400,325.047 358.400 C 325.351 358.400,325.600 358.130,325.600 357.800 C 325.600 357.470,325.876 357.200,326.213 357.200 C 326.549 357.200,326.923 356.944,327.043 356.631 C 327.163 356.318,327.968 355.780,328.831 355.434 C 329.694 355.089,330.400 354.646,330.400 354.450 C 330.400 354.254,330.760 353.999,331.200 353.884 C 331.640 353.769,332.000 353.409,332.000 353.084 C 332.000 352.759,332.360 352.399,332.800 352.284 C 333.240 352.169,333.600 351.809,333.600 351.484 C 333.600 351.159,333.960 350.799,334.400 350.684 C 334.840 350.569,335.200 350.188,335.200 349.837 C 335.200 349.467,335.535 349.200,336.000 349.200 C 336.533 349.200,336.800 348.933,336.800 348.400 C 336.800 347.867,337.067 347.600,337.600 347.600 C 338.117 347.600,338.400 347.333,338.400 346.847 C 338.400 346.430,338.757 346.000,339.200 345.884 C 339.640 345.769,340.000 345.409,340.000 345.084 C 340.000 344.759,340.360 344.399,340.800 344.284 C 341.240 344.169,341.600 343.788,341.600 343.437 C 341.600 343.087,341.870 342.800,342.200 342.800 C 342.530 342.800,342.800 342.551,342.800 342.247 C 342.800 341.942,343.160 341.599,343.600 341.484 C 344.040 341.369,344.400 341.009,344.400 340.684 C 344.400 340.359,344.760 339.999,345.200 339.884 C 345.640 339.769,346.000 339.388,346.000 339.037 C 346.000 338.667,346.335 338.400,346.800 338.400 C 347.333 338.400,347.600 338.133,347.600 337.600 C 347.600 337.067,347.867 336.800,348.400 336.800 C 348.917 336.800,349.200 336.533,349.200 336.047 C 349.200 335.630,349.557 335.200,350.000 335.084 C 350.440 334.969,350.800 334.609,350.800 334.284 C 350.800 333.959,351.160 333.599,351.600 333.484 C 352.040 333.369,352.400 332.988,352.400 332.637 C 352.400 332.287,352.674 332.000,353.010 332.000 C 353.345 332.000,353.791 331.550,354.000 331.000 C 354.209 330.450,354.528 330.000,354.710 330.000 C 354.891 330.000,355.261 329.387,355.532 328.638 C 355.803 327.889,356.289 327.175,356.612 327.051 C 356.935 326.927,357.200 326.549,357.200 326.213 C 357.200 325.876,357.470 325.600,357.800 325.600 C 358.130 325.600,358.400 325.351,358.400 325.047 C 358.400 324.742,358.760 324.399,359.200 324.284 C 359.679 324.159,360.000 323.738,360.000 323.237 C 360.000 322.661,360.254 322.400,360.818 322.400 C 361.267 322.400,361.606 322.175,361.570 321.900 C 361.388 320.496,361.670 319.675,362.400 319.484 C 362.840 319.369,363.200 319.009,363.200 318.684 C 363.200 318.359,363.560 317.999,364.000 317.884 C 364.453 317.766,364.800 317.338,364.800 316.899 C 364.800 316.473,365.160 315.798,365.600 315.400 C 366.040 315.002,366.400 314.344,366.400 313.938 C 366.400 313.467,366.689 313.200,367.200 313.200 C 367.661 313.200,368.000 312.933,368.000 312.571 C 368.000 312.226,368.279 311.664,368.620 311.323 C 368.960 310.982,369.343 310.185,369.470 309.552 C 369.625 308.774,369.944 308.400,370.450 308.400 C 371.015 308.400,371.200 308.107,371.200 307.214 C 371.200 306.438,371.476 305.880,372.000 305.600 C 372.440 305.365,372.800 304.930,372.800 304.635 C 372.800 304.340,373.058 303.883,373.374 303.621 C 373.690 303.359,374.064 302.617,374.206 301.972 C 374.348 301.328,374.719 300.800,375.032 300.800 C 375.428 300.800,375.600 300.316,375.600 299.200 C 375.600 297.867,375.733 297.600,376.400 297.600 C 376.933 297.600,377.200 297.333,377.200 296.800 C 377.200 296.360,377.560 295.640,378.000 295.200 C 378.455 294.745,378.800 293.867,378.800 293.163 C 378.800 292.262,379.017 291.868,379.600 291.716 C 380.213 291.556,380.401 291.167,380.406 290.053 C 380.410 289.064,380.524 288.777,380.763 289.154 C 381.180 289.812,382.000 288.574,382.000 287.288 C 382.000 286.868,382.360 286.198,382.800 285.800 C 383.336 285.315,383.600 284.568,383.600 283.538 C 383.600 282.267,383.739 282.000,384.400 282.000 C 385.064 282.000,385.200 281.733,385.200 280.427 C 385.200 279.205,385.379 278.797,386.000 278.600 C 386.598 278.410,386.800 277.995,386.800 276.956 C 386.800 276.119,387.118 275.225,387.600 274.708 C 388.040 274.236,388.400 273.326,388.400 272.688 C 388.400 272.049,388.760 271.069,389.200 270.509 C 389.687 269.891,390.000 268.886,390.000 267.946 C 390.000 266.891,390.177 266.400,390.557 266.400 C 391.296 266.400,391.600 265.514,391.600 263.367 C 391.600 262.063,391.757 261.600,392.200 261.600 C 392.665 261.600,392.800 261.072,392.800 259.247 C 392.800 257.219,392.912 256.864,393.611 256.681 C 394.058 256.564,394.396 256.318,394.364 256.134 C 394.069 254.456,394.475 250.800,394.957 250.800 C 395.744 250.800,396.000 249.896,396.000 247.111 C 396.000 245.265,396.167 244.566,396.700 244.176 C 397.515 243.581,397.485 243.738,397.550 239.600 C 397.588 237.155,397.732 236.400,398.157 236.400 C 399.037 236.400,399.200 235.457,399.200 230.367 C 399.200 227.456,399.356 225.600,399.600 225.600 C 399.863 225.600,400.000 216.800,400.000 200.000 C 400.000 183.200,399.863 174.400,399.600 174.400 C 399.354 174.400,399.200 172.405,399.200 169.214 C 399.200 164.438,399.137 163.994,398.400 163.600 C 397.690 163.220,397.600 162.762,397.600 159.548 C 397.600 156.262,397.526 155.906,396.800 155.716 C 396.090 155.530,396.000 155.170,396.000 152.516 C 396.000 149.862,395.910 149.502,395.200 149.316 C 394.496 149.132,394.400 148.770,394.400 146.316 C 394.400 143.862,394.304 143.500,393.600 143.316 C 392.914 143.137,392.800 142.770,392.800 140.753 C 392.800 138.928,392.665 138.400,392.200 138.400 C 391.757 138.400,391.600 137.937,391.600 136.633 C 391.600 134.486,391.296 133.600,390.557 133.600 C 390.223 133.600,389.988 133.159,389.970 132.500 C 389.918 130.558,389.592 129.428,388.989 129.090 C 388.658 128.905,388.400 128.188,388.400 127.456 C 388.400 126.704,388.061 125.787,387.600 125.292 C 387.104 124.760,386.800 123.881,386.800 122.979 C 386.800 121.862,386.615 121.477,386.000 121.316 C 385.373 121.152,385.200 120.770,385.200 119.553 C 385.200 118.267,385.063 118.000,384.400 118.000 C 383.736 118.000,383.600 117.733,383.600 116.427 C 383.600 115.205,383.421 114.797,382.800 114.600 C 382.245 114.424,382.000 113.995,382.000 113.197 C 382.000 112.564,381.817 111.934,381.593 111.796 C 381.370 111.658,381.291 111.376,381.419 111.170 C 381.546 110.963,381.369 110.686,381.025 110.554 C 380.681 110.422,380.400 109.903,380.400 109.400 C 380.400 108.897,380.139 108.386,379.821 108.263 C 379.502 108.141,379.043 107.303,378.800 106.400 C 378.557 105.497,378.098 104.659,377.779 104.537 C 377.461 104.414,377.200 103.884,377.200 103.357 C 377.200 102.667,376.977 102.400,376.400 102.400 C 375.751 102.400,375.600 102.133,375.600 100.987 C 375.600 100.145,375.374 99.488,375.039 99.360 C 374.731 99.241,374.366 98.544,374.228 97.811 C 374.091 97.077,373.713 96.376,373.389 96.251 C 373.065 96.127,372.800 95.756,372.800 95.427 C 372.800 95.097,372.440 94.635,372.000 94.400 C 371.476 94.120,371.200 93.562,371.200 92.786 C 371.200 91.890,371.015 91.600,370.445 91.600 C 369.896 91.600,369.616 91.211,369.422 90.179 C 369.276 89.397,368.896 88.658,368.578 88.536 C 368.260 88.414,368.000 87.974,368.000 87.557 C 368.000 87.067,367.718 86.800,367.200 86.800 C 366.667 86.800,366.400 86.533,366.400 86.000 C 366.400 85.560,366.040 84.840,365.600 84.400 C 365.160 83.960,364.800 83.342,364.800 83.027 C 364.800 82.712,364.459 82.346,364.043 82.214 C 363.627 82.082,363.194 81.619,363.081 81.187 C 362.967 80.754,362.588 80.400,362.237 80.400 C 361.652 80.400,361.389 79.494,361.570 78.100 C 361.606 77.825,361.267 77.600,360.818 77.600 C 360.267 77.600,360.000 77.339,360.000 76.800 C 360.000 76.267,359.733 76.000,359.200 76.000 C 358.667 76.000,358.400 75.733,358.400 75.200 C 358.400 74.756,358.133 74.400,357.800 74.400 C 357.470 74.400,357.200 74.124,357.200 73.787 C 357.200 73.451,356.944 73.077,356.631 72.957 C 356.318 72.837,355.780 72.032,355.434 71.169 C 355.089 70.306,354.646 69.600,354.450 69.600 C 354.254 69.600,353.999 69.240,353.884 68.800 C 353.769 68.360,353.400 68.000,353.064 68.000 C 352.729 68.000,352.340 67.640,352.200 67.200 C 352.060 66.760,351.688 66.400,351.373 66.400 C 351.058 66.400,350.800 66.040,350.800 65.600 C 350.800 65.083,350.533 64.800,350.047 64.800 C 349.630 64.800,349.200 64.443,349.084 64.000 C 348.969 63.560,348.588 63.200,348.237 63.200 C 347.867 63.200,347.600 62.865,347.600 62.400 C 347.600 61.867,347.333 61.600,346.800 61.600 C 346.360 61.600,346.000 61.342,346.000 61.027 C 346.000 60.712,345.640 60.340,345.200 60.200 C 344.760 60.060,344.400 59.688,344.400 59.373 C 344.400 59.058,344.040 58.800,343.600 58.800 C 343.067 58.800,342.800 58.533,342.800 58.000 C 342.800 57.556,342.533 57.200,342.200 57.200 C 341.867 57.200,341.600 56.844,341.600 56.400 C 341.600 55.883,341.333 55.600,340.847 55.600 C 340.430 55.600,340.000 55.243,339.884 54.800 C 339.769 54.360,339.388 54.000,339.037 54.000 C 338.667 54.000,338.400 53.665,338.400 53.200 C 338.400 52.667,338.133 52.400,337.600 52.400 C 337.067 52.400,336.800 52.133,336.800 51.600 C 336.800 51.067,336.533 50.800,336.000 50.800 C 335.467 50.800,335.200 50.533,335.200 50.000 C 335.200 49.483,334.933 49.200,334.447 49.200 C 334.030 49.200,333.600 48.843,333.484 48.400 C 333.369 47.960,332.988 47.600,332.637 47.600 C 332.287 47.600,332.000 47.324,332.000 46.987 C 332.000 46.651,331.685 46.254,331.300 46.107 C 330.570 45.827,328.361 44.431,327.019 43.400 C 326.589 43.070,326.094 42.800,325.919 42.800 C 325.743 42.800,325.600 42.530,325.600 42.200 C 325.600 41.867,325.244 41.600,324.800 41.600 C 324.360 41.600,324.021 41.465,324.047 41.300 C 324.187 40.416,323.916 40.000,323.200 40.000 C 322.667 40.000,322.400 39.733,322.400 39.200 C 322.400 38.760,322.265 38.421,322.100 38.447 C 320.636 38.679,319.600 38.328,319.600 37.600 C 319.600 37.083,319.333 36.800,318.847 36.800 C 318.430 36.800,318.000 36.443,317.884 36.000 C 317.769 35.560,317.388 35.200,317.037 35.200 C 316.687 35.200,316.040 34.840,315.600 34.400 C 315.160 33.960,314.440 33.600,314.000 33.600 C 313.467 33.600,313.200 33.333,313.200 32.800 C 313.200 32.213,312.933 32.000,312.200 32.000 C 311.561 32.000,311.200 31.775,311.200 31.376 C 311.200 31.033,311.032 30.856,310.828 30.983 C 310.623 31.109,310.342 31.030,310.204 30.807 C 310.066 30.583,309.603 30.400,309.176 30.400 C 308.747 30.400,308.400 30.127,308.400 29.790 C 308.400 29.431,307.901 29.080,307.186 28.937 C 306.518 28.804,305.792 28.358,305.572 27.947 C 305.352 27.536,304.917 27.200,304.606 27.200 C 304.294 27.200,303.886 26.926,303.698 26.590 C 303.511 26.255,302.791 25.940,302.100 25.890 C 301.290 25.832,300.777 25.551,300.659 25.100 C 300.527 24.597,300.070 24.400,299.037 24.400 C 297.867 24.400,297.600 24.252,297.600 23.600 C 297.600 22.978,297.333 22.800,296.403 22.800 C 295.640 22.800,295.026 22.510,294.707 22.000 C 294.432 21.560,293.891 21.200,293.504 21.200 C 293.117 21.200,292.440 20.840,292.000 20.400 C 291.560 19.960,290.750 19.600,290.200 19.600 C 289.631 19.600,289.243 19.392,289.300 19.118 C 289.355 18.853,289.190 18.628,288.933 18.618 C 288.677 18.608,288.332 18.465,288.167 18.300 C 288.002 18.135,287.369 18.000,286.760 18.000 C 286.005 18.000,285.573 17.746,285.400 17.200 C 285.203 16.579,284.795 16.400,283.573 16.400 C 282.267 16.400,282.000 16.264,282.000 15.600 C 282.000 14.937,281.733 14.800,280.447 14.800 C 279.292 14.800,278.845 14.617,278.707 14.086 C 278.576 13.587,278.069 13.341,277.027 13.271 C 276.207 13.216,275.156 12.817,274.692 12.385 C 274.212 11.938,273.288 11.600,272.544 11.600 C 271.812 11.600,271.095 11.342,270.910 11.011 C 270.572 10.408,269.442 10.082,267.500 10.030 C 266.802 10.011,266.400 9.781,266.400 9.400 C 266.400 8.957,265.937 8.800,264.633 8.800 C 262.486 8.800,261.600 8.496,261.600 7.757 C 261.600 7.343,260.985 7.200,259.200 7.200 C 257.415 7.200,256.800 7.057,256.800 6.643 C 256.800 5.862,255.898 5.600,253.214 5.600 C 251.230 5.600,250.863 5.484,250.684 4.800 C 250.498 4.089,250.138 4.000,247.464 4.000 C 244.878 4.000,244.421 3.895,244.217 3.254 C 244.012 2.609,243.512 2.500,240.490 2.443 C 237.513 2.387,236.919 2.262,236.451 1.589 C 235.953 0.873,235.426 0.800,230.751 0.800 C 227.584 0.800,225.600 0.646,225.600 0.400 C 225.600 0.138,216.800 0.000,200.000 0.000 C 183.200 0.000,174.400 0.138,174.400 0.400 M216.600 13.193 C 217.920 13.415,220.980 13.779,223.400 14.002 C 225.820 14.225,229.060 14.667,230.600 14.985 C 232.140 15.303,234.480 15.751,235.800 15.982 C 241.176 16.919,244.581 17.627,246.342 18.174 C 247.364 18.491,249.550 19.128,251.200 19.589 C 255.580 20.813,259.511 22.022,261.894 22.878 C 263.045 23.292,265.025 24.003,266.294 24.458 C 267.562 24.913,269.140 25.526,269.800 25.819 C 270.460 26.113,273.070 27.247,275.600 28.339 C 280.062 30.266,285.577 32.866,286.800 33.619 C 287.130 33.822,287.940 34.253,288.600 34.578 C 289.991 35.261,296.915 39.212,299.154 40.600 C 316.379 51.275,333.639 66.638,347.332 83.482 C 348.799 85.288,350.000 86.892,350.000 87.049 C 350.000 87.205,350.269 87.618,350.598 87.966 C 352.119 89.578,355.820 94.933,359.924 101.459 C 363.228 106.714,366.737 113.011,367.045 114.236 C 367.179 114.771,367.446 115.305,367.639 115.424 C 367.963 115.624,369.723 119.186,371.383 123.000 C 373.244 127.278,373.691 128.289,374.211 129.400 C 374.520 130.060,374.893 131.140,375.041 131.800 C 375.189 132.460,375.449 133.180,375.618 133.400 C 376.124 134.056,378.852 142.116,380.425 147.600 C 380.899 149.250,381.627 151.693,382.043 153.028 C 382.459 154.364,382.800 155.785,382.800 156.186 C 382.800 156.588,383.154 158.465,383.588 160.358 C 384.867 165.948,385.943 171.926,386.440 176.200 C 386.696 178.400,387.052 181.370,387.232 182.800 C 387.673 186.310,387.655 214.291,387.209 217.800 C 387.013 219.340,386.653 222.220,386.409 224.200 C 386.007 227.461,385.219 231.961,383.992 238.000 C 383.746 239.210,383.314 241.370,383.031 242.800 C 382.748 244.230,382.220 246.261,381.858 247.314 C 381.496 248.367,381.200 249.518,381.200 249.873 C 381.200 250.228,380.863 251.526,380.450 252.759 C 380.038 253.992,379.378 256.080,378.984 257.400 C 378.590 258.720,377.959 260.610,377.583 261.600 C 377.207 262.590,376.404 264.750,375.799 266.400 C 374.483 269.989,373.983 271.223,372.881 273.600 C 372.422 274.590,371.595 276.480,371.044 277.800 C 369.907 280.519,365.709 288.886,364.722 290.400 C 364.363 290.950,363.518 292.390,362.844 293.600 C 362.169 294.810,361.316 296.340,360.948 297.000 C 357.606 302.986,348.521 315.478,342.358 322.561 C 336.038 329.825,322.250 343.112,317.666 346.358 C 316.933 346.877,315.673 347.908,314.866 348.649 C 314.060 349.390,313.260 349.997,313.088 349.998 C 312.917 349.999,311.890 350.701,310.807 351.557 C 306.781 354.739,299.499 359.467,294.000 362.468 C 293.230 362.889,291.880 363.655,291.000 364.171 C 289.348 365.141,278.419 370.631,277.000 371.205 C 276.560 371.382,275.390 371.887,274.400 372.326 C 270.212 374.182,268.672 374.800,268.234 374.800 C 267.978 374.800,267.102 375.140,266.286 375.556 C 265.470 375.972,264.306 376.429,263.701 376.570 C 263.095 376.712,262.060 377.067,261.400 377.361 C 259.535 378.189,255.075 379.600,254.324 379.600 C 253.142 379.600,252.986 379.052,251.817 370.757 C 251.488 368.423,250.945 365.460,250.610 364.173 C 250.274 362.885,250.000 361.234,250.000 360.503 C 250.000 359.772,249.758 358.595,249.463 357.887 C 249.167 357.179,248.803 355.880,248.654 355.000 C 248.363 353.280,247.013 347.887,246.302 345.600 C 246.063 344.830,245.639 343.210,245.359 342.000 C 244.886 339.949,244.142 337.458,243.152 334.600 C 242.923 333.940,242.498 332.500,242.209 331.400 C 241.919 330.300,241.459 328.770,241.186 328.000 C 239.666 323.707,239.380 322.860,238.957 321.400 C 238.702 320.520,238.271 319.170,237.999 318.400 C 237.727 317.630,237.195 316.100,236.817 315.000 C 236.439 313.900,235.900 312.370,235.618 311.600 C 235.337 310.830,234.794 309.300,234.413 308.200 L 233.718 306.200 221.126 306.094 C 206.501 305.972,207.409 305.709,206.736 310.264 C 206.514 311.769,206.061 314.170,205.728 315.600 C 205.396 317.030,204.898 319.370,204.621 320.800 C 203.782 325.141,203.050 327.892,200.680 335.600 C 199.316 340.038,199.326 340.021,198.356 339.662 C 197.663 339.405,197.256 338.503,196.335 335.170 C 195.701 332.877,194.917 330.100,194.592 329.000 C 193.074 323.855,191.541 316.549,190.772 310.800 C 190.087 305.682,191.028 306.000,176.574 306.000 L 164.437 306.000 163.593 307.900 C 163.128 308.945,162.645 310.340,162.518 311.000 C 162.392 311.660,162.058 312.650,161.776 313.200 C 161.226 314.274,160.222 317.208,159.518 319.800 C 159.278 320.680,158.947 321.580,158.781 321.800 C 158.614 322.020,158.274 323.010,158.024 324.000 C 157.774 324.990,157.331 326.430,157.040 327.200 C 156.306 329.138,154.423 335.448,152.386 342.800 C 151.990 344.230,151.288 346.660,150.827 348.200 C 150.366 349.740,149.991 351.319,149.994 351.708 C 149.997 352.098,149.651 353.718,149.225 355.308 C 147.829 360.517,146.054 369.777,145.375 375.400 C 144.962 378.809,145.023 378.737,142.890 378.350 C 141.851 378.162,140.370 377.756,139.600 377.449 C 138.830 377.142,136.850 376.398,135.200 375.796 C 131.235 374.349,128.594 373.308,126.400 372.328 C 125.410 371.885,124.060 371.281,123.400 370.986 C 120.907 369.871,111.335 365.073,109.800 364.169 C 108.920 363.651,107.627 362.906,106.926 362.513 C 104.567 361.192,100.616 358.782,98.355 357.286 C 97.120 356.469,95.320 355.281,94.355 354.647 C 92.196 353.229,83.550 346.782,83.000 346.181 C 82.780 345.940,81.070 344.501,79.200 342.984 C 77.330 341.466,75.425 339.859,74.968 339.412 C 74.510 338.965,72.530 337.052,70.568 335.160 C 62.493 327.376,52.941 316.420,48.282 309.600 C 46.659 307.225,44.758 304.485,43.702 303.000 C 43.077 302.120,41.943 300.355,41.182 299.077 C 40.422 297.799,39.402 296.089,38.916 295.277 C 38.430 294.465,37.759 293.260,37.424 292.600 C 37.090 291.940,36.643 291.130,36.431 290.800 C 35.322 289.075,33.251 285.187,32.997 284.354 C 32.836 283.829,32.478 283.130,32.200 282.800 C 31.922 282.470,31.562 281.750,31.400 281.200 C 31.238 280.650,30.890 279.930,30.627 279.600 C 30.364 279.270,29.632 277.650,28.999 276.000 C 28.367 274.350,27.722 272.820,27.567 272.600 C 27.411 272.380,26.707 270.670,26.001 268.800 C 23.407 261.928,22.273 258.693,21.233 255.200 C 20.742 253.550,19.993 251.120,19.570 249.800 C 19.146 248.480,18.800 247.030,18.800 246.578 C 18.800 246.125,18.462 244.685,18.050 243.378 C 17.346 241.148,16.863 238.754,15.955 233.000 C 15.747 231.680,15.312 229.340,14.990 227.800 C 14.667 226.260,14.219 222.570,13.995 219.600 C 13.772 216.630,13.414 212.580,13.201 210.600 C 12.702 205.957,12.697 193.972,13.192 189.600 C 13.403 187.730,13.771 183.680,14.010 180.600 C 14.248 177.520,14.615 174.343,14.826 173.539 C 15.037 172.736,15.388 170.666,15.605 168.939 C 16.059 165.342,17.024 160.706,18.801 153.600 C 20.171 148.125,20.821 145.807,21.161 145.187 C 21.347 144.850,21.625 143.950,21.779 143.187 C 21.933 142.424,22.429 140.810,22.880 139.600 C 23.332 138.390,23.928 136.770,24.205 136.000 C 25.693 131.870,27.019 128.509,27.441 127.800 C 27.703 127.360,28.047 126.550,28.207 126.000 C 28.503 124.979,32.923 115.488,33.610 114.400 C 33.818 114.070,34.253 113.260,34.578 112.600 C 35.133 111.471,36.387 109.236,39.548 103.743 C 40.289 102.454,41.504 100.545,42.248 99.499 C 42.992 98.454,43.600 97.443,43.600 97.254 C 43.600 97.065,44.158 96.210,44.841 95.355 C 45.523 94.500,46.732 92.810,47.526 91.600 C 48.321 90.390,49.203 89.256,49.486 89.080 C 49.769 88.904,50.000 88.578,50.000 88.356 C 50.000 88.007,54.830 81.797,57.432 78.800 C 63.236 72.115,71.362 63.813,76.000 59.832 C 77.210 58.793,78.560 57.632,79.000 57.251 C 83.959 52.958,93.534 45.834,98.719 42.581 C 100.105 41.711,102.308 40.321,103.614 39.492 C 104.921 38.662,106.398 37.798,106.895 37.571 C 107.393 37.344,108.520 36.724,109.400 36.193 C 111.280 35.057,124.593 28.400,124.983 28.400 C 125.220 28.400,127.412 27.455,131.000 25.806 C 131.660 25.503,132.650 25.140,133.200 25.000 C 133.750 24.860,134.740 24.507,135.400 24.215 C 137.296 23.378,140.741 22.187,144.000 21.242 C 145.650 20.764,148.170 20.033,149.600 19.619 C 151.030 19.205,153.193 18.566,154.407 18.200 C 156.784 17.482,160.374 16.760,166.400 15.788 C 168.490 15.450,170.740 15.008,171.400 14.804 C 172.060 14.600,174.843 14.233,177.584 13.988 C 180.326 13.743,182.719 13.450,182.903 13.337 C 184.329 12.455,211.537 12.339,216.600 13.193 M195.989 35.251 C 191.273 39.497,181.764 49.173,177.400 54.167 C 174.721 57.232,173.948 58.106,172.184 60.056 C 171.515 60.795,169.998 62.660,168.812 64.200 C 167.627 65.740,166.546 67.090,166.411 67.200 C 165.988 67.545,162.693 71.813,160.400 74.986 C 159.190 76.660,157.820 78.518,157.356 79.115 C 156.279 80.501,150.530 89.022,149.760 90.374 C 149.439 90.938,148.866 91.872,148.488 92.448 C 148.110 93.025,147.080 94.698,146.200 96.166 C 145.320 97.635,144.196 99.503,143.703 100.318 C 142.801 101.808,142.326 102.683,140.618 106.000 L 139.691 107.800 140.945 108.446 C 141.635 108.802,142.867 109.214,143.683 109.361 C 144.499 109.509,145.669 109.892,146.283 110.212 C 146.897 110.533,147.709 110.796,148.086 110.798 C 148.463 110.799,149.633 111.096,150.686 111.458 C 151.739 111.820,153.770 112.349,155.200 112.634 C 156.630 112.918,159.058 113.418,160.596 113.745 C 163.961 114.459,164.397 114.220,164.409 111.651 C 164.414 110.633,164.774 109.015,165.209 108.056 C 165.644 107.097,166.000 106.051,166.000 105.732 C 166.000 105.135,167.946 100.758,168.370 100.400 C 168.708 100.116,170.800 96.858,170.800 96.617 C 170.800 96.437,175.667 91.555,177.234 90.163 C 177.582 89.853,178.055 89.600,178.285 89.600 C 178.514 89.600,178.912 89.347,179.168 89.039 C 179.424 88.730,180.661 88.002,181.917 87.422 C 183.173 86.841,184.920 86.013,185.800 85.582 C 186.680 85.151,187.761 84.798,188.201 84.799 C 188.642 84.800,190.261 84.440,191.800 84.000 C 195.133 83.047,200.608 82.952,203.000 83.806 C 203.880 84.121,205.410 84.499,206.400 84.646 C 207.390 84.793,208.827 85.248,209.594 85.657 C 210.361 86.066,211.284 86.400,211.645 86.400 C 212.006 86.400,212.526 86.670,212.800 87.000 C 213.074 87.330,213.491 87.600,213.727 87.600 C 214.951 87.600,223.200 94.197,223.200 95.175 C 223.200 95.362,223.474 95.620,223.810 95.748 C 224.145 95.877,224.554 96.301,224.719 96.691 C 225.306 98.076,226.885 100.400,227.240 100.400 C 227.438 100.400,227.600 100.632,227.600 100.915 C 227.600 101.199,227.950 102.116,228.377 102.954 C 228.804 103.792,229.272 105.046,229.416 105.739 C 229.560 106.433,229.903 107.360,230.176 107.800 C 230.450 108.240,230.794 109.762,230.940 111.182 C 231.086 112.603,231.359 113.919,231.547 114.107 C 232.290 114.850,239.412 113.356,250.200 110.193 C 256.807 108.256,256.615 108.452,254.936 105.360 C 254.351 104.282,253.536 102.770,253.124 102.000 C 252.712 101.230,252.020 100.060,251.586 99.400 C 251.153 98.740,250.521 97.660,250.182 97.000 C 249.254 95.192,241.357 82.882,239.918 81.000 C 239.750 80.780,239.159 80.034,238.606 79.342 C 238.053 78.650,237.600 77.973,237.600 77.836 C 237.600 77.700,236.521 76.196,235.202 74.494 C 233.883 72.792,232.488 70.981,232.102 70.468 C 231.716 69.955,231.185 69.303,230.923 69.019 C 230.661 68.735,229.513 67.270,228.372 65.763 C 227.232 64.256,225.795 62.478,225.181 61.812 C 224.566 61.145,222.822 59.160,221.306 57.400 C 219.789 55.640,217.930 53.488,217.174 52.619 C 215.236 50.388,201.710 36.823,199.886 35.281 C 198.012 33.696,197.719 33.694,195.989 35.251 " stroke="none" fill="#d2565e" fill-rule="evenodd"></path><path id="path1" d="M139.723 108.501 C 138.988 109.638,138.404 110.657,137.949 111.600 C 135.691 116.283,134.400 119.155,134.400 119.496 C 134.400 119.719,134.130 120.126,133.800 120.400 C 133.470 120.674,133.200 121.198,133.200 121.564 C 133.200 121.931,132.840 122.937,132.400 123.800 C 131.960 124.663,131.599 125.556,131.598 125.785 C 131.596 126.013,131.308 126.740,130.958 127.400 C 130.608 128.060,130.084 129.320,129.794 130.200 C 129.504 131.080,128.789 133.060,128.206 134.600 C 127.622 136.140,126.957 138.210,126.726 139.200 C 126.496 140.190,126.157 141.188,125.974 141.417 C 125.790 141.646,125.371 142.996,125.044 144.417 C 124.716 145.838,124.067 148.530,123.601 150.400 C 123.135 152.270,122.572 154.790,122.349 156.000 C 122.126 157.210,121.690 159.370,121.380 160.800 C 121.070 162.230,120.641 165.560,120.425 168.200 C 120.210 170.840,119.823 175.366,119.565 178.257 C 119.211 182.239,119.208 185.394,119.553 191.257 C 119.804 195.516,120.191 202.330,120.413 206.400 C 120.635 210.470,120.986 214.527,121.193 215.416 C 121.400 216.305,121.762 219.077,121.998 221.575 C 122.233 224.074,122.531 226.289,122.660 226.497 C 122.869 226.835,123.685 231.000,124.874 237.800 C 125.105 239.120,125.617 241.370,126.013 242.800 C 126.409 244.230,126.836 246.141,126.963 247.047 C 127.089 247.953,127.463 249.213,127.794 249.847 C 128.124 250.481,128.396 251.409,128.398 251.910 C 128.399 252.410,128.760 253.844,129.200 255.096 C 129.640 256.348,130.006 257.739,130.014 258.186 C 130.021 258.634,130.375 259.720,130.800 260.600 C 131.225 261.480,131.585 262.560,131.600 263.000 C 131.615 263.440,131.975 264.520,132.400 265.400 C 132.825 266.280,133.179 267.316,133.186 267.701 C 133.194 268.087,133.560 269.075,134.000 269.896 C 134.440 270.716,134.800 271.661,134.799 271.994 C 134.798 272.327,135.141 273.320,135.561 274.200 C 137.350 277.954,138.000 279.524,138.000 280.095 C 138.000 280.429,138.270 280.926,138.600 281.200 C 138.930 281.474,139.203 281.901,139.206 282.149 C 139.213 282.725,144.272 292.783,144.960 293.592 C 145.245 293.926,145.581 294.491,145.706 294.847 C 146.096 295.953,147.659 296.056,167.442 296.276 L 186.685 296.490 187.495 295.621 C 188.168 294.898,188.247 294.502,187.962 293.276 C 187.494 291.263,187.524 248.214,187.994 246.178 C 188.200 245.286,188.547 242.673,188.765 240.372 C 188.983 238.072,189.440 235.522,189.781 234.707 C 190.121 233.892,190.400 232.829,190.400 232.344 C 190.400 231.456,192.283 226.372,192.749 226.000 C 192.887 225.890,193.197 225.440,193.438 225.000 C 194.097 223.796,197.141 221.600,198.150 221.600 C 200.364 221.600,205.146 227.339,205.213 230.075 C 205.220 230.364,205.482 230.939,205.796 231.354 C 206.110 231.769,206.488 232.939,206.636 233.954 C 206.783 234.969,207.143 236.272,207.436 236.848 C 207.728 237.425,208.078 239.135,208.213 240.648 C 208.348 242.162,208.743 244.570,209.090 246.000 C 209.625 248.204,209.728 252.192,209.769 272.200 L 209.817 295.800 229.545 295.794 L 249.273 295.788 250.123 294.621 C 251.067 293.325,251.659 292.273,253.345 288.894 C 253.974 287.632,254.650 286.330,254.847 286.000 C 255.044 285.670,255.314 285.130,255.446 284.800 C 255.579 284.470,256.102 283.300,256.609 282.200 C 257.115 281.100,257.906 279.378,258.365 278.374 C 258.824 277.369,259.200 276.266,259.200 275.923 C 259.200 275.579,259.465 275.078,259.789 274.809 C 260.114 274.540,260.496 273.663,260.640 272.860 C 260.784 272.057,261.133 271.130,261.417 270.800 C 261.700 270.470,262.063 269.480,262.223 268.600 C 262.383 267.720,262.758 266.645,263.057 266.211 C 263.356 265.777,263.600 265.050,263.600 264.596 C 263.600 264.141,263.935 263.111,264.345 262.307 C 264.755 261.504,265.214 260.070,265.365 259.123 C 265.517 258.175,265.873 257.040,266.157 256.600 C 266.442 256.160,266.784 254.852,266.919 253.693 C 267.054 252.535,267.442 251.190,267.782 250.704 C 268.122 250.219,268.408 249.187,268.418 248.411 C 268.427 247.635,268.714 246.280,269.056 245.400 C 269.397 244.520,269.845 242.562,270.051 241.050 C 270.257 239.537,270.596 237.982,270.803 237.594 C 271.011 237.205,271.354 235.383,271.565 233.544 C 271.776 231.705,272.206 229.570,272.521 228.800 C 272.836 228.030,273.203 226.038,273.336 224.374 C 273.469 222.709,273.834 220.189,274.148 218.774 C 274.462 217.358,274.832 213.500,274.971 210.200 C 275.110 206.900,275.402 203.480,275.621 202.600 C 276.213 200.210,276.543 178.852,276.053 174.600 C 275.825 172.620,275.443 169.200,275.204 167.000 C 274.965 164.800,274.595 162.100,274.382 161.000 C 274.169 159.900,273.792 157.830,273.545 156.400 C 273.297 154.970,272.758 152.764,272.347 151.498 C 271.936 150.233,271.601 148.793,271.602 148.298 C 271.603 147.804,271.342 146.590,271.021 145.600 C 269.453 140.755,269.122 139.682,268.740 138.200 C 268.513 137.320,268.076 136.060,267.770 135.400 C 267.463 134.740,267.025 133.443,266.795 132.517 C 266.566 131.591,266.203 130.726,265.989 130.593 C 265.775 130.461,265.600 130.041,265.600 129.661 C 265.600 129.280,265.240 128.263,264.800 127.400 C 264.360 126.537,264.000 125.664,264.000 125.459 C 264.000 125.255,263.620 124.258,263.157 123.244 C 262.693 122.230,261.988 120.680,261.591 119.800 C 257.274 110.238,256.033 108.236,254.747 108.761 C 253.856 109.124,249.090 110.555,244.600 111.806 C 241.302 112.725,237.135 113.670,234.847 114.018 C 232.066 114.441,232.201 114.189,231.639 120.000 C 230.995 126.656,228.371 134.018,225.569 137.026 C 225.146 137.480,224.800 138.002,224.800 138.186 C 224.800 140.474,210.771 150.000,207.402 150.000 C 206.906 150.000,205.713 150.294,204.750 150.654 C 202.369 151.544,193.759 151.528,191.250 150.628 C 190.287 150.282,189.047 150.000,188.494 150.000 C 184.724 150.000,173.493 142.431,170.600 137.941 C 170.380 137.599,169.663 136.528,169.008 135.560 C 167.706 133.638,165.629 129.310,165.611 128.480 C 165.605 128.194,165.337 127.451,165.015 126.829 C 164.680 126.180,164.231 123.334,163.962 120.149 C 163.705 117.097,163.438 114.535,163.369 114.455 C 163.244 114.311,160.072 113.603,155.200 112.634 C 153.770 112.349,151.739 111.820,150.686 111.458 C 149.633 111.096,148.463 110.799,148.086 110.798 C 147.709 110.796,146.897 110.533,146.283 110.212 C 145.669 109.892,144.499 109.509,143.683 109.361 C 142.867 109.214,141.715 108.848,141.123 108.548 C 140.269 108.116,139.978 108.106,139.723 108.501 " stroke="none" fill="#e7e7e7" fill-rule="evenodd"></path><path id="path2" d="M188.318 12.794 C 185.523 12.979,183.086 13.223,182.903 13.337 C 182.719 13.450,180.326 13.743,177.584 13.988 C 174.843 14.233,172.060 14.600,171.400 14.804 C 170.740 15.008,168.490 15.450,166.400 15.788 C 160.374 16.760,156.784 17.482,154.407 18.200 C 153.193 18.566,151.030 19.205,149.600 19.619 C 148.170 20.033,145.650 20.764,144.000 21.242 C 140.741 22.187,137.296 23.378,135.400 24.215 C 134.740 24.507,133.750 24.860,133.200 25.000 C 132.650 25.140,131.660 25.503,131.000 25.806 C 127.412 27.455,125.220 28.400,124.983 28.400 C 124.593 28.400,111.280 35.057,109.400 36.193 C 108.520 36.724,107.393 37.344,106.895 37.571 C 106.398 37.798,104.921 38.662,103.614 39.492 C 102.308 40.321,100.105 41.711,98.719 42.581 C 93.534 45.834,83.959 52.958,79.000 57.251 C 78.560 57.632,77.210 58.793,76.000 59.832 C 71.362 63.813,63.236 72.115,57.432 78.800 C 54.830 81.797,50.000 88.007,50.000 88.356 C 50.000 88.578,49.769 88.904,49.486 89.080 C 49.203 89.256,48.321 90.390,47.526 91.600 C 46.732 92.810,45.523 94.500,44.841 95.355 C 44.158 96.210,43.600 97.065,43.600 97.254 C 43.600 97.443,42.992 98.454,42.248 99.499 C 41.504 100.545,40.289 102.454,39.548 103.743 C 36.387 109.236,35.133 111.471,34.578 112.600 C 34.253 113.260,33.818 114.070,33.610 114.400 C 32.923 115.488,28.503 124.979,28.207 126.000 C 28.047 126.550,27.703 127.360,27.441 127.800 C 27.019 128.509,25.693 131.870,24.205 136.000 C 23.928 136.770,23.332 138.390,22.880 139.600 C 22.429 140.810,21.933 142.424,21.779 143.187 C 21.625 143.950,21.347 144.850,21.161 145.187 C 20.821 145.807,20.171 148.125,18.801 153.600 C 17.024 160.706,16.059 165.342,15.605 168.939 C 15.388 170.666,15.037 172.736,14.826 173.539 C 14.615 174.343,14.248 177.520,14.010 180.600 C 13.771 183.680,13.403 187.730,13.192 189.600 C 12.697 193.972,12.702 205.957,13.201 210.600 C 13.414 212.580,13.772 216.630,13.995 219.600 C 14.219 222.570,14.667 226.260,14.990 227.800 C 15.312 229.340,15.747 231.680,15.955 233.000 C 16.863 238.754,17.346 241.148,18.050 243.378 C 18.462 244.685,18.800 246.125,18.800 246.578 C 18.800 247.030,19.146 248.480,19.570 249.800 C 19.993 251.120,20.742 253.550,21.233 255.200 C 22.273 258.693,23.407 261.928,26.001 268.800 C 26.707 270.670,27.411 272.380,27.567 272.600 C 27.722 272.820,28.367 274.350,28.999 276.000 C 29.632 277.650,30.364 279.270,30.627 279.600 C 30.890 279.930,31.238 280.650,31.400 281.200 C 31.562 281.750,31.922 282.470,32.200 282.800 C 32.478 283.130,32.836 283.829,32.997 284.354 C 33.251 285.187,35.322 289.075,36.431 290.800 C 36.643 291.130,37.090 291.940,37.424 292.600 C 37.759 293.260,38.430 294.465,38.916 295.277 C 39.402 296.089,40.422 297.799,41.182 299.077 C 41.943 300.355,43.077 302.120,43.702 303.000 C 44.758 304.485,46.659 307.225,48.282 309.600 C 52.941 316.420,62.493 327.376,70.568 335.160 C 72.530 337.052,74.510 338.965,74.968 339.412 C 75.425 339.859,77.330 341.466,79.200 342.984 C 81.070 344.501,82.780 345.940,83.000 346.181 C 83.550 346.782,92.196 353.229,94.355 354.647 C 95.320 355.281,97.120 356.469,98.355 357.286 C 100.616 358.782,104.567 361.192,106.926 362.513 C 107.627 362.906,108.920 363.651,109.800 364.169 C 111.335 365.073,120.907 369.871,123.400 370.986 C 124.060 371.281,125.410 371.885,126.400 372.328 C 128.594 373.308,131.235 374.349,135.200 375.796 C 136.850 376.398,138.830 377.142,139.600 377.449 C 140.370 377.756,141.851 378.162,142.890 378.350 C 145.023 378.737,144.962 378.809,145.375 375.400 C 146.054 369.777,147.829 360.517,149.225 355.308 C 149.651 353.718,149.997 352.098,149.994 351.708 C 149.991 351.319,150.366 349.740,150.827 348.200 C 151.288 346.660,151.990 344.230,152.386 342.800 C 154.423 335.448,156.306 329.138,157.040 327.200 C 157.331 326.430,157.774 324.990,158.024 324.000 C 158.274 323.010,158.614 322.020,158.781 321.800 C 158.947 321.580,159.278 320.680,159.518 319.800 C 160.222 317.208,161.226 314.274,161.776 313.200 C 162.058 312.650,162.392 311.660,162.518 311.000 C 162.645 310.340,163.128 308.945,163.593 307.900 L 164.437 306.000 176.530 306.000 C 187.089 306.000,188.741 306.083,189.558 306.656 L 190.495 307.312 190.284 305.756 C 190.168 304.900,189.868 302.777,189.618 301.038 C 189.367 299.299,189.273 297.589,189.408 297.238 C 189.542 296.887,189.432 291.020,189.163 284.200 C 188.557 268.879,189.256 240.661,190.292 238.635 C 190.620 237.994,190.979 236.374,191.090 235.035 C 191.201 233.696,191.528 232.221,191.817 231.758 C 192.106 231.296,192.464 230.267,192.613 229.473 C 192.762 228.678,193.135 227.820,193.442 227.565 C 193.749 227.310,194.000 226.880,194.000 226.609 C 194.000 225.472,196.058 223.895,197.799 223.699 C 199.563 223.500,200.022 223.770,201.825 226.065 C 202.588 227.036,204.400 231.132,204.400 231.886 C 204.400 232.291,204.668 233.005,204.996 233.473 C 205.324 233.942,205.762 235.524,205.970 236.990 C 206.178 238.455,206.542 239.889,206.779 240.175 C 207.017 240.461,207.383 243.374,207.594 246.648 C 207.804 249.922,208.161 253.570,208.388 254.755 C 208.940 257.643,208.937 287.743,208.385 289.603 C 208.156 290.371,207.897 293.507,207.809 296.571 C 207.721 299.635,207.524 303.325,207.372 304.771 C 207.098 307.369,207.104 307.392,207.885 306.694 C 208.611 306.047,209.709 305.997,221.197 306.094 L 233.718 306.200 234.413 308.200 C 234.794 309.300,235.337 310.830,235.618 311.600 C 235.900 312.370,236.439 313.900,236.817 315.000 C 237.195 316.100,237.727 317.630,237.999 318.400 C 238.271 319.170,238.702 320.520,238.957 321.400 C 239.380 322.860,239.666 323.707,241.186 328.000 C 241.459 328.770,241.919 330.300,242.209 331.400 C 242.498 332.500,242.923 333.940,243.152 334.600 C 244.142 337.458,244.886 339.949,245.359 342.000 C 245.639 343.210,246.063 344.830,246.302 345.600 C 247.013 347.887,248.363 353.280,248.654 355.000 C 248.803 355.880,249.167 357.179,249.463 357.887 C 249.758 358.595,250.000 359.772,250.000 360.503 C 250.000 361.234,250.274 362.885,250.610 364.173 C 250.945 365.460,251.488 368.423,251.817 370.757 C 252.986 379.052,253.142 379.600,254.324 379.600 C 255.075 379.600,259.535 378.189,261.400 377.361 C 262.060 377.067,263.095 376.712,263.701 376.570 C 264.306 376.429,265.470 375.972,266.286 375.556 C 267.102 375.140,267.978 374.800,268.234 374.800 C 268.672 374.800,270.212 374.182,274.400 372.326 C 275.390 371.887,276.560 371.382,277.000 371.205 C 278.419 370.631,289.348 365.141,291.000 364.171 C 291.880 363.655,293.230 362.889,294.000 362.468 C 299.499 359.467,306.781 354.739,310.807 351.557 C 311.890 350.701,312.917 349.999,313.088 349.998 C 313.260 349.997,314.060 349.390,314.866 348.649 C 315.673 347.908,316.933 346.877,317.666 346.358 C 322.250 343.112,336.038 329.825,342.358 322.561 C 348.521 315.478,357.606 302.986,360.948 297.000 C 361.316 296.340,362.169 294.810,362.844 293.600 C 363.518 292.390,364.363 290.950,364.722 290.400 C 365.709 288.886,369.907 280.519,371.044 277.800 C 371.595 276.480,372.422 274.590,372.881 273.600 C 373.983 271.223,374.483 269.989,375.799 266.400 C 376.404 264.750,377.207 262.590,377.583 261.600 C 377.959 260.610,378.590 258.720,378.984 257.400 C 379.378 256.080,380.038 253.992,380.450 252.759 C 380.863 251.526,381.200 250.228,381.200 249.873 C 381.200 249.518,381.496 248.367,381.858 247.314 C 382.220 246.261,382.748 244.230,383.031 242.800 C 383.314 241.370,383.746 239.210,383.992 238.000 C 385.219 231.961,386.007 227.461,386.409 224.200 C 386.653 222.220,387.013 219.340,387.209 217.800 C 387.655 214.291,387.673 186.310,387.232 182.800 C 387.052 181.370,386.696 178.400,386.440 176.200 C 385.943 171.926,384.867 165.948,383.588 160.358 C 383.154 158.465,382.800 156.588,382.800 156.186 C 382.800 155.785,382.459 154.364,382.043 153.028 C 381.627 151.693,380.899 149.250,380.425 147.600 C 378.852 142.116,376.124 134.056,375.618 133.400 C 375.449 133.180,375.189 132.460,375.041 131.800 C 374.893 131.140,374.520 130.060,374.211 129.400 C 373.691 128.289,373.244 127.278,371.383 123.000 C 369.723 119.186,367.963 115.624,367.639 115.424 C 367.446 115.305,367.179 114.771,367.045 114.236 C 366.737 113.011,363.228 106.714,359.924 101.459 C 355.820 94.933,352.119 89.578,350.598 87.966 C 350.269 87.618,350.000 87.205,350.000 87.049 C 350.000 86.892,348.799 85.288,347.332 83.482 C 333.639 66.638,316.379 51.275,299.154 40.600 C 296.915 39.212,289.991 35.261,288.600 34.578 C 287.940 34.253,287.130 33.822,286.800 33.619 C 285.577 32.866,280.062 30.266,275.600 28.339 C 273.070 27.247,270.460 26.113,269.800 25.819 C 269.140 25.526,267.562 24.913,266.294 24.458 C 265.025 24.003,263.045 23.292,261.894 22.878 C 259.511 22.022,255.580 20.813,251.200 19.589 C 249.550 19.128,247.364 18.491,246.342 18.174 C 244.581 17.627,241.176 16.919,235.800 15.982 C 234.480 15.751,232.140 15.303,230.600 14.985 C 229.060 14.667,225.820 14.225,223.400 14.002 C 220.980 13.779,217.920 13.415,216.600 13.193 C 213.340 12.643,194.591 12.378,188.318 12.794 M199.886 35.281 C 201.710 36.823,215.236 50.388,217.174 52.619 C 217.930 53.488,219.789 55.640,221.306 57.400 C 222.822 59.160,224.566 61.145,225.181 61.812 C 225.795 62.478,227.232 64.256,228.372 65.763 C 229.513 67.270,230.661 68.735,230.923 69.019 C 231.185 69.303,231.716 69.955,232.102 70.468 C 232.488 70.981,233.883 72.792,235.202 74.494 C 236.521 76.196,237.600 77.700,237.600 77.836 C 237.600 77.973,238.053 78.650,238.606 79.342 C 239.159 80.034,239.750 80.780,239.918 81.000 C 241.357 82.882,249.254 95.192,250.182 97.000 C 250.521 97.660,251.153 98.740,251.586 99.400 C 252.020 100.060,252.712 101.230,253.124 102.000 C 253.536 102.770,254.351 104.282,254.936 105.360 C 255.521 106.437,256.000 107.542,256.000 107.814 C 256.000 108.086,256.450 108.603,257.000 108.963 C 257.550 109.324,258.000 109.818,258.000 110.061 C 258.000 110.304,258.827 112.235,259.839 114.352 C 260.850 116.468,261.914 118.740,262.203 119.400 C 262.847 120.872,264.325 124.181,265.062 125.800 C 265.362 126.460,265.774 127.540,265.977 128.200 C 266.180 128.860,266.819 130.660,267.396 132.200 C 267.974 133.740,268.679 135.814,268.963 136.809 C 269.247 137.804,269.679 138.974,269.924 139.409 C 270.168 139.844,270.545 141.010,270.763 142.000 C 271.339 144.626,271.992 147.078,272.846 149.828 C 273.261 151.164,273.600 152.571,273.600 152.955 C 273.600 153.339,273.945 155.216,274.366 157.126 C 274.788 159.037,275.326 162.130,275.561 164.000 C 275.797 165.870,276.159 168.390,276.366 169.600 C 276.830 172.320,276.866 199.888,276.410 204.000 C 276.228 205.650,275.877 208.890,275.631 211.200 C 274.357 223.191,273.641 228.062,272.837 230.211 C 272.588 230.877,272.133 232.857,271.827 234.611 C 270.748 240.786,270.014 244.409,269.459 246.295 C 269.151 247.343,268.670 249.100,268.391 250.200 C 267.921 252.054,267.412 253.910,265.813 259.600 C 265.473 260.810,264.926 262.367,264.597 263.060 C 264.269 263.754,264.000 264.560,264.000 264.853 C 264.000 265.145,263.633 266.330,263.185 267.486 C 262.737 268.642,261.991 270.625,261.529 271.894 C 261.067 273.162,260.454 274.740,260.169 275.400 C 259.883 276.060,259.269 277.500,258.805 278.600 C 258.340 279.700,257.615 281.320,257.194 282.200 C 256.772 283.080,256.240 284.250,256.012 284.800 C 255.169 286.830,251.165 294.099,250.174 295.399 C 248.866 297.114,248.202 297.170,226.287 297.436 L 209.973 297.634 209.432 296.317 C 208.997 295.257,208.967 293.790,209.282 288.800 C 209.844 279.875,209.417 253.033,208.618 247.000 C 207.588 239.226,206.427 233.711,205.413 231.767 C 205.079 231.125,204.804 230.392,204.802 230.137 C 204.797 229.156,202.595 225.489,201.132 224.026 C 192.017 214.912,185.506 245.101,188.024 284.800 C 188.735 296.006,188.729 296.370,187.812 297.041 C 186.867 297.732,153.823 297.885,153.400 297.200 C 153.264 296.980,151.948 296.798,150.476 296.795 C 146.984 296.787,146.094 296.518,145.368 295.249 C 145.038 294.672,144.345 293.480,143.829 292.600 C 142.343 290.070,139.193 283.619,136.994 278.600 C 136.705 277.940,136.003 276.343,135.434 275.052 C 134.865 273.760,134.400 272.527,134.400 272.312 C 134.400 272.097,134.149 271.354,133.843 270.660 C 133.537 269.967,133.022 268.590,132.700 267.600 C 132.378 266.610,131.551 264.090,130.862 262.000 C 128.888 256.007,128.492 254.695,128.207 253.200 C 128.059 252.430,127.698 251.080,127.404 250.200 C 126.684 248.045,125.615 243.614,124.992 240.200 C 124.148 235.579,122.858 230.056,122.439 229.273 C 122.223 228.869,121.932 227.112,121.793 225.369 C 121.654 223.626,121.287 220.850,120.978 219.200 C 120.668 217.550,120.232 213.320,120.008 209.800 C 119.784 206.280,119.424 202.230,119.208 200.800 C 118.580 196.633,118.695 174.673,119.365 170.944 C 119.676 169.215,120.038 166.360,120.170 164.600 C 120.302 162.840,120.676 160.410,121.001 159.200 C 121.325 157.990,121.593 156.416,121.595 155.702 C 121.598 154.987,121.943 153.367,122.363 152.102 C 122.783 150.836,123.231 149.059,123.360 148.153 C 123.488 147.247,123.863 145.987,124.194 145.353 C 124.524 144.719,124.796 143.725,124.798 143.144 C 124.799 142.563,125.156 141.303,125.591 140.344 C 126.026 139.385,126.392 138.240,126.405 137.800 C 126.417 137.360,126.775 136.280,127.200 135.400 C 127.625 134.520,127.980 133.530,127.989 133.200 C 127.998 132.870,128.274 132.084,128.602 131.454 C 128.931 130.824,129.200 130.097,129.200 129.839 C 129.200 129.581,129.560 128.663,130.000 127.800 C 130.440 126.937,130.800 126.056,130.800 125.842 C 130.800 125.628,131.160 124.676,131.600 123.726 C 132.040 122.777,132.741 121.235,133.158 120.300 C 135.306 115.486,138.194 109.666,138.948 108.634 C 139.723 107.572,140.316 106.539,142.175 103.000 C 142.522 102.340,143.209 101.133,143.703 100.318 C 144.196 99.503,145.320 97.635,146.200 96.166 C 147.080 94.698,148.110 93.025,148.488 92.448 C 148.866 91.872,149.439 90.938,149.760 90.374 C 150.530 89.022,156.279 80.501,157.356 79.115 C 157.820 78.518,159.190 76.660,160.400 74.986 C 162.693 71.813,165.988 67.545,166.411 67.200 C 166.546 67.090,167.627 65.740,168.812 64.200 C 169.998 62.660,171.515 60.795,172.184 60.056 C 173.948 58.106,174.721 57.232,177.400 54.167 C 184.061 46.546,196.798 34.000,197.875 34.000 C 198.149 34.000,199.053 34.576,199.886 35.281 M191.800 84.000 C 190.480 84.404,189.782 84.750,190.250 84.767 C 190.717 84.785,191.865 84.530,192.800 84.200 C 193.785 83.853,195.890 83.600,197.801 83.600 C 199.831 83.600,201.656 83.831,202.538 84.200 C 203.328 84.530,204.475 84.779,205.087 84.754 C 205.911 84.719,205.992 84.658,205.400 84.520 C 204.960 84.417,203.829 84.077,202.886 83.766 C 200.476 82.970,194.770 83.091,191.800 84.000 M185.800 85.627 C 184.993 86.144,184.821 86.396,185.276 86.398 C 185.648 86.399,186.072 86.207,186.217 85.972 C 186.363 85.737,186.868 85.388,187.341 85.197 C 187.813 85.007,187.930 84.852,187.600 84.855 C 187.270 84.857,186.460 85.204,185.800 85.627 M208.800 85.611 C 208.800 85.958,210.353 86.581,210.601 86.332 C 210.678 86.255,210.305 85.985,209.771 85.733 C 209.237 85.481,208.800 85.426,208.800 85.611 M182.200 87.227 C 181.540 87.650,181.205 87.997,181.456 87.998 C 181.706 87.999,182.336 87.646,182.856 87.213 C 184.045 86.223,183.759 86.229,182.200 87.227 M212.400 87.200 C 212.907 87.640,213.610 87.989,213.961 87.975 C 214.398 87.957,214.328 87.840,213.741 87.603 C 213.268 87.412,212.763 87.063,212.617 86.828 C 212.472 86.593,212.156 86.400,211.915 86.400 C 211.675 86.400,211.893 86.760,212.400 87.200 M216.000 89.219 C 217.582 90.617,219.052 91.532,218.638 90.861 C 218.496 90.631,217.529 89.889,216.490 89.212 L 214.600 87.982 216.000 89.219 M177.187 90.187 C 176.864 90.509,175.610 91.706,174.400 92.846 C 173.190 93.986,172.470 94.766,172.800 94.580 C 173.130 94.393,174.030 93.646,174.800 92.919 C 175.570 92.193,176.740 91.154,177.400 90.612 C 178.060 90.069,178.414 89.620,178.187 89.613 C 177.960 89.606,177.510 89.864,177.187 90.187 M222.832 94.754 C 222.814 95.059,223.250 95.725,223.800 96.235 C 224.350 96.745,224.800 97.001,224.800 96.804 C 224.800 96.607,224.468 96.210,224.063 95.923 C 223.658 95.635,223.222 95.130,223.095 94.800 C 222.916 94.336,222.856 94.325,222.832 94.754 M169.806 98.288 L 169.104 99.400 170.030 98.511 C 170.539 98.022,170.855 97.522,170.732 97.399 C 170.609 97.276,170.192 97.676,169.806 98.288 M226.000 99.538 C 226.000 99.724,226.360 100.202,226.800 100.600 C 227.240 100.998,227.600 101.206,227.600 101.062 C 227.600 100.918,227.240 100.440,226.800 100.000 C 226.360 99.560,226.000 99.352,226.000 99.538 M168.293 100.508 C 167.912 100.978,167.600 101.530,167.600 101.735 C 167.600 101.940,167.981 101.624,168.446 101.033 C 168.911 100.442,169.223 99.889,169.139 99.806 C 169.055 99.722,168.675 100.038,168.293 100.508 M227.783 102.400 C 227.896 102.950,227.992 103.516,227.995 103.657 C 227.998 103.799,228.295 104.028,228.657 104.166 C 229.167 104.362,229.215 104.300,228.873 103.888 C 228.630 103.596,228.240 102.917,228.005 102.378 L 227.577 101.400 227.783 102.400 M166.871 103.235 C 166.581 103.699,166.421 104.155,166.515 104.249 C 166.793 104.526,167.688 103.264,167.537 102.810 C 167.460 102.580,167.160 102.771,166.871 103.235 M229.239 106.400 C 229.220 106.950,229.563 107.940,230.000 108.600 C 230.542 109.418,230.796 109.585,230.797 109.124 C 230.799 108.752,230.623 108.338,230.406 108.204 C 230.190 108.070,229.846 107.384,229.642 106.680 C 229.312 105.539,229.269 105.508,229.239 106.400 M165.270 107.806 C 164.995 108.410,164.852 108.986,164.953 109.086 C 165.224 109.358,166.075 107.624,165.911 107.132 C 165.833 106.900,165.545 107.203,165.270 107.806 M164.509 111.200 C 164.509 112.190,164.587 112.595,164.682 112.100 C 164.778 111.605,164.778 110.795,164.682 110.300 C 164.587 109.805,164.509 110.210,164.509 111.200 M277.064 231.144 C 283.023 235.895,288.826 242.884,291.923 249.038 C 295.236 255.623,296.999 260.680,298.604 268.200 C 298.886 269.520,299.308 271.500,299.542 272.600 C 299.955 274.539,300.431 277.787,301.213 284.000 C 302.790 296.542,303.304 320.961,302.261 333.856 C 301.636 341.584,301.429 341.896,298.631 339.307 C 297.498 338.258,295.947 336.852,295.185 336.182 C 294.423 335.512,292.000 333.369,289.800 331.421 C 286.126 328.167,282.059 324.588,279.776 322.600 C 279.271 322.160,277.540 320.609,275.929 319.154 C 271.618 315.260,268.482 312.475,265.620 310.000 C 264.222 308.790,262.880 307.612,262.639 307.382 C 261.475 306.272,254.435 300.045,253.200 299.034 C 251.024 297.251,250.597 296.492,251.313 295.676 C 251.639 295.304,252.041 294.550,252.207 294.000 C 252.372 293.450,252.626 292.910,252.771 292.800 C 252.916 292.690,253.561 291.520,254.204 290.200 C 254.848 288.880,255.695 287.371,256.087 286.846 C 256.479 286.321,256.800 285.581,256.800 285.200 C 256.800 284.819,257.160 284.050,257.600 283.491 C 258.040 282.931,258.400 282.026,258.400 281.480 C 258.400 280.933,258.667 280.383,258.993 280.258 C 259.319 280.133,259.702 279.304,259.844 278.415 C 259.986 277.527,260.252 276.800,260.435 276.800 C 260.618 276.800,260.988 276.035,261.258 275.100 C 261.527 274.165,261.985 273.045,262.274 272.611 C 262.563 272.177,262.800 271.454,262.800 271.005 C 262.800 270.556,263.136 269.561,263.547 268.794 C 263.957 268.027,264.431 266.773,264.599 266.006 C 264.767 265.239,265.134 264.249,265.414 263.806 C 265.694 263.363,266.053 262.190,266.212 261.200 C 266.370 260.210,266.748 259.045,267.050 258.611 C 267.353 258.177,267.600 257.231,267.600 256.510 C 267.600 255.788,267.960 254.525,268.400 253.704 C 268.840 252.884,269.206 251.579,269.214 250.806 C 269.221 250.033,269.575 248.680,270.000 247.800 C 270.425 246.920,270.779 245.336,270.786 244.280 C 270.794 243.224,271.084 241.811,271.431 241.140 C 271.778 240.468,272.206 238.542,272.381 236.860 C 272.557 235.177,272.890 233.350,273.123 232.800 C 273.355 232.250,273.651 231.305,273.780 230.700 C 274.096 229.222,274.768 229.313,277.064 231.144 M123.177 236.411 C 123.190 237.187,123.451 238.181,123.758 238.619 C 124.065 239.058,124.444 240.673,124.600 242.208 C 124.756 243.744,125.106 245.360,125.379 245.800 C 125.652 246.240,125.999 247.672,126.151 248.983 C 126.302 250.294,126.666 251.644,126.960 251.983 C 127.253 252.322,127.601 253.570,127.734 254.755 C 127.867 255.940,128.228 257.200,128.537 257.555 C 128.846 257.910,129.190 259.062,129.302 260.116 C 129.414 261.170,129.797 262.354,130.153 262.748 C 130.509 263.141,130.801 263.989,130.803 264.631 C 130.804 265.274,131.163 266.340,131.600 267.000 C 132.037 267.660,132.397 268.650,132.400 269.200 C 132.403 269.750,132.763 270.740,133.200 271.400 C 133.637 272.060,133.996 273.073,133.997 273.651 C 133.999 274.229,134.258 274.917,134.574 275.179 C 134.890 275.441,135.273 276.228,135.424 276.928 C 135.576 277.627,136.016 278.830,136.401 279.600 C 137.255 281.304,138.667 284.381,138.972 285.200 C 139.094 285.530,139.376 286.070,139.598 286.400 C 139.819 286.730,140.185 287.450,140.410 288.000 C 140.635 288.550,141.252 289.720,141.782 290.600 C 142.312 291.480,143.021 292.791,143.358 293.514 C 143.695 294.237,144.240 295.097,144.568 295.426 C 145.366 296.223,145.002 297.115,143.194 298.800 C 141.946 299.963,132.923 308.418,131.440 309.815 C 131.198 310.043,129.116 311.933,126.813 314.015 C 124.511 316.097,122.171 318.261,121.613 318.825 C 120.747 319.702,114.598 325.398,107.415 331.981 C 106.323 332.981,104.350 334.790,103.032 336.000 C 101.713 337.210,100.065 338.785,99.370 339.500 C 96.748 342.196,96.488 341.319,96.174 328.708 C 95.892 317.386,96.764 295.628,97.758 289.200 C 98.081 287.110,98.534 283.960,98.766 282.200 C 99.684 275.230,101.110 268.304,102.595 263.600 C 104.579 257.316,105.248 255.500,106.796 252.200 C 108.174 249.262,112.304 242.412,113.187 241.600 C 113.307 241.490,113.898 240.737,114.502 239.927 C 116.001 237.915,120.781 233.095,121.783 232.584 C 122.681 232.126,123.127 233.352,123.177 236.411 " stroke="none" fill="#646b83" fill-rule="evenodd"></path><path id="path3" d="M196.428 223.889 C 195.618 224.208,194.000 226.022,194.000 226.609 C 194.000 226.880,193.749 227.310,193.442 227.565 C 193.135 227.820,192.762 228.678,192.613 229.473 C 192.464 230.267,192.106 231.296,191.817 231.758 C 191.528 232.221,191.201 233.696,191.090 235.035 C 190.979 236.374,190.620 237.994,190.292 238.635 C 189.261 240.653,188.556 268.886,189.158 284.040 C 189.426 290.772,189.542 296.712,189.415 297.240 C 189.289 297.768,189.370 299.460,189.595 301.000 C 189.821 302.540,190.183 305.510,190.401 307.600 C 190.834 311.768,192.099 318.952,193.006 322.400 C 193.843 325.581,194.753 329.077,195.400 331.600 C 197.291 338.968,197.561 339.600,198.817 339.600 C 199.310 339.600,199.617 339.190,199.791 338.300 C 199.931 337.585,200.370 336.010,200.768 334.800 C 202.610 329.190,203.712 325.039,204.591 320.400 C 204.903 318.750,205.341 316.860,205.563 316.200 C 205.938 315.088,206.260 313.082,207.235 305.800 C 207.441 304.260,207.691 300.300,207.791 297.000 C 207.890 293.700,208.158 290.371,208.386 289.603 C 208.938 287.741,208.939 257.638,208.388 254.755 C 208.161 253.570,207.804 249.922,207.594 246.648 C 207.383 243.374,207.017 240.461,206.779 240.175 C 206.542 239.889,206.178 238.455,205.970 236.990 C 205.762 235.524,205.324 233.942,204.996 233.473 C 204.668 233.005,204.400 232.291,204.400 231.886 C 204.400 231.132,202.588 227.036,201.825 226.065 C 199.940 223.666,198.482 223.078,196.428 223.889 M273.780 230.700 C 273.651 231.305,273.355 232.250,273.123 232.800 C 272.890 233.350,272.557 235.177,272.381 236.860 C 272.206 238.542,271.778 240.468,271.431 241.140 C 271.084 241.811,270.794 243.224,270.786 244.280 C 270.779 245.336,270.425 246.920,270.000 247.800 C 269.575 248.680,269.221 250.033,269.214 250.806 C 269.206 251.579,268.840 252.884,268.400 253.704 C 267.960 254.525,267.600 255.788,267.600 256.510 C 267.600 257.231,267.353 258.177,267.050 258.611 C 266.748 259.045,266.370 260.210,266.212 261.200 C 266.053 262.190,265.694 263.363,265.414 263.806 C 265.134 264.249,264.767 265.239,264.599 266.006 C 264.431 266.773,263.957 268.027,263.547 268.794 C 263.136 269.561,262.800 270.556,262.800 271.005 C 262.800 271.454,262.563 272.177,262.274 272.611 C 261.985 273.045,261.527 274.165,261.258 275.100 C 260.988 276.035,260.618 276.800,260.435 276.800 C 260.252 276.800,259.986 277.527,259.844 278.415 C 259.702 279.304,259.319 280.133,258.993 280.258 C 258.667 280.383,258.400 280.933,258.400 281.480 C 258.400 282.026,258.040 282.931,257.600 283.491 C 257.160 284.050,256.800 284.819,256.800 285.200 C 256.800 285.581,256.479 286.321,256.087 286.846 C 255.695 287.371,254.848 288.880,254.204 290.200 C 253.561 291.520,252.916 292.690,252.771 292.800 C 252.626 292.910,252.372 293.450,252.207 294.000 C 252.041 294.550,251.639 295.304,251.313 295.676 C 250.597 296.492,251.024 297.251,253.200 299.034 C 254.435 300.045,261.475 306.272,262.639 307.382 C 262.880 307.612,264.222 308.790,265.620 310.000 C 268.482 312.475,271.618 315.260,275.929 319.154 C 277.540 320.609,279.271 322.160,279.776 322.600 C 282.059 324.588,286.126 328.167,289.800 331.421 C 292.000 333.369,294.423 335.512,295.185 336.182 C 295.947 336.852,297.498 338.258,298.631 339.307 C 301.429 341.896,301.636 341.584,302.261 333.856 C 303.304 320.961,302.790 296.542,301.213 284.000 C 300.431 277.787,299.955 274.539,299.542 272.600 C 299.308 271.500,298.886 269.520,298.604 268.200 C 295.558 253.928,290.241 243.673,281.411 235.044 C 276.087 229.840,274.194 228.763,273.780 230.700 M121.783 232.584 C 120.781 233.095,116.001 237.915,114.502 239.927 C 113.898 240.737,113.307 241.490,113.187 241.600 C 108.386 246.016,102.142 262.108,99.607 276.600 C 99.377 277.920,98.998 280.440,98.766 282.200 C 98.534 283.960,98.081 287.110,97.758 289.200 C 96.764 295.628,95.892 317.386,96.174 328.708 C 96.488 341.319,96.748 342.196,99.370 339.500 C 100.065 338.785,101.713 337.210,103.032 336.000 C 104.350 334.790,106.323 332.981,107.415 331.981 C 114.598 325.398,120.747 319.702,121.613 318.825 C 122.171 318.261,124.511 316.097,126.813 314.015 C 129.116 311.933,131.198 310.043,131.440 309.815 C 132.923 308.418,141.946 299.963,143.194 298.800 C 145.002 297.115,145.366 296.223,144.568 295.426 C 144.240 295.097,143.695 294.237,143.358 293.514 C 143.021 292.791,142.312 291.480,141.782 290.600 C 141.252 289.720,140.635 288.550,140.410 288.000 C 140.185 287.450,139.819 286.730,139.598 286.400 C 139.376 286.070,139.094 285.530,138.972 285.200 C 138.667 284.381,137.255 281.304,136.401 279.600 C 136.016 278.830,135.576 277.627,135.424 276.928 C 135.273 276.228,134.890 275.441,134.574 275.179 C 134.258 274.917,133.999 274.229,133.997 273.651 C 133.996 273.073,133.637 272.060,133.200 271.400 C 132.763 270.740,132.403 269.750,132.400 269.200 C 132.397 268.650,132.037 267.660,131.600 267.000 C 131.163 266.340,130.804 265.274,130.803 264.631 C 130.801 263.989,130.509 263.141,130.153 262.748 C 129.797 262.354,129.414 261.170,129.302 260.116 C 129.190 259.062,128.846 257.910,128.537 257.555 C 128.228 257.200,127.867 255.940,127.734 254.755 C 127.601 253.570,127.253 252.322,126.960 251.983 C 126.666 251.644,126.302 250.294,126.151 248.983 C 125.999 247.672,125.652 246.240,125.379 245.800 C 125.106 245.360,124.756 243.744,124.600 242.208 C 124.444 240.673,124.065 239.058,123.758 238.619 C 123.451 238.181,123.190 237.187,123.177 236.411 C 123.127 233.352,122.681 232.126,121.783 232.584 " stroke="none" fill="#444444" fill-rule="evenodd"></path><path id="path4" d="M193.200 84.064 C 192.650 84.291,191.062 84.624,189.670 84.803 C 188.279 84.983,186.825 85.416,186.439 85.765 C 186.053 86.114,185.330 86.400,184.832 86.400 C 184.334 86.400,183.469 86.760,182.909 87.200 C 182.350 87.640,181.596 88.000,181.235 88.000 C 180.874 88.000,180.285 88.315,179.928 88.700 C 179.570 89.085,178.612 89.850,177.797 90.400 C 175.880 91.695,170.800 96.775,170.800 97.397 C 170.800 97.660,170.440 98.202,170.000 98.600 C 169.560 98.998,169.200 99.493,169.200 99.699 C 169.200 99.905,168.840 100.531,168.400 101.091 C 167.960 101.650,167.600 102.422,167.600 102.805 C 167.600 103.188,167.344 103.714,167.031 103.974 C 166.718 104.234,166.341 105.201,166.193 106.123 C 166.044 107.045,165.670 108.199,165.362 108.686 C 165.053 109.173,164.800 110.258,164.800 111.097 C 164.800 111.936,164.504 113.045,164.142 113.562 C 163.331 114.720,163.994 124.855,165.010 126.819 C 165.334 127.447,165.605 128.194,165.611 128.480 C 165.629 129.310,167.706 133.638,169.008 135.560 C 169.663 136.528,170.380 137.599,170.600 137.941 C 173.493 142.431,184.724 150.000,188.494 150.000 C 189.047 150.000,190.287 150.282,191.250 150.628 C 193.759 151.528,202.369 151.544,204.750 150.654 C 205.713 150.294,206.906 150.000,207.402 150.000 C 210.771 150.000,224.800 140.474,224.800 138.186 C 224.800 138.002,225.146 137.480,225.569 137.026 C 229.442 132.868,233.927 115.546,231.521 114.043 C 230.992 113.713,230.799 113.088,230.797 111.697 C 230.796 110.477,230.511 109.372,230.000 108.600 C 229.561 107.937,229.204 106.723,229.203 105.887 C 229.201 104.926,228.985 104.292,228.611 104.149 C 228.287 104.024,227.909 103.322,227.771 102.588 C 227.633 101.853,227.179 100.943,226.760 100.564 C 226.342 100.186,226.000 99.634,226.000 99.338 C 226.000 99.042,225.811 98.800,225.579 98.800 C 225.348 98.800,224.969 98.256,224.737 97.592 C 224.505 96.927,223.975 96.201,223.558 95.977 C 223.141 95.754,222.800 95.308,222.800 94.986 C 222.800 94.664,222.542 94.400,222.227 94.400 C 221.912 94.400,221.548 94.085,221.419 93.700 C 221.289 93.315,220.545 92.550,219.765 92.000 C 218.985 91.450,217.464 90.325,216.385 89.500 C 215.306 88.675,214.176 88.000,213.873 88.000 C 213.570 88.000,212.907 87.640,212.400 87.200 C 211.893 86.760,211.068 86.400,210.567 86.400 C 210.067 86.400,209.383 86.126,209.049 85.792 C 208.714 85.457,207.197 85.027,205.677 84.836 C 204.158 84.645,202.540 84.289,202.083 84.045 C 201.049 83.491,194.553 83.505,193.200 84.064 M138.479 109.300 C 137.745 110.513,134.888 116.419,133.158 120.300 C 132.741 121.235,132.040 122.777,131.600 123.726 C 131.160 124.676,130.800 125.628,130.800 125.842 C 130.800 126.056,130.440 126.937,130.000 127.800 C 129.560 128.663,129.200 129.581,129.200 129.839 C 129.200 130.097,128.931 130.824,128.602 131.454 C 128.274 132.084,127.998 132.870,127.989 133.200 C 127.980 133.530,127.625 134.520,127.200 135.400 C 126.775 136.280,126.417 137.360,126.405 137.800 C 126.392 138.240,126.026 139.385,125.591 140.344 C 125.156 141.303,124.799 142.563,124.798 143.144 C 124.796 143.725,124.524 144.719,124.194 145.353 C 123.863 145.987,123.488 147.247,123.360 148.153 C 123.231 149.059,122.783 150.836,122.363 152.102 C 121.943 153.367,121.598 154.987,121.595 155.702 C 121.593 156.416,121.325 157.990,121.001 159.200 C 120.676 160.410,120.302 162.840,120.170 164.600 C 120.038 166.360,119.676 169.215,119.365 170.944 C 118.695 174.673,118.580 196.633,119.208 200.800 C 119.424 202.230,119.784 206.280,120.008 209.800 C 120.232 213.320,120.668 217.550,120.978 219.200 C 121.287 220.850,121.654 223.626,121.793 225.369 C 121.932 227.112,122.223 228.869,122.439 229.273 C 122.803 229.952,124.084 235.240,124.797 239.000 C 125.061 240.393,125.105 240.445,125.140 239.400 C 125.163 238.740,124.992 237.480,124.762 236.600 C 124.532 235.720,124.017 233.172,123.618 230.937 C 123.220 228.703,122.788 226.704,122.660 226.497 C 122.531 226.289,122.233 224.074,121.998 221.575 C 121.762 219.077,121.400 216.305,121.193 215.416 C 120.986 214.527,120.635 210.470,120.413 206.400 C 120.191 202.330,119.804 195.516,119.553 191.257 C 119.208 185.394,119.211 182.239,119.565 178.257 C 119.823 175.366,120.210 170.840,120.425 168.200 C 120.641 165.560,121.070 162.230,121.380 160.800 C 121.690 159.370,122.126 157.210,122.349 156.000 C 122.572 154.790,123.135 152.270,123.601 150.400 C 124.067 148.530,124.716 145.838,125.044 144.417 C 125.371 142.996,125.790 141.646,125.974 141.417 C 126.157 141.188,126.496 140.190,126.726 139.200 C 126.957 138.210,127.622 136.140,128.206 134.600 C 128.789 133.060,129.504 131.080,129.794 130.200 C 130.084 129.320,130.608 128.060,130.958 127.400 C 131.308 126.740,131.596 126.013,131.598 125.785 C 131.599 125.556,131.960 124.663,132.400 123.800 C 132.840 122.937,133.200 121.931,133.200 121.564 C 133.200 121.198,133.470 120.674,133.800 120.400 C 134.130 120.126,134.400 119.719,134.400 119.496 C 134.400 119.273,135.090 117.630,135.934 115.845 C 136.777 114.060,137.679 112.150,137.937 111.600 C 138.195 111.050,138.761 110.015,139.195 109.300 C 139.629 108.585,139.822 108.000,139.624 108.000 C 139.427 108.000,138.911 108.585,138.479 109.300 M256.000 108.762 C 256.000 108.977,256.165 109.255,256.367 109.380 C 256.692 109.580,259.562 115.306,261.591 119.800 C 261.988 120.680,262.693 122.230,263.157 123.244 C 263.620 124.258,264.000 125.255,264.000 125.459 C 264.000 125.664,264.360 126.537,264.800 127.400 C 265.240 128.263,265.600 129.280,265.600 129.661 C 265.600 130.041,265.775 130.461,265.989 130.593 C 266.203 130.726,266.566 131.591,266.795 132.517 C 267.025 133.443,267.463 134.740,267.770 135.400 C 268.076 136.060,268.513 137.320,268.740 138.200 C 269.122 139.682,269.453 140.755,271.021 145.600 C 271.342 146.590,271.603 147.804,271.602 148.298 C 271.601 148.793,271.936 150.233,272.347 151.498 C 272.758 152.764,273.297 154.970,273.545 156.400 C 273.792 157.830,274.169 159.900,274.382 161.000 C 274.595 162.100,274.965 164.800,275.204 167.000 C 275.443 169.200,275.825 172.620,276.053 174.600 C 276.543 178.852,276.213 200.210,275.621 202.600 C 275.402 203.480,275.110 206.900,274.971 210.200 C 274.832 213.500,274.462 217.358,274.148 218.774 C 273.834 220.189,273.469 222.709,273.336 224.374 C 273.203 226.038,272.836 228.030,272.521 228.800 C 272.206 229.570,271.776 231.705,271.565 233.544 C 271.354 235.383,271.011 237.205,270.803 237.594 C 270.596 237.982,270.257 239.537,270.051 241.050 C 269.845 242.562,269.397 244.520,269.056 245.400 C 268.714 246.280,268.427 247.635,268.418 248.411 C 268.408 249.187,268.122 250.219,267.782 250.704 C 267.442 251.190,267.079 252.535,266.975 253.693 L 266.785 255.800 267.336 254.000 C 267.639 253.010,268.115 251.300,268.393 250.200 C 268.671 249.100,269.151 247.343,269.459 246.295 C 270.014 244.409,270.748 240.786,271.827 234.611 C 272.133 232.857,272.588 230.877,272.837 230.211 C 273.641 228.062,274.357 223.191,275.631 211.200 C 275.877 208.890,276.228 205.650,276.410 204.000 C 276.866 199.888,276.830 172.320,276.366 169.600 C 276.159 168.390,275.797 165.870,275.561 164.000 C 275.326 162.130,274.788 159.037,274.366 157.126 C 273.945 155.216,273.600 153.339,273.600 152.955 C 273.600 152.571,273.261 151.164,272.846 149.828 C 271.992 147.078,271.339 144.626,270.763 142.000 C 270.545 141.010,270.168 139.844,269.924 139.409 C 269.679 138.974,269.247 137.804,268.963 136.809 C 268.679 135.814,267.974 133.740,267.396 132.200 C 266.819 130.660,266.180 128.860,265.977 128.200 C 265.774 127.540,265.362 126.460,265.062 125.800 C 264.251 124.017,262.800 120.765,262.206 119.400 C 261.919 118.740,260.954 116.670,260.060 114.800 C 259.167 112.930,258.257 110.916,258.037 110.324 C 257.640 109.253,256.000 107.996,256.000 108.762 M195.569 222.900 C 194.638 223.615,193.679 224.560,193.438 225.000 C 193.197 225.440,192.887 225.890,192.749 226.000 C 192.224 226.419,190.402 231.507,190.446 232.431 C 190.485 233.246,190.522 233.273,190.679 232.600 C 192.072 226.611,195.797 221.766,198.595 222.301 C 200.451 222.656,204.753 228.077,204.814 230.137 C 204.821 230.392,205.175 231.320,205.600 232.200 C 206.025 233.080,206.379 234.199,206.386 234.686 C 206.394 235.173,206.674 236.380,207.009 237.367 C 207.826 239.774,208.826 247.729,209.175 254.600 L 209.460 260.200 209.530 254.184 C 209.577 250.181,209.416 247.437,209.049 245.984 C 208.747 244.783,208.384 242.481,208.244 240.869 C 208.103 239.257,207.745 237.457,207.446 236.869 C 207.148 236.281,206.783 234.969,206.636 233.954 C 206.488 232.939,206.110 231.769,205.796 231.354 C 205.482 230.939,205.220 230.364,205.213 230.075 C 205.188 229.071,203.222 225.392,202.073 224.200 C 199.175 221.194,198.077 220.974,195.569 222.900 M189.672 234.883 C 189.389 235.607,189.086 237.550,189.000 239.200 C 188.849 242.117,188.853 242.134,189.155 239.800 C 189.326 238.480,189.690 236.723,189.965 235.897 C 190.602 233.979,190.358 233.133,189.672 234.883 M125.388 242.000 C 125.759 244.524,126.746 247.577,126.747 246.200 C 126.747 245.540,126.395 244.010,125.965 242.800 C 125.369 241.123,125.232 240.933,125.388 242.000 M188.085 245.522 C 187.818 247.219,187.636 251.215,187.680 254.403 C 187.725 257.591,187.805 258.760,187.860 257.000 C 187.914 255.240,188.173 251.320,188.436 248.290 C 188.971 242.108,188.816 240.880,188.085 245.522 M126.832 248.113 C 126.814 248.505,127.042 249.405,127.337 250.113 C 127.633 250.821,128.005 252.120,128.166 253.000 C 128.461 254.625,128.694 255.404,130.791 261.800 C 132.526 267.092,133.164 268.702,133.169 267.800 C 133.171 267.360,132.825 266.280,132.400 265.400 C 131.975 264.520,131.615 263.440,131.600 263.000 C 131.585 262.560,131.225 261.480,130.800 260.600 C 130.375 259.720,130.021 258.634,130.014 258.186 C 130.006 257.739,129.640 256.348,129.200 255.096 C 128.760 253.844,128.400 252.438,128.400 251.970 C 128.400 251.503,128.146 250.554,127.836 249.860 C 127.526 249.167,127.180 248.330,127.067 248.000 C 126.910 247.539,126.856 247.565,126.832 248.113 M266.045 256.716 C 265.814 257.147,265.505 258.253,265.358 259.173 C 265.211 260.093,264.755 261.504,264.345 262.307 C 263.935 263.111,263.600 264.141,263.600 264.596 C 263.600 265.050,263.356 265.777,263.057 266.211 C 262.758 266.645,262.383 267.720,262.223 268.600 C 262.063 269.480,261.700 270.470,261.417 270.800 C 261.133 271.130,260.784 272.057,260.640 272.860 C 260.496 273.663,260.114 274.540,259.789 274.809 C 259.465 275.078,259.200 275.579,259.200 275.923 C 259.200 276.266,258.824 277.369,258.365 278.374 C 257.906 279.378,257.115 281.100,256.609 282.200 C 256.102 283.300,255.579 284.470,255.446 284.800 C 255.314 285.130,255.044 285.670,254.847 286.000 C 254.650 286.330,253.974 287.632,253.345 288.894 C 251.659 292.273,251.067 293.325,250.123 294.621 L 249.273 295.788 229.536 295.794 L 209.800 295.800 209.600 290.800 L 209.400 285.800 209.165 290.400 C 208.996 293.722,209.076 295.366,209.452 296.317 L 209.973 297.634 226.287 297.436 C 248.202 297.170,248.866 297.114,250.174 295.399 C 251.165 294.099,255.169 286.830,256.012 284.800 C 256.240 284.250,256.772 283.080,257.194 282.200 C 257.615 281.320,258.340 279.700,258.805 278.600 C 259.269 277.500,259.883 276.060,260.169 275.400 C 260.454 274.740,261.067 273.162,261.529 271.894 C 261.991 270.625,262.737 268.642,263.185 267.486 C 263.633 266.330,264.006 265.118,264.014 264.792 C 264.021 264.467,264.375 263.480,264.800 262.600 C 265.225 261.720,265.579 260.689,265.586 260.308 C 265.594 259.928,265.893 258.885,266.250 257.991 C 266.928 256.298,266.776 255.351,266.045 256.716 M209.775 273.200 C 209.775 279.250,209.831 281.725,209.899 278.700 C 209.967 275.675,209.967 270.725,209.899 267.700 C 209.831 264.675,209.775 267.150,209.775 273.200 M133.200 269.287 C 133.200 269.653,133.366 270.055,133.569 270.181 C 133.772 270.306,134.061 270.965,134.210 271.645 C 134.359 272.325,134.929 273.898,135.475 275.141 C 136.022 276.383,136.705 277.940,136.994 278.600 C 139.193 283.619,142.343 290.070,143.829 292.600 C 144.345 293.480,145.038 294.672,145.368 295.249 C 146.094 296.518,146.984 296.787,150.476 296.795 C 151.948 296.798,153.264 296.980,153.400 297.200 C 153.828 297.892,186.868 297.731,187.824 297.032 C 188.704 296.389,188.712 296.094,188.101 286.800 L 187.720 281.000 187.669 286.400 C 187.642 289.370,187.773 292.464,187.962 293.276 C 188.247 294.502,188.168 294.898,187.495 295.621 L 186.685 296.490 167.442 296.276 C 147.659 296.056,146.096 295.953,145.706 294.847 C 145.581 294.491,145.245 293.926,144.960 293.592 C 144.272 292.783,139.213 282.725,139.206 282.149 C 139.203 281.901,138.930 281.474,138.600 281.200 C 138.270 280.926,138.000 280.429,138.000 280.095 C 138.000 279.761,137.623 278.658,137.162 277.644 C 136.701 276.630,135.997 275.080,135.598 274.200 C 135.199 273.320,134.755 272.075,134.612 271.433 C 134.277 269.936,133.200 268.299,133.200 269.287 " stroke="none" fill="#74bbcc" fill-rule="evenodd"></path></g></svg>