<svg id="svg" version="1.1" xmlns="http://www.w3.org/2000/svg" xmlns:xlink="http://www.w3.org/1999/xlink" width="400" height="400" viewBox="0, 0, 400,400"><g id="svgg"><path id="path0" d="M74.843 140.078 C 72.637 140.417,71.042 141.637,69.269 144.343 C 68.452 145.590,67.988 252.235,68.787 255.093 C 69.018 255.922,69.880 257.320,70.700 258.200 L 72.192 259.800 75.996 259.933 C 78.833 260.033,80.258 259.897,81.600 259.397 C 82.590 259.029,84.120 258.539,85.000 258.308 C 85.880 258.078,87.140 257.668,87.800 257.398 C 89.559 256.678,92.724 255.605,94.946 254.974 C 96.017 254.670,97.097 254.260,97.346 254.063 C 97.596 253.866,98.520 253.581,99.400 253.431 C 100.280 253.281,101.900 252.829,103.000 252.427 C 106.151 251.275,107.665 250.770,109.600 250.229 C 110.590 249.951,111.976 249.427,112.680 249.062 C 113.384 248.698,114.379 248.400,114.891 248.400 C 115.403 248.400,116.177 248.153,116.611 247.852 C 117.045 247.550,118.304 247.111,119.408 246.876 C 120.513 246.640,121.953 246.168,122.608 245.826 C 123.264 245.485,124.206 245.204,124.701 245.202 C 125.197 245.201,126.275 244.840,127.096 244.400 C 127.916 243.960,128.973 243.600,129.443 243.600 C 130.758 243.600,134.178 240.848,135.125 239.028 C 136.027 237.295,136.974 171.230,136.225 162.328 C 135.827 157.601,134.330 155.880,129.200 154.250 C 121.823 151.906,120.952 151.646,119.600 151.382 C 118.830 151.231,117.993 150.941,117.740 150.738 C 117.487 150.535,116.158 150.188,114.787 149.967 C 113.415 149.746,111.786 149.303,111.166 148.983 C 110.547 148.662,109.677 148.400,109.235 148.400 C 108.792 148.400,107.568 148.064,106.515 147.653 C 105.462 147.243,103.749 146.782,102.709 146.630 C 101.669 146.478,100.726 146.205,100.614 146.022 C 100.501 145.840,99.732 145.570,98.904 145.422 C 97.178 145.113,92.551 143.784,90.200 142.920 C 89.320 142.597,87.610 142.090,86.400 141.795 C 85.190 141.499,83.300 141.000,82.200 140.686 C 79.330 139.867,77.304 139.699,74.843 140.078 M320.800 140.415 C 319.044 140.821,315.793 141.889,314.140 142.604 C 313.447 142.904,312.187 143.270,311.340 143.419 C 310.493 143.568,309.407 143.936,308.926 144.237 C 308.445 144.538,307.365 144.958,306.526 145.169 C 304.997 145.555,302.050 146.467,299.800 147.250 C 299.140 147.480,297.790 147.916,296.800 148.220 C 293.871 149.118,289.860 150.457,289.000 150.823 C 288.560 151.010,287.390 151.385,286.400 151.655 C 285.410 151.926,284.245 152.385,283.811 152.674 C 283.377 152.963,282.472 153.200,281.800 153.200 C 281.128 153.200,280.223 153.449,279.789 153.753 C 279.355 154.057,278.010 154.579,276.800 154.914 C 268.929 157.094,266.554 158.478,264.845 161.884 C 264.002 163.563,264.000 163.679,264.000 202.166 L 264.000 240.764 265.027 242.282 C 266.561 244.548,269.528 246.368,272.454 246.840 C 273.811 247.058,275.287 247.432,275.733 247.671 C 276.178 247.910,277.546 248.341,278.772 248.630 C 281.250 249.215,285.955 250.533,287.800 251.160 C 291.315 252.354,293.194 252.893,294.980 253.217 C 297.007 253.586,298.218 253.935,303.800 255.761 C 305.560 256.337,307.365 256.806,307.811 256.804 C 308.257 256.802,308.977 257.047,309.411 257.350 C 309.845 257.652,311.010 258.033,312.000 258.196 C 312.990 258.359,314.160 258.685,314.600 258.919 C 315.040 259.154,316.660 259.583,318.200 259.872 C 319.740 260.162,321.544 260.506,322.209 260.637 C 324.887 261.165,328.449 259.490,330.400 256.786 L 331.400 255.400 331.506 200.491 C 331.619 141.462,331.720 144.630,329.653 142.600 C 328.015 140.991,327.467 140.668,325.850 140.354 C 323.868 139.970,322.663 139.985,320.800 140.415 M53.200 157.624 C 52.430 158.030,51.530 158.376,51.200 158.394 C 50.870 158.411,50.261 158.682,49.846 158.996 C 49.431 159.310,48.312 159.684,47.359 159.827 C 46.406 159.970,45.418 160.337,45.164 160.643 C 44.910 160.950,44.319 161.206,43.851 161.213 C 43.383 161.219,42.100 161.668,41.000 162.209 C 39.900 162.750,38.684 163.194,38.299 163.196 C 37.913 163.198,36.925 163.560,36.104 164.000 C 35.284 164.440,34.422 164.800,34.191 164.800 C 33.959 164.800,33.063 165.160,32.200 165.600 C 31.337 166.040,30.354 166.407,30.015 166.416 C 26.305 166.514,25.051 172.720,27.620 178.268 C 29.107 181.480,31.891 187.142,32.405 188.000 C 32.603 188.330,33.598 190.400,34.616 192.600 C 35.635 194.800,36.634 196.870,36.837 197.200 C 37.040 197.530,37.404 198.250,37.646 198.800 C 37.888 199.350,38.247 200.070,38.444 200.400 C 38.641 200.730,38.981 201.450,39.201 202.000 C 39.420 202.550,39.776 203.270,39.992 203.600 C 40.775 204.795,42.354 208.225,42.618 209.304 C 42.767 209.911,43.031 210.496,43.206 210.604 C 43.468 210.766,47.948 219.670,49.542 223.200 C 49.791 223.750,50.176 224.470,50.397 224.800 C 50.619 225.130,50.980 225.850,51.199 226.400 C 51.419 226.950,51.762 227.670,51.963 228.000 C 52.164 228.330,52.839 229.723,53.464 231.095 C 54.744 233.907,55.745 234.374,56.150 232.350 C 56.288 231.663,56.400 214.382,56.400 193.950 L 56.400 156.800 55.500 156.843 C 55.005 156.867,53.970 157.218,53.200 157.624 M343.819 176.144 C 343.672 181.675,343.607 199.070,343.676 214.800 L 343.800 243.400 345.185 243.263 C 345.947 243.188,346.932 242.873,347.374 242.563 C 347.816 242.253,348.453 241.994,348.789 241.986 C 349.125 241.979,350.120 241.625,351.000 241.200 C 351.880 240.775,352.933 240.421,353.340 240.414 C 353.746 240.406,354.646 240.138,355.340 239.818 C 356.536 239.265,357.810 238.780,361.700 237.395 C 362.635 237.062,363.850 236.542,364.400 236.241 C 364.950 235.939,365.969 235.571,366.665 235.422 C 375.209 233.597,376.049 228.538,369.768 216.743 C 368.592 214.534,363.073 203.163,359.215 195.000 C 358.071 192.580,356.973 190.330,356.773 190.000 C 356.574 189.670,355.863 188.230,355.193 186.800 C 354.522 185.370,353.803 183.930,353.594 183.600 C 353.163 182.919,351.574 179.691,350.641 177.600 C 350.297 176.830,349.850 175.930,349.647 175.600 C 349.444 175.270,348.675 173.770,347.939 172.266 C 344.031 164.284,344.139 164.182,343.819 176.144 M149.300 172.812 L 148.400 173.174 148.300 193.887 C 148.138 227.397,148.147 227.995,148.815 228.418 C 149.165 228.639,169.862 228.790,200.448 228.794 L 251.495 228.800 251.743 227.300 C 252.480 222.843,252.009 173.233,251.226 172.814 C 250.239 172.286,150.614 172.284,149.300 172.812 " stroke="none" fill="#fbf9f8" fill-rule="evenodd"></path><path id="path1" d="M8.800 0.400 C 8.800 0.620,8.080 0.800,7.200 0.800 C 5.867 0.800,5.600 0.933,5.600 1.600 C 5.600 2.133,5.333 2.400,4.800 2.400 C 4.267 2.400,4.000 2.667,4.000 3.200 C 4.000 3.733,3.733 4.000,3.200 4.000 C 2.667 4.000,2.400 4.267,2.400 4.800 C 2.400 5.333,2.133 5.600,1.600 5.600 C 0.933 5.600,0.800 5.867,0.800 7.200 C 0.800 8.080,0.620 8.800,0.400 8.800 C 0.134 8.800,0.000 73.000,0.000 200.600 C 0.000 328.200,0.134 392.400,0.400 392.400 C 0.620 392.400,0.800 392.850,0.800 393.400 C 0.800 394.133,1.013 394.400,1.600 394.400 C 2.133 394.400,2.400 394.667,2.400 395.200 C 2.400 395.733,2.667 396.000,3.200 396.000 C 3.733 396.000,4.000 396.267,4.000 396.800 C 4.000 397.317,4.267 397.600,4.753 397.600 C 5.170 397.600,5.600 397.957,5.716 398.400 C 5.876 399.013,6.262 399.200,7.363 399.200 C 8.153 399.200,8.800 399.380,8.800 399.600 C 8.800 399.866,72.800 400.000,200.000 400.000 C 327.200 400.000,391.200 399.866,391.200 399.600 C 391.200 399.380,391.920 399.200,392.800 399.200 C 394.133 399.200,394.400 399.067,394.400 398.400 C 394.400 397.867,394.667 397.600,395.200 397.600 C 395.733 397.600,396.000 397.333,396.000 396.800 C 396.000 396.267,396.267 396.000,396.800 396.000 C 397.333 396.000,397.600 395.733,397.600 395.200 C 397.600 394.667,397.867 394.400,398.400 394.400 C 398.987 394.400,399.200 394.133,399.200 393.400 C 399.200 392.850,399.380 392.400,399.600 392.400 C 399.866 392.400,400.000 328.200,400.000 200.600 C 400.000 73.000,399.866 8.800,399.600 8.800 C 399.380 8.800,399.200 8.080,399.200 7.200 C 399.200 5.867,399.067 5.600,398.400 5.600 C 397.867 5.600,397.600 5.333,397.600 4.800 C 397.600 4.267,397.333 4.000,396.800 4.000 C 396.267 4.000,396.000 3.733,396.000 3.200 C 396.000 2.683,395.733 2.400,395.247 2.400 C 394.830 2.400,394.400 2.043,394.284 1.600 C 394.124 0.987,393.738 0.800,392.637 0.800 C 391.847 0.800,391.200 0.620,391.200 0.400 C 391.200 0.134,327.200 0.000,200.000 0.000 C 72.800 0.000,8.800 0.134,8.800 0.400 M80.886 138.564 C 81.829 138.873,83.230 139.248,84.000 139.396 C 85.613 139.705,89.951 141.022,92.000 141.824 C 92.770 142.125,94.300 142.488,95.400 142.629 C 96.500 142.771,97.770 143.118,98.222 143.402 C 99.054 143.922,102.304 144.910,105.600 145.643 C 108.041 146.187,112.714 147.581,114.279 148.234 C 114.982 148.527,116.488 148.890,117.624 149.041 C 118.761 149.192,121.425 149.933,123.545 150.689 C 125.665 151.444,128.278 152.221,129.351 152.415 C 130.424 152.609,131.608 153.045,131.982 153.384 C 132.357 153.723,132.812 154.000,132.994 154.000 C 134.726 154.000,136.710 156.835,137.449 160.364 C 138.259 164.238,137.831 235.750,136.976 239.280 C 136.284 242.136,132.330 244.665,125.200 246.813 C 119.651 248.484,116.418 249.562,115.533 250.036 C 115.050 250.294,113.742 250.739,112.627 251.025 C 110.123 251.666,107.009 252.682,105.340 253.404 C 104.647 253.704,103.387 254.074,102.540 254.226 C 101.693 254.379,100.818 254.648,100.595 254.823 C 100.372 254.998,99.292 255.364,98.195 255.636 C 97.098 255.908,95.840 256.355,95.400 256.627 C 94.960 256.900,93.846 257.244,92.923 257.393 C 92.001 257.541,90.568 258.008,89.739 258.431 C 88.909 258.854,87.900 259.200,87.496 259.200 C 87.091 259.200,86.274 259.449,85.680 259.753 C 85.086 260.057,83.808 260.437,82.841 260.598 C 81.873 260.759,80.484 261.140,79.754 261.445 C 78.009 262.174,74.495 262.149,73.054 261.398 C 72.424 261.069,71.670 260.800,71.379 260.800 C 70.433 260.800,68.064 257.878,67.218 255.666 C 65.988 252.453,66.290 148.098,67.540 144.400 C 69.186 139.529,75.467 136.782,80.886 138.564 M326.766 139.027 C 329.353 139.873,331.362 141.616,332.638 144.120 L 333.697 146.200 333.456 199.800 C 333.195 257.605,333.253 256.138,331.119 258.754 C 328.631 261.805,321.613 263.315,318.200 261.535 C 317.540 261.191,316.027 260.784,314.837 260.632 C 313.648 260.480,312.208 260.121,311.637 259.834 C 311.067 259.548,309.934 259.210,309.120 259.085 C 308.307 258.960,307.047 258.591,306.320 258.266 C 305.594 257.941,304.201 257.560,303.225 257.421 C 302.249 257.281,300.899 256.905,300.225 256.586 C 298.706 255.866,295.456 254.930,291.866 254.178 C 290.362 253.862,288.922 253.472,288.666 253.310 C 288.167 252.994,284.389 251.908,280.800 251.050 C 278.473 250.493,275.127 249.442,272.800 248.537 C 272.030 248.238,270.556 247.840,269.525 247.653 C 266.594 247.121,263.990 244.619,262.891 241.279 C 261.980 238.511,262.103 169.596,263.032 162.132 C 263.335 159.694,267.355 155.600,269.444 155.600 C 269.958 155.600,271.148 155.252,272.089 154.826 C 274.243 153.851,277.349 152.747,281.200 151.589 C 282.850 151.092,284.855 150.352,285.654 149.943 C 286.454 149.534,287.597 149.200,288.194 149.200 C 288.791 149.200,289.846 148.933,290.540 148.607 C 292.327 147.767,296.220 146.453,298.800 145.820 C 301.366 145.190,304.269 144.185,305.382 143.543 C 305.812 143.294,307.162 142.865,308.382 142.590 C 309.602 142.314,311.860 141.606,313.400 141.016 C 314.940 140.427,317.245 139.707,318.522 139.417 C 319.798 139.127,320.953 138.780,321.088 138.645 C 321.553 138.180,324.855 138.402,326.766 139.027 M58.002 156.764 C 58.430 157.703,58.325 193.372,57.802 225.000 C 57.718 230.060,57.639 235.042,57.625 236.071 C 57.583 239.213,56.102 239.976,54.945 237.451 C 54.630 236.763,53.858 235.370,53.231 234.357 C 52.603 233.343,51.957 232.083,51.795 231.557 C 51.633 231.030,50.912 229.589,50.194 228.354 C 49.476 227.118,48.756 225.678,48.594 225.154 C 48.241 224.009,44.980 217.278,42.899 213.400 C 42.427 212.520,41.206 210.000,40.185 207.800 C 39.165 205.600,38.168 203.530,37.970 203.200 C 37.139 201.812,35.200 197.598,35.200 197.180 C 35.200 196.930,34.840 196.269,34.400 195.709 C 33.960 195.150,33.600 194.468,33.600 194.195 C 33.600 193.922,33.330 193.474,33.000 193.200 C 32.670 192.926,32.397 192.409,32.394 192.051 C 32.391 191.693,32.166 191.012,31.894 190.537 C 30.287 187.729,28.800 184.703,28.800 184.242 C 28.800 183.948,28.440 183.250,28.000 182.691 C 27.560 182.131,27.200 181.409,27.200 181.086 C 27.200 180.763,26.942 180.283,26.626 180.021 C 26.310 179.759,25.930 178.972,25.781 178.272 C 25.633 177.573,25.227 176.678,24.880 176.285 C 23.808 175.070,23.728 170.965,24.750 169.583 C 25.217 168.950,25.600 168.251,25.600 168.030 C 25.600 167.433,27.890 165.200,28.502 165.200 C 28.793 165.200,29.737 164.840,30.600 164.400 C 31.463 163.960,32.363 163.600,32.600 163.600 C 32.837 163.600,33.737 163.240,34.600 162.800 C 35.463 162.360,36.487 162.000,36.875 162.000 C 37.263 162.000,38.170 161.641,38.890 161.201 C 39.611 160.762,40.560 160.397,41.000 160.389 C 41.440 160.381,42.132 160.123,42.537 159.816 C 42.942 159.509,43.967 159.141,44.814 158.998 C 45.660 158.855,47.032 158.392,47.861 157.969 C 48.691 157.546,49.669 157.200,50.036 157.200 C 50.402 157.200,50.922 156.935,51.191 156.611 C 51.460 156.286,52.337 155.915,53.140 155.784 C 53.943 155.654,54.960 155.406,55.400 155.233 C 56.392 154.843,57.396 155.434,58.002 156.764 M345.258 163.400 C 346.392 165.284,347.516 167.310,348.031 168.400 C 348.962 170.372,350.870 174.211,351.210 174.800 C 351.401 175.130,352.384 177.200,353.395 179.400 C 354.405 181.600,355.406 183.670,355.619 184.000 C 355.832 184.330,356.204 185.050,356.446 185.600 C 356.688 186.150,357.048 186.870,357.246 187.200 C 357.444 187.530,357.804 188.250,358.046 188.800 C 358.495 189.820,358.629 190.084,360.224 193.084 C 360.726 194.028,361.254 195.337,361.399 195.995 C 361.543 196.653,361.813 197.284,361.998 197.399 C 362.297 197.584,364.998 202.992,367.293 208.000 C 367.747 208.990,368.263 210.070,368.441 210.400 C 368.933 211.316,372.632 218.867,373.143 220.000 C 373.391 220.550,373.761 221.270,373.965 221.600 C 377.145 226.741,375.902 234.800,371.930 234.800 C 371.529 234.800,371.200 234.951,371.200 235.136 C 371.200 235.544,369.401 236.400,368.544 236.400 C 368.204 236.400,367.469 236.760,366.909 237.200 C 366.350 237.640,365.605 238.000,365.254 238.000 C 364.576 238.000,361.281 239.205,358.556 240.449 C 357.652 240.862,356.482 241.206,355.956 241.213 C 355.430 241.220,354.651 241.490,354.224 241.813 C 353.796 242.136,353.166 242.402,352.824 242.404 C 352.481 242.406,351.300 242.850,350.200 243.391 C 349.100 243.932,347.867 244.381,347.460 244.387 C 347.054 244.394,346.110 244.690,345.364 245.044 C 343.722 245.823,343.032 245.609,342.240 244.076 C 341.487 242.622,341.992 165.079,342.767 163.071 C 343.314 161.651,344.282 161.779,345.258 163.400 M250.574 170.772 C 254.269 171.378,254.007 169.114,253.953 199.944 C 253.899 230.404,253.989 229.112,251.857 230.154 C 250.224 230.951,149.251 230.652,147.515 229.845 C 146.260 229.261,146.208 227.949,146.347 200.400 C 146.489 172.047,146.533 171.295,148.092 170.668 C 148.946 170.324,248.462 170.425,250.574 170.772 " stroke="none" fill="#fb3c33" fill-rule="evenodd"></path><path id="path2" d="M72.800 138.862 C 70.665 139.850,68.201 142.444,67.540 144.400 C 66.290 148.098,65.988 252.453,67.218 255.666 C 68.064 257.878,70.433 260.800,71.379 260.800 C 71.670 260.800,72.424 261.069,73.054 261.398 C 74.495 262.149,78.009 262.174,79.754 261.445 C 80.484 261.140,81.873 260.759,82.841 260.598 C 83.808 260.437,85.086 260.057,85.680 259.753 C 86.274 259.449,87.091 259.200,87.496 259.200 C 87.900 259.200,88.909 258.854,89.739 258.431 C 90.568 258.008,92.001 257.541,92.923 257.393 C 93.846 257.244,94.960 256.900,95.400 256.627 C 95.840 256.355,97.098 255.908,98.195 255.636 C 99.292 255.364,100.372 254.998,100.595 254.823 C 100.818 254.648,101.693 254.379,102.540 254.226 C 103.387 254.074,104.647 253.704,105.340 253.404 C 107.009 252.682,110.123 251.666,112.627 251.025 C 113.742 250.739,115.050 250.294,115.533 250.036 C 116.418 249.562,119.651 248.484,125.200 246.813 C 132.330 244.665,136.284 242.136,136.976 239.280 C 137.831 235.750,138.259 164.238,137.449 160.364 C 136.710 156.835,134.726 154.000,132.994 154.000 C 132.812 154.000,132.357 153.723,131.982 153.384 C 131.608 153.045,130.424 152.609,129.351 152.415 C 128.278 152.221,125.665 151.444,123.545 150.689 C 121.425 149.933,118.761 149.192,117.624 149.041 C 116.488 148.890,114.982 148.527,114.279 148.234 C 112.714 147.581,108.041 146.187,105.600 145.643 C 102.304 144.910,99.054 143.922,98.222 143.402 C 97.770 143.118,96.500 142.771,95.400 142.629 C 94.300 142.488,92.770 142.125,92.000 141.824 C 89.951 141.022,85.613 139.705,84.000 139.396 C 83.230 139.248,81.829 138.873,80.886 138.564 C 78.393 137.744,74.942 137.871,72.800 138.862 M321.088 138.645 C 320.953 138.780,319.798 139.127,318.522 139.417 C 317.245 139.707,314.940 140.427,313.400 141.016 C 311.860 141.606,309.602 142.314,308.382 142.590 C 307.162 142.865,305.812 143.294,305.382 143.543 C 304.269 144.185,301.366 145.190,298.800 145.820 C 296.220 146.453,292.327 147.767,290.540 148.607 C 289.846 148.933,288.791 149.200,288.194 149.200 C 287.597 149.200,286.454 149.534,285.654 149.943 C 284.855 150.352,282.850 151.092,281.200 151.589 C 277.349 152.747,274.243 153.851,272.089 154.826 C 271.148 155.252,269.958 155.600,269.444 155.600 C 267.355 155.600,263.335 159.694,263.032 162.132 C 262.103 169.596,261.980 238.511,262.891 241.279 C 263.990 244.619,266.594 247.121,269.525 247.653 C 270.556 247.840,272.030 248.238,272.800 248.537 C 275.127 249.442,278.473 250.493,280.800 251.050 C 284.389 251.908,288.167 252.994,288.666 253.310 C 288.922 253.472,290.362 253.862,291.866 254.178 C 295.456 254.930,298.706 255.866,300.225 256.586 C 300.899 256.905,302.249 257.281,303.225 257.421 C 304.201 257.560,305.594 257.941,306.320 258.266 C 307.047 258.591,308.307 258.960,309.120 259.085 C 309.934 259.210,311.067 259.548,311.637 259.834 C 312.208 260.121,313.648 260.480,314.837 260.632 C 316.027 260.784,317.540 261.191,318.200 261.535 C 321.613 263.315,328.631 261.805,331.119 258.754 C 333.253 256.138,333.195 257.605,333.456 199.800 L 333.697 146.200 332.638 144.120 C 330.623 140.165,323.124 136.610,321.088 138.645 M81.236 139.577 C 82.866 140.004,84.740 140.544,85.400 140.776 C 86.764 141.257,90.196 142.158,93.969 143.026 C 95.382 143.351,96.734 143.779,96.974 143.978 C 97.214 144.177,98.488 144.609,99.805 144.939 C 102.061 145.502,103.950 146.030,110.900 148.038 C 112.495 148.499,114.948 149.135,116.351 149.451 C 117.754 149.768,119.246 150.210,119.665 150.435 C 120.370 150.812,123.191 151.637,128.212 152.934 C 131.061 153.670,134.224 155.494,135.458 157.112 C 137.007 159.143,137.020 159.567,136.800 201.030 L 136.600 238.660 135.600 240.129 C 133.624 243.032,132.190 243.736,121.200 247.199 C 118.230 248.134,114.900 249.220,113.800 249.612 C 112.700 250.003,110.540 250.724,109.000 251.213 C 107.460 251.703,105.300 252.420,104.200 252.808 C 101.892 253.621,94.243 256.150,91.600 256.974 C 89.090 257.757,86.021 258.755,84.600 259.252 C 75.133 262.559,69.747 261.198,67.775 255.000 C 66.994 252.549,67.483 146.263,68.283 144.400 C 70.259 139.797,75.140 137.979,81.236 139.577 M326.148 139.629 C 328.593 140.244,331.375 142.762,332.162 145.070 C 332.859 147.115,333.004 192.321,332.453 235.646 L 332.200 255.492 330.800 257.546 C 328.353 261.135,323.806 262.500,319.200 261.029 C 318.210 260.713,316.320 260.163,315.000 259.808 C 313.680 259.452,311.340 258.798,309.800 258.354 C 308.260 257.910,306.100 257.329,305.000 257.063 C 303.900 256.798,302.640 256.385,302.200 256.146 C 301.760 255.908,300.770 255.596,300.000 255.452 C 299.230 255.309,297.340 254.828,295.800 254.384 C 294.260 253.939,291.830 253.238,290.400 252.826 C 288.970 252.414,286.360 251.688,284.600 251.213 C 282.840 250.738,280.770 250.095,280.000 249.784 C 279.230 249.473,277.475 248.944,276.100 248.609 C 269.755 247.063,268.639 246.705,267.200 245.753 C 266.355 245.194,265.155 243.985,264.532 243.068 L 263.400 241.400 263.400 201.800 L 263.400 162.200 264.485 160.532 C 266.336 157.686,268.177 156.629,274.800 154.607 C 275.790 154.305,278.130 153.534,280.000 152.894 C 281.870 152.254,284.930 151.242,286.800 150.646 C 288.670 150.050,290.830 149.319,291.600 149.021 C 292.370 148.724,294.620 147.985,296.600 147.379 C 298.580 146.772,301.820 145.739,303.800 145.081 C 305.780 144.424,308.210 143.618,309.200 143.290 C 310.190 142.963,312.530 142.168,314.400 141.525 C 321.180 139.194,323.156 138.875,326.148 139.629 M55.400 155.233 C 54.960 155.406,53.943 155.654,53.140 155.784 C 52.337 155.915,51.460 156.286,51.191 156.611 C 50.922 156.935,50.402 157.200,50.036 157.200 C 49.669 157.200,48.691 157.546,47.861 157.969 C 47.032 158.392,45.660 158.855,44.814 158.998 C 43.967 159.141,42.942 159.509,42.537 159.816 C 42.132 160.123,41.440 160.381,41.000 160.389 C 40.560 160.397,39.611 160.762,38.890 161.201 C 38.170 161.641,37.263 162.000,36.875 162.000 C 36.487 162.000,35.463 162.360,34.600 162.800 C 33.737 163.240,32.837 163.600,32.600 163.600 C 32.363 163.600,31.463 163.960,30.600 164.400 C 29.737 164.840,28.793 165.200,28.502 165.200 C 27.890 165.200,25.600 167.433,25.600 168.030 C 25.600 168.251,25.217 168.950,24.750 169.583 C 23.728 170.965,23.808 175.070,24.880 176.285 C 25.227 176.678,25.633 177.573,25.781 178.272 C 25.930 178.972,26.310 179.759,26.626 180.021 C 26.942 180.283,27.200 180.763,27.200 181.086 C 27.200 181.409,27.560 182.131,28.000 182.691 C 28.440 183.250,28.800 183.948,28.800 184.242 C 28.800 184.703,30.287 187.729,31.894 190.537 C 32.166 191.012,32.391 191.693,32.394 192.051 C 32.397 192.409,32.670 192.926,33.000 193.200 C 33.330 193.474,33.600 193.922,33.600 194.195 C 33.600 194.468,33.960 195.150,34.400 195.709 C 34.840 196.269,35.200 196.930,35.200 197.180 C 35.200 197.598,37.139 201.812,37.970 203.200 C 38.168 203.530,39.165 205.600,40.185 207.800 C 41.206 210.000,42.427 212.520,42.899 213.400 C 44.980 217.278,48.241 224.009,48.594 225.154 C 48.756 225.678,49.476 227.118,50.194 228.354 C 50.912 229.589,51.633 231.030,51.795 231.557 C 51.957 232.083,52.603 233.343,53.231 234.357 C 53.858 235.370,54.630 236.763,54.945 237.451 C 56.102 239.976,57.583 239.213,57.625 236.071 C 57.639 235.042,57.718 230.060,57.802 225.000 C 58.325 193.372,58.430 157.703,58.002 156.764 C 57.396 155.434,56.392 154.843,55.400 155.233 M57.119 196.880 C 57.034 225.503,56.874 236.886,56.555 237.206 C 55.880 237.880,54.689 235.721,47.944 221.600 C 46.631 218.850,45.276 216.060,44.933 215.400 C 43.556 212.749,41.508 208.619,37.793 201.000 C 32.691 190.535,30.418 185.937,29.984 185.200 C 29.789 184.870,29.163 183.520,28.591 182.200 C 28.019 180.880,27.382 179.530,27.175 179.200 C 26.968 178.870,26.622 178.150,26.407 177.600 C 26.192 177.050,25.742 176.090,25.408 175.468 C 24.164 173.151,25.116 169.047,27.345 167.114 C 28.243 166.335,32.209 164.400,32.906 164.400 C 33.129 164.400,34.052 164.065,34.956 163.656 C 35.860 163.246,37.230 162.685,38.000 162.410 C 38.770 162.134,40.570 161.464,42.000 160.921 C 43.430 160.378,45.320 159.690,46.200 159.393 C 47.080 159.095,48.790 158.458,50.000 157.977 C 55.857 155.647,56.153 155.574,56.719 156.318 C 57.138 156.869,57.215 164.675,57.119 196.880 M342.767 163.071 C 341.992 165.079,341.487 242.622,342.240 244.076 C 343.032 245.609,343.722 245.823,345.364 245.044 C 346.110 244.690,347.054 244.394,347.460 244.387 C 347.867 244.381,349.100 243.932,350.200 243.391 C 351.300 242.850,352.481 242.406,352.824 242.404 C 353.166 242.402,353.796 242.136,354.224 241.813 C 354.651 241.490,355.430 241.220,355.956 241.213 C 356.482 241.206,357.652 240.862,358.556 240.449 C 361.281 239.205,364.576 238.000,365.254 238.000 C 365.605 238.000,366.350 237.640,366.909 237.200 C 367.469 236.760,368.204 236.400,368.544 236.400 C 369.401 236.400,371.200 235.544,371.200 235.136 C 371.200 234.951,371.529 234.800,371.930 234.800 C 375.902 234.800,377.145 226.741,373.965 221.600 C 373.761 221.270,373.391 220.550,373.143 220.000 C 372.632 218.867,368.933 211.316,368.441 210.400 C 368.263 210.070,367.747 208.990,367.293 208.000 C 364.998 202.992,362.297 197.584,361.998 197.399 C 361.813 197.284,361.543 196.653,361.399 195.995 C 361.254 195.337,360.726 194.028,360.224 193.084 C 358.629 190.084,358.495 189.820,358.046 188.800 C 357.804 188.250,357.444 187.530,357.246 187.200 C 357.048 186.870,356.688 186.150,356.446 185.600 C 356.204 185.050,355.832 184.330,355.619 184.000 C 355.406 183.670,354.405 181.600,353.395 179.400 C 352.384 177.200,351.401 175.130,351.210 174.800 C 350.870 174.211,348.962 170.372,348.031 168.400 C 347.516 167.310,346.392 165.284,345.258 163.400 C 344.282 161.779,343.314 161.651,342.767 163.071 M345.682 165.933 C 346.467 167.436,347.306 169.011,347.547 169.433 C 347.787 169.855,348.494 171.280,349.117 172.600 C 349.740 173.920,350.458 175.360,350.712 175.800 C 351.090 176.453,353.209 180.908,356.328 187.600 C 356.584 188.150,356.976 188.870,357.197 189.200 C 357.419 189.530,357.780 190.250,357.999 190.800 C 358.219 191.350,358.579 192.070,358.799 192.400 C 359.020 192.730,359.380 193.450,359.599 194.000 C 359.819 194.550,360.170 195.270,360.380 195.600 C 360.590 195.930,361.958 198.720,363.419 201.800 C 364.881 204.880,366.240 207.670,366.439 208.000 C 366.639 208.330,366.988 209.050,367.215 209.600 C 367.859 211.160,369.355 214.137,369.829 214.800 C 370.065 215.130,370.749 216.570,371.349 218.000 C 371.949 219.430,372.611 220.870,372.821 221.200 C 375.289 225.092,375.717 228.207,374.197 231.206 C 372.829 233.906,371.219 234.812,362.000 238.069 C 360.130 238.730,358.060 239.508,357.400 239.799 C 356.175 240.339,349.955 242.659,346.003 244.050 C 342.404 245.317,342.673 248.862,342.957 203.924 C 343.243 158.775,343.086 160.963,345.682 165.933 M148.092 170.668 C 146.533 171.295,146.489 172.047,146.347 200.400 C 146.208 227.949,146.260 229.261,147.515 229.845 C 149.251 230.652,250.224 230.951,251.857 230.154 C 253.989 229.112,253.899 230.404,253.953 199.944 C 254.007 169.114,254.269 171.378,250.574 170.772 C 248.462 170.425,148.946 170.324,148.092 170.668 M217.348 171.466 C 241.444 171.653,251.808 171.864,252.235 172.176 C 253.219 172.895,253.095 228.372,252.108 229.107 C 251.279 229.725,149.123 229.652,147.836 229.033 C 146.721 228.497,147.117 173.196,148.245 171.950 C 149.045 171.066,157.865 171.004,217.348 171.466 " stroke="none" fill="#f2837e" fill-rule="evenodd"></path><path id="path3" d="M322.505 139.487 C 323.114 139.579,324.014 139.577,324.505 139.482 C 324.997 139.387,324.500 139.311,323.400 139.314 C 322.300 139.317,321.897 139.395,322.505 139.487 M67.782 163.200 C 67.782 171.670,67.835 175.135,67.899 170.900 C 67.964 166.665,67.964 159.735,67.899 155.500 C 67.835 151.265,67.782 154.730,67.782 163.200 M332.591 185.600 C 332.591 205.070,332.640 213.035,332.700 203.300 C 332.760 193.565,332.760 177.635,332.700 167.900 C 332.640 158.165,332.591 166.130,332.591 185.600 M281.800 152.214 C 281.140 152.517,280.870 152.766,281.200 152.768 C 281.530 152.770,282.250 152.514,282.800 152.200 C 284.065 151.477,283.389 151.487,281.800 152.214 M272.400 155.400 C 271.850 155.714,271.580 155.972,271.800 155.972 C 272.020 155.972,272.650 155.714,273.200 155.400 C 273.750 155.086,274.020 154.828,273.800 154.828 C 273.580 154.828,272.950 155.086,272.400 155.400 M136.934 166.000 C 136.934 167.650,137.005 168.325,137.091 167.500 C 137.178 166.675,137.178 165.325,137.091 164.500 C 137.005 163.675,136.934 164.350,136.934 166.000 M263.376 174.200 C 263.376 180.360,263.432 182.824,263.499 179.676 C 263.567 176.527,263.567 171.487,263.499 168.476 C 263.431 165.464,263.376 168.040,263.376 174.200 M344.406 164.256 C 344.403 164.506,344.770 165.136,345.223 165.656 C 345.869 166.398,345.958 166.429,345.636 165.800 C 344.942 164.443,344.413 163.778,344.406 164.256 M148.262 171.931 C 147.898 172.334,147.600 172.804,147.600 172.976 C 147.600 173.148,147.915 172.907,148.300 172.441 C 149.000 171.593,149.004 171.592,177.600 171.494 L 206.200 171.395 177.562 171.297 C 150.257 171.205,148.893 171.234,148.262 171.931 M252.324 172.600 C 252.526 173.040,252.792 173.670,252.914 174.000 C 253.107 174.518,253.141 174.515,253.168 173.976 C 253.186 173.634,252.920 173.004,252.578 172.576 C 251.966 171.812,251.962 171.813,252.324 172.600 M147.379 202.200 C 147.379 209.460,147.433 212.486,147.499 208.925 C 147.565 205.364,147.566 199.424,147.499 195.725 C 147.433 192.026,147.379 194.940,147.379 202.200 M342.984 209.400 C 342.984 219.300,343.036 223.293,343.100 218.273 C 343.163 213.253,343.163 205.153,343.100 200.273 C 343.036 195.393,342.984 199.500,342.984 209.400 M252.400 214.680 C 252.290 222.645,252.337 229.023,252.505 228.855 C 252.673 228.687,252.763 222.171,252.705 214.375 L 252.599 200.200 252.400 214.680 M368.200 212.400 C 368.541 213.060,368.911 213.600,369.021 213.600 C 369.131 213.600,368.941 213.060,368.600 212.400 C 368.259 211.740,367.889 211.200,367.779 211.200 C 367.669 211.200,367.859 211.740,368.200 212.400 M67.314 233.800 C 67.282 244.800,67.379 254.109,67.528 254.487 C 67.777 255.116,67.745 229.235,67.483 218.400 C 67.422 215.870,67.346 222.800,67.314 233.800 M56.961 222.400 C 56.961 225.810,57.022 227.205,57.097 225.500 C 57.172 223.795,57.172 221.005,57.097 219.300 C 57.022 217.595,56.961 218.990,56.961 222.400 M147.272 226.457 C 147.216 228.226,147.342 228.769,147.857 228.966 C 148.361 229.160,148.413 229.098,148.082 228.699 C 147.845 228.413,147.582 227.284,147.498 226.190 L 147.344 224.200 147.272 226.457 M56.924 231.000 C 56.926 232.320,57.001 232.812,57.090 232.093 C 57.179 231.374,57.177 230.294,57.086 229.693 C 56.995 229.092,56.922 229.680,56.924 231.000 M151.900 229.495 C 153.055 229.576,154.945 229.576,156.100 229.495 C 157.255 229.414,156.310 229.348,154.000 229.348 C 151.690 229.348,150.745 229.414,151.900 229.495 M136.493 235.600 C 136.493 236.370,136.575 236.685,136.676 236.300 C 136.776 235.915,136.776 235.285,136.676 234.900 C 136.575 234.515,136.493 234.830,136.493 235.600 M118.600 247.814 C 117.600 248.296,117.566 248.351,118.400 248.148 C 119.533 247.871,120.807 247.221,120.200 247.230 C 119.980 247.233,119.260 247.496,118.600 247.814 M332.124 252.200 C 332.126 253.520,332.201 254.012,332.290 253.293 C 332.379 252.574,332.377 251.494,332.286 250.893 C 332.195 250.292,332.122 250.880,332.124 252.200 M93.200 256.200 C 92.650 256.514,92.380 256.772,92.600 256.772 C 92.820 256.772,93.450 256.514,94.000 256.200 C 94.550 255.886,94.820 255.628,94.600 255.628 C 94.380 255.628,93.750 255.886,93.200 256.200 M73.683 260.860 C 73.967 261.040,75.190 261.176,76.400 261.162 C 79.058 261.132,78.642 260.921,75.483 260.696 C 74.189 260.604,73.394 260.676,73.683 260.860 " stroke="none" fill="#fc9c94" fill-rule="evenodd"></path><path id="path4" d="M74.000 139.436 C 71.882 140.187,69.339 142.460,68.542 144.315 C 67.754 146.148,67.196 251.457,67.957 254.624 C 69.355 260.444,76.034 262.477,83.600 259.384 C 84.370 259.069,85.720 258.640,86.600 258.431 C 87.480 258.221,89.460 257.575,91.000 256.995 C 92.540 256.414,94.639 255.704,95.664 255.415 C 96.690 255.127,97.739 254.761,97.995 254.603 C 98.252 254.444,99.561 254.058,100.905 253.745 C 102.249 253.431,103.540 253.028,103.774 252.848 C 104.008 252.669,105.820 252.034,107.800 251.438 C 109.780 250.842,111.940 250.126,112.600 249.846 C 113.260 249.567,115.690 248.751,118.000 248.034 C 120.310 247.316,122.830 246.497,123.600 246.214 C 124.370 245.931,126.530 245.211,128.400 244.614 C 132.248 243.385,134.687 241.650,135.846 239.317 C 136.735 237.529,137.289 162.089,136.435 159.186 C 135.723 156.763,131.023 153.200,128.539 153.200 C 128.229 153.200,126.945 152.863,125.687 152.451 C 123.242 151.650,118.201 150.196,113.000 148.792 C 111.240 148.317,108.720 147.600,107.400 147.198 C 106.080 146.797,103.560 146.079,101.800 145.603 C 100.040 145.127,97.520 144.399,96.200 143.986 C 94.880 143.573,92.090 142.772,90.000 142.205 C 87.910 141.639,85.660 140.987,85.000 140.757 C 83.448 140.216,78.995 139.197,77.200 138.973 C 76.430 138.876,74.990 139.085,74.000 139.436 M82.200 140.686 C 83.300 141.000,85.190 141.499,86.400 141.795 C 87.610 142.090,89.320 142.597,90.200 142.920 C 92.551 143.784,97.178 145.113,98.904 145.422 C 99.732 145.570,100.501 145.840,100.614 146.022 C 100.726 146.205,101.669 146.478,102.709 146.630 C 103.749 146.782,105.462 147.243,106.515 147.653 C 107.568 148.064,108.792 148.400,109.235 148.400 C 109.677 148.400,110.547 148.662,111.166 148.983 C 111.786 149.303,113.415 149.746,114.787 149.967 C 116.158 150.188,117.487 150.535,117.740 150.738 C 117.993 150.941,118.830 151.231,119.600 151.382 C 120.952 151.646,121.823 151.906,129.200 154.250 C 134.330 155.880,135.827 157.601,136.225 162.328 C 136.974 171.230,136.027 237.295,135.125 239.028 C 134.178 240.848,130.758 243.600,129.443 243.600 C 128.973 243.600,127.916 243.960,127.096 244.400 C 126.275 244.840,125.197 245.201,124.701 245.202 C 124.206 245.204,123.264 245.485,122.608 245.826 C 121.953 246.168,120.513 246.640,119.408 246.876 C 118.304 247.111,117.045 247.550,116.611 247.852 C 116.177 248.153,115.403 248.400,114.891 248.400 C 114.379 248.400,113.384 248.698,112.680 249.062 C 111.976 249.427,110.590 249.951,109.600 250.229 C 107.665 250.770,106.151 251.275,103.000 252.427 C 101.900 252.829,100.280 253.281,99.400 253.431 C 98.520 253.581,97.596 253.866,97.346 254.063 C 97.097 254.260,96.017 254.670,94.946 254.974 C 92.724 255.605,89.559 256.678,87.800 257.398 C 87.140 257.668,85.880 258.078,85.000 258.308 C 84.120 258.539,82.590 259.029,81.600 259.397 C 80.258 259.897,78.833 260.033,75.996 259.933 L 72.192 259.800 70.700 258.200 C 68.258 255.582,68.355 258.147,68.483 199.475 C 68.613 139.308,68.332 145.025,71.312 141.866 C 73.384 139.669,77.192 139.256,82.200 140.686 M315.200 141.405 C 312.230 142.389,309.260 143.388,308.600 143.627 C 307.074 144.178,301.657 145.945,295.000 148.063 C 290.351 149.543,287.167 150.620,282.800 152.194 C 280.101 153.166,272.588 155.645,271.394 155.958 C 268.118 156.815,265.431 158.862,264.214 161.427 C 263.600 162.720,263.536 166.248,263.471 201.980 L 263.400 241.116 264.648 242.858 C 266.212 245.040,268.625 246.709,270.870 247.161 C 272.759 247.542,276.771 248.665,285.400 251.228 C 288.480 252.142,291.720 253.074,292.600 253.299 C 295.531 254.046,304.223 256.540,310.800 258.522 C 321.816 261.842,323.483 262.057,326.781 260.576 C 330.596 258.864,331.593 257.327,332.019 252.495 C 332.657 245.258,332.527 146.277,331.877 144.723 C 329.616 139.311,324.559 138.305,315.200 141.405 M325.850 140.354 C 327.467 140.668,328.015 140.991,329.653 142.600 C 331.720 144.630,331.619 141.462,331.506 200.491 L 331.400 255.400 330.400 256.786 C 328.449 259.490,324.887 261.165,322.209 260.637 C 321.544 260.506,319.740 260.162,318.200 259.872 C 316.660 259.583,315.040 259.154,314.600 258.919 C 314.160 258.685,312.990 258.359,312.000 258.196 C 311.010 258.033,309.845 257.652,309.411 257.350 C 308.977 257.047,308.257 256.802,307.811 256.804 C 307.365 256.806,305.560 256.337,303.800 255.761 C 298.218 253.935,297.007 253.586,294.980 253.217 C 293.194 252.893,291.315 252.354,287.800 251.160 C 285.955 250.533,281.250 249.215,278.772 248.630 C 277.546 248.341,276.178 247.910,275.733 247.671 C 275.287 247.432,273.811 247.058,272.454 246.840 C 269.528 246.368,266.561 244.548,265.027 242.282 L 264.000 240.764 264.000 202.166 C 264.000 163.679,264.002 163.563,264.845 161.884 C 266.554 158.478,268.929 157.094,276.800 154.914 C 278.010 154.579,279.355 154.057,279.789 153.753 C 280.223 153.449,281.128 153.200,281.800 153.200 C 282.472 153.200,283.377 152.963,283.811 152.674 C 284.245 152.385,285.410 151.926,286.400 151.655 C 287.390 151.385,288.560 151.010,289.000 150.823 C 289.860 150.457,293.871 149.118,296.800 148.220 C 297.790 147.916,299.140 147.480,299.800 147.250 C 302.050 146.467,304.997 145.555,306.526 145.169 C 307.365 144.958,308.445 144.538,308.926 144.237 C 309.407 143.936,310.493 143.568,311.340 143.419 C 312.187 143.270,313.447 142.904,314.140 142.604 C 319.090 140.464,322.769 139.757,325.850 140.354 M54.600 156.286 C 54.160 156.392,53.260 156.720,52.600 157.014 C 50.370 158.010,48.212 158.840,45.200 159.863 C 43.550 160.424,41.210 161.292,40.000 161.793 C 38.790 162.294,35.583 163.569,32.873 164.627 C 27.495 166.725,26.639 167.411,25.421 170.602 C 24.791 172.250,24.757 172.734,25.182 173.964 C 25.791 175.727,27.948 180.780,28.441 181.600 C 28.640 181.930,28.986 182.650,29.212 183.200 C 29.437 183.750,30.101 185.100,30.688 186.200 C 32.425 189.455,32.595 189.797,37.343 199.600 C 42.440 210.122,44.214 213.733,45.007 215.200 C 45.544 216.194,48.485 222.316,52.339 230.463 C 53.448 232.807,54.556 234.849,54.802 235.001 C 55.048 235.153,55.431 235.755,55.653 236.339 C 56.738 239.192,56.880 235.267,57.100 196.583 C 57.349 152.791,57.522 155.581,54.600 156.286 M56.400 193.950 C 56.400 214.382,56.288 231.663,56.150 232.350 C 55.745 234.374,54.744 233.907,53.464 231.095 C 52.839 229.723,52.164 228.330,51.963 228.000 C 51.762 227.670,51.419 226.950,51.199 226.400 C 50.980 225.850,50.619 225.130,50.397 224.800 C 50.176 224.470,49.791 223.750,49.542 223.200 C 47.948 219.670,43.468 210.766,43.206 210.604 C 43.031 210.496,42.767 209.911,42.618 209.304 C 42.354 208.225,40.775 204.795,39.992 203.600 C 39.776 203.270,39.420 202.550,39.201 202.000 C 38.981 201.450,38.641 200.730,38.444 200.400 C 38.247 200.070,37.888 199.350,37.646 198.800 C 37.404 198.250,37.040 197.530,36.837 197.200 C 36.634 196.870,35.635 194.800,34.616 192.600 C 33.598 190.400,32.603 188.330,32.405 188.000 C 31.891 187.142,29.107 181.480,27.620 178.268 C 25.051 172.720,26.305 166.514,30.015 166.416 C 30.354 166.407,31.337 166.040,32.200 165.600 C 33.063 165.160,33.959 164.800,34.191 164.800 C 34.422 164.800,35.284 164.440,36.104 164.000 C 36.925 163.560,37.913 163.198,38.299 163.196 C 38.684 163.194,39.900 162.750,41.000 162.209 C 42.100 161.668,43.383 161.219,43.851 161.213 C 44.319 161.206,44.910 160.950,45.164 160.643 C 45.418 160.337,46.406 159.970,47.359 159.827 C 48.312 159.684,49.431 159.310,49.846 158.996 C 50.261 158.682,50.870 158.411,51.200 158.394 C 51.530 158.376,52.430 158.030,53.200 157.624 C 53.970 157.218,55.005 156.867,55.500 156.843 L 56.400 156.800 56.400 193.950 M343.698 164.235 C 343.090 165.401,342.781 243.022,343.382 243.843 C 343.946 244.615,345.786 244.201,349.800 242.400 C 351.238 241.755,353.176 241.030,354.107 240.790 C 355.608 240.402,358.698 239.314,361.000 238.362 C 361.440 238.180,363.510 237.376,365.600 236.574 C 376.718 232.309,377.209 230.499,370.804 217.400 C 366.666 208.937,361.843 198.940,359.323 193.600 C 358.337 191.510,357.372 189.530,357.180 189.200 C 356.987 188.870,355.552 185.990,353.990 182.800 C 352.429 179.610,350.948 176.640,350.700 176.200 C 350.197 175.309,349.084 173.053,347.942 170.610 C 347.527 169.725,346.748 168.280,346.209 167.400 C 345.670 166.520,344.975 165.276,344.663 164.635 C 344.138 163.554,344.069 163.525,343.698 164.235 M346.058 168.524 C 346.356 169.078,347.202 170.762,347.939 172.266 C 348.675 173.770,349.444 175.270,349.647 175.600 C 349.850 175.930,350.297 176.830,350.641 177.600 C 351.574 179.691,353.163 182.919,353.594 183.600 C 353.803 183.930,354.522 185.370,355.193 186.800 C 355.863 188.230,356.574 189.670,356.773 190.000 C 356.973 190.330,358.071 192.580,359.215 195.000 C 363.073 203.163,368.592 214.534,369.768 216.743 C 376.049 228.538,375.209 233.597,366.665 235.422 C 365.969 235.571,364.950 235.939,364.400 236.241 C 363.850 236.542,362.635 237.062,361.700 237.395 C 357.810 238.780,356.536 239.265,355.340 239.818 C 354.646 240.138,353.746 240.406,353.340 240.414 C 352.933 240.421,351.880 240.775,351.000 241.200 C 350.120 241.625,349.125 241.979,348.789 241.986 C 348.453 241.994,347.816 242.253,347.374 242.563 C 346.932 242.873,345.947 243.188,345.185 243.263 L 343.800 243.400 343.676 214.800 C 343.475 168.771,343.713 164.163,346.058 168.524 M148.239 172.500 C 147.248 174.038,147.129 227.700,148.114 228.686 C 149.063 229.635,250.477 230.066,251.664 229.126 C 252.266 228.649,252.354 226.021,252.611 200.947 L 252.894 173.294 252.047 172.447 L 251.200 171.600 200.009 171.600 L 148.818 171.600 148.239 172.500 M251.226 172.814 C 252.009 173.233,252.480 222.843,251.743 227.300 L 251.495 228.800 200.448 228.794 C 169.862 228.790,149.165 228.639,148.815 228.418 C 148.147 227.995,148.138 227.397,148.300 193.887 L 148.400 173.174 149.300 172.812 C 150.614 172.284,250.239 172.286,251.226 172.814 " stroke="none" fill="#fc9c9c" fill-rule="evenodd"></path></g></svg>