<svg id="svg" version="1.1" xmlns="http://www.w3.org/2000/svg" xmlns:xlink="http://www.w3.org/1999/xlink" width="400" height="400" viewBox="0, 0, 400,400"><g id="svgg"><path id="path0" d="M155.843 127.033 C 155.464 128.019,155.570 273.733,155.949 274.331 C 156.213 274.747,156.757 274.574,158.453 273.531 C 161.981 271.363,162.099 271.295,164.600 269.973 C 165.920 269.276,167.270 268.502,167.600 268.253 C 167.930 268.004,168.560 267.604,169.000 267.363 C 173.430 264.947,174.685 264.231,175.200 263.831 C 175.530 263.575,176.340 263.106,177.000 262.789 C 177.660 262.471,179.280 261.567,180.600 260.780 C 181.920 259.992,183.270 259.222,183.600 259.069 C 183.930 258.915,185.100 258.247,186.200 257.583 C 187.300 256.920,188.605 256.207,189.100 255.999 C 189.595 255.790,190.000 255.435,190.000 255.210 C 190.000 254.984,190.244 254.800,190.541 254.800 C 190.839 254.800,192.594 253.913,194.441 252.829 C 196.289 251.745,198.700 250.374,199.800 249.784 C 200.900 249.194,202.070 248.479,202.400 248.197 C 202.730 247.914,204.427 246.940,206.171 246.032 C 207.915 245.123,209.552 244.206,209.808 243.993 C 210.065 243.780,211.518 242.960,213.037 242.170 C 214.557 241.380,216.340 240.339,217.000 239.856 C 217.660 239.374,218.920 238.624,219.800 238.189 C 220.680 237.755,222.499 236.725,223.843 235.900 C 225.187 235.075,226.492 234.400,226.743 234.400 C 226.994 234.400,227.200 234.220,227.200 234.000 C 227.200 233.780,227.405 233.600,227.656 233.600 C 227.906 233.600,229.031 233.029,230.156 232.331 C 231.280 231.633,233.550 230.348,235.200 229.475 C 236.850 228.602,238.740 227.501,239.400 227.029 C 240.060 226.557,241.770 225.564,243.200 224.824 C 244.630 224.083,246.250 223.167,246.800 222.790 C 247.350 222.412,248.790 221.573,250.000 220.926 C 252.825 219.416,254.054 218.707,254.800 218.159 C 255.130 217.916,256.840 216.952,258.600 216.015 C 260.360 215.078,262.070 214.101,262.400 213.843 C 262.730 213.586,263.810 212.949,264.800 212.428 C 265.790 211.907,266.870 211.268,267.200 211.007 C 267.530 210.746,268.520 210.167,269.400 209.720 C 271.996 208.402,274.158 207.155,274.800 206.604 C 275.130 206.321,276.220 205.721,277.222 205.270 C 278.223 204.820,279.997 203.810,281.162 203.026 C 282.327 202.242,283.513 201.600,283.797 201.600 C 284.082 201.600,284.424 201.314,284.559 200.964 C 284.823 200.275,284.555 199.600,284.017 199.600 C 283.833 199.600,282.538 198.912,281.141 198.071 C 279.743 197.230,277.745 196.134,276.700 195.635 C 275.655 195.137,274.800 194.586,274.800 194.411 C 274.800 194.236,274.485 193.991,274.100 193.865 C 273.085 193.535,268.799 191.150,267.333 190.100 C 266.642 189.605,265.939 189.200,265.772 189.200 C 265.604 189.200,264.192 188.407,262.634 187.438 C 261.075 186.469,259.125 185.355,258.300 184.964 C 257.475 184.572,256.800 184.105,256.800 183.926 C 256.800 183.747,256.539 183.600,256.220 183.600 C 255.901 183.600,254.866 183.087,253.920 182.460 C 252.974 181.834,251.210 180.807,250.000 180.180 C 248.790 179.552,247.530 178.821,247.200 178.556 C 246.627 178.094,243.959 176.590,241.400 175.285 C 240.740 174.949,239.734 174.350,239.163 173.955 C 238.593 173.559,236.934 172.614,235.476 171.854 C 234.018 171.094,232.324 170.141,231.711 169.736 C 229.836 168.498,229.078 168.055,227.000 166.985 C 225.900 166.419,223.680 165.155,222.066 164.178 C 220.452 163.200,218.934 162.400,218.692 162.400 C 218.450 162.400,217.880 162.059,217.426 161.643 C 216.972 161.227,215.653 160.397,214.497 159.800 C 213.340 159.202,212.294 158.552,212.173 158.356 C 212.052 158.160,211.711 158.000,211.417 158.000 C 211.122 158.000,209.927 157.358,208.762 156.574 C 207.597 155.790,205.823 154.780,204.822 154.330 C 203.820 153.879,202.730 153.279,202.400 152.996 C 202.070 152.713,201.170 152.131,200.400 151.702 C 199.630 151.273,197.244 149.907,195.098 148.665 C 192.952 147.424,189.480 145.416,187.384 144.204 C 185.287 142.992,183.457 142.000,183.317 142.000 C 183.177 142.000,182.779 141.751,182.431 141.447 C 182.084 141.143,180.720 140.324,179.400 139.627 C 176.857 138.283,176.014 137.797,174.402 136.748 C 173.851 136.390,172.230 135.482,170.800 134.731 C 169.370 133.980,167.480 132.909,166.600 132.352 C 165.720 131.794,164.010 130.821,162.800 130.188 C 161.590 129.556,160.330 128.823,160.000 128.560 C 159.368 128.056,156.479 126.400,156.231 126.400 C 156.151 126.400,155.976 126.685,155.843 127.033 M1.200 216.800 C 1.200 217.680,1.380 218.400,1.600 218.400 C 1.820 218.400,2.000 217.680,2.000 216.800 C 2.000 215.920,1.820 215.200,1.600 215.200 C 1.380 215.200,1.200 215.920,1.200 216.800 M225.200 391.600 C 225.200 392.040,225.380 392.400,225.600 392.400 C 225.820 392.400,226.000 392.040,226.000 391.600 C 226.000 391.160,225.820 390.800,225.600 390.800 C 225.380 390.800,225.200 391.160,225.200 391.600 " stroke="none" fill="#fbfbfb" fill-rule="evenodd"></path><path id="path1" d="M184.509 1.909 C 183.799 2.729,159.814 26.800,131.210 55.400 C 102.605 84.000,79.201 107.554,79.200 107.741 C 79.200 107.929,82.536 111.422,86.613 115.503 C 93.755 122.654,94.517 123.648,93.068 123.929 C 92.636 124.013,92.478 123.863,92.617 123.500 C 92.745 123.167,92.440 122.764,91.861 122.500 C 90.998 122.107,90.912 122.144,91.092 122.829 C 91.203 123.253,91.452 123.600,91.647 123.600 C 91.841 123.600,92.000 123.870,92.000 124.200 C 92.000 124.530,91.820 124.800,91.600 124.800 C 91.380 124.800,91.200 124.993,91.200 125.229 C 91.200 125.777,90.398 126.570,89.500 126.910 C 89.115 127.056,88.800 127.369,88.800 127.606 C 88.800 128.258,86.921 130.000,86.218 130.000 C 85.878 130.000,85.600 130.283,85.600 130.629 C 85.600 131.378,84.991 131.998,83.500 132.768 C 82.895 133.080,82.400 133.588,82.400 133.896 C 82.400 134.636,81.413 135.600,80.656 135.600 C 80.325 135.600,79.946 135.939,79.815 136.352 C 79.500 137.344,78.374 138.591,77.500 138.915 C 77.115 139.058,76.800 139.369,76.800 139.606 C 76.800 140.158,74.968 142.000,74.418 142.000 C 74.188 142.000,74.000 142.193,74.000 142.429 C 74.000 142.916,73.317 143.602,72.210 144.227 C 71.794 144.461,71.261 144.994,71.027 145.410 C 70.340 146.628,69.701 147.200,69.029 147.200 C 68.683 147.200,68.400 147.470,68.400 147.800 C 68.400 148.130,68.220 148.400,68.000 148.400 C 67.780 148.400,67.600 148.593,67.600 148.829 C 67.600 149.466,66.547 150.400,65.829 150.400 C 65.483 150.400,65.200 150.694,65.200 151.053 C 65.200 151.784,63.275 153.599,62.500 153.600 C 62.225 153.600,62.000 153.883,62.000 154.229 C 62.000 154.901,61.080 156.000,60.517 156.000 C 60.330 156.000,59.912 156.390,59.588 156.866 C 59.015 157.709,58.203 158.556,57.129 159.430 C 56.838 159.667,56.242 160.342,55.805 160.930 C 55.368 161.519,54.693 162.000,54.305 162.000 C 53.917 162.000,53.600 162.294,53.600 162.653 C 53.600 163.389,52.289 164.654,51.152 165.015 C 50.739 165.146,50.400 165.525,50.400 165.856 C 50.400 166.613,49.436 167.600,48.696 167.600 C 48.388 167.600,47.880 168.095,47.568 168.700 C 46.857 170.078,46.186 170.800,45.616 170.800 C 45.373 170.800,45.054 171.115,44.907 171.499 C 44.564 172.392,42.964 174.000,42.418 174.000 C 42.188 174.000,42.000 174.193,42.000 174.429 C 42.000 174.947,41.367 175.575,39.900 176.514 C 39.295 176.902,38.800 177.407,38.800 177.638 C 38.800 178.117,38.111 178.806,37.010 179.427 C 36.594 179.661,36.061 180.194,35.827 180.610 C 35.140 181.828,34.501 182.400,33.829 182.400 C 33.483 182.400,33.200 182.678,33.200 183.018 C 33.200 183.818,31.418 185.600,30.618 185.600 C 30.278 185.600,30.000 185.883,30.000 186.229 C 30.000 186.832,29.099 188.000,28.633 188.000 C 28.251 188.000,26.800 189.359,26.800 189.717 C 26.800 190.115,25.775 191.200,25.400 191.200 C 25.066 191.200,24.000 192.266,24.000 192.600 C 24.000 192.996,23.078 193.815,22.300 194.110 C 21.915 194.256,21.600 194.569,21.600 194.806 C 21.600 195.458,19.721 197.200,19.018 197.200 C 18.678 197.200,18.400 197.483,18.400 197.829 C 18.400 198.578,17.791 199.198,16.300 199.968 C 15.695 200.280,15.200 200.788,15.200 201.096 C 15.200 201.836,14.213 202.800,13.456 202.800 C 13.125 202.800,12.746 203.139,12.615 203.552 C 12.300 204.544,11.174 205.791,10.300 206.115 C 9.915 206.258,9.600 206.585,9.600 206.842 C 9.600 207.385,7.737 209.200,7.179 209.200 C 6.971 209.200,6.800 209.393,6.800 209.629 C 6.800 210.116,6.117 210.802,5.010 211.427 C 4.594 211.661,4.061 212.194,3.827 212.610 C 3.213 213.697,2.518 214.400,2.056 214.400 C 1.803 214.400,1.780 214.834,1.995 215.583 C 2.182 216.233,2.238 217.133,2.120 217.583 C 1.999 218.045,2.100 218.400,2.353 218.400 C 2.599 218.400,2.800 218.625,2.800 218.900 C 2.801 219.623,4.594 221.600,5.249 221.600 C 5.555 221.600,6.040 222.131,6.327 222.781 C 6.615 223.431,7.195 224.072,7.617 224.205 C 8.039 224.339,8.696 224.978,9.078 225.624 C 9.460 226.271,10.017 226.800,10.315 226.800 C 10.975 226.800,12.000 227.773,12.000 228.400 C 12.000 229.062,13.039 230.000,13.771 230.000 C 14.117 230.000,14.400 230.278,14.400 230.618 C 14.400 231.418,16.182 233.200,16.982 233.200 C 17.322 233.200,17.600 233.494,17.600 233.853 C 17.600 234.584,19.525 236.399,20.300 236.400 C 20.575 236.400,20.800 236.683,20.800 237.029 C 20.800 237.837,21.763 238.800,22.571 238.800 C 22.917 238.800,23.200 238.979,23.200 239.197 C 23.200 239.818,24.885 241.600,25.472 241.600 C 25.762 241.600,26.000 241.752,26.000 241.939 C 26.000 242.471,27.444 244.000,27.947 244.000 C 28.559 244.000,28.524 243.312,27.900 243.083 C 27.501 242.937,27.502 242.792,27.904 242.366 C 28.318 241.928,35.613 249.031,68.417 281.816 C 90.421 303.807,108.516 321.882,108.627 321.981 C 108.738 322.081,112.313 318.683,116.570 314.430 C 121.174 309.830,124.493 306.810,124.762 306.976 C 125.010 307.130,125.100 307.438,124.961 307.662 C 124.499 308.410,126.069 311.163,127.257 311.689 C 127.886 311.968,128.400 312.445,128.400 312.751 C 128.400 313.406,130.377 315.199,131.100 315.200 C 131.375 315.200,131.600 315.483,131.600 315.829 C 131.600 316.637,132.563 317.600,133.371 317.600 C 133.717 317.600,134.000 317.825,134.000 318.100 C 134.001 318.875,135.816 320.800,136.547 320.800 C 136.906 320.800,137.200 321.094,137.200 321.453 C 137.200 322.189,138.511 323.454,139.648 323.815 C 140.061 323.946,140.400 324.246,140.400 324.480 C 140.400 324.939,142.404 326.799,142.900 326.800 C 143.065 326.800,143.200 327.083,143.200 327.429 C 143.200 328.237,144.163 329.200,144.971 329.200 C 145.317 329.200,145.600 329.425,145.600 329.700 C 145.601 330.475,147.416 332.400,148.147 332.400 C 148.506 332.400,148.800 332.678,148.800 333.018 C 148.800 333.818,150.582 335.600,151.382 335.600 C 151.722 335.600,152.000 335.883,152.000 336.229 C 152.000 336.978,152.609 337.598,154.100 338.368 C 154.705 338.680,155.200 339.250,155.200 339.634 C 155.200 340.026,155.727 340.566,156.400 340.864 C 157.060 341.156,157.600 341.540,157.600 341.716 C 157.600 342.185,159.493 344.000,159.982 344.000 C 160.212 344.000,160.400 344.294,160.400 344.653 C 160.400 345.384,162.325 347.199,163.100 347.200 C 163.375 347.200,163.600 347.483,163.600 347.829 C 163.600 348.609,164.554 349.600,165.304 349.600 C 165.612 349.600,166.120 350.095,166.432 350.700 C 167.202 352.191,167.822 352.800,168.571 352.800 C 168.917 352.800,169.200 353.094,169.200 353.453 C 169.200 354.184,171.125 355.999,171.900 356.000 C 172.175 356.000,172.400 356.239,172.400 356.530 C 172.400 357.122,174.043 358.799,174.626 358.803 C 174.832 358.804,175.307 359.344,175.681 360.003 C 176.056 360.661,176.629 361.200,176.954 361.200 C 177.280 361.200,177.654 361.539,177.785 361.952 C 178.146 363.089,179.411 364.400,180.147 364.400 C 180.506 364.400,180.800 364.678,180.800 365.018 C 180.800 365.818,182.582 367.600,183.382 367.600 C 183.722 367.600,184.000 367.894,184.000 368.253 C 184.000 368.984,185.925 370.799,186.700 370.800 C 186.975 370.800,187.200 371.083,187.200 371.429 C 187.200 372.237,188.163 373.200,188.971 373.200 C 189.317 373.200,189.600 373.388,189.600 373.618 C 189.600 374.135,191.427 376.000,191.933 376.000 C 192.137 376.000,192.524 376.533,192.794 377.185 C 193.064 377.837,193.806 378.601,194.442 378.883 C 195.079 379.165,195.600 379.645,195.600 379.951 C 195.600 380.606,197.577 382.399,198.300 382.400 C 198.575 382.400,198.800 382.683,198.800 383.029 C 198.800 383.837,199.763 384.800,200.571 384.800 C 200.917 384.800,201.200 385.025,201.200 385.300 C 201.201 386.023,202.994 388.000,203.649 388.000 C 203.955 388.000,204.432 388.512,204.709 389.139 C 205.286 390.443,207.025 391.460,207.342 390.679 C 207.449 390.416,207.551 390.629,207.568 391.153 C 207.597 392.015,209.361 393.998,210.100 394.000 C 210.265 394.000,210.400 394.283,210.400 394.629 C 210.400 395.437,211.363 396.400,212.171 396.400 C 212.517 396.400,212.800 396.625,212.800 396.900 C 212.801 397.175,213.227 397.895,213.747 398.500 C 214.697 399.605,215.600 399.946,215.600 399.200 C 215.600 398.980,215.960 398.800,216.400 398.800 C 216.840 398.800,217.200 398.980,217.200 399.200 C 217.200 399.887,218.196 399.638,218.800 398.800 C 219.117 398.360,219.607 398.000,219.888 398.000 C 220.170 398.000,220.400 397.830,220.400 397.623 C 220.400 397.415,221.480 396.145,222.800 394.800 C 224.706 392.858,225.203 392.092,225.213 391.077 C 225.225 389.893,225.267 389.854,225.788 390.543 C 226.328 391.256,226.392 391.244,227.394 390.243 C 227.967 389.669,228.608 389.200,228.818 389.200 C 229.028 389.200,229.200 389.002,229.200 388.760 C 229.200 388.248,231.515 386.000,232.042 386.000 C 232.239 386.000,232.400 385.816,232.400 385.591 C 232.400 385.059,236.659 380.800,237.191 380.800 C 237.416 380.800,237.600 380.639,237.600 380.442 C 237.600 379.943,239.836 377.600,240.312 377.600 C 240.527 377.600,240.927 377.060,241.200 376.400 C 241.473 375.740,241.850 375.200,242.037 375.200 C 242.224 375.200,243.700 373.882,245.316 372.271 C 246.933 370.659,248.558 369.225,248.928 369.083 C 249.297 368.941,249.600 368.631,249.600 368.394 C 249.600 367.838,251.198 366.240,252.101 365.893 C 252.485 365.746,252.800 365.444,252.800 365.223 C 252.800 364.685,260.244 357.200,260.780 357.200 C 261.011 357.200,261.200 357.002,261.200 356.760 C 261.200 356.248,263.515 354.000,264.042 354.000 C 264.239 354.000,264.400 353.807,264.400 353.571 C 264.400 353.228,277.525 339.825,291.897 325.492 C 293.051 324.341,297.148 320.250,301.002 316.400 C 304.857 312.550,308.561 308.860,309.234 308.200 C 317.062 300.520,324.000 293.462,324.000 293.178 C 324.000 292.546,322.837 293.253,322.588 294.037 C 322.455 294.457,322.128 294.800,321.861 294.800 C 321.595 294.800,321.112 295.196,320.788 295.680 C 320.465 296.164,318.149 298.549,315.641 300.980 C 313.134 303.411,309.444 307.073,307.441 309.119 C 305.439 311.164,301.942 314.674,299.672 316.919 C 297.401 319.163,293.711 322.845,291.472 325.099 C 283.449 333.177,279.955 336.666,275.511 341.042 C 273.030 343.486,270.370 346.227,269.600 347.133 C 268.339 348.619,266.400 349.429,266.400 348.471 C 266.400 348.290,278.906 335.645,294.191 320.371 C 309.477 305.097,321.987 292.478,321.991 292.328 C 321.996 292.179,318.850 288.919,315.000 285.084 C 307.806 277.919,307.434 277.434,308.800 277.000 C 309.240 276.860,309.600 276.578,309.600 276.373 C 309.600 276.168,309.883 276.000,310.229 276.000 C 310.852 276.000,312.000 275.093,312.000 274.600 C 312.000 274.179,313.108 273.200,313.584 273.200 C 313.827 273.200,314.144 272.885,314.290 272.500 C 314.628 271.608,315.128 271.140,316.500 270.432 C 317.105 270.120,317.600 269.612,317.600 269.304 C 317.600 268.694,318.205 268.042,319.390 267.373 C 319.806 267.139,320.339 266.606,320.573 266.190 C 321.194 265.089,321.883 264.400,322.362 264.400 C 322.593 264.400,323.098 263.905,323.486 263.300 C 324.425 261.833,325.053 261.200,325.571 261.200 C 325.807 261.200,326.000 260.917,326.000 260.571 C 326.000 259.839,326.938 258.800,327.600 258.800 C 328.089 258.800,329.200 257.827,329.200 257.400 C 329.200 257.068,330.028 256.316,330.990 255.773 C 331.406 255.539,331.939 255.006,332.173 254.590 C 332.833 253.421,333.492 252.800,334.074 252.800 C 334.366 252.800,334.839 252.270,335.126 251.623 C 335.412 250.976,336.176 250.212,336.823 249.926 C 337.470 249.639,338.000 249.166,338.000 248.874 C 338.000 248.313,338.947 247.200,339.425 247.200 C 339.849 247.200,341.144 245.608,341.415 244.752 C 341.546 244.339,341.925 244.000,342.256 244.000 C 343.038 244.000,344.000 243.027,344.000 242.236 C 344.000 241.895,344.452 241.502,345.004 241.363 C 345.555 241.225,346.310 240.599,346.680 239.973 C 347.050 239.346,347.858 238.624,348.476 238.368 C 349.094 238.112,349.600 237.642,349.600 237.323 C 349.600 236.620,350.235 235.988,351.700 235.232 C 352.305 234.920,352.800 234.412,352.800 234.104 C 352.800 233.494,353.405 232.842,354.590 232.173 C 355.006 231.939,355.539 231.406,355.773 230.990 C 356.406 229.869,357.086 229.200,357.592 229.200 C 357.839 229.200,358.230 228.660,358.460 228.000 C 358.690 227.340,359.144 226.800,359.468 226.800 C 360.061 226.800,361.200 225.879,361.200 225.400 C 361.200 225.045,361.994 224.322,363.300 223.486 C 363.905 223.098,364.400 222.593,364.400 222.362 C 364.400 221.759,365.446 220.800,366.104 220.800 C 366.412 220.800,366.920 220.305,367.232 219.700 C 368.002 218.209,368.622 217.600,369.371 217.600 C 369.717 217.600,370.000 217.317,370.000 216.971 C 370.000 216.368,370.901 215.200,371.367 215.200 C 371.749 215.200,373.200 213.841,373.200 213.483 C 373.200 213.085,374.225 212.000,374.600 212.000 C 375.027 212.000,376.000 210.889,376.000 210.400 C 376.000 210.149,376.257 209.686,376.571 209.371 C 376.886 209.057,377.349 208.800,377.600 208.800 C 378.089 208.800,379.200 207.827,379.200 207.400 C 379.200 207.004,380.122 206.185,380.900 205.890 C 381.285 205.744,381.600 205.427,381.600 205.184 C 381.600 204.614,382.322 203.943,383.700 203.232 C 384.305 202.920,384.800 202.412,384.800 202.104 C 384.800 201.381,385.781 200.400,386.504 200.400 C 386.812 200.400,387.320 199.905,387.632 199.300 C 388.337 197.935,389.014 197.200,389.566 197.200 C 389.799 197.200,390.444 196.480,391.000 195.600 C 391.556 194.720,392.278 194.000,392.605 194.000 C 392.932 194.000,393.200 193.820,393.200 193.600 C 393.200 193.380,393.020 193.200,392.800 193.200 C 392.580 193.200,392.400 192.947,392.400 192.637 C 392.400 192.272,392.680 192.148,393.200 192.284 C 393.647 192.401,394.000 192.296,394.000 192.047 C 394.000 191.801,394.283 191.600,394.629 191.600 C 395.252 191.600,396.400 190.693,396.400 190.200 C 396.400 189.864,397.233 189.113,398.217 188.561 C 399.927 187.601,400.710 183.167,399.400 181.857 C 399.070 181.527,398.800 181.064,398.800 180.829 C 398.800 180.593,398.639 180.400,398.442 180.400 C 397.940 180.400,395.600 178.163,395.600 177.682 C 395.600 177.095,394.698 176.854,393.417 177.099 C 392.360 177.301,392.299 177.241,392.496 176.210 C 392.679 175.251,392.314 174.709,389.754 172.141 C 388.129 170.511,386.800 169.002,386.800 168.789 C 386.800 168.575,386.612 168.400,386.382 168.400 C 385.836 168.400,384.236 166.792,383.893 165.899 C 383.746 165.515,383.456 165.200,383.250 165.200 C 383.043 165.200,381.295 163.670,379.365 161.800 C 377.435 159.930,375.709 158.400,375.528 158.400 C 375.348 158.400,375.200 158.040,375.200 157.600 C 375.200 157.160,375.002 156.800,374.760 156.800 C 374.248 156.800,372.000 154.485,372.000 153.958 C 372.000 153.761,371.820 153.600,371.601 153.600 C 371.381 153.600,369.571 151.960,367.578 149.956 C 365.585 147.952,363.834 146.433,363.686 146.581 C 363.538 146.729,363.998 147.357,364.708 147.978 C 365.975 149.084,366.353 150.135,365.641 150.575 C 365.443 150.697,349.177 134.687,329.493 114.998 C 309.809 95.309,293.546 79.203,293.352 79.206 C 293.158 79.209,289.672 82.539,285.604 86.606 C 278.810 93.398,277.200 94.734,277.200 93.579 C 277.200 92.975,288.066 81.766,291.624 78.700 C 293.281 77.272,293.626 77.308,295.519 79.100 C 296.390 79.925,298.295 81.719,299.751 83.086 C 301.208 84.454,302.400 85.759,302.400 85.986 C 302.400 86.214,302.670 86.400,303.000 86.400 C 303.330 86.400,303.600 86.560,303.600 86.756 C 303.600 87.070,307.189 90.727,317.274 100.691 C 318.883 102.281,322.208 105.611,324.663 108.091 C 327.117 110.571,330.987 114.447,333.263 116.704 C 335.538 118.962,339.407 122.832,341.860 125.304 C 344.312 127.777,347.687 131.110,349.360 132.711 C 351.032 134.312,352.400 135.797,352.400 136.011 C 352.400 136.225,352.670 136.400,353.000 136.400 C 353.330 136.400,353.600 136.562,353.600 136.759 C 353.600 137.389,363.143 146.816,363.385 146.425 C 363.512 146.218,362.695 145.183,361.569 144.125 C 360.443 143.066,358.774 141.412,357.861 140.449 C 356.947 139.485,353.077 135.615,349.260 131.849 C 345.443 128.082,341.753 124.412,341.060 123.694 C 339.675 122.258,328.586 111.147,325.996 108.600 C 325.102 107.720,321.233 103.850,317.399 100.000 C 313.566 96.150,309.875 92.460,309.197 91.800 C 308.519 91.140,304.957 87.538,301.282 83.795 C 295.473 77.879,294.430 76.983,293.300 76.941 C 292.585 76.915,292.000 77.040,292.000 77.220 C 292.000 77.399,291.640 77.660,291.200 77.800 C 290.760 77.940,290.400 78.217,290.400 78.416 C 290.400 78.906,279.680 89.600,279.189 89.600 C 278.975 89.600,278.800 89.752,278.800 89.939 C 278.800 90.125,278.447 90.685,278.015 91.183 C 277.159 92.170,276.000 91.621,276.000 90.229 C 276.000 89.883,275.802 89.600,275.560 89.600 C 275.048 89.600,272.800 87.285,272.800 86.758 C 272.800 86.561,272.627 86.400,272.415 86.400 C 271.913 86.400,264.400 78.887,264.400 78.385 C 264.400 78.173,264.239 78.000,264.042 78.000 C 263.515 78.000,261.200 75.752,261.200 75.240 C 261.200 74.998,260.885 74.798,260.500 74.796 C 260.115 74.794,259.360 74.236,258.823 73.556 C 258.286 72.876,257.341 71.779,256.723 71.118 C 256.105 70.456,255.600 69.754,255.600 69.558 C 255.600 69.361,255.412 69.200,255.182 69.200 C 254.636 69.200,253.036 67.592,252.693 66.699 C 252.546 66.315,252.231 66.000,251.994 66.000 C 251.442 66.000,249.600 64.168,249.600 63.618 C 249.600 63.388,249.430 63.200,249.223 63.200 C 248.699 63.200,244.000 58.541,244.000 58.022 C 244.000 57.790,243.706 57.600,243.347 57.600 C 242.611 57.600,241.346 56.289,240.985 55.152 C 240.854 54.739,240.560 54.400,240.334 54.400 C 239.841 54.400,237.600 52.069,237.600 51.558 C 237.600 51.361,237.416 51.200,237.191 51.200 C 236.659 51.200,232.400 46.941,232.400 46.409 C 232.400 46.184,232.239 46.000,232.042 46.000 C 231.515 46.000,229.200 43.752,229.200 43.240 C 229.200 42.998,228.975 42.800,228.700 42.800 C 227.925 42.799,226.000 40.984,226.000 40.253 C 226.000 39.894,225.822 39.600,225.605 39.600 C 225.105 39.600,220.400 34.875,220.400 34.373 C 220.400 34.168,220.212 34.000,219.982 34.000 C 219.436 34.000,217.836 32.392,217.493 31.499 C 217.346 31.115,217.039 30.800,216.812 30.800 C 216.294 30.800,212.000 26.501,212.000 25.982 C 212.000 25.772,211.722 25.600,211.382 25.600 C 210.582 25.600,208.800 23.818,208.800 23.018 C 208.800 22.678,208.602 22.400,208.360 22.400 C 207.848 22.400,205.600 20.085,205.600 19.558 C 205.600 19.361,205.418 19.200,205.196 19.200 C 204.681 19.200,197.200 11.702,197.200 11.186 C 197.200 10.974,197.039 10.800,196.842 10.800 C 196.315 10.800,194.000 8.552,194.000 8.040 C 194.000 7.798,193.685 7.598,193.300 7.596 C 192.915 7.594,192.160 7.036,191.623 6.356 C 191.086 5.676,190.141 4.579,189.523 3.918 C 188.905 3.256,188.400 2.554,188.400 2.358 C 188.400 2.161,188.170 2.000,187.888 2.000 C 187.607 2.000,187.117 1.640,186.800 1.200 C 186.048 0.156,186.019 0.165,184.509 1.909 M181.293 2.000 C 180.893 2.641,180.893 2.797,181.297 2.787 C 181.869 2.773,183.200 1.842,183.200 1.456 C 183.200 0.854,181.750 1.268,181.293 2.000 M178.976 4.587 C 178.219 5.160,178.223 5.175,179.100 5.187 C 179.639 5.195,180.000 4.959,180.000 4.600 C 180.000 3.859,179.941 3.858,178.976 4.587 M176.100 7.398 C 175.443 8.144,175.469 8.400,176.200 8.400 C 176.530 8.400,176.800 8.325,176.800 8.233 C 176.800 8.141,176.909 7.781,177.043 7.433 C 177.342 6.652,176.775 6.631,176.100 7.398 M174.007 9.896 C 173.131 10.240,172.266 11.200,172.565 11.498 C 172.707 11.641,173.310 11.272,173.903 10.679 C 175.013 9.569,175.022 9.497,174.007 9.896 M169.889 13.605 C 168.910 14.748,169.029 14.860,170.397 14.081 C 171.651 13.368,171.958 12.800,171.089 12.800 C 170.808 12.800,170.268 13.162,169.889 13.605 M167.700 15.688 C 167.205 15.927,166.800 16.365,166.800 16.661 C 166.800 17.662,168.075 17.097,168.517 15.900 C 168.659 15.515,168.736 15.212,168.687 15.227 C 168.639 15.242,168.195 15.449,167.700 15.688 M164.200 19.200 C 163.625 19.835,163.596 20.000,164.058 20.000 C 164.685 20.000,165.600 19.241,165.600 18.720 C 165.600 18.153,164.944 18.378,164.200 19.200 M161.311 22.100 C 160.256 23.464,160.317 23.694,161.541 22.971 C 162.233 22.562,162.800 22.086,162.800 21.914 C 162.800 21.416,161.737 21.549,161.311 22.100 M159.207 24.696 C 158.399 25.013,157.457 25.991,157.713 26.247 C 157.999 26.533,159.539 25.535,159.780 24.909 C 159.887 24.629,159.936 24.414,159.887 24.432 C 159.839 24.449,159.533 24.568,159.207 24.696 M155.592 27.810 C 155.314 28.145,155.176 28.509,155.286 28.619 C 155.648 28.981,156.800 28.326,156.800 27.757 C 156.800 27.023,156.224 27.048,155.592 27.810 M152.537 30.869 C 151.515 31.999,152.168 32.161,153.417 31.087 C 154.238 30.381,154.354 30.133,153.864 30.133 C 153.501 30.133,152.904 30.464,152.537 30.869 M149.398 34.002 C 148.304 35.212,148.945 35.384,150.254 34.233 C 151.071 33.514,151.217 33.222,150.762 33.213 C 150.411 33.206,149.797 33.561,149.398 34.002 M146.767 36.833 C 146.308 37.292,146.021 37.754,146.128 37.861 C 146.445 38.178,148.000 37.051,148.000 36.504 C 148.000 35.799,147.728 35.872,146.767 36.833 M144.100 39.398 C 143.443 40.144,143.469 40.400,144.200 40.400 C 144.530 40.400,144.800 40.325,144.800 40.233 C 144.800 40.141,144.909 39.781,145.043 39.433 C 145.342 38.652,144.775 38.631,144.100 39.398 M140.860 42.642 C 139.987 43.628,140.739 43.839,141.700 42.878 C 142.335 42.243,142.415 42.004,141.989 42.015 C 141.665 42.024,141.157 42.305,140.860 42.642 M137.798 45.602 C 136.673 46.846,137.487 47.095,138.703 45.879 C 139.493 45.089,139.614 44.800,139.153 44.800 C 138.807 44.800,138.197 45.161,137.798 45.602 M135.695 47.866 C 135.418 47.978,135.007 48.413,134.783 48.832 C 134.408 49.533,134.456 49.557,135.387 49.133 C 136.132 48.794,136.967 47.421,136.300 47.632 C 136.245 47.649,135.973 47.755,135.695 47.866 M132.300 50.957 C 131.554 51.523,131.354 52.400,131.971 52.400 C 132.452 52.400,133.600 51.252,133.600 50.771 C 133.600 50.260,133.130 50.327,132.300 50.957 M129.000 54.400 C 128.297 55.176,128.301 55.200,129.138 55.200 C 129.612 55.200,130.000 55.125,130.000 55.033 C 130.000 54.941,130.109 54.581,130.243 54.233 C 130.583 53.347,129.865 53.444,129.000 54.400 M126.060 57.442 C 125.762 57.778,125.610 58.143,125.721 58.254 C 125.975 58.508,127.600 57.513,127.600 57.104 C 127.600 56.586,126.628 56.799,126.060 57.442 M124.545 59.400 C 124.418 59.730,124.064 60.000,123.757 60.000 C 123.451 60.000,123.200 60.180,123.200 60.400 C 123.200 61.282,124.513 60.593,124.917 59.500 C 125.059 59.115,125.085 58.800,124.975 58.800 C 124.865 58.800,124.671 59.070,124.545 59.400 M121.341 62.397 C 120.445 62.759,119.788 63.522,120.103 63.836 C 120.431 64.164,121.406 63.602,121.912 62.792 C 122.184 62.357,122.360 62.011,122.303 62.025 C 122.247 62.039,121.813 62.207,121.341 62.397 M117.400 66.000 C 116.806 66.656,116.784 66.800,117.276 66.800 C 117.606 66.800,118.202 66.440,118.600 66.000 C 119.194 65.344,119.216 65.200,118.724 65.200 C 118.394 65.200,117.798 65.560,117.400 66.000 M114.200 69.200 C 113.651 69.807,113.612 69.997,114.038 69.987 C 114.798 69.970,116.052 68.985,115.727 68.660 C 115.302 68.236,114.965 68.355,114.200 69.200 M112.100 71.493 C 111.605 71.825,111.200 72.239,111.200 72.411 C 111.200 72.958,112.734 72.348,112.982 71.703 C 113.313 70.839,113.135 70.796,112.100 71.493 M108.900 74.598 C 108.243 75.344,108.269 75.600,109.000 75.600 C 109.330 75.600,109.600 75.525,109.600 75.433 C 109.600 75.341,109.709 74.981,109.843 74.633 C 110.142 73.852,109.575 73.831,108.900 74.598 M105.660 77.842 C 104.787 78.828,105.539 79.039,106.500 78.078 C 107.135 77.443,107.215 77.204,106.789 77.215 C 106.465 77.224,105.957 77.505,105.660 77.842 M102.689 80.805 C 101.710 81.948,101.829 82.060,103.197 81.281 C 104.451 80.568,104.758 80.000,103.889 80.000 C 103.608 80.000,103.068 80.362,102.689 80.805 M100.500 82.888 C 100.005 83.127,99.600 83.565,99.600 83.861 C 99.600 84.862,100.875 84.297,101.317 83.100 C 101.459 82.715,101.536 82.412,101.487 82.427 C 101.439 82.442,100.995 82.649,100.500 82.888 M97.000 86.400 C 96.425 87.035,96.396 87.200,96.858 87.200 C 97.485 87.200,98.400 86.441,98.400 85.920 C 98.400 85.353,97.744 85.578,97.000 86.400 M94.060 89.442 C 93.187 90.428,93.939 90.639,94.900 89.678 C 95.535 89.043,95.615 88.804,95.189 88.815 C 94.865 88.824,94.357 89.105,94.060 89.442 M91.671 92.020 C 91.192 92.466,90.814 93.049,90.832 93.316 C 90.855 93.678,90.914 93.674,91.065 93.300 C 91.176 93.025,91.502 92.800,91.791 92.800 C 92.281 92.800,92.985 91.651,92.680 91.347 C 92.604 91.271,92.150 91.574,91.671 92.020 M88.744 94.766 C 88.225 95.187,87.909 95.641,88.043 95.775 C 88.427 96.161,89.600 95.569,89.600 94.991 C 89.600 94.702,89.825 94.376,90.100 94.265 C 90.423 94.135,90.439 94.052,90.144 94.032 C 89.894 94.014,89.264 94.345,88.744 94.766 M85.398 98.002 C 84.998 98.444,84.789 98.923,84.933 99.067 C 85.225 99.358,86.800 98.069,86.800 97.538 C 86.800 96.954,86.152 97.169,85.398 98.002 M82.200 101.200 C 81.651 101.807,81.612 101.997,82.038 101.987 C 82.656 101.973,84.000 101.061,84.000 100.656 C 84.000 100.105,82.886 100.441,82.200 101.200 M80.095 103.466 C 79.818 103.578,79.407 104.013,79.183 104.432 C 78.808 105.133,78.856 105.157,79.787 104.733 C 80.532 104.394,81.367 103.021,80.700 103.232 C 80.645 103.249,80.373 103.355,80.095 103.466 M77.098 106.300 C 76.553 107.392,77.054 109.408,77.900 109.528 C 78.977 109.681,79.061 109.282,78.100 108.568 C 77.511 108.131,77.480 107.918,77.900 107.230 C 78.175 106.779,78.400 106.318,78.400 106.205 C 78.400 105.883,77.264 105.965,77.098 106.300 M79.200 110.905 C 79.200 111.544,81.121 113.013,81.482 112.651 C 81.696 112.437,81.201 111.875,79.898 110.851 C 79.300 110.381,79.200 110.388,79.200 110.905 M82.400 114.213 C 82.400 114.549,82.715 114.941,83.100 115.083 C 83.485 115.225,83.925 115.530,84.078 115.759 C 84.231 115.989,84.475 116.058,84.621 115.913 C 84.870 115.663,83.084 113.600,82.618 113.600 C 82.498 113.600,82.400 113.876,82.400 114.213 M85.600 117.413 C 85.600 118.050,86.663 118.671,87.065 118.268 C 87.297 118.037,86.255 116.800,85.829 116.800 C 85.703 116.800,85.600 117.076,85.600 117.413 M88.000 119.853 C 88.000 120.204,89.647 121.600,90.061 121.600 C 90.636 121.600,90.439 121.128,89.539 120.347 C 88.674 119.597,88.000 119.381,88.000 119.853 M157.055 126.200 C 157.182 126.530,157.598 126.800,157.981 126.800 C 158.363 126.800,158.998 127.155,159.391 127.590 C 160.122 128.398,163.108 130.000,163.883 130.000 C 164.120 130.000,164.418 130.270,164.545 130.600 C 164.671 130.930,165.109 131.200,165.518 131.200 C 165.926 131.200,166.683 131.650,167.200 132.200 C 167.717 132.750,168.446 133.200,168.821 133.200 C 169.195 133.200,169.726 133.470,170.000 133.800 C 170.274 134.130,170.836 134.400,171.249 134.400 C 171.662 134.400,172.000 134.580,172.000 134.800 C 172.000 135.020,172.326 135.200,172.725 135.200 C 173.124 135.200,173.968 135.740,174.600 136.400 C 175.232 137.060,176.065 137.600,176.451 137.600 C 176.837 137.600,177.264 137.780,177.400 138.000 C 177.536 138.220,177.977 138.400,178.381 138.400 C 178.784 138.400,179.218 138.670,179.345 139.000 C 179.471 139.330,179.909 139.600,180.318 139.600 C 180.726 139.600,181.483 140.050,182.000 140.600 C 182.517 141.150,183.246 141.600,183.621 141.600 C 183.995 141.600,184.526 141.870,184.800 142.200 C 185.074 142.530,185.636 142.800,186.049 142.800 C 186.462 142.800,186.800 142.980,186.800 143.200 C 186.800 143.420,187.144 143.600,187.564 143.600 C 187.985 143.600,188.783 144.140,189.339 144.800 C 189.894 145.460,190.602 146.000,190.913 146.000 C 191.621 146.000,193.906 147.124,194.216 147.625 C 194.343 147.831,194.765 148.000,195.154 148.000 C 195.543 148.000,196.283 148.450,196.800 149.000 C 197.317 149.550,198.046 150.000,198.421 150.000 C 198.795 150.000,199.326 150.270,199.600 150.600 C 199.874 150.930,200.332 151.200,200.618 151.200 C 200.904 151.200,201.690 151.752,202.365 152.426 C 203.039 153.101,203.753 153.553,203.950 153.431 C 204.148 153.309,204.532 153.477,204.804 153.804 C 205.076 154.132,205.642 154.400,206.062 154.400 C 206.481 154.400,206.929 154.670,207.055 155.000 C 207.182 155.330,207.645 155.600,208.085 155.600 C 208.525 155.600,209.239 156.050,209.671 156.600 C 210.104 157.150,210.783 157.600,211.180 157.600 C 211.577 157.600,212.126 157.870,212.400 158.200 C 212.674 158.530,213.214 158.800,213.600 158.800 C 213.986 158.800,214.526 159.070,214.800 159.400 C 215.074 159.730,215.565 160.000,215.891 160.000 C 216.218 160.000,216.839 160.450,217.271 161.000 C 217.704 161.550,218.383 162.000,218.780 162.000 C 219.177 162.000,219.726 162.270,220.000 162.600 C 220.274 162.930,220.836 163.200,221.249 163.200 C 221.662 163.200,222.000 163.380,222.000 163.600 C 222.000 163.820,222.444 164.000,222.986 164.000 C 223.565 164.000,224.150 164.333,224.403 164.806 C 224.641 165.249,225.682 165.984,226.717 166.438 C 227.753 166.893,228.870 167.431,229.200 167.633 C 229.530 167.836,230.160 168.161,230.600 168.355 C 231.040 168.549,231.743 169.089,232.162 169.554 C 232.581 170.019,233.234 170.400,233.613 170.400 C 233.992 170.400,234.526 170.670,234.800 171.000 C 235.074 171.330,235.614 171.600,236.000 171.600 C 236.386 171.600,236.926 171.870,237.200 172.200 C 237.474 172.530,237.965 172.800,238.291 172.800 C 238.618 172.800,239.239 173.250,239.671 173.800 C 240.104 174.350,240.686 174.800,240.965 174.800 C 241.924 174.800,246.601 177.358,247.332 178.282 C 247.735 178.791,248.203 179.122,248.373 179.017 C 248.543 178.912,249.024 179.084,249.441 179.400 C 249.858 179.716,250.493 179.980,250.851 179.987 C 251.209 179.994,251.726 180.270,252.000 180.600 C 252.274 180.930,252.765 181.200,253.091 181.200 C 253.418 181.200,254.039 181.650,254.471 182.200 C 254.904 182.750,255.583 183.200,255.980 183.200 C 256.377 183.200,256.926 183.470,257.200 183.800 C 257.474 184.130,257.918 184.400,258.188 184.400 C 259.073 184.400,261.386 185.737,262.129 186.677 C 262.530 187.185,263.183 187.600,263.580 187.600 C 263.977 187.600,264.524 187.868,264.796 188.196 C 265.068 188.523,265.465 188.684,265.678 188.552 C 265.891 188.420,266.579 188.805,267.207 189.407 C 268.318 190.471,269.577 191.314,270.800 191.814 C 271.130 191.948,271.713 192.225,272.095 192.429 C 272.477 192.633,273.030 192.800,273.325 192.800 C 273.619 192.800,274.288 193.255,274.810 193.810 C 275.801 194.865,277.772 196.000,278.612 196.000 C 278.882 196.000,279.326 196.270,279.600 196.600 C 279.874 196.930,280.423 197.200,280.820 197.200 C 281.217 197.200,281.896 197.650,282.329 198.200 C 282.761 198.750,283.368 199.200,283.678 199.200 C 285.508 199.200,285.606 201.071,283.814 201.820 C 283.052 202.138,282.236 202.759,282.000 203.199 C 281.756 203.656,281.163 204.000,280.619 204.000 C 280.095 204.000,279.607 204.135,279.533 204.300 C 279.460 204.465,278.370 205.098,277.110 205.707 C 275.851 206.316,274.629 207.171,274.396 207.607 C 274.163 208.043,273.629 208.400,273.210 208.400 C 272.790 208.400,272.336 208.580,272.200 208.800 C 272.064 209.020,271.625 209.200,271.225 209.200 C 270.825 209.200,270.274 209.470,270.000 209.800 C 269.726 210.130,269.177 210.400,268.780 210.400 C 268.383 210.400,267.704 210.850,267.271 211.400 C 266.839 211.950,266.218 212.400,265.891 212.400 C 265.565 212.400,265.074 212.670,264.800 213.000 C 264.526 213.330,263.995 213.600,263.621 213.600 C 263.246 213.600,262.517 214.050,262.000 214.600 C 261.483 215.150,260.751 215.600,260.373 215.600 C 259.995 215.600,259.582 215.870,259.455 216.200 C 259.329 216.530,258.881 216.800,258.462 216.800 C 258.042 216.800,257.474 217.070,257.200 217.400 C 256.926 217.730,256.392 218.000,256.013 218.000 C 255.634 218.000,254.981 218.381,254.562 218.846 C 254.143 219.311,253.440 219.851,253.000 220.045 C 252.560 220.239,251.930 220.551,251.600 220.737 C 250.009 221.635,249.166 222.000,248.680 222.000 C 248.388 222.000,247.632 222.540,247.000 223.200 C 246.368 223.860,245.524 224.400,245.125 224.400 C 244.726 224.400,244.400 224.580,244.400 224.800 C 244.400 225.020,243.969 225.200,243.443 225.200 C 242.916 225.200,242.382 225.470,242.255 225.800 C 242.129 226.130,241.673 226.400,241.242 226.400 C 240.811 226.400,240.104 226.850,239.671 227.400 C 239.239 227.950,238.618 228.400,238.291 228.400 C 237.965 228.400,237.474 228.670,237.200 229.000 C 236.926 229.330,236.386 229.600,236.000 229.600 C 235.614 229.600,235.074 229.870,234.800 230.200 C 234.526 230.530,233.995 230.800,233.621 230.800 C 233.246 230.800,232.517 231.250,232.000 231.800 C 231.483 232.350,230.732 232.800,230.330 232.800 C 229.929 232.800,229.600 232.946,229.600 233.125 C 229.600 233.304,228.662 233.860,227.516 234.360 C 226.370 234.860,224.916 235.704,224.286 236.235 C 223.655 236.766,222.882 237.200,222.569 237.200 C 222.256 237.200,222.000 237.380,222.000 237.600 C 222.000 237.820,221.662 238.000,221.249 238.000 C 220.836 238.000,220.274 238.270,220.000 238.600 C 219.726 238.930,219.195 239.200,218.821 239.200 C 218.446 239.200,217.731 239.635,217.232 240.166 C 216.733 240.698,215.891 241.241,215.362 241.374 C 214.833 241.507,214.400 241.792,214.400 242.008 C 214.400 242.223,213.950 242.400,213.400 242.400 C 212.850 242.400,212.400 242.580,212.400 242.800 C 212.400 243.020,212.136 243.200,211.814 243.200 C 211.492 243.200,210.613 243.740,209.861 244.400 C 209.109 245.060,208.218 245.600,207.881 245.600 C 207.543 245.600,207.207 245.735,207.133 245.900 C 206.951 246.309,204.453 247.600,203.842 247.600 C 203.571 247.600,202.832 248.140,202.200 248.800 C 201.568 249.460,200.724 250.000,200.325 250.000 C 199.926 250.000,199.600 250.180,199.600 250.400 C 199.600 250.620,199.274 250.800,198.875 250.800 C 198.476 250.800,197.632 251.340,197.000 252.000 C 196.368 252.660,195.535 253.200,195.149 253.200 C 194.763 253.200,194.336 253.380,194.200 253.600 C 194.064 253.820,193.623 254.000,193.219 254.000 C 192.816 254.000,192.382 254.270,192.255 254.600 C 192.129 254.930,191.691 255.200,191.282 255.200 C 190.874 255.200,190.117 255.650,189.600 256.200 C 189.083 256.750,188.354 257.200,187.979 257.200 C 187.605 257.200,187.089 257.452,186.833 257.761 C 186.577 258.069,185.925 258.433,185.384 258.568 C 184.843 258.704,184.400 258.992,184.400 259.208 C 184.400 259.423,184.071 259.600,183.670 259.600 C 183.268 259.600,182.517 260.050,182.000 260.600 C 181.483 261.150,180.754 261.600,180.379 261.600 C 180.005 261.600,179.467 261.878,179.185 262.218 C 178.903 262.558,178.424 262.741,178.121 262.625 C 177.818 262.509,177.467 262.680,177.342 263.007 C 177.217 263.333,176.762 263.600,176.331 263.600 C 175.901 263.600,175.094 264.140,174.539 264.800 C 173.983 265.460,173.335 266.000,173.099 266.000 C 172.379 266.000,169.600 267.332,169.600 267.677 C 169.600 267.855,169.268 268.000,168.862 268.000 C 168.456 268.000,167.802 268.355,167.409 268.790 C 166.658 269.619,163.684 271.200,162.874 271.200 C 162.613 271.200,162.400 271.377,162.400 271.592 C 162.400 271.808,161.967 272.093,161.438 272.226 C 160.909 272.359,160.067 272.902,159.568 273.434 C 159.069 273.965,158.343 274.400,157.954 274.400 C 157.565 274.400,157.136 274.580,157.000 274.800 C 155.589 277.083,155.600 277.671,155.600 200.400 C 155.600 133.496,155.665 125.600,156.213 125.600 C 156.549 125.600,156.929 125.870,157.055 126.200 M29.200 245.524 C 29.200 246.040,30.764 247.369,31.043 247.091 C 31.173 246.960,31.162 246.662,31.018 246.429 C 30.643 245.822,29.200 245.104,29.200 245.524 M32.400 248.856 C 32.400 249.316,33.555 250.364,34.087 250.387 C 34.246 250.394,34.259 250.085,34.117 249.700 C 33.698 248.564,32.400 247.926,32.400 248.856 M35.466 251.828 C 35.801 252.700,37.200 253.386,37.200 252.678 C 37.200 252.376,36.759 251.927,36.219 251.682 C 35.401 251.309,35.276 251.333,35.466 251.828 M38.000 254.338 C 38.000 254.847,39.388 256.000,40.001 256.000 C 40.345 256.000,40.200 255.639,39.600 255.000 C 38.650 253.988,38.000 253.720,38.000 254.338 M41.200 257.429 C 41.200 257.554,41.479 257.936,41.819 258.276 C 42.589 259.047,43.099 258.643,42.408 257.810 C 41.909 257.208,41.200 256.984,41.200 257.429 M44.751 261.240 C 45.738 262.160,46.161 262.084,45.767 261.057 C 45.628 260.696,45.140 260.400,44.682 260.400 C 43.860 260.400,43.861 260.411,44.751 261.240 M46.890 263.271 C 47.114 263.942,48.307 264.626,48.652 264.282 C 48.811 264.122,48.595 263.729,48.171 263.409 C 47.230 262.697,46.679 262.638,46.890 263.271 M49.600 265.924 C 49.600 266.440,51.164 267.769,51.443 267.491 C 51.573 267.360,51.562 267.062,51.418 266.829 C 51.043 266.222,49.600 265.504,49.600 265.924 M52.800 269.138 C 52.800 269.669,54.375 270.958,54.667 270.667 C 54.811 270.523,54.602 270.044,54.202 269.602 C 53.448 268.769,52.800 268.554,52.800 269.138 M56.000 272.253 C 56.000 272.665,57.685 274.003,58.161 273.968 C 58.416 273.950,58.390 273.852,58.100 273.735 C 57.825 273.624,57.600 273.298,57.600 273.009 C 57.600 272.721,57.315 272.376,56.967 272.243 C 56.168 271.936,56.000 271.938,56.000 272.253 M58.400 274.629 C 58.400 275.021,59.522 276.000,59.971 276.000 C 60.607 276.000,60.492 275.558,59.700 274.957 C 58.956 274.392,58.400 274.252,58.400 274.629 M61.800 278.400 C 62.486 279.159,63.600 279.495,63.600 278.944 C 63.600 278.539,62.256 277.627,61.638 277.613 C 61.212 277.603,61.251 277.793,61.800 278.400 M310.400 278.229 C 310.400 278.476,311.000 279.083,312.102 279.949 C 313.064 280.706,312.981 279.946,311.984 278.875 C 311.218 278.052,310.400 277.719,310.400 278.229 M64.400 280.724 C 64.400 281.240,65.964 282.569,66.243 282.291 C 66.373 282.160,66.362 281.862,66.218 281.629 C 65.843 281.022,64.400 280.304,64.400 280.724 M313.600 281.180 C 313.600 281.944,314.704 282.878,315.015 282.376 C 315.161 282.140,315.217 281.908,315.140 281.860 C 315.063 281.813,314.685 281.533,314.300 281.238 C 313.790 280.848,313.600 280.832,313.600 281.180 M67.600 284.153 C 67.600 284.458,67.960 284.801,68.400 284.916 C 69.362 285.167,69.512 284.205,68.567 283.843 C 67.681 283.503,67.600 283.528,67.600 284.153 M316.645 284.612 C 317.214 285.481,318.400 285.994,318.400 285.371 C 318.400 285.000,317.454 284.176,316.699 283.890 C 316.042 283.641,316.039 283.687,316.645 284.612 M70.000 286.338 C 70.000 286.818,71.373 288.000,71.931 288.000 C 72.637 288.000,72.500 287.611,71.500 286.777 C 70.521 285.961,70.000 285.808,70.000 286.338 M319.232 286.639 C 319.189 287.232,320.581 288.800,321.150 288.800 C 321.478 288.800,321.466 288.574,321.107 288.000 C 320.832 287.560,320.396 287.200,320.137 287.200 C 319.878 287.200,319.576 286.975,319.465 286.700 C 319.348 286.410,319.250 286.384,319.232 286.639 M73.200 289.453 C 73.200 289.835,74.865 291.200,75.331 291.200 C 75.556 291.200,75.317 290.750,74.800 290.200 C 73.900 289.242,73.200 288.915,73.200 289.453 M322.000 289.920 C 322.000 290.445,322.917 291.200,323.555 291.200 C 323.995 291.200,323.926 290.990,323.292 290.400 C 322.374 289.545,322.000 289.406,322.000 289.920 M76.400 292.629 C 76.400 293.013,77.625 294.108,77.828 293.905 C 78.183 293.550,77.518 292.400,76.957 292.400 C 76.651 292.400,76.400 292.503,76.400 292.629 M79.066 295.428 C 79.272 295.965,80.425 296.800,80.961 296.800 C 81.517 296.800,80.648 295.659,79.797 295.272 C 79.002 294.909,78.877 294.936,79.066 295.428 M81.600 297.915 C 81.600 298.607,83.203 299.757,83.606 299.354 C 83.854 299.106,83.566 298.716,82.796 298.261 C 82.138 297.873,81.600 297.717,81.600 297.915 M84.800 301.175 C 84.800 301.621,86.371 302.962,86.612 302.721 C 87.005 302.328,86.342 301.278,85.572 301.077 C 85.148 300.966,84.800 301.010,84.800 301.175 M88.000 304.391 C 88.000 304.917,89.959 306.175,90.279 305.854 C 90.419 305.714,90.323 305.600,90.067 305.600 C 89.810 305.600,89.600 305.349,89.600 305.043 C 89.600 304.736,89.315 304.376,88.967 304.243 C 88.116 303.916,88.000 303.934,88.000 304.391 M90.812 306.600 C 90.812 307.109,91.214 307.654,92.100 308.349 C 92.706 308.824,92.800 308.809,92.800 308.236 C 92.800 307.873,92.485 307.459,92.100 307.317 C 91.715 307.175,91.268 306.865,91.106 306.629 C 90.930 306.371,90.812 306.360,90.812 306.600 M122.800 310.045 C 121.003 312.238,112.002 321.200,111.596 321.200 C 111.378 321.200,111.200 321.458,111.200 321.773 C 111.200 322.088,110.840 322.460,110.400 322.600 C 109.703 322.821,109.218 324.000,109.824 324.000 C 110.294 324.000,122.354 311.687,122.117 311.450 C 121.979 311.312,122.101 311.200,122.387 311.200 C 122.858 311.200,124.800 309.413,124.800 308.979 C 124.800 308.392,123.654 309.003,122.800 310.045 M93.690 310.071 C 93.914 310.742,95.107 311.426,95.452 311.082 C 95.611 310.922,95.395 310.529,94.971 310.209 C 94.030 309.497,93.479 309.438,93.690 310.071 M97.100 313.678 C 97.583 314.161,98.098 314.435,98.246 314.287 C 98.635 313.898,97.613 312.800,96.862 312.800 C 96.348 312.800,96.395 312.972,97.100 313.678 M99.600 316.136 C 99.600 316.430,100.041 316.873,100.581 317.118 C 101.436 317.508,101.529 317.478,101.310 316.883 C 100.875 315.703,99.600 315.146,99.600 316.136 M102.000 318.173 C 102.000 318.641,103.405 320.000,103.889 320.000 C 104.761 320.000,104.454 319.404,103.200 318.664 C 102.540 318.274,102.000 318.053,102.000 318.173 M105.200 321.453 C 105.200 321.804,106.847 323.200,107.261 323.200 C 107.840 323.200,107.637 322.759,106.700 321.977 C 105.777 321.207,105.200 321.006,105.200 321.453 " stroke="none" fill="#53b44b" fill-rule="evenodd"></path><path id="path2" d="M183.300 0.900 C 183.392 1.175,183.797 1.400,184.200 1.400 C 184.603 1.400,185.008 1.175,185.100 0.900 C 185.206 0.583,184.876 0.400,184.200 0.400 C 183.524 0.400,183.194 0.583,183.300 0.900 M292.800 78.400 C 292.800 78.620,293.070 78.800,293.400 78.800 C 293.730 78.800,294.000 78.620,294.000 78.400 C 294.000 78.180,293.730 78.000,293.400 78.000 C 293.070 78.000,292.800 78.180,292.800 78.400 M78.000 107.800 C 78.000 108.130,78.180 108.400,78.400 108.400 C 78.620 108.400,78.800 108.130,78.800 107.800 C 78.800 107.470,78.620 107.200,78.400 107.200 C 78.180 107.200,78.000 107.470,78.000 107.800 M155.606 126.700 C 155.611 127.229,155.694 127.271,155.946 126.873 C 156.213 126.452,156.580 126.515,157.770 127.183 C 158.589 127.643,159.152 127.847,159.022 127.635 C 158.760 127.211,156.476 126.000,155.939 126.000 C 155.752 126.000,155.603 126.315,155.606 126.700 M217.362 161.500 C 217.781 161.995,218.411 162.386,218.762 162.368 C 219.304 162.342,219.309 162.303,218.800 162.116 C 218.470 161.995,217.840 161.604,217.400 161.248 C 216.607 160.606,216.606 160.608,217.362 161.500 M238.000 173.220 C 239.387 174.161,240.178 174.435,239.200 173.636 C 238.650 173.186,238.020 172.817,237.800 172.815 C 237.580 172.813,237.670 172.996,238.000 173.220 M280.033 197.321 C 280.125 197.388,280.740 197.758,281.400 198.145 L 282.600 198.847 281.656 198.024 C 281.136 197.571,280.521 197.200,280.289 197.200 C 280.057 197.200,279.942 197.254,280.033 197.321 M281.441 202.827 C 280.583 203.472,280.050 204.000,280.256 204.000 C 280.462 204.000,281.253 203.467,282.015 202.816 C 283.787 201.302,283.461 201.308,281.441 202.827 M274.200 207.012 C 273.540 207.553,273.194 207.997,273.430 207.998 C 273.667 207.999,274.283 207.550,274.800 207.000 C 275.985 205.738,275.748 205.743,274.200 207.012 M266.441 211.434 C 265.693 211.965,265.347 212.400,265.671 212.400 C 265.995 212.400,266.683 211.950,267.200 211.400 C 268.348 210.178,268.200 210.184,266.441 211.434 M194.700 252.677 C 193.656 253.258,192.858 253.791,192.928 253.861 C 193.095 254.028,196.037 252.523,196.555 252.005 C 197.183 251.377,196.760 251.531,194.700 252.677 M187.824 256.613 C 187.396 256.936,187.227 257.200,187.447 257.200 C 187.667 257.200,188.196 256.936,188.624 256.613 C 189.051 256.290,189.220 256.025,189.000 256.025 C 188.780 256.025,188.251 256.290,187.824 256.613 M322.000 292.200 C 322.000 292.530,322.180 292.800,322.400 292.800 C 322.620 292.800,322.800 292.530,322.800 292.200 C 322.800 291.870,322.620 291.600,322.400 291.600 C 322.180 291.600,322.000 291.870,322.000 292.200 " stroke="none" fill="#3cd3c0" fill-rule="evenodd"></path><path id="path3" d="M183.200 1.632 C 183.200 1.760,182.705 2.120,182.100 2.432 C 180.609 3.202,180.000 3.822,180.000 4.571 C 180.000 4.917,179.676 5.200,179.280 5.200 C 178.873 5.200,178.136 5.889,177.580 6.789 C 177.041 7.663,176.385 8.383,176.123 8.389 C 175.860 8.395,175.394 8.759,175.087 9.197 C 174.780 9.636,174.394 9.861,174.231 9.697 C 174.067 9.534,173.993 9.655,174.067 9.968 C 174.140 10.280,173.622 10.910,172.915 11.368 C 172.209 11.825,171.617 12.470,171.600 12.800 C 171.583 13.130,170.991 13.762,170.285 14.204 C 169.578 14.646,168.824 15.406,168.610 15.892 C 168.395 16.379,167.744 16.975,167.162 17.216 C 166.580 17.457,165.902 18.097,165.655 18.638 C 165.409 19.180,164.890 19.742,164.503 19.889 C 163.540 20.254,162.800 21.034,162.800 21.685 C 162.800 21.983,162.248 22.553,161.574 22.952 C 160.900 23.350,160.159 24.092,159.927 24.600 C 159.695 25.109,158.897 25.853,158.153 26.253 C 157.409 26.654,156.800 27.279,156.800 27.642 C 156.800 28.006,156.260 28.527,155.600 28.800 C 154.940 29.073,154.400 29.556,154.400 29.872 C 154.400 30.205,154.205 30.327,153.938 30.162 C 153.657 29.988,153.585 30.052,153.753 30.325 C 153.914 30.585,153.440 31.155,152.620 31.686 C 151.845 32.189,151.208 32.827,151.205 33.104 C 151.202 33.381,150.487 34.101,149.615 34.704 C 148.744 35.307,148.024 36.100,148.015 36.466 C 148.007 36.833,147.464 37.370,146.810 37.660 C 146.155 37.949,145.414 38.685,145.161 39.293 C 144.891 39.947,144.395 40.400,143.951 40.400 C 143.538 40.400,143.200 40.576,143.200 40.790 C 143.200 41.339,137.393 47.200,136.848 47.200 C 136.602 47.200,136.400 47.538,136.400 47.951 C 136.400 48.404,135.937 48.895,135.234 49.186 C 134.593 49.451,133.858 50.178,133.600 50.800 C 133.342 51.422,132.622 52.142,132.000 52.400 C 131.378 52.658,130.651 53.393,130.386 54.034 C 130.106 54.710,129.601 55.200,129.185 55.200 C 128.782 55.200,128.248 55.695,127.967 56.330 C 127.692 56.951,126.867 57.852,126.134 58.333 C 125.400 58.814,124.800 59.447,124.800 59.739 C 124.800 60.032,124.345 60.479,123.789 60.732 C 123.233 60.986,122.674 61.464,122.547 61.794 C 122.420 62.125,122.151 62.293,121.948 62.168 C 121.746 62.043,121.606 62.089,121.637 62.270 C 121.787 63.134,121.513 63.539,120.490 63.963 C 119.880 64.216,119.205 64.808,118.990 65.279 C 118.776 65.749,118.243 66.329,117.806 66.567 C 116.705 67.167,115.577 68.439,115.811 68.817 C 115.917 68.990,115.468 69.368,114.812 69.659 C 114.156 69.949,113.430 70.644,113.199 71.203 C 112.967 71.762,112.379 72.395,111.892 72.610 C 111.406 72.824,110.646 73.578,110.204 74.285 C 109.762 74.991,109.203 75.576,108.961 75.585 C 108.351 75.606,106.723 77.067,106.861 77.470 C 106.924 77.651,106.402 78.160,105.703 78.600 C 105.003 79.040,104.417 79.670,104.400 80.000 C 104.383 80.330,103.791 80.962,103.085 81.404 C 102.378 81.846,101.624 82.606,101.410 83.092 C 101.195 83.579,100.544 84.175,99.962 84.416 C 99.380 84.657,98.702 85.297,98.455 85.838 C 98.209 86.380,97.690 86.942,97.303 87.089 C 96.495 87.395,95.980 87.907,95.367 89.017 C 95.129 89.448,94.549 89.976,94.079 90.190 C 93.608 90.405,93.016 91.080,92.763 91.690 C 92.510 92.301,92.055 92.800,91.751 92.800 C 91.448 92.800,91.200 92.991,91.200 93.224 C 91.200 93.457,91.020 93.536,90.800 93.400 C 90.580 93.264,90.400 93.433,90.400 93.776 C 90.400 94.119,90.220 94.400,90.000 94.400 C 89.780 94.400,89.600 94.648,89.600 94.951 C 89.600 95.255,89.105 95.709,88.500 95.960 C 87.895 96.211,87.093 96.953,86.719 97.609 C 86.344 98.264,85.579 99.009,85.019 99.264 C 84.458 99.520,84.000 100.029,84.000 100.397 C 84.000 100.764,83.505 101.320,82.900 101.632 C 81.435 102.388,80.800 103.020,80.800 103.723 C 80.800 104.042,80.260 104.527,79.600 104.800 C 78.940 105.073,78.400 105.548,78.400 105.854 C 78.400 106.160,78.175 106.779,77.900 107.230 C 77.477 107.923,77.514 108.133,78.140 108.598 C 78.547 108.900,78.774 109.319,78.643 109.530 C 78.513 109.740,78.900 110.235,79.503 110.630 C 81.060 111.648,81.600 112.251,81.600 112.971 C 81.600 113.317,81.878 113.600,82.218 113.600 C 83.018 113.600,84.800 115.382,84.800 116.182 C 84.800 116.522,85.083 116.800,85.429 116.800 C 86.101 116.800,87.200 117.720,87.200 118.283 C 87.200 118.470,87.577 118.888,88.037 119.212 C 89.752 120.417,90.400 121.112,90.400 121.747 C 90.400 122.106,90.535 122.364,90.700 122.321 C 91.460 122.120,92.842 122.914,92.641 123.436 C 92.392 124.087,93.419 124.216,93.811 123.582 C 94.153 123.029,93.225 121.937,92.693 122.266 C 92.463 122.409,92.395 122.332,92.541 122.095 C 92.688 121.858,89.777 118.647,86.003 114.884 C 82.261 111.153,79.200 107.941,79.200 107.746 C 79.200 107.551,82.250 104.345,85.978 100.622 C 89.706 96.899,92.663 93.701,92.548 93.516 C 92.434 93.331,92.579 93.230,92.870 93.290 C 93.162 93.351,93.351 93.162,93.290 92.870 C 93.230 92.579,93.331 92.434,93.516 92.548 C 94.002 92.848,110.090 76.629,109.715 76.217 C 109.542 76.027,109.597 75.984,109.837 76.121 C 110.321 76.396,124.660 62.171,124.500 61.574 C 124.445 61.368,124.576 61.245,124.791 61.300 C 125.385 61.452,128.816 57.949,128.528 57.483 C 128.390 57.260,128.451 57.184,128.665 57.317 C 129.185 57.638,140.516 46.257,140.114 45.817 C 139.941 45.627,139.996 45.583,140.235 45.719 C 140.788 46.034,143.722 43.066,143.308 42.611 C 143.139 42.424,143.201 42.386,143.447 42.526 C 143.987 42.835,145.327 41.460,144.901 41.034 C 144.735 40.869,144.820 40.793,145.089 40.867 C 145.740 41.044,156.839 29.987,156.523 29.475 C 156.387 29.256,156.455 29.187,156.673 29.322 C 157.181 29.635,160.120 26.653,159.708 26.241 C 159.539 26.072,159.670 25.993,160.000 26.067 C 160.332 26.140,160.551 25.964,160.490 25.670 C 160.430 25.379,160.536 25.237,160.727 25.355 C 161.161 25.623,177.041 9.696,176.890 9.144 C 176.830 8.922,176.934 8.836,177.123 8.952 C 177.311 9.069,178.323 8.293,179.372 7.228 C 180.421 6.164,181.126 5.211,180.939 5.112 C 180.753 5.013,180.800 4.976,181.043 5.031 C 181.287 5.086,182.301 4.292,183.297 3.266 C 184.971 1.540,185.035 1.400,184.153 1.400 C 183.629 1.400,183.200 1.505,183.200 1.632 M291.624 78.700 C 288.066 81.766,277.200 92.975,277.200 93.579 C 277.200 94.734,278.810 93.398,285.604 86.606 C 289.672 82.539,293.160 79.209,293.355 79.206 C 293.550 79.203,296.289 81.789,299.441 84.953 C 302.593 88.116,305.732 91.176,306.417 91.753 C 307.101 92.329,307.562 92.800,307.442 92.800 C 307.321 92.800,307.863 93.385,308.647 94.100 C 309.430 94.815,310.551 95.916,311.136 96.546 C 314.562 100.237,324.415 109.851,324.591 109.676 C 324.706 109.561,324.800 109.660,324.800 109.897 C 324.800 110.460,342.303 127.964,342.585 127.682 C 342.703 127.564,342.800 127.659,342.800 127.895 C 342.800 128.130,346.580 132.100,351.200 136.715 C 355.820 141.331,359.600 145.024,359.600 144.923 C 359.600 144.822,360.095 145.331,360.700 146.054 C 362.642 148.376,365.290 150.792,365.650 150.569 C 366.347 150.138,365.972 149.158,364.600 147.826 C 363.830 147.079,363.200 146.553,363.200 146.658 C 363.200 146.763,361.040 144.659,358.400 141.984 C 355.760 139.308,353.600 136.957,353.600 136.759 C 353.600 136.562,353.330 136.400,353.000 136.400 C 352.670 136.400,352.400 136.225,352.400 136.011 C 352.400 135.797,351.032 134.312,349.360 132.711 C 347.687 131.110,344.312 127.777,341.860 125.304 C 339.407 122.832,335.538 118.962,333.263 116.704 C 330.987 114.447,327.117 110.571,324.663 108.091 C 322.208 105.611,318.883 102.281,317.274 100.691 C 307.189 90.727,303.600 87.070,303.600 86.756 C 303.600 86.560,303.330 86.400,303.000 86.400 C 302.670 86.400,302.400 86.214,302.400 85.986 C 302.400 85.759,301.208 84.454,299.751 83.086 C 298.295 81.719,296.390 79.925,295.519 79.100 C 293.626 77.308,293.281 77.272,291.624 78.700 M294.000 78.400 C 294.000 78.620,293.730 78.800,293.400 78.800 C 293.070 78.800,292.800 78.620,292.800 78.400 C 292.800 78.180,293.070 78.000,293.400 78.000 C 293.730 78.000,294.000 78.180,294.000 78.400 M78.800 107.800 C 78.800 108.130,78.620 108.400,78.400 108.400 C 78.180 108.400,78.000 108.130,78.000 107.800 C 78.000 107.470,78.180 107.200,78.400 107.200 C 78.620 107.200,78.800 107.470,78.800 107.800 M159.375 127.900 C 160.021 128.615,160.831 129.186,161.175 129.168 C 161.713 129.141,161.717 129.107,161.200 128.919 C 160.870 128.798,160.060 128.228,159.400 127.650 L 158.200 126.600 159.375 127.900 M172.800 135.481 C 173.130 135.602,173.940 136.172,174.600 136.750 L 175.800 137.800 174.625 136.500 C 173.979 135.785,173.169 135.214,172.825 135.232 C 172.287 135.259,172.283 135.293,172.800 135.481 M176.949 137.875 C 177.380 138.642,179.593 139.647,179.327 138.954 C 179.210 138.649,178.810 138.400,178.437 138.400 C 178.065 138.400,177.518 138.175,177.221 137.900 C 176.852 137.557,176.767 137.549,176.949 137.875 M180.433 139.700 C 180.525 139.755,181.140 140.250,181.800 140.800 L 183.000 141.800 182.030 140.700 C 181.497 140.095,180.882 139.600,180.664 139.600 C 180.445 139.600,180.342 139.645,180.433 139.700 M187.600 143.882 C 187.930 144.003,188.650 144.484,189.200 144.951 L 190.200 145.800 189.230 144.700 C 188.697 144.095,187.977 143.614,187.630 143.632 C 187.091 143.659,187.086 143.695,187.600 143.882 M191.801 146.402 C 191.919 146.593,192.555 147.018,193.215 147.347 C 193.874 147.676,194.317 147.789,194.199 147.598 C 194.081 147.407,193.445 146.982,192.785 146.653 C 192.126 146.324,191.683 146.211,191.801 146.402 M195.200 148.282 C 195.530 148.403,196.250 148.884,196.800 149.351 L 197.800 150.200 196.830 149.100 C 196.297 148.495,195.577 148.014,195.230 148.032 C 194.691 148.059,194.686 148.095,195.200 148.282 M198.400 150.284 C 198.730 150.405,199.302 150.767,199.670 151.087 C 200.039 151.408,200.669 151.585,201.070 151.481 C 201.687 151.322,201.668 151.286,200.949 151.246 C 200.481 151.221,199.874 150.930,199.600 150.600 C 199.326 150.270,198.809 150.014,198.451 150.032 C 197.907 150.058,197.898 150.099,198.400 150.284 M223.200 164.539 C 224.298 165.117,224.621 165.082,224.216 164.427 C 224.071 164.192,223.558 164.003,223.076 164.006 C 222.236 164.012,222.241 164.033,223.200 164.539 M228.667 167.706 C 231.494 169.316,232.074 169.571,231.591 168.989 C 231.322 168.665,230.876 168.400,230.600 168.400 C 230.324 168.400,229.874 168.130,229.600 167.800 C 229.326 167.470,228.809 167.203,228.451 167.206 C 227.963 167.210,228.018 167.336,228.667 167.706 M244.217 176.428 C 244.510 176.901,246.800 177.987,246.800 177.653 C 246.800 177.495,246.174 177.083,245.409 176.736 C 244.644 176.389,244.108 176.251,244.217 176.428 M249.568 179.700 C 249.860 180.085,250.400 180.400,250.769 180.400 C 251.138 180.400,251.692 180.625,252.001 180.900 C 252.478 181.325,252.482 181.296,252.032 180.700 C 251.740 180.315,251.200 180.000,250.831 180.000 C 250.462 180.000,249.908 179.775,249.599 179.500 C 249.122 179.075,249.118 179.104,249.568 179.700 M259.000 184.941 C 259.440 185.290,259.966 185.580,260.169 185.587 C 260.371 185.594,260.874 185.905,261.286 186.278 C 261.952 186.881,262.007 186.884,261.785 186.306 C 261.648 185.948,260.965 185.430,260.268 185.154 C 259.571 184.878,258.820 184.575,258.600 184.480 C 258.380 184.386,258.560 184.593,259.000 184.941 M265.635 188.500 C 265.728 188.555,266.433 189.140,267.202 189.800 L 268.600 191.000 267.425 189.700 C 266.779 188.985,266.074 188.400,265.858 188.400 C 265.643 188.400,265.543 188.445,265.635 188.500 M273.200 193.081 C 273.530 193.202,274.340 193.772,275.000 194.350 L 276.200 195.400 275.025 194.100 C 274.379 193.385,273.569 192.814,273.225 192.832 C 272.687 192.859,272.683 192.893,273.200 193.081 M273.329 207.878 C 272.850 207.972,272.229 208.352,271.948 208.724 C 271.517 209.296,271.525 209.323,271.999 208.900 C 272.308 208.625,272.873 208.400,273.256 208.400 C 273.639 208.400,274.064 208.220,274.200 208.000 C 274.336 207.780,274.392 207.625,274.324 207.654 C 274.256 207.684,273.808 207.785,273.329 207.878 M253.266 219.393 C 252.753 219.676,252.132 220.108,251.886 220.354 C 251.641 220.599,251.138 220.800,250.769 220.800 C 250.400 220.800,249.851 221.099,249.549 221.464 C 248.981 222.152,249.286 222.044,251.600 220.737 C 251.930 220.551,252.588 220.230,253.061 220.024 C 253.535 219.818,254.040 219.458,254.185 219.225 C 254.494 218.723,254.475 218.727,253.266 219.393 M246.583 223.228 C 246.437 223.463,245.932 223.812,245.459 224.003 C 244.873 224.239,244.803 224.357,245.238 224.375 C 245.589 224.389,246.202 224.040,246.600 223.600 C 246.998 223.160,247.217 222.800,247.086 222.800 C 246.954 222.800,246.728 222.993,246.583 223.228 M231.783 231.628 C 231.637 231.863,231.132 232.212,230.659 232.403 C 230.073 232.639,230.003 232.757,230.438 232.775 C 230.789 232.789,231.402 232.440,231.800 232.000 C 232.198 231.560,232.417 231.200,232.286 231.200 C 232.154 231.200,231.928 231.393,231.783 231.628 M224.370 235.900 L 223.400 237.000 224.600 236.000 C 225.260 235.450,225.875 234.955,225.967 234.900 C 226.058 234.845,225.955 234.800,225.736 234.800 C 225.518 234.800,224.903 235.295,224.370 235.900 M27.753 242.476 C 27.591 242.738,27.670 243.023,27.929 243.110 C 28.188 243.196,28.400 243.573,28.400 243.947 C 28.400 244.321,28.952 244.953,29.626 245.352 C 30.300 245.750,31.043 246.497,31.278 247.011 C 31.512 247.525,32.178 248.143,32.759 248.383 C 33.339 248.623,34.042 249.336,34.321 249.967 C 34.601 250.599,35.363 251.336,36.015 251.606 C 36.667 251.876,37.207 252.390,37.215 252.749 C 37.224 253.107,37.809 253.762,38.515 254.204 C 39.222 254.646,39.973 255.399,40.184 255.878 C 40.395 256.356,40.942 256.919,41.400 257.127 C 41.858 257.336,42.676 258.157,43.216 258.951 C 43.757 259.745,44.493 260.396,44.851 260.397 C 45.210 260.399,45.709 260.898,45.961 261.507 C 46.214 262.115,46.955 262.851,47.610 263.140 C 48.264 263.430,48.800 263.973,48.800 264.347 C 48.800 264.721,49.352 265.353,50.026 265.752 C 50.700 266.150,51.440 266.889,51.670 267.394 C 51.900 267.899,52.527 268.512,53.063 268.756 C 53.599 269.000,54.344 269.736,54.719 270.391 C 55.093 271.047,55.895 271.789,56.500 272.040 C 57.105 272.291,57.600 272.679,57.600 272.902 C 57.600 273.345,59.617 275.199,60.100 275.200 C 60.265 275.200,60.400 275.483,60.400 275.829 C 60.400 276.578,61.009 277.198,62.500 277.968 C 63.105 278.280,63.600 278.826,63.600 279.181 C 63.600 279.537,64.152 280.153,64.826 280.552 C 65.500 280.950,66.243 281.697,66.478 282.211 C 66.712 282.725,67.420 283.360,68.052 283.621 C 68.683 283.883,69.205 284.390,69.211 284.749 C 69.217 285.107,69.937 285.841,70.811 286.380 C 71.685 286.920,72.401 287.640,72.403 287.980 C 72.404 288.321,72.949 288.910,73.614 289.288 C 74.279 289.667,75.133 290.521,75.512 291.186 C 75.890 291.851,76.493 292.396,76.851 292.397 C 77.210 292.399,77.720 292.925,77.986 293.566 C 78.252 294.209,78.991 294.948,79.634 295.214 C 80.692 295.652,80.868 295.875,80.768 296.649 C 80.750 296.786,81.425 297.371,82.268 297.949 C 83.110 298.527,83.856 299.258,83.925 299.574 C 84.068 300.233,85.185 301.169,85.851 301.187 C 86.100 301.194,86.520 301.725,86.786 302.366 C 87.052 303.009,87.791 303.748,88.434 304.014 C 89.075 304.280,89.600 304.745,89.600 305.049 C 89.600 305.352,89.780 305.600,90.000 305.600 C 90.220 305.600,90.400 305.881,90.400 306.224 C 90.400 306.567,90.580 306.736,90.800 306.600 C 91.020 306.464,91.200 306.543,91.200 306.776 C 91.200 307.009,91.479 307.200,91.821 307.200 C 92.162 307.200,92.615 307.697,92.827 308.305 C 93.045 308.930,93.731 309.640,94.406 309.939 C 95.063 310.229,95.600 310.735,95.600 311.062 C 95.600 311.761,96.314 312.537,97.303 312.911 C 97.690 313.058,98.209 313.620,98.455 314.162 C 98.702 314.703,99.420 315.360,100.052 315.621 C 100.683 315.883,101.200 316.347,101.200 316.652 C 101.200 316.958,101.913 317.701,102.785 318.304 C 103.656 318.907,104.381 319.670,104.396 320.000 C 104.410 320.330,105.123 321.032,105.980 321.561 C 106.837 322.090,107.626 322.855,107.732 323.261 C 107.959 324.131,109.600 324.276,109.600 323.427 C 109.600 323.112,109.960 322.740,110.400 322.600 C 110.840 322.460,111.200 322.088,111.200 321.773 C 111.200 321.458,111.378 321.200,111.596 321.200 C 111.814 321.200,114.228 318.964,116.961 316.231 C 119.694 313.499,122.064 311.384,122.229 311.531 C 122.394 311.679,122.400 311.577,122.243 311.303 C 121.954 310.801,123.627 308.800,124.335 308.800 C 124.876 308.800,125.197 307.246,124.718 306.949 C 124.247 306.658,109.200 321.539,109.200 322.296 C 109.200 322.573,109.020 322.800,108.800 322.800 C 108.580 322.800,108.399 322.575,108.399 322.300 C 108.397 321.557,96.999 310.340,96.607 310.695 C 96.423 310.863,96.383 310.805,96.518 310.567 C 96.795 310.081,93.107 306.263,92.676 306.590 C 92.524 306.706,92.494 306.676,92.610 306.524 C 92.965 306.056,81.869 295.203,81.000 295.168 C 80.510 295.149,80.408 295.054,80.737 294.923 C 81.113 294.773,80.825 294.250,79.772 293.171 C 78.946 292.325,78.074 291.745,77.835 291.881 C 77.596 292.017,77.538 291.976,77.707 291.790 C 78.102 291.356,61.974 275.169,61.461 275.486 C 61.250 275.617,61.186 275.546,61.320 275.329 C 61.601 274.874,57.893 271.074,57.476 271.390 C 57.324 271.506,57.294 271.476,57.409 271.324 C 57.722 270.912,46.311 259.608,45.862 259.885 C 45.650 260.016,45.585 259.949,45.717 259.735 C 45.990 259.292,29.875 243.094,29.466 243.401 C 29.320 243.510,29.288 243.482,29.397 243.337 C 29.629 243.025,28.846 242.000,28.375 242.000 C 28.195 242.000,27.915 242.214,27.753 242.476 M202.162 248.447 C 201.743 248.913,201.040 249.442,200.600 249.622 C 200.034 249.854,199.983 249.957,200.425 249.975 C 200.769 249.989,201.568 249.460,202.200 248.800 C 202.832 248.140,203.254 247.600,203.137 247.600 C 203.020 247.600,202.581 247.981,202.162 248.447 M196.962 251.647 C 196.543 252.113,195.840 252.642,195.400 252.822 C 194.834 253.054,194.783 253.157,195.225 253.175 C 195.569 253.189,196.368 252.660,197.000 252.000 C 197.632 251.340,198.054 250.800,197.937 250.800 C 197.820 250.800,197.381 251.181,196.962 251.647 M189.078 256.213 C 188.460 256.756,188.114 257.200,188.308 257.200 C 188.502 257.200,189.083 256.750,189.600 256.200 C 190.795 254.928,190.531 254.934,189.078 256.213 M182.000 260.200 C 181.483 260.750,180.777 261.214,180.430 261.232 C 179.971 261.255,179.945 261.321,180.332 261.476 C 180.625 261.592,181.345 261.236,181.932 260.683 C 182.519 260.130,183.360 259.591,183.800 259.485 C 184.575 259.299,184.574 259.291,183.770 259.246 C 183.313 259.221,182.517 259.650,182.000 260.200 M174.200 264.800 C 173.802 265.240,173.166 265.600,172.787 265.600 C 172.408 265.600,171.860 265.915,171.568 266.300 C 171.118 266.896,171.122 266.925,171.599 266.500 C 171.908 266.225,172.453 266.000,172.810 266.000 C 173.168 266.000,173.883 265.550,174.400 265.000 C 174.917 264.450,175.246 264.000,175.132 264.000 C 175.017 264.000,174.598 264.360,174.200 264.800 M166.678 269.013 C 166.060 269.556,165.714 270.000,165.908 270.000 C 166.102 270.000,166.683 269.550,167.200 269.000 C 168.395 267.728,168.131 267.734,166.678 269.013 M163.600 270.633 C 163.042 270.943,162.865 271.185,163.200 271.181 C 163.530 271.178,164.149 270.910,164.576 270.587 C 165.539 269.859,164.945 269.887,163.600 270.633 M159.600 273.000 C 159.083 273.550,158.377 274.014,158.030 274.032 C 157.571 274.055,157.545 274.121,157.932 274.276 C 158.225 274.392,158.945 274.041,159.532 273.494 C 160.119 272.947,160.870 272.402,161.200 272.281 C 161.714 272.095,161.709 272.059,161.170 272.032 C 160.823 272.014,160.117 272.450,159.600 273.000 M308.500 277.065 C 307.772 277.359,307.888 278.126,308.775 278.886 C 309.327 279.358,309.606 279.413,309.744 279.075 C 309.850 278.814,309.951 278.945,309.968 279.367 C 310.007 280.303,321.270 291.600,322.165 291.600 C 322.989 291.600,322.994 292.702,322.171 292.871 C 321.488 293.011,266.400 347.931,266.400 348.471 C 266.400 349.429,268.339 348.618,269.600 347.133 C 270.370 346.227,273.030 343.486,275.511 341.042 C 279.955 336.666,283.449 333.177,291.472 325.099 C 293.711 322.845,297.401 319.163,299.672 316.919 C 301.942 314.674,305.439 311.164,307.441 309.119 C 309.444 307.073,313.134 303.411,315.641 300.980 C 318.149 298.549,320.465 296.164,320.788 295.680 C 321.112 295.196,321.595 294.800,321.861 294.800 C 322.128 294.800,322.455 294.457,322.588 294.037 C 322.721 293.617,323.094 293.173,323.415 293.050 C 324.201 292.748,324.172 291.200,323.381 291.200 C 323.041 291.200,322.456 290.661,322.081 290.003 C 321.707 289.344,321.215 288.804,320.988 288.803 C 320.762 288.801,320.312 288.423,319.988 287.963 C 318.905 286.421,318.110 285.600,317.699 285.600 C 317.475 285.600,316.968 285.105,316.573 284.500 C 315.747 283.237,314.800 282.222,314.800 282.600 C 314.800 282.741,314.530 282.587,314.200 282.257 C 313.870 281.927,313.600 281.464,313.600 281.229 C 313.600 280.993,313.465 280.797,313.300 280.794 C 312.897 280.785,310.400 278.568,310.400 278.219 C 310.400 277.927,309.347 276.778,309.129 276.832 C 309.058 276.849,308.775 276.954,308.500 277.065 " stroke="none" fill="#39c08f" fill-rule="evenodd"></path></g></svg>