<svg id="svg" version="1.1" xmlns="http://www.w3.org/2000/svg" xmlns:xlink="http://www.w3.org/1999/xlink" width="400" height="400" viewBox="0, 0, 400,400"><g id="svgg"><path id="path0" d="M196.508 55.412 C 189.581 57.593,178.049 67.181,168.377 78.800 C 167.004 80.450,165.770 81.890,165.635 82.000 C 165.499 82.110,163.779 84.270,161.812 86.800 C 159.845 89.330,158.138 91.490,158.018 91.600 C 157.740 91.855,153.908 97.018,151.487 100.400 C 150.464 101.830,149.477 103.180,149.295 103.400 C 148.731 104.080,138.400 119.264,138.400 119.413 C 138.400 119.490,137.455 120.965,136.300 122.692 C 135.145 124.418,133.988 126.184,133.729 126.615 C 133.470 127.047,132.120 129.186,130.729 131.369 C 128.008 135.639,126.651 137.821,125.395 139.945 C 124.958 140.685,123.719 142.755,122.642 144.545 C 120.917 147.412,115.235 157.083,113.149 160.700 C 111.388 163.756,109.510 167.142,106.993 171.800 C 106.160 173.340,104.934 175.590,104.267 176.800 C 99.057 186.254,87.836 208.549,83.431 218.200 C 81.924 221.500,80.159 225.370,79.507 226.800 C 78.856 228.230,77.871 230.390,77.317 231.600 C 76.764 232.810,75.453 235.870,74.403 238.400 C 73.354 240.930,72.041 244.080,71.486 245.400 C 70.931 246.720,69.903 249.330,69.201 251.200 C 68.498 253.070,67.774 254.960,67.591 255.400 C 66.858 257.163,64.856 262.684,64.473 264.000 C 64.249 264.770,63.672 266.480,63.191 267.800 C 62.218 270.468,59.862 278.121,59.250 280.600 C 59.033 281.480,58.479 283.640,58.019 285.400 C 54.098 300.394,53.872 312.741,57.422 318.105 C 62.098 325.171,74.644 331.095,94.400 335.566 C 96.490 336.039,98.920 336.600,99.800 336.812 C 101.349 337.185,110.507 338.808,115.400 339.576 C 119.733 340.256,125.925 341.049,134.200 341.985 C 154.307 344.259,191.709 345.654,215.321 345.011 C 221.437 344.844,226.383 344.650,226.312 344.579 C 226.241 344.508,220.787 344.325,214.192 344.172 C 207.596 344.020,201.897 343.738,201.526 343.547 C 201.156 343.356,199.054 343.200,196.855 343.200 L 192.857 343.200 192.857 340.949 C 192.857 337.768,193.317 337.200,195.896 337.200 L 198.000 337.200 198.000 335.800 C 198.000 334.667,198.152 334.400,198.800 334.400 C 199.503 334.400,199.600 334.133,199.600 332.200 C 199.600 330.267,199.697 330.000,200.400 330.000 C 201.022 330.000,201.200 329.733,201.200 328.800 C 201.200 328.110,201.413 327.597,201.700 327.594 C 203.317 327.573,204.800 325.323,204.800 322.891 C 204.800 320.731,204.891 320.464,205.700 320.262 C 206.556 320.048,206.594 319.876,206.468 316.768 L 206.336 313.500 207.576 313.682 C 208.321 313.791,208.991 313.652,209.257 313.332 C 209.499 313.039,210.396 312.800,211.249 312.800 C 212.361 312.800,212.800 312.630,212.800 312.200 C 212.800 311.870,212.980 311.600,213.200 311.600 C 213.426 311.600,213.600 310.467,213.600 309.000 C 213.600 306.723,213.507 306.400,212.849 306.400 C 212.436 306.400,211.900 306.161,211.658 305.870 C 210.615 304.614,213.445 304.079,222.758 303.774 C 227.634 303.615,231.720 303.330,231.836 303.142 C 231.952 302.954,232.532 302.797,233.124 302.794 C 233.716 302.791,235.010 302.523,236.000 302.199 C 238.036 301.534,231.557 301.662,224.400 302.429 C 219.791 302.923,180.591 302.899,175.045 302.399 C 172.600 302.179,167.180 301.722,163.000 301.383 C 155.366 300.765,144.900 299.531,140.800 298.765 C 114.303 293.813,105.573 289.006,104.546 278.804 C 104.293 276.296,105.585 266.834,106.731 262.800 C 106.949 262.030,107.498 260.050,107.949 258.400 C 108.400 256.750,109.600 253.060,110.614 250.200 C 111.629 247.340,112.602 244.550,112.777 244.000 C 112.951 243.450,113.456 242.190,113.900 241.200 C 114.343 240.210,114.937 238.770,115.220 238.000 C 116.217 235.291,120.477 225.358,122.229 221.659 C 123.203 219.602,124.000 217.841,124.000 217.746 C 124.000 217.493,133.199 199.123,135.089 195.600 C 142.119 182.500,150.457 168.148,155.265 160.871 C 156.329 159.259,157.200 157.857,157.200 157.754 C 157.200 157.651,157.388 157.349,157.617 157.083 C 157.847 156.817,159.655 154.170,161.636 151.200 C 163.616 148.230,166.214 144.450,167.407 142.800 C 168.601 141.150,170.161 138.990,170.874 138.000 C 181.466 123.286,194.100 112.000,199.980 112.000 C 204.772 112.000,215.638 120.492,222.800 129.834 C 223.130 130.264,224.762 132.323,226.426 134.408 C 228.090 136.494,230.775 140.090,232.391 142.400 C 237.082 149.103,243.600 158.731,243.600 158.957 C 243.600 159.070,244.744 160.927,246.142 163.082 C 249.668 168.515,257.399 181.628,260.833 187.999 C 266.445 198.409,268.166 201.712,271.674 208.800 C 275.182 215.891,276.273 218.195,279.197 224.697 C 279.715 225.850,280.213 226.720,280.303 226.630 C 280.393 226.540,280.122 225.687,279.701 224.733 C 279.280 223.780,278.803 222.471,278.641 221.824 C 278.479 221.178,277.999 220.160,277.573 219.563 C 277.148 218.965,276.800 218.273,276.800 218.024 C 276.800 217.775,276.541 217.173,276.225 216.686 C 275.909 216.199,275.566 215.045,275.462 214.121 C 275.358 213.198,275.159 212.257,275.018 212.030 C 274.878 211.802,274.964 211.241,275.210 210.781 C 275.743 209.786,274.801 208.030,273.559 207.705 C 272.336 207.385,272.469 204.098,273.717 203.785 C 274.492 203.591,274.610 203.344,274.476 202.200 C 274.331 200.955,275.683 198.800,276.610 198.800 C 277.204 198.800,278.000 197.574,278.000 196.661 C 278.000 195.253,278.394 194.400,279.043 194.400 C 279.469 194.400,279.600 193.704,279.600 191.445 L 279.600 188.491 280.900 188.220 C 281.615 188.070,282.965 187.852,283.900 187.734 C 284.930 187.604,285.600 187.312,285.600 186.993 C 285.600 186.704,285.790 186.403,286.023 186.326 C 286.596 186.135,286.589 174.663,286.015 174.472 C 285.368 174.256,285.528 172.913,286.233 172.643 C 287.427 172.185,288.346 172.401,288.600 173.199 C 288.832 173.932,289.548 174.287,291.312 174.546 C 292.254 174.684,292.351 174.850,292.464 176.515 C 292.563 177.999,293.063 178.377,293.866 177.574 C 294.277 177.163,297.200 180.054,297.200 180.872 C 297.200 181.052,297.370 181.200,297.579 181.200 C 297.787 181.200,297.455 180.255,296.841 179.100 C 294.937 175.519,292.967 171.887,291.799 169.800 C 285.583 158.699,283.457 154.940,283.205 154.600 C 283.041 154.380,282.417 153.310,281.818 152.223 C 280.116 149.132,272.427 136.473,268.500 130.296 C 267.125 128.133,266.000 126.214,266.000 126.031 C 266.000 125.848,265.717 125.463,265.371 125.176 C 265.025 124.889,264.385 124.011,263.950 123.227 C 262.038 119.781,252.432 105.718,246.446 97.600 C 223.241 66.132,206.738 52.191,196.508 55.412 M286.800 166.373 C 286.800 166.578,287.160 166.860,287.600 167.000 C 288.204 167.192,288.400 167.605,288.400 168.689 C 288.400 170.100,288.387 170.112,287.597 169.397 C 286.650 168.541,285.589 166.545,285.909 166.224 C 286.261 165.872,286.800 165.962,286.800 166.373 M197.123 167.328 C 195.481 168.297,191.739 171.728,189.596 174.228 C 186.957 177.306,186.404 178.002,184.928 180.099 C 182.074 184.153,177.600 190.831,177.600 191.036 C 177.600 191.151,176.905 192.269,176.056 193.522 C 168.090 205.273,156.314 230.327,153.270 242.000 C 150.638 252.092,152.047 255.078,160.809 257.979 C 177.917 263.644,221.986 263.624,239.200 257.942 C 248.669 254.817,249.541 252.449,246.024 239.400 C 241.917 224.161,224.287 191.311,212.220 176.413 C 205.022 167.526,200.943 165.071,197.123 167.328 M298.556 183.680 C 298.697 184.384,298.971 185.059,299.166 185.180 C 299.644 185.478,302.000 189.807,302.000 190.389 C 302.000 190.644,302.450 191.443,303.000 192.164 C 303.550 192.886,304.000 193.661,304.000 193.889 C 304.000 194.116,304.298 194.549,304.663 194.851 C 305.027 195.153,303.835 192.475,302.013 188.900 C 298.608 182.217,298.114 181.472,298.556 183.680 M282.800 232.782 C 282.800 233.018,282.967 233.523,283.171 233.905 C 283.375 234.287,283.649 234.941,283.780 235.357 C 283.911 235.774,284.123 236.011,284.249 235.884 C 284.544 235.589,283.661 232.885,283.171 232.582 C 282.967 232.456,282.800 232.546,282.800 232.782 M285.217 238.856 C 285.208 238.997,285.556 239.897,285.991 240.856 C 286.426 241.815,286.779 242.330,286.774 242.000 C 286.767 241.413,285.250 238.351,285.217 238.856 M245.600 248.800 C 245.600 249.020,245.409 249.200,245.176 249.200 C 244.943 249.200,244.856 249.368,244.983 249.572 C 245.109 249.777,245.030 250.058,244.807 250.196 C 244.349 250.478,244.279 249.980,244.643 249.033 C 244.911 248.335,245.600 248.167,245.600 248.800 M245.371 252.535 C 245.694 253.052,245.660 253.310,245.236 253.574 C 244.464 254.056,243.600 253.660,243.600 252.824 C 243.600 251.442,244.590 251.281,245.371 252.535 M258.600 298.800 L 257.800 299.144 258.600 299.144 C 259.040 299.144,259.760 298.989,260.200 298.800 L 261.000 298.456 260.200 298.456 C 259.760 298.456,259.040 298.611,258.600 298.800 M244.200 300.800 L 242.200 301.074 244.200 301.109 C 245.300 301.128,246.560 300.989,247.000 300.800 L 247.800 300.456 247.000 300.491 C 246.560 300.510,245.300 300.649,244.200 300.800 M238.500 301.476 C 238.885 301.576,239.515 301.576,239.900 301.476 C 240.285 301.375,239.970 301.293,239.200 301.293 C 238.430 301.293,238.115 301.375,238.500 301.476 M230.705 344.283 C 231.202 344.379,231.922 344.375,232.305 344.275 C 232.687 344.175,232.280 344.096,231.400 344.101 C 230.520 344.105,230.207 344.187,230.705 344.283 " stroke="none" fill="#7672c9" fill-rule="evenodd"></path><path id="path1" d="M0.000 200.000 L 0.000 400.000 200.000 400.000 L 400.000 400.000 400.000 200.000 L 400.000 0.000 200.000 0.000 L 0.000 0.000 0.000 200.000 M206.200 55.626 C 207.300 56.141,208.260 56.706,208.333 56.881 C 208.407 57.057,208.642 57.200,208.855 57.200 C 209.280 57.200,213.283 59.862,214.655 61.056 C 215.125 61.465,216.205 62.329,217.055 62.975 C 218.992 64.447,227.407 72.887,230.600 76.561 C 231.920 78.079,233.331 79.699,233.735 80.161 C 234.139 80.622,234.949 81.616,235.535 82.368 C 236.121 83.121,237.412 84.741,238.405 85.968 C 240.675 88.774,244.568 93.842,246.400 96.377 C 250.988 102.724,258.308 113.288,261.492 118.156 C 263.522 121.260,265.637 124.459,266.192 125.264 C 266.746 126.069,267.200 126.924,267.200 127.164 C 267.200 127.404,267.342 127.600,267.515 127.600 C 267.688 127.600,268.499 128.725,269.318 130.100 C 270.137 131.475,271.030 132.948,271.303 133.373 C 273.928 137.459,276.000 140.834,276.000 141.024 C 276.000 141.152,276.510 142.008,277.133 142.928 C 277.756 143.848,278.387 144.870,278.536 145.200 C 278.685 145.530,279.140 146.340,279.547 147.000 C 279.954 147.660,280.652 148.830,281.098 149.600 C 281.544 150.370,283.099 153.035,284.554 155.522 C 286.009 158.008,287.200 160.141,287.200 160.260 C 287.200 160.379,287.532 160.954,287.938 161.538 C 288.343 162.122,289.306 163.770,290.076 165.200 C 290.846 166.630,291.887 168.520,292.388 169.400 C 292.890 170.280,294.063 172.440,294.997 174.200 C 295.930 175.960,297.255 178.390,297.940 179.600 C 298.626 180.810,299.857 183.150,300.675 184.800 C 301.494 186.450,302.270 187.890,302.400 188.000 C 302.529 188.110,305.265 193.510,308.478 200.000 C 313.878 210.905,315.969 215.248,317.817 219.400 C 318.208 220.280,319.323 222.710,320.294 224.800 C 321.265 226.890,322.206 228.960,322.386 229.400 C 322.566 229.840,323.291 231.460,323.998 233.000 C 324.704 234.540,325.561 236.520,325.901 237.400 C 326.242 238.280,326.673 239.171,326.860 239.380 C 327.047 239.589,327.200 240.138,327.200 240.600 C 327.200 241.062,327.355 241.611,327.544 241.820 C 327.734 242.029,328.564 243.910,329.389 246.000 C 330.214 248.090,331.049 250.205,331.245 250.700 C 331.687 251.821,332.288 253.323,332.764 254.500 C 333.439 256.167,335.925 262.986,336.447 264.600 C 336.731 265.480,337.107 266.371,337.282 266.580 C 337.457 266.789,337.600 267.453,337.600 268.056 C 337.600 268.659,337.759 269.251,337.952 269.370 C 338.146 269.490,338.403 269.996,338.523 270.494 C 338.643 270.992,339.222 272.930,339.810 274.800 C 340.398 276.670,341.030 278.830,341.213 279.600 C 341.397 280.370,341.752 281.720,342.004 282.600 C 342.255 283.480,342.615 284.920,342.805 285.800 C 342.994 286.680,343.429 288.480,343.772 289.800 C 346.693 301.052,346.470 313.398,343.255 318.438 C 338.898 325.268,323.557 332.715,307.000 336.035 C 306.120 336.212,304.680 336.529,303.800 336.740 C 297.942 338.145,284.959 340.379,277.600 341.249 C 275.730 341.470,272.940 341.803,271.400 341.991 C 265.196 342.745,253.237 343.847,245.600 344.369 C 214.260 346.509,171.331 346.173,143.800 343.572 C 136.151 342.849,131.851 342.416,130.200 342.203 C 129.320 342.089,126.800 341.808,124.600 341.578 C 122.400 341.348,119.700 340.998,118.600 340.800 C 117.500 340.602,114.710 340.150,112.400 339.796 C 110.090 339.441,107.390 338.991,106.400 338.795 C 105.410 338.599,103.520 338.236,102.200 337.989 C 100.880 337.742,99.170 337.387,98.400 337.199 C 97.630 337.011,95.200 336.461,93.000 335.977 C 90.800 335.492,88.280 334.875,87.400 334.606 C 86.520 334.336,84.990 333.883,84.000 333.600 C 80.490 332.595,76.984 331.476,75.800 330.983 C 71.185 329.061,69.918 328.488,67.680 327.311 C 62.909 324.801,57.200 320.217,57.200 318.896 C 57.200 318.623,57.042 318.400,56.849 318.400 C 56.444 318.400,55.906 317.120,55.003 314.000 C 54.273 311.482,54.160 302.220,54.810 298.200 C 55.813 291.993,56.013 290.881,56.424 289.200 C 56.667 288.210,56.960 286.724,57.075 285.897 C 57.190 285.071,57.445 284.295,57.642 284.174 C 57.839 284.052,58.000 283.577,58.000 283.118 C 58.000 282.324,60.472 273.492,61.167 271.800 C 61.348 271.360,62.264 268.660,63.202 265.800 C 64.141 262.940,65.133 260.060,65.407 259.400 C 65.682 258.740,66.093 257.660,66.322 257.000 C 67.225 254.391,70.545 245.777,70.793 245.400 C 70.937 245.180,71.297 244.235,71.592 243.300 C 71.887 242.365,72.279 241.600,72.464 241.600 C 72.649 241.600,72.800 241.355,72.800 241.055 C 72.800 240.511,74.275 236.782,75.985 233.000 C 76.483 231.900,77.319 230.050,77.845 228.888 C 78.370 227.727,78.800 226.698,78.800 226.603 C 78.800 226.439,79.464 225.013,84.666 214.000 C 87.832 207.298,96.492 189.834,96.766 189.600 C 96.895 189.490,98.073 187.240,99.385 184.600 C 100.696 181.960,101.866 179.710,101.985 179.600 C 102.104 179.490,102.471 178.860,102.800 178.200 C 103.129 177.540,104.049 175.830,104.843 174.400 C 105.638 172.970,106.970 170.540,107.804 169.000 C 111.144 162.830,112.978 159.583,114.867 156.493 C 115.710 155.114,116.400 153.809,116.400 153.593 C 116.400 153.377,116.536 153.200,116.702 153.200 C 116.869 153.200,117.262 152.615,117.576 151.900 C 118.312 150.226,120.834 146.240,121.267 146.067 C 121.450 145.993,121.600 145.666,121.600 145.339 C 121.600 145.012,122.140 143.959,122.800 143.000 C 123.460 142.041,124.000 141.125,124.000 140.966 C 124.000 140.806,124.407 140.119,124.904 139.438 C 125.401 138.757,126.245 137.390,126.779 136.400 C 127.313 135.410,128.346 133.747,129.075 132.704 C 129.804 131.661,130.400 130.725,130.400 130.624 C 130.400 130.263,136.542 120.998,136.868 120.867 C 137.051 120.793,137.200 120.551,137.200 120.329 C 137.200 120.106,138.190 118.487,139.400 116.730 C 140.610 114.973,141.600 113.386,141.600 113.201 C 141.600 113.017,141.735 112.807,141.900 112.733 C 142.065 112.660,142.918 111.520,143.795 110.200 C 144.672 108.880,145.492 107.710,145.617 107.600 C 145.742 107.490,147.264 105.330,149.000 102.800 C 150.736 100.270,152.259 98.110,152.386 98.000 C 152.513 97.890,153.872 96.090,155.407 94.000 C 170.329 73.678,185.108 59.238,195.200 55.120 C 197.784 54.065,203.421 54.324,206.200 55.626 M196.895 113.411 C 192.094 115.163,182.386 124.195,175.054 133.730 C 173.562 135.672,172.091 137.562,171.785 137.930 C 170.260 139.771,167.200 144.079,167.200 144.385 C 167.200 144.577,167.052 144.793,166.871 144.867 C 166.543 145.000,160.400 153.755,160.400 154.090 C 160.400 154.187,159.275 155.969,157.900 158.050 C 156.525 160.131,154.770 162.878,154.000 164.154 C 153.230 165.430,152.375 166.715,152.100 167.009 C 151.825 167.302,151.600 167.643,151.600 167.764 C 151.600 167.886,150.910 169.114,150.067 170.493 C 149.224 171.872,148.075 173.810,147.513 174.800 C 146.951 175.790,145.623 178.130,144.562 180.000 C 143.502 181.870,142.536 183.490,142.417 183.600 C 142.146 183.850,141.706 184.646,139.759 188.410 C 138.908 190.054,138.118 191.490,138.004 191.600 C 137.202 192.368,122.800 221.472,122.800 222.323 C 122.800 222.585,122.620 222.800,122.400 222.800 C 122.180 222.800,122.000 223.124,122.000 223.520 C 122.000 223.916,121.849 224.411,121.664 224.620 C 121.479 224.829,121.086 225.630,120.789 226.400 C 120.492 227.170,119.654 229.106,118.925 230.702 C 118.196 232.298,117.600 233.695,117.600 233.806 C 117.600 233.918,117.258 234.772,116.840 235.704 C 116.422 236.637,115.578 238.750,114.965 240.400 C 114.352 242.050,113.737 243.580,113.597 243.800 C 113.458 244.020,113.100 245.010,112.802 246.000 C 112.505 246.990,112.112 247.971,111.930 248.180 C 111.749 248.389,111.600 248.938,111.600 249.400 C 111.600 249.862,111.449 250.411,111.266 250.620 C 110.936 250.994,109.304 256.078,108.383 259.600 C 108.124 260.590,107.766 261.760,107.588 262.200 C 107.410 262.640,107.144 263.720,106.997 264.600 C 106.850 265.480,106.563 267.010,106.359 268.000 C 103.636 281.202,105.675 286.540,115.085 290.845 C 120.269 293.216,122.048 293.822,127.924 295.219 C 130.716 295.883,133.630 296.593,134.400 296.797 C 135.170 297.000,136.340 297.247,137.000 297.345 C 139.025 297.646,146.463 298.814,149.000 299.230 C 171.990 303.001,219.516 303.251,246.000 299.739 C 248.530 299.404,251.950 298.970,253.600 298.775 C 256.493 298.434,259.823 297.906,263.600 297.190 C 268.628 296.238,278.646 293.560,281.400 292.432 C 288.823 289.393,291.881 287.192,293.672 283.600 C 295.284 280.367,294.414 266.091,292.374 262.305 C 292.168 261.923,292.000 261.306,292.000 260.934 C 292.000 260.211,291.871 259.783,289.968 254.200 C 289.293 252.220,288.649 250.240,288.537 249.800 C 288.425 249.360,288.186 248.640,288.007 248.200 C 287.828 247.760,287.464 246.770,287.200 246.000 C 286.588 244.219,286.324 243.551,285.045 240.550 C 284.470 239.202,284.000 237.925,284.000 237.711 C 284.000 237.498,283.747 236.800,283.438 236.161 C 282.548 234.320,281.393 231.655,279.987 228.200 C 279.271 226.440,278.531 224.829,278.343 224.620 C 278.154 224.411,278.000 223.916,278.000 223.520 C 278.000 223.124,277.820 222.800,277.600 222.800 C 277.380 222.800,277.202 222.575,277.204 222.300 C 277.212 221.415,262.802 192.333,261.992 191.600 C 261.870 191.490,261.075 190.050,260.225 188.400 C 259.375 186.750,258.346 184.922,257.940 184.338 C 257.533 183.754,257.200 183.176,257.200 183.054 C 257.200 182.931,256.210 181.181,255.000 179.164 C 253.790 177.148,252.800 175.437,252.800 175.363 C 252.800 175.289,251.810 173.595,250.600 171.600 C 249.390 169.605,248.400 167.798,248.400 167.586 C 248.400 167.374,248.220 167.200,248.000 167.200 C 247.780 167.200,247.600 167.007,247.600 166.772 C 247.600 166.537,247.016 165.502,246.303 164.472 C 244.859 162.390,242.400 158.396,242.400 158.135 C 242.400 158.042,242.216 157.749,241.991 157.483 C 241.766 157.217,239.574 154.030,237.120 150.400 C 218.154 122.344,205.161 110.396,196.895 113.411 M203.198 166.659 C 205.537 167.826,212.713 175.441,216.012 180.258 C 216.336 180.730,217.590 182.534,218.800 184.266 C 220.010 185.999,221.255 187.908,221.568 188.508 C 221.880 189.109,222.285 189.600,222.468 189.600 C 222.650 189.600,222.800 189.782,222.800 190.004 C 222.800 190.226,223.790 191.942,225.000 193.818 C 226.210 195.693,227.200 197.297,227.200 197.382 C 227.200 197.467,228.190 199.251,229.400 201.347 C 230.610 203.443,231.600 205.332,231.600 205.545 C 231.600 205.759,231.740 205.993,231.910 206.067 C 232.081 206.140,232.884 207.497,233.695 209.082 C 234.507 210.667,235.346 212.287,235.561 212.682 C 236.536 214.477,241.731 225.641,242.410 227.400 C 242.580 227.840,243.020 228.884,243.388 229.721 C 244.326 231.852,246.842 239.118,247.224 240.800 C 248.571 246.732,248.800 248.016,248.800 249.651 C 248.800 254.056,246.710 256.166,240.200 258.333 C 235.168 260.009,231.919 260.750,227.600 261.208 C 225.950 261.383,222.620 261.768,220.200 262.063 C 214.483 262.761,186.512 262.788,180.000 262.102 C 159.036 259.893,151.200 256.538,151.200 249.772 C 151.200 248.727,151.915 244.720,152.801 240.800 C 153.123 239.376,155.096 233.581,156.001 231.400 C 156.275 230.740,156.678 229.750,156.896 229.200 C 157.115 228.650,157.452 227.887,157.647 227.505 C 157.841 227.123,158.000 226.612,158.000 226.369 C 158.000 225.719,167.660 206.223,168.060 206.067 C 168.247 205.993,168.400 205.661,168.400 205.328 C 168.400 204.996,168.734 204.246,169.143 203.662 C 169.551 203.078,170.336 201.790,170.886 200.800 C 173.313 196.435,173.757 195.679,175.116 193.600 C 175.906 192.390,176.699 191.340,176.877 191.267 C 177.055 191.193,177.200 190.960,177.200 190.748 C 177.200 190.429,181.162 184.282,183.870 180.400 C 188.653 173.543,195.623 166.673,198.600 165.881 C 199.733 165.580,201.703 165.913,203.198 166.659 " stroke="none" fill="#040b24" fill-rule="evenodd"></path><path id="path2" d="M285.909 166.224 C 285.589 166.545,286.650 168.541,287.597 169.397 C 288.387 170.112,288.400 170.100,288.400 168.689 C 288.400 167.605,288.204 167.192,287.600 167.000 C 287.160 166.860,286.800 166.578,286.800 166.373 C 286.800 165.962,286.261 165.872,285.909 166.224 M286.100 172.665 C 285.496 172.909,285.432 174.277,286.015 174.472 C 286.589 174.663,286.596 186.135,286.023 186.326 C 285.790 186.403,285.600 186.704,285.600 186.993 C 285.600 187.312,284.930 187.604,283.900 187.734 C 282.965 187.852,281.615 188.070,280.900 188.220 L 279.600 188.491 279.600 191.445 C 279.600 193.704,279.469 194.400,279.043 194.400 C 278.394 194.400,278.000 195.253,278.000 196.661 C 278.000 197.574,277.204 198.800,276.610 198.800 C 275.683 198.800,274.331 200.955,274.476 202.200 C 274.610 203.344,274.492 203.591,273.717 203.785 C 272.469 204.098,272.336 207.385,273.559 207.705 C 274.801 208.030,275.743 209.786,275.210 210.781 C 274.964 211.241,274.878 211.802,275.018 212.030 C 275.159 212.257,275.358 213.198,275.462 214.121 C 275.566 215.045,275.909 216.199,276.225 216.686 C 276.541 217.173,276.800 217.775,276.800 218.024 C 276.800 218.273,277.136 218.954,277.548 219.538 C 277.959 220.122,278.423 221.050,278.579 221.600 C 279.191 223.750,280.574 227.159,282.232 230.600 C 283.794 233.843,284.850 236.570,286.647 242.000 C 286.974 242.990,287.525 244.340,287.871 245.000 C 288.217 245.660,288.735 247.100,289.022 248.200 C 289.552 250.232,290.314 252.597,291.599 256.200 C 291.992 257.300,292.708 260.000,293.191 262.200 C 293.673 264.400,294.230 266.920,294.427 267.800 C 298.036 283.886,294.275 289.374,275.800 294.982 C 273.820 295.583,271.390 296.319,270.400 296.619 C 269.410 296.918,267.700 297.276,266.600 297.414 C 265.500 297.552,263.311 298.006,261.735 298.422 C 260.159 298.838,256.829 299.367,254.335 299.598 C 251.841 299.829,248.900 300.265,247.800 300.566 C 246.700 300.867,244.090 301.216,242.000 301.342 C 239.910 301.468,237.300 301.846,236.200 302.181 C 235.100 302.517,233.716 302.793,233.124 302.796 C 232.532 302.798,231.952 302.954,231.836 303.142 C 231.720 303.330,227.634 303.615,222.758 303.774 C 213.445 304.079,210.615 304.614,211.658 305.870 C 211.900 306.161,212.436 306.400,212.849 306.400 C 213.507 306.400,213.600 306.723,213.600 309.000 C 213.600 310.467,213.426 311.600,213.200 311.600 C 212.980 311.600,212.800 311.870,212.800 312.200 C 212.800 312.630,212.361 312.800,211.249 312.800 C 210.396 312.800,209.499 313.039,209.257 313.332 C 208.991 313.652,208.321 313.791,207.576 313.682 L 206.336 313.500 206.468 316.768 C 206.594 319.876,206.556 320.048,205.700 320.262 C 204.891 320.464,204.800 320.731,204.800 322.891 C 204.800 325.323,203.317 327.573,201.700 327.594 C 201.413 327.597,201.200 328.110,201.200 328.800 C 201.200 329.733,201.022 330.000,200.400 330.000 C 199.697 330.000,199.600 330.267,199.600 332.200 C 199.600 334.133,199.503 334.400,198.800 334.400 C 198.152 334.400,198.000 334.667,198.000 335.800 L 198.000 337.200 195.896 337.200 C 193.321 337.200,192.857 337.769,192.857 340.924 L 192.857 343.151 197.329 343.379 C 219.634 344.516,237.179 344.469,251.600 343.234 C 260.762 342.448,261.939 342.334,268.600 341.586 C 270.360 341.388,273.330 341.055,275.200 340.846 C 296.140 338.504,318.427 333.162,330.120 327.683 C 343.568 321.381,346.665 315.169,344.587 298.668 C 343.978 293.830,343.819 293.028,341.797 284.600 C 340.438 278.933,336.260 265.562,334.424 261.000 C 334.247 260.560,333.256 257.950,332.221 255.200 C 331.187 252.450,329.544 248.272,328.570 245.916 C 327.597 243.560,326.800 241.540,326.800 241.428 C 326.800 241.316,326.370 240.273,325.844 239.112 C 325.318 237.950,323.989 234.930,322.890 232.400 C 318.249 221.710,307.131 198.652,306.399 198.200 C 306.180 198.064,306.000 197.545,306.000 197.046 C 306.000 196.547,305.550 195.717,305.000 195.200 C 304.450 194.683,304.000 194.084,304.000 193.868 C 304.000 193.652,303.550 192.886,303.000 192.164 C 302.450 191.443,302.000 190.644,302.000 190.389 C 302.000 189.818,299.649 185.481,299.182 185.190 C 298.996 185.075,298.681 184.253,298.481 183.364 C 298.282 182.475,297.777 181.328,297.359 180.816 C 294.763 177.633,294.266 177.174,293.861 177.579 C 293.063 178.377,292.563 177.996,292.464 176.515 C 292.351 174.850,292.254 174.684,291.312 174.546 C 289.548 174.287,288.832 173.932,288.600 173.199 C 288.355 172.429,287.263 172.196,286.100 172.665 M244.643 249.033 C 244.279 249.980,244.349 250.478,244.807 250.196 C 245.030 250.058,245.109 249.777,244.983 249.572 C 244.856 249.368,244.943 249.200,245.176 249.200 C 245.409 249.200,245.600 249.020,245.600 248.800 C 245.600 248.167,244.911 248.335,244.643 249.033 M243.875 251.858 C 243.407 252.327,243.572 253.504,244.136 253.720 C 245.070 254.078,245.860 253.320,245.371 252.535 C 244.875 251.739,244.269 251.465,243.875 251.858 " stroke="none" fill="#1d97d6" fill-rule="evenodd"></path><path id="path3" d="M195.200 55.120 C 185.108 59.238,170.329 73.678,155.407 94.000 C 153.872 96.090,152.513 97.890,152.386 98.000 C 152.259 98.110,150.736 100.270,149.000 102.800 C 147.264 105.330,145.742 107.490,145.617 107.600 C 145.492 107.710,144.672 108.880,143.795 110.200 C 142.918 111.520,142.065 112.660,141.900 112.733 C 141.735 112.807,141.600 113.017,141.600 113.201 C 141.600 113.386,140.610 114.973,139.400 116.730 C 138.190 118.487,137.200 120.106,137.200 120.329 C 137.200 120.551,137.051 120.793,136.868 120.867 C 136.542 120.998,130.400 130.263,130.400 130.624 C 130.400 130.725,129.804 131.661,129.075 132.704 C 128.346 133.747,127.313 135.410,126.779 136.400 C 126.245 137.390,125.401 138.757,124.904 139.438 C 124.407 140.119,124.000 140.806,124.000 140.966 C 124.000 141.125,123.460 142.041,122.800 143.000 C 122.140 143.959,121.600 145.012,121.600 145.339 C 121.600 145.666,121.450 145.993,121.267 146.067 C 120.834 146.240,118.312 150.226,117.576 151.900 C 117.262 152.615,116.869 153.200,116.702 153.200 C 116.536 153.200,116.400 153.377,116.400 153.593 C 116.400 153.809,115.710 155.114,114.867 156.493 C 112.978 159.583,111.144 162.830,107.804 169.000 C 106.970 170.540,105.638 172.970,104.843 174.400 C 104.049 175.830,103.129 177.540,102.800 178.200 C 102.471 178.860,102.104 179.490,101.985 179.600 C 101.866 179.710,100.696 181.960,99.385 184.600 C 98.073 187.240,96.895 189.490,96.766 189.600 C 96.492 189.834,87.832 207.298,84.666 214.000 C 79.464 225.013,78.800 226.439,78.800 226.603 C 78.800 226.698,78.370 227.727,77.845 228.888 C 77.319 230.050,76.483 231.900,75.985 233.000 C 74.275 236.782,72.800 240.511,72.800 241.055 C 72.800 241.355,72.649 241.600,72.464 241.600 C 72.279 241.600,71.887 242.365,71.592 243.300 C 71.297 244.235,70.937 245.180,70.793 245.400 C 70.545 245.777,67.225 254.391,66.322 257.000 C 66.093 257.660,65.682 258.740,65.407 259.400 C 65.133 260.060,64.141 262.940,63.202 265.800 C 62.264 268.660,61.348 271.360,61.167 271.800 C 60.472 273.492,58.000 282.324,58.000 283.118 C 58.000 283.577,57.839 284.052,57.642 284.174 C 57.445 284.295,57.190 285.071,57.075 285.897 C 56.960 286.724,56.667 288.210,56.424 289.200 C 56.013 290.881,55.813 291.993,54.810 298.200 C 54.160 302.220,54.273 311.482,55.003 314.000 C 55.906 317.120,56.444 318.400,56.849 318.400 C 57.042 318.400,57.200 318.623,57.200 318.896 C 57.200 320.217,62.909 324.801,67.680 327.311 C 69.918 328.488,71.185 329.061,75.800 330.983 C 76.984 331.476,80.490 332.595,84.000 333.600 C 84.990 333.883,86.520 334.336,87.400 334.606 C 88.280 334.875,90.800 335.492,93.000 335.977 C 95.200 336.461,97.630 337.011,98.400 337.199 C 99.170 337.387,100.880 337.742,102.200 337.989 C 103.520 338.236,105.410 338.599,106.400 338.795 C 107.390 338.991,110.090 339.441,112.400 339.796 C 114.710 340.150,117.500 340.602,118.600 340.800 C 119.700 340.998,122.400 341.348,124.600 341.578 C 126.800 341.808,129.320 342.089,130.200 342.203 C 131.851 342.416,136.151 342.849,143.800 343.572 C 171.331 346.173,214.260 346.509,245.600 344.369 C 253.237 343.847,265.196 342.745,271.400 341.991 C 272.940 341.803,275.730 341.470,277.600 341.249 C 284.959 340.379,297.942 338.145,303.800 336.740 C 304.680 336.529,306.120 336.212,307.000 336.035 C 323.557 332.715,338.898 325.268,343.255 318.438 C 346.470 313.398,346.693 301.052,343.772 289.800 C 343.429 288.480,342.994 286.680,342.805 285.800 C 342.615 284.920,342.255 283.480,342.004 282.600 C 341.752 281.720,341.397 280.370,341.213 279.600 C 341.030 278.830,340.398 276.670,339.810 274.800 C 339.222 272.930,338.643 270.992,338.523 270.494 C 338.403 269.996,338.146 269.490,337.952 269.370 C 337.759 269.251,337.600 268.659,337.600 268.056 C 337.600 267.453,337.457 266.789,337.282 266.580 C 337.107 266.371,336.731 265.480,336.447 264.600 C 335.925 262.986,333.439 256.167,332.764 254.500 C 332.288 253.323,331.687 251.821,331.245 250.700 C 331.049 250.205,330.214 248.090,329.389 246.000 C 328.564 243.910,327.734 242.029,327.544 241.820 C 327.355 241.611,327.200 241.062,327.200 240.600 C 327.200 240.138,327.047 239.589,326.860 239.380 C 326.673 239.171,326.242 238.280,325.901 237.400 C 325.561 236.520,324.704 234.540,323.998 233.000 C 323.291 231.460,322.566 229.840,322.386 229.400 C 322.206 228.960,321.265 226.890,320.294 224.800 C 319.323 222.710,318.208 220.280,317.817 219.400 C 315.969 215.248,313.878 210.905,308.478 200.000 C 305.265 193.510,302.529 188.110,302.400 188.000 C 302.270 187.890,301.494 186.450,300.675 184.800 C 299.857 183.150,298.626 180.810,297.940 179.600 C 297.255 178.390,295.930 175.960,294.997 174.200 C 294.063 172.440,292.890 170.280,292.388 169.400 C 291.887 168.520,290.846 166.630,290.076 165.200 C 289.306 163.770,288.343 162.122,287.938 161.538 C 287.532 160.954,287.200 160.379,287.200 160.260 C 287.200 160.141,286.009 158.008,284.554 155.522 C 283.099 153.035,281.544 150.370,281.098 149.600 C 280.652 148.830,279.954 147.660,279.547 147.000 C 279.140 146.340,278.685 145.530,278.536 145.200 C 278.387 144.870,277.756 143.848,277.133 142.928 C 276.510 142.008,276.000 141.152,276.000 141.024 C 276.000 140.834,273.928 137.459,271.303 133.373 C 271.030 132.948,270.137 131.475,269.318 130.100 C 268.499 128.725,267.688 127.600,267.515 127.600 C 267.342 127.600,267.200 127.404,267.200 127.164 C 267.200 126.924,266.746 126.069,266.192 125.264 C 265.637 124.459,263.522 121.260,261.492 118.156 C 258.308 113.288,250.988 102.724,246.400 96.377 C 244.568 93.842,240.675 88.774,238.405 85.968 C 237.412 84.741,236.121 83.121,235.535 82.368 C 234.949 81.616,234.139 80.622,233.735 80.161 C 233.331 79.699,231.920 78.079,230.600 76.561 C 227.407 72.887,218.992 64.447,217.055 62.975 C 216.205 62.329,215.125 61.465,214.655 61.056 C 213.283 59.862,209.280 57.200,208.855 57.200 C 208.642 57.200,208.407 57.057,208.333 56.881 C 207.520 54.936,198.587 53.737,195.200 55.120 M203.332 55.395 C 213.563 58.499,228.121 72.750,246.446 97.600 C 252.432 105.718,262.038 119.781,263.950 123.227 C 264.385 124.011,265.025 124.889,265.371 125.176 C 265.717 125.463,266.000 125.848,266.000 126.031 C 266.000 126.214,267.125 128.133,268.500 130.296 C 272.427 136.473,280.116 149.132,281.818 152.223 C 282.417 153.310,283.041 154.380,283.205 154.600 C 283.457 154.940,285.583 158.699,291.799 169.800 C 292.838 171.655,293.858 173.533,296.908 179.200 C 301.336 187.430,311.652 207.817,314.515 214.000 C 315.280 215.650,316.660 218.616,317.584 220.591 C 318.507 222.567,320.605 227.247,322.246 230.991 C 323.887 234.736,325.400 238.160,325.607 238.600 C 326.279 240.022,329.234 247.315,330.389 250.400 C 332.005 254.716,334.041 260.069,334.420 261.000 C 336.193 265.349,340.433 278.912,341.797 284.600 C 343.819 293.028,343.978 293.830,344.587 298.668 C 346.665 315.169,343.568 321.381,330.120 327.683 C 318.427 333.162,296.140 338.504,275.200 340.846 C 273.330 341.055,270.360 341.385,268.600 341.580 C 266.840 341.775,264.500 342.041,263.400 342.173 C 230.959 346.045,169.308 345.956,134.200 341.985 C 125.925 341.049,119.733 340.256,115.400 339.576 C 110.507 338.808,101.349 337.185,99.800 336.812 C 98.920 336.600,96.490 336.039,94.400 335.566 C 74.644 331.095,62.098 325.171,57.422 318.105 C 53.872 312.741,54.098 300.394,58.019 285.400 C 58.479 283.640,59.033 281.480,59.250 280.600 C 59.862 278.121,62.218 270.468,63.191 267.800 C 63.672 266.480,64.249 264.770,64.473 264.000 C 64.856 262.684,66.858 257.163,67.591 255.400 C 67.774 254.960,68.498 253.070,69.201 251.200 C 69.903 249.330,70.931 246.720,71.486 245.400 C 72.041 244.080,73.354 240.930,74.403 238.400 C 75.453 235.870,76.764 232.810,77.317 231.600 C 77.871 230.390,78.856 228.230,79.507 226.800 C 80.159 225.370,81.924 221.500,83.431 218.200 C 87.836 208.549,99.057 186.254,104.267 176.800 C 104.934 175.590,106.160 173.340,106.993 171.800 C 109.510 167.142,111.388 163.756,113.149 160.700 C 115.235 157.083,120.917 147.412,122.642 144.545 C 123.719 142.755,124.958 140.685,125.395 139.945 C 126.651 137.821,128.008 135.639,130.729 131.369 C 132.120 129.186,133.470 127.047,133.729 126.615 C 133.988 126.184,135.145 124.418,136.300 122.692 C 137.455 120.965,138.400 119.490,138.400 119.413 C 138.400 119.264,148.731 104.080,149.295 103.400 C 149.477 103.180,150.464 101.830,151.487 100.400 C 153.908 97.018,157.740 91.855,158.018 91.600 C 158.138 91.490,159.845 89.330,161.812 86.800 C 163.779 84.270,165.499 82.110,165.635 82.000 C 165.770 81.890,167.004 80.450,168.377 78.800 C 182.573 61.746,195.573 53.041,203.332 55.395 M195.800 113.170 C 189.705 116.048,179.001 126.710,170.874 138.000 C 170.161 138.990,168.601 141.150,167.407 142.800 C 166.214 144.450,163.616 148.230,161.636 151.200 C 159.655 154.170,157.847 156.817,157.617 157.083 C 157.388 157.349,157.200 157.651,157.200 157.754 C 157.200 157.857,156.329 159.259,155.265 160.871 C 150.457 168.148,142.119 182.500,135.089 195.600 C 133.199 199.123,124.000 217.493,124.000 217.746 C 124.000 217.841,123.203 219.602,122.229 221.659 C 120.477 225.358,116.217 235.291,115.220 238.000 C 114.937 238.770,114.343 240.210,113.900 241.200 C 113.456 242.190,112.951 243.450,112.777 244.000 C 112.602 244.550,111.629 247.340,110.614 250.200 C 109.600 253.060,108.400 256.750,107.949 258.400 C 107.498 260.050,106.949 262.030,106.731 262.800 C 105.585 266.834,104.293 276.296,104.546 278.804 C 104.944 282.756,105.924 285.012,108.161 287.125 C 113.421 292.095,122.570 295.358,140.800 298.765 C 144.900 299.531,155.366 300.765,163.000 301.383 C 167.180 301.722,172.600 302.179,175.045 302.399 C 180.846 302.922,218.806 302.927,225.000 302.405 C 227.640 302.182,233.220 301.723,237.400 301.384 C 244.868 300.778,254.562 299.604,258.700 298.805 C 259.855 298.582,261.835 298.207,263.100 297.970 C 283.548 294.150,293.527 288.954,295.151 281.280 C 296.123 276.691,294.684 265.980,292.025 258.000 C 291.842 257.450,291.025 254.930,290.210 252.400 C 289.396 249.870,288.585 247.440,288.409 247.000 C 288.234 246.560,287.439 244.573,286.645 242.585 C 285.850 240.597,285.200 238.840,285.200 238.681 C 285.200 238.521,284.822 237.538,284.360 236.496 C 283.898 235.453,283.376 234.240,283.200 233.800 C 283.024 233.360,282.502 232.147,282.040 231.104 C 281.578 230.062,281.200 229.135,281.200 229.045 C 281.200 228.956,280.210 226.783,279.000 224.218 C 277.790 221.652,276.800 219.469,276.800 219.365 C 276.800 219.004,267.861 201.087,265.273 196.260 C 259.940 186.314,258.945 184.503,256.600 180.470 C 251.386 171.504,248.576 166.833,246.142 163.082 C 244.744 160.927,243.600 159.070,243.600 158.957 C 243.600 158.731,237.082 149.103,232.391 142.400 C 230.775 140.090,228.090 136.494,226.426 134.408 C 224.762 132.323,223.130 130.264,222.800 129.834 C 219.879 126.023,211.309 117.576,208.275 115.515 C 202.848 111.830,199.837 111.264,195.800 113.170 M205.002 114.212 C 213.061 118.671,224.013 131.011,237.120 150.400 C 239.574 154.030,241.766 157.217,241.991 157.483 C 242.216 157.749,242.400 158.042,242.400 158.135 C 242.400 158.396,244.859 162.390,246.303 164.472 C 247.016 165.502,247.600 166.537,247.600 166.772 C 247.600 167.007,247.780 167.200,248.000 167.200 C 248.220 167.200,248.400 167.374,248.400 167.586 C 248.400 167.798,249.390 169.605,250.600 171.600 C 251.810 173.595,252.800 175.289,252.800 175.363 C 252.800 175.437,253.790 177.148,255.000 179.164 C 256.210 181.181,257.200 182.931,257.200 183.054 C 257.200 183.176,257.533 183.754,257.940 184.338 C 258.346 184.922,259.375 186.750,260.225 188.400 C 261.075 190.050,261.870 191.490,261.992 191.600 C 262.802 192.333,277.212 221.415,277.204 222.300 C 277.202 222.575,277.380 222.800,277.600 222.800 C 277.820 222.800,278.000 223.124,278.000 223.520 C 278.000 223.916,278.154 224.411,278.343 224.620 C 278.531 224.829,279.271 226.440,279.987 228.200 C 281.393 231.655,282.548 234.320,283.438 236.161 C 283.747 236.800,284.000 237.498,284.000 237.711 C 284.000 237.925,284.470 239.202,285.045 240.550 C 286.324 243.551,286.588 244.219,287.200 246.000 C 287.464 246.770,287.828 247.760,288.007 248.200 C 288.186 248.640,288.425 249.360,288.537 249.800 C 288.649 250.240,289.293 252.220,289.968 254.200 C 291.871 259.783,292.000 260.211,292.000 260.934 C 292.000 261.306,292.168 261.923,292.374 262.305 C 293.352 264.120,294.585 272.342,294.578 277.000 C 294.564 285.312,292.293 287.972,281.400 292.432 C 278.646 293.560,268.628 296.238,263.600 297.190 C 259.823 297.906,256.493 298.434,253.600 298.775 C 251.950 298.970,248.530 299.404,246.000 299.739 C 219.516 303.251,171.990 303.001,149.000 299.230 C 146.463 298.814,139.025 297.646,137.000 297.345 C 136.340 297.247,135.170 297.000,134.400 296.797 C 133.630 296.593,130.716 295.883,127.924 295.219 C 122.048 293.822,120.269 293.216,115.085 290.845 C 105.675 286.540,103.636 281.202,106.359 268.000 C 106.563 267.010,106.850 265.480,106.997 264.600 C 107.144 263.720,107.410 262.640,107.588 262.200 C 107.766 261.760,108.124 260.590,108.383 259.600 C 109.304 256.078,110.936 250.994,111.266 250.620 C 111.449 250.411,111.600 249.862,111.600 249.400 C 111.600 248.938,111.749 248.389,111.930 248.180 C 112.112 247.971,112.505 246.990,112.802 246.000 C 113.100 245.010,113.458 244.020,113.597 243.800 C 113.737 243.580,114.352 242.050,114.965 240.400 C 115.578 238.750,116.422 236.637,116.840 235.704 C 117.258 234.772,117.600 233.918,117.600 233.806 C 117.600 233.695,118.196 232.298,118.925 230.702 C 119.654 229.106,120.492 227.170,120.789 226.400 C 121.086 225.630,121.479 224.829,121.664 224.620 C 121.849 224.411,122.000 223.916,122.000 223.520 C 122.000 223.124,122.180 222.800,122.400 222.800 C 122.620 222.800,122.800 222.585,122.800 222.323 C 122.800 221.472,137.202 192.368,138.004 191.600 C 138.118 191.490,138.908 190.054,139.759 188.410 C 141.706 184.646,142.146 183.850,142.417 183.600 C 142.536 183.490,143.502 181.870,144.562 180.000 C 145.623 178.130,146.951 175.790,147.513 174.800 C 148.075 173.810,149.224 171.872,150.067 170.493 C 150.910 169.114,151.600 167.886,151.600 167.764 C 151.600 167.643,151.825 167.302,152.100 167.009 C 152.375 166.715,153.230 165.430,154.000 164.154 C 154.770 162.878,156.525 160.131,157.900 158.050 C 159.275 155.969,160.400 154.187,160.400 154.090 C 160.400 153.755,166.543 145.000,166.871 144.867 C 167.052 144.793,167.200 144.577,167.200 144.385 C 167.200 144.079,170.260 139.771,171.785 137.930 C 172.091 137.562,173.562 135.672,175.054 133.730 C 182.386 124.195,192.094 115.163,196.895 113.411 C 199.324 112.526,202.526 112.842,205.002 114.212 M198.600 165.881 C 195.623 166.673,188.653 173.543,183.870 180.400 C 181.162 184.282,177.200 190.429,177.200 190.748 C 177.200 190.960,177.055 191.193,176.877 191.267 C 176.699 191.340,175.906 192.390,175.116 193.600 C 173.757 195.679,173.313 196.435,170.886 200.800 C 170.336 201.790,169.551 203.078,169.143 203.662 C 168.734 204.246,168.400 204.996,168.400 205.328 C 168.400 205.661,168.247 205.993,168.060 206.067 C 167.660 206.223,158.000 225.719,158.000 226.369 C 158.000 226.612,157.841 227.123,157.647 227.505 C 157.452 227.887,157.115 228.650,156.896 229.200 C 156.678 229.750,156.275 230.740,156.001 231.400 C 155.096 233.581,153.123 239.376,152.801 240.800 C 151.915 244.720,151.200 248.727,151.200 249.772 C 151.200 256.538,159.036 259.893,180.000 262.102 C 186.512 262.788,214.483 262.761,220.200 262.063 C 222.620 261.768,225.950 261.383,227.600 261.208 C 231.919 260.750,235.168 260.009,240.200 258.333 C 246.710 256.166,248.800 254.056,248.800 249.651 C 248.800 248.016,248.571 246.732,247.224 240.800 C 246.842 239.118,244.326 231.852,243.388 229.721 C 243.020 228.884,242.580 227.840,242.410 227.400 C 241.731 225.641,236.536 214.477,235.561 212.682 C 235.346 212.287,234.507 210.667,233.695 209.082 C 232.884 207.497,232.081 206.140,231.910 206.067 C 231.740 205.993,231.600 205.759,231.600 205.545 C 231.600 205.332,230.610 203.443,229.400 201.347 C 228.190 199.251,227.200 197.467,227.200 197.382 C 227.200 197.297,226.210 195.693,225.000 193.818 C 223.790 191.942,222.800 190.226,222.800 190.004 C 222.800 189.782,222.650 189.600,222.468 189.600 C 222.285 189.600,221.880 189.109,221.568 188.508 C 221.255 187.908,220.010 185.999,218.800 184.266 C 217.590 182.534,216.336 180.730,216.012 180.258 C 209.569 170.852,202.344 164.886,198.600 165.881 M203.243 167.541 C 214.493 174.676,240.232 217.911,246.024 239.400 C 249.541 252.449,248.669 254.817,239.200 257.942 C 221.986 263.624,177.917 263.644,160.809 257.979 C 152.047 255.078,150.638 252.092,153.270 242.000 C 156.314 230.327,168.090 205.273,176.056 193.522 C 176.905 192.269,177.600 191.151,177.600 191.036 C 177.600 190.630,185.740 178.795,187.304 176.927 C 195.615 167.002,199.129 164.932,203.243 167.541 " stroke="none" fill="#282f65" fill-rule="evenodd"></path></g></svg>