<svg id="svg" version="1.1" xmlns="http://www.w3.org/2000/svg" xmlns:xlink="http://www.w3.org/1999/xlink" width="400" height="397.36842105263156" viewBox="0, 0, 400,397.36842105263156"><g id="svgg"><path id="path0" d="M117.951 56.928 C 118.420 57.155,118.906 57.849,119.030 58.469 C 119.154 59.090,119.888 60.426,120.662 61.440 C 121.435 62.453,122.068 63.598,122.068 63.985 C 122.068 64.371,122.444 65.028,122.904 65.444 C 123.941 66.383,124.851 68.101,124.851 69.119 C 124.851 69.543,125.265 70.160,125.770 70.491 C 126.276 70.822,126.919 71.859,127.199 72.795 C 127.480 73.731,128.140 74.836,128.666 75.250 C 129.192 75.663,129.622 76.392,129.623 76.868 C 129.623 77.344,130.249 78.437,131.014 79.297 C 131.845 80.231,132.406 81.276,132.406 81.892 C 132.406 82.535,132.843 83.308,133.566 83.942 C 134.213 84.511,134.922 85.688,135.170 86.609 C 135.414 87.515,135.951 88.437,136.363 88.658 C 136.776 88.879,137.332 89.732,137.600 90.554 C 137.867 91.375,138.504 92.470,139.014 92.987 C 139.524 93.503,140.057 94.542,140.198 95.296 C 140.349 96.100,140.844 96.920,141.397 97.283 C 141.942 97.640,142.523 98.593,142.777 99.546 C 143.017 100.452,143.715 101.687,144.327 102.291 C 144.939 102.895,145.556 104.008,145.698 104.765 C 145.840 105.521,146.299 106.380,146.718 106.674 C 147.137 106.967,147.821 108.003,148.238 108.977 C 148.655 109.950,149.280 110.982,149.627 111.270 C 149.974 111.558,150.471 112.450,150.732 113.252 C 150.994 114.055,151.710 115.289,152.324 115.995 C 152.938 116.702,153.556 117.901,153.699 118.660 C 153.845 119.437,154.342 120.293,154.837 120.617 C 155.320 120.934,155.936 121.930,156.206 122.831 C 156.476 123.732,157.051 124.690,157.484 124.958 C 157.917 125.227,158.460 126.149,158.692 127.007 C 158.924 127.865,159.539 128.902,160.059 129.311 C 160.579 129.720,161.122 130.684,161.267 131.454 C 161.411 132.225,162.016 133.335,162.611 133.922 C 163.206 134.510,163.906 135.748,164.167 136.673 C 164.427 137.599,164.986 138.542,165.408 138.768 C 165.830 138.994,166.368 139.891,166.602 140.762 C 166.837 141.633,167.186 142.346,167.379 142.346 C 167.906 142.346,169.384 144.911,169.384 145.826 C 169.384 146.267,169.808 146.906,170.327 147.246 C 170.878 147.607,171.494 148.624,171.809 149.691 C 172.106 150.696,172.740 151.775,173.217 152.088 C 173.695 152.401,174.203 153.191,174.346 153.843 C 174.490 154.495,175.144 155.704,175.800 156.530 C 176.457 157.357,177.097 158.544,177.222 159.170 C 177.347 159.795,177.700 160.403,178.006 160.521 C 178.706 160.789,180.119 163.516,180.119 164.596 C 180.119 165.064,180.380 165.408,180.735 165.408 C 181.354 165.408,182.878 168.239,182.894 169.419 C 182.899 169.767,183.350 170.255,183.897 170.504 C 184.552 170.803,184.891 171.280,184.891 171.904 C 184.891 172.424,185.515 173.636,186.278 174.596 C 187.042 175.556,187.668 176.640,187.670 177.005 C 187.676 178.085,188.120 178.926,188.681 178.926 C 189.292 178.926,190.457 181.079,190.457 182.208 C 190.457 182.633,190.984 183.473,191.627 184.074 C 192.271 184.675,192.924 185.686,193.079 186.321 C 193.234 186.956,193.870 188.063,194.493 188.781 C 195.116 189.500,195.626 190.325,195.626 190.615 C 195.626 190.906,196.158 191.813,196.809 192.631 C 197.459 193.450,198.103 194.715,198.240 195.443 C 198.377 196.171,198.828 197.075,199.244 197.451 C 200.209 198.325,200.206 199.293,199.234 200.173 C 198.812 200.554,198.354 201.538,198.215 202.359 C 198.076 203.181,197.453 204.411,196.829 205.094 C 196.205 205.777,195.579 206.865,195.437 207.512 C 195.295 208.159,194.786 208.946,194.306 209.260 C 193.811 209.585,193.228 210.603,192.957 211.619 C 192.654 212.749,192.107 213.649,191.468 214.068 C 190.912 214.432,190.457 215.096,190.457 215.542 C 190.457 216.603,189.769 217.878,188.608 218.967 C 188.094 219.449,187.674 220.230,187.674 220.704 C 187.674 221.177,187.130 222.185,186.465 222.942 C 185.800 223.700,185.149 224.854,185.018 225.507 C 184.887 226.160,184.358 226.971,183.842 227.309 C 183.325 227.648,182.903 228.179,182.903 228.491 C 182.903 229.414,181.396 232.090,180.733 232.344 C 180.395 232.474,180.119 232.861,180.119 233.204 C 180.119 234.073,178.594 236.978,178.138 236.978 C 177.933 236.978,177.580 237.661,177.356 238.495 C 177.131 239.329,176.525 240.409,176.008 240.895 C 175.491 241.380,174.830 242.499,174.539 243.382 C 174.247 244.265,173.697 245.206,173.317 245.473 C 172.936 245.739,172.262 246.911,171.819 248.076 C 171.376 249.242,170.671 250.436,170.251 250.730 C 169.832 251.023,169.381 251.803,169.249 252.462 C 169.117 253.121,168.467 254.228,167.805 254.921 C 167.142 255.614,166.600 256.589,166.600 257.088 C 166.600 257.586,166.181 258.324,165.669 258.727 C 165.156 259.130,164.429 260.387,164.052 261.520 C 163.642 262.756,163.078 263.673,162.642 263.811 C 162.197 263.953,161.751 264.700,161.488 265.746 C 161.252 266.684,160.516 268.018,159.853 268.712 C 159.190 269.405,158.648 270.326,158.648 270.758 C 158.648 271.190,158.111 272.154,157.455 272.901 C 156.799 273.649,156.262 274.452,156.262 274.686 C 156.262 275.578,155.317 277.131,154.644 277.345 C 154.190 277.489,153.842 278.157,153.661 279.227 C 153.488 280.247,152.971 281.275,152.319 281.895 C 151.736 282.449,150.933 283.766,150.535 284.821 C 150.138 285.876,149.584 286.826,149.304 286.934 C 149.025 287.041,148.493 287.923,148.122 288.893 C 147.752 289.863,147.123 290.885,146.726 291.164 C 146.329 291.442,145.800 292.426,145.551 293.351 C 145.288 294.327,144.705 295.290,144.160 295.646 C 143.600 296.014,143.116 296.831,142.957 297.678 C 142.810 298.457,142.232 299.553,141.672 300.114 C 141.112 300.674,140.495 301.706,140.302 302.406 C 140.108 303.106,139.531 304.104,139.018 304.623 C 138.506 305.142,137.865 306.247,137.594 307.078 C 137.324 307.909,136.756 308.803,136.334 309.066 C 135.912 309.328,135.382 310.226,135.156 311.061 C 134.930 311.896,134.219 313.131,133.576 313.804 C 132.932 314.477,132.404 315.405,132.402 315.864 C 132.400 316.324,131.773 317.485,131.010 318.446 C 130.247 319.406,129.622 320.493,129.622 320.861 C 129.622 321.230,129.190 321.938,128.661 322.435 C 128.132 322.932,127.470 324.115,127.189 325.064 C 126.880 326.112,126.321 326.982,125.765 327.279 C 125.262 327.548,124.851 328.105,124.851 328.516 C 124.851 329.520,123.702 331.694,122.856 332.292 C 122.480 332.557,122.063 333.322,121.930 333.990 C 121.796 334.659,121.235 335.693,120.683 336.288 C 120.131 336.883,119.478 337.997,119.231 338.764 C 118.985 339.531,118.624 340.361,118.429 340.607 C 117.737 341.484,120.203 341.540,158.052 341.506 C 201.042 341.467,197.858 341.675,199.225 338.820 C 199.782 337.654,200.523 336.542,200.870 336.348 C 201.218 336.153,201.617 335.500,201.759 334.896 C 202.214 332.947,202.868 331.610,203.364 331.610 C 203.863 331.610,204.771 329.976,204.771 329.079 C 204.771 328.800,205.299 327.982,205.943 327.260 C 206.588 326.538,207.229 325.426,207.369 324.789 C 207.509 324.152,208.056 323.348,208.583 323.002 C 209.111 322.657,209.543 322.058,209.543 321.673 C 209.543 320.362,210.701 318.193,211.515 317.980 C 212.072 317.835,212.326 317.441,212.326 316.723 C 212.326 315.573,213.312 313.809,214.407 312.999 C 214.793 312.714,215.109 312.067,215.109 311.562 C 215.109 311.057,215.628 310.051,216.261 309.326 C 216.894 308.600,217.614 307.334,217.860 306.512 C 218.106 305.691,218.623 304.918,219.007 304.796 C 219.413 304.667,219.933 303.809,220.245 302.750 C 220.541 301.747,221.186 300.539,221.678 300.066 C 222.170 299.592,222.777 298.560,223.027 297.773 C 223.277 296.985,224.014 295.745,224.664 295.017 C 225.313 294.289,225.845 293.289,225.845 292.794 C 225.845 292.299,226.248 291.614,226.740 291.272 C 227.232 290.929,227.926 289.801,228.283 288.764 C 228.662 287.663,229.282 286.716,229.774 286.486 C 230.237 286.270,230.616 285.800,230.616 285.441 C 230.616 284.268,231.790 281.947,232.604 281.511 C 233.041 281.277,233.400 280.684,233.400 280.194 C 233.400 279.282,234.180 277.947,235.463 276.664 C 235.859 276.268,236.183 275.585,236.183 275.145 C 236.183 274.706,236.716 273.789,237.367 273.107 C 238.018 272.426,238.662 271.279,238.797 270.558 C 238.932 269.838,239.539 268.806,240.145 268.266 C 240.769 267.710,241.362 266.669,241.513 265.866 C 241.659 265.086,242.193 264.123,242.698 263.725 C 243.203 263.328,243.830 262.358,244.090 261.569 C 244.350 260.781,244.915 259.817,245.346 259.427 C 245.777 259.037,246.339 258.019,246.595 257.165 C 246.851 256.311,247.449 255.307,247.923 254.933 C 248.398 254.560,249.017 253.544,249.301 252.674 C 249.584 251.805,250.327 250.506,250.952 249.787 C 251.576 249.069,252.087 248.136,252.087 247.714 C 252.087 247.292,252.624 246.335,253.280 245.588 C 253.936 244.840,254.473 243.926,254.473 243.555 C 254.473 243.184,254.983 242.371,255.606 241.748 C 256.229 241.125,256.973 239.780,257.259 238.760 C 257.600 237.541,258.083 236.766,258.666 236.500 C 259.284 236.218,259.631 235.616,259.806 234.521 C 259.954 233.597,260.466 232.569,261.046 232.032 C 261.589 231.528,262.236 230.512,262.482 229.773 C 262.729 229.034,263.333 227.982,263.823 227.435 C 264.314 226.889,264.925 225.785,265.181 224.983 C 265.437 224.181,266.085 223.237,266.620 222.886 C 267.156 222.535,267.594 221.885,267.594 221.442 C 267.594 220.288,268.661 218.386,269.587 217.890 C 270.085 217.623,270.378 217.058,270.378 216.360 C 270.378 215.659,270.887 214.682,271.769 213.691 C 272.534 212.831,273.161 211.738,273.161 211.261 C 273.161 210.785,273.568 210.070,274.066 209.671 C 274.563 209.272,275.222 208.173,275.530 207.228 C 275.838 206.283,276.483 205.201,276.962 204.824 C 277.441 204.447,277.962 203.552,278.120 202.835 C 278.277 202.118,278.960 200.900,279.637 200.129 L 280.868 198.727 280.040 198.071 C 279.047 197.285,277.932 195.176,277.932 194.082 C 277.932 193.649,277.597 193.188,277.187 193.058 C 276.763 192.923,276.141 192.012,275.743 190.943 C 275.359 189.911,274.621 188.608,274.103 188.050 C 273.585 187.491,273.161 186.756,273.161 186.416 C 273.161 186.076,272.537 185.012,271.773 184.052 C 271.010 183.092,270.384 181.916,270.382 181.440 C 270.378 180.568,269.432 179.324,268.774 179.324 C 268.580 179.324,268.147 178.403,267.812 177.277 C 267.478 176.151,266.859 174.987,266.436 174.691 C 266.013 174.395,265.453 173.482,265.191 172.663 C 264.929 171.843,264.314 170.726,263.823 170.179 C 263.333 169.632,262.747 168.630,262.521 167.952 C 262.295 167.274,261.657 166.265,261.102 165.710 C 260.547 165.155,259.973 164.064,259.827 163.284 C 259.667 162.431,259.183 161.620,258.612 161.245 C 258.026 160.861,257.492 159.947,257.218 158.858 C 256.950 157.795,256.409 156.854,255.857 156.492 C 255.352 156.162,254.812 155.304,254.656 154.586 C 254.500 153.868,253.947 152.853,253.428 152.331 C 252.909 151.809,252.278 150.693,252.026 149.852 C 251.774 149.010,251.156 148.052,250.653 147.722 C 250.114 147.369,249.629 146.539,249.472 145.699 C 249.325 144.915,248.683 143.706,248.047 143.012 C 247.410 142.317,246.778 141.302,246.643 140.755 C 246.507 140.209,245.888 139.139,245.266 138.379 C 244.644 137.618,244.135 136.677,244.135 136.287 C 244.135 135.898,243.602 135.022,242.951 134.340 C 242.300 133.659,241.653 132.494,241.514 131.752 C 241.375 131.010,240.832 130.066,240.308 129.654 C 239.785 129.242,239.089 128.147,238.762 127.220 C 238.435 126.293,237.721 125.121,237.175 124.615 C 236.629 124.110,236.183 123.343,236.183 122.912 C 236.183 122.481,235.762 121.623,235.248 121.005 C 234.018 119.526,233.400 118.317,233.400 117.390 C 233.400 116.975,232.983 116.413,232.474 116.140 C 231.618 115.682,230.616 113.749,230.616 112.554 C 230.616 112.273,230.202 111.717,229.695 111.318 C 229.189 110.920,228.536 109.872,228.245 108.989 C 227.953 108.106,227.294 106.988,226.780 106.505 C 226.266 106.022,225.845 105.325,225.845 104.957 C 225.845 104.588,225.223 103.501,224.463 102.541 C 223.703 101.581,222.963 100.258,222.819 99.602 C 222.675 98.946,222.238 98.186,221.849 97.913 C 221.459 97.640,220.821 96.567,220.432 95.528 C 220.043 94.488,219.478 93.488,219.176 93.304 C 218.875 93.120,218.280 92.157,217.855 91.165 C 217.430 90.172,216.638 88.833,216.095 88.188 C 215.553 87.544,215.109 86.664,215.109 86.233 C 215.109 85.802,214.689 85.055,214.176 84.573 C 213.015 83.484,212.326 82.209,212.326 81.149 C 212.326 80.702,211.880 80.044,211.335 79.687 C 210.751 79.305,210.155 78.361,209.885 77.392 C 209.632 76.486,209.027 75.388,208.540 74.950 C 208.053 74.513,207.435 73.472,207.167 72.636 C 206.899 71.801,206.429 71.021,206.123 70.904 C 205.817 70.786,205.567 70.441,205.567 70.136 C 205.567 69.832,205.408 69.583,205.213 69.583 C 205.019 69.583,204.748 68.986,204.611 68.258 C 204.475 67.529,203.922 66.550,203.382 66.081 C 202.843 65.612,202.200 64.424,201.952 63.442 C 201.674 62.335,201.229 61.569,200.783 61.428 C 200.380 61.300,199.796 60.415,199.457 59.420 C 198.353 56.179,202.356 56.458,157.384 56.488 C 129.221 56.507,117.354 56.639,117.951 56.928 " stroke="none" fill="#e3a30c" fill-rule="evenodd"></path><path id="path1" d="M46.123 0.596 C 46.123 1.209,45.084 1.343,41.460 1.200 C 38.929 1.100,38.171 1.460,38.171 2.759 C 38.171 3.872,38.164 3.874,35.012 4.057 C 31.731 4.247,30.616 4.743,30.616 6.013 C 30.616 6.601,30.321 6.759,29.225 6.759 C 27.943 6.759,27.833 6.854,27.833 7.952 C 27.833 9.090,27.754 9.145,26.143 9.151 C 23.499 9.159,22.776 9.482,22.518 10.771 C 22.323 11.743,22.094 11.928,21.083 11.928 C 20.016 11.928,19.881 12.061,19.881 13.103 C 19.881 14.131,19.707 14.311,18.489 14.539 C 17.280 14.766,17.097 14.951,17.097 15.949 C 17.097 16.956,16.953 17.097,15.923 17.097 C 14.895 17.097,14.715 17.272,14.487 18.489 C 14.260 19.698,14.075 19.881,13.077 19.881 C 12.068 19.881,11.928 20.024,11.928 21.066 C 11.928 22.029,11.723 22.301,10.835 22.519 C 9.374 22.876,9.158 23.290,9.151 25.746 C 9.145 27.799,9.125 27.833,7.952 27.833 C 6.854 27.833,6.759 27.943,6.759 29.225 C 6.759 30.321,6.601 30.616,6.013 30.616 C 4.743 30.616,4.247 31.731,4.057 35.012 C 3.875 38.161,3.870 38.171,2.764 38.171 C 1.542 38.171,1.063 39.298,1.202 41.845 C 1.369 44.892,1.195 46.123,0.596 46.123 C 0.067 46.123,0.000 63.353,0.000 198.807 C 0.000 334.261,0.067 351.491,0.596 351.491 C 1.195 351.491,1.369 352.722,1.202 355.769 C 1.063 358.316,1.542 359.443,2.764 359.443 C 3.870 359.443,3.875 359.453,4.057 362.602 C 4.247 365.884,4.743 366.998,6.013 366.998 C 6.601 366.998,6.759 367.293,6.759 368.390 C 6.759 369.671,6.854 369.781,7.952 369.781 C 9.125 369.781,9.145 369.816,9.151 371.869 C 9.158 374.325,9.374 374.738,10.835 375.095 C 11.723 375.313,11.928 375.585,11.928 376.548 C 11.928 377.590,12.068 377.734,13.077 377.734 C 14.075 377.734,14.260 377.916,14.487 379.125 C 14.715 380.343,14.895 380.517,15.923 380.517 C 16.953 380.517,17.097 380.658,17.097 381.667 C 17.097 382.837,17.671 383.300,19.118 383.300 C 19.700 383.300,19.881 383.582,19.881 384.493 C 19.881 385.556,20.012 385.686,21.083 385.686 C 22.094 385.686,22.323 385.871,22.518 386.844 C 22.776 388.132,23.499 388.455,26.143 388.464 C 27.754 388.469,27.833 388.525,27.833 389.662 C 27.833 390.760,27.943 390.855,29.225 390.855 C 30.321 390.855,30.616 391.013,30.616 391.601 C 30.616 392.872,31.731 393.368,35.012 393.557 C 38.153 393.739,38.171 393.747,38.171 394.840 C 38.171 396.247,38.678 396.421,42.776 396.421 C 45.486 396.421,46.123 396.535,46.123 397.018 C 46.123 397.547,63.331 397.614,198.608 397.614 C 333.886 397.614,351.093 397.547,351.093 397.018 C 351.093 396.535,351.730 396.421,354.441 396.421 C 358.572 396.421,359.046 396.253,359.046 394.788 C 359.046 393.639,359.048 393.638,361.604 393.638 C 364.756 393.638,366.103 393.158,366.598 391.856 C 366.905 391.048,367.248 390.855,368.380 390.855 C 369.672 390.855,369.781 390.762,369.781 389.662 C 369.781 388.511,369.845 388.469,371.597 388.469 C 373.897 388.469,374.950 387.911,374.950 386.691 C 374.950 385.904,375.178 385.714,376.243 385.612 C 377.311 385.509,377.556 385.302,377.658 384.418 C 377.754 383.591,378.025 383.320,378.851 383.225 C 379.736 383.123,379.942 382.878,380.045 381.809 C 380.159 380.626,380.285 380.517,381.536 380.517 C 382.828 380.517,382.903 380.442,382.903 379.150 C 382.903 377.899,383.012 377.773,384.195 377.659 C 385.261 377.557,385.509 377.349,385.610 376.472 C 385.698 375.708,386.061 375.295,386.902 375.002 C 388.023 374.611,388.072 374.493,388.072 372.188 L 388.072 369.781 389.463 369.781 C 390.789 369.781,390.855 369.715,390.855 368.390 C 390.855 367.442,391.038 366.998,391.429 366.998 C 392.589 366.998,393.241 365.331,393.241 362.362 L 393.241 359.494 394.533 359.369 L 395.825 359.245 395.938 355.450 C 396.049 351.697,396.063 351.651,397.169 351.233 C 398.871 350.591,398.798 357.362,398.803 198.962 C 398.807 40.024,398.878 46.595,397.174 46.254 L 396.052 46.029 395.938 42.200 L 395.825 38.370 394.533 38.245 L 393.241 38.121 393.241 35.252 C 393.241 32.284,392.589 30.616,391.429 30.616 C 391.038 30.616,390.855 30.172,390.855 29.225 C 390.855 27.903,390.786 27.833,389.482 27.833 L 388.110 27.833 387.991 25.364 C 387.883 23.117,387.786 22.875,386.901 22.668 C 386.225 22.509,385.828 22.050,385.597 21.160 C 385.319 20.089,385.078 19.881,384.109 19.881 C 383.095 19.881,382.938 19.722,382.828 18.588 C 382.719 17.452,382.548 17.281,381.412 17.172 C 380.284 17.063,380.119 16.902,380.119 15.911 C 380.119 14.977,379.911 14.729,378.950 14.518 C 378.058 14.322,377.752 14.008,377.658 13.194 C 377.556 12.312,377.311 12.106,376.243 12.003 C 375.178 11.900,374.950 11.710,374.950 10.923 C 374.950 9.704,373.897 9.145,371.597 9.145 C 369.845 9.145,369.781 9.103,369.781 7.952 C 369.781 6.853,369.672 6.759,368.380 6.759 C 367.248 6.759,366.905 6.567,366.598 5.758 C 366.103 4.457,364.756 3.976,361.604 3.976 C 359.048 3.976,359.046 3.975,359.046 2.826 C 359.046 1.361,358.572 1.193,354.441 1.193 C 351.730 1.193,351.093 1.079,351.093 0.596 C 351.093 0.067,333.886 0.000,198.608 0.000 C 63.331 0.000,46.123 0.067,46.123 0.596 M199.373 54.929 C 199.952 55.193,200.560 55.948,200.814 56.716 C 201.055 57.447,201.498 58.183,201.799 58.351 C 202.100 58.520,202.800 59.684,203.355 60.939 C 203.910 62.194,204.530 63.221,204.733 63.221 C 204.937 63.221,205.412 64.071,205.790 65.109 C 206.167 66.148,206.812 67.298,207.222 67.665 C 207.633 68.031,208.251 69.016,208.596 69.852 C 208.941 70.688,209.627 71.909,210.121 72.565 C 210.615 73.221,211.158 74.205,211.328 74.751 C 211.499 75.298,212.142 76.323,212.758 77.029 C 213.373 77.735,213.994 78.937,214.137 79.700 C 214.291 80.518,214.686 81.178,215.101 81.310 C 215.750 81.515,217.097 84.277,217.097 85.401 C 217.097 85.667,217.301 85.885,217.551 85.885 C 218.144 85.885,219.057 87.103,219.073 87.916 C 219.080 88.268,219.710 89.342,220.473 90.302 C 221.237 91.262,221.863 92.452,221.865 92.946 C 221.867 93.440,222.241 94.156,222.695 94.537 C 223.715 95.390,224.652 97.118,224.652 98.145 C 224.652 98.568,225.055 99.178,225.547 99.501 C 226.039 99.824,226.686 100.783,226.985 101.634 C 227.284 102.485,227.932 103.628,228.425 104.175 C 228.918 104.722,229.427 105.622,229.557 106.175 C 229.686 106.728,230.318 107.769,230.960 108.489 C 231.603 109.209,232.241 110.394,232.377 111.122 C 232.519 111.879,233.026 112.710,233.558 113.058 C 234.104 113.416,234.717 114.441,235.038 115.533 C 235.340 116.558,235.823 117.487,236.112 117.599 C 236.401 117.710,237.046 118.716,237.546 119.835 C 238.045 120.954,238.837 122.210,239.306 122.626 C 239.775 123.043,240.159 123.792,240.159 124.292 C 240.159 124.791,240.701 125.792,241.363 126.516 C 242.025 127.240,242.747 128.501,242.967 129.317 C 243.187 130.134,243.704 130.982,244.115 131.202 C 244.527 131.423,245.162 132.501,245.527 133.598 C 245.891 134.696,246.518 135.770,246.919 135.985 C 247.321 136.199,247.769 136.919,247.915 137.584 C 248.061 138.250,248.701 139.364,249.337 140.060 C 249.973 140.757,250.600 141.896,250.731 142.592 C 250.861 143.288,251.399 144.232,251.927 144.690 C 252.454 145.148,253.100 146.329,253.364 147.314 C 253.631 148.312,254.131 149.196,254.495 149.311 C 255.170 149.525,256.064 151.107,256.064 152.088 C 256.064 152.396,256.501 153.085,257.036 153.620 C 257.570 154.154,258.294 155.278,258.645 156.117 C 258.996 156.957,259.610 158.004,260.010 158.444 C 260.410 158.884,260.943 159.889,261.195 160.677 C 261.447 161.465,262.076 162.507,262.592 162.992 C 263.108 163.477,263.749 164.654,264.017 165.609 C 264.284 166.564,264.741 167.436,265.033 167.548 C 265.325 167.660,266.033 168.745,266.608 169.959 C 267.182 171.174,267.803 172.167,267.988 172.167 C 268.173 172.167,268.644 173.017,269.035 174.056 C 269.426 175.094,270.052 176.168,270.427 176.442 C 270.802 176.715,271.401 177.818,271.758 178.892 C 272.115 179.966,272.671 180.946,272.993 181.070 C 273.316 181.194,273.936 182.127,274.372 183.144 C 274.808 184.161,275.609 185.521,276.151 186.165 C 276.693 186.810,277.137 187.675,277.137 188.088 C 277.137 188.501,277.665 189.380,278.311 190.040 C 278.956 190.700,279.601 191.861,279.743 192.619 C 279.893 193.418,280.388 194.251,280.920 194.599 C 282.913 195.905,282.888 201.557,280.883 203.134 C 280.354 203.551,279.920 204.191,279.920 204.557 C 279.920 205.430,279.241 206.722,278.134 207.952 C 277.642 208.499,277.131 209.408,276.999 209.971 C 276.867 210.535,276.309 211.482,275.758 212.076 C 275.208 212.669,274.640 213.639,274.496 214.232 C 274.352 214.824,273.742 215.876,273.139 216.571 C 272.537 217.265,271.928 218.365,271.785 219.015 C 271.642 219.664,271.157 220.528,270.706 220.933 C 270.256 221.338,269.490 222.565,269.004 223.658 C 268.518 224.751,267.823 225.892,267.460 226.192 C 267.097 226.492,266.799 226.912,266.799 227.126 C 266.799 227.949,265.491 230.219,265.016 230.219 C 264.742 230.219,264.292 231.022,264.017 232.004 C 263.742 232.987,263.118 234.194,262.631 234.688 C 262.143 235.182,261.535 236.228,261.280 237.013 C 261.025 237.797,260.473 238.808,260.053 239.258 C 259.633 239.709,259.013 240.738,258.676 241.546 C 258.339 242.353,257.628 243.530,257.097 244.161 C 256.566 244.792,256.011 245.856,255.864 246.525 C 255.717 247.194,255.183 248.012,254.678 248.343 C 254.136 248.698,253.650 249.526,253.493 250.362 C 253.347 251.141,252.771 252.235,252.214 252.792 C 251.656 253.350,250.935 254.584,250.611 255.536 C 250.287 256.487,249.717 257.488,249.345 257.758 C 248.972 258.029,248.428 258.877,248.136 259.642 C 247.844 260.408,247.258 261.341,246.835 261.717 C 246.412 262.093,245.888 263.047,245.669 263.837 C 245.451 264.627,244.748 265.823,244.108 266.493 C 243.467 267.164,242.942 268.101,242.942 268.576 C 242.942 269.051,242.316 270.171,241.551 271.065 C 240.785 271.959,240.159 272.958,240.159 273.284 C 240.159 273.610,239.533 274.807,238.767 275.944 C 238.002 277.082,237.376 278.250,237.376 278.540 C 237.376 278.830,236.968 279.394,236.469 279.792 C 235.970 280.191,235.344 281.250,235.079 282.145 C 234.814 283.041,234.060 284.336,233.402 285.024 C 232.745 285.712,232.207 286.621,232.207 287.043 C 232.207 287.466,231.757 288.346,231.207 289.000 C 230.658 289.653,229.922 290.871,229.573 291.707 C 229.223 292.543,228.625 293.446,228.243 293.714 C 227.861 293.982,227.323 295.007,227.047 295.992 C 226.771 296.978,226.164 298.034,225.698 298.340 C 225.232 298.646,224.610 299.717,224.316 300.720 C 224.000 301.798,223.391 302.798,222.825 303.169 C 222.267 303.535,221.869 304.182,221.869 304.725 C 221.869 305.235,221.244 306.439,220.481 307.399 C 219.718 308.360,219.091 309.467,219.089 309.860 C 219.087 310.253,218.673 310.969,218.169 311.450 C 217.664 311.932,216.933 313.178,216.544 314.219 C 216.154 315.261,215.518 316.282,215.131 316.489 C 214.743 316.697,214.197 317.687,213.916 318.689 C 213.636 319.691,213.093 320.730,212.711 320.998 C 212.329 321.265,211.731 322.168,211.382 323.004 C 211.032 323.840,210.297 325.059,209.747 325.712 C 209.197 326.365,208.748 327.262,208.748 327.704 C 208.748 328.146,208.249 328.982,207.640 329.562 C 207.031 330.142,206.283 331.390,205.977 332.335 C 205.671 333.280,205.098 334.279,204.704 334.555 C 204.310 334.831,203.709 335.847,203.370 336.813 C 203.030 337.778,202.312 338.978,201.774 339.479 C 201.236 339.980,200.795 340.651,200.795 340.970 C 200.795 341.290,200.437 341.909,200.000 342.346 C 198.980 343.366,117.339 343.601,116.004 342.588 C 114.967 341.801,115.132 339.833,116.357 338.377 C 116.934 337.692,117.628 336.470,117.899 335.663 C 118.170 334.855,118.771 334.018,119.236 333.802 C 119.700 333.586,120.080 333.116,120.080 332.757 C 120.080 331.647,121.235 329.273,121.968 328.877 C 122.351 328.671,122.900 327.734,123.187 326.797 C 123.475 325.859,124.146 324.688,124.678 324.195 C 125.211 323.702,125.646 322.958,125.646 322.542 C 125.646 322.126,126.116 321.280,126.689 320.660 C 127.263 320.041,128.000 318.751,128.326 317.794 C 128.652 316.836,129.261 315.840,129.678 315.581 C 130.096 315.322,130.622 314.426,130.848 313.591 C 131.074 312.756,131.785 311.522,132.428 310.848 C 133.072 310.175,133.598 309.336,133.598 308.985 C 133.598 308.635,134.225 307.467,134.990 306.390 C 135.755 305.313,136.382 304.119,136.382 303.736 C 136.382 303.353,136.802 302.709,137.315 302.305 C 137.829 301.902,138.481 300.860,138.764 299.990 C 139.047 299.121,139.773 297.841,140.377 297.147 C 140.980 296.452,141.590 295.357,141.732 294.712 C 141.874 294.067,142.418 293.136,142.942 292.644 C 143.466 292.152,144.010 291.227,144.150 290.590 C 144.290 289.952,144.815 289.035,145.317 288.552 C 145.819 288.069,146.446 286.995,146.710 286.165 C 146.975 285.335,147.601 284.261,148.102 283.779 C 148.603 283.297,149.233 282.213,149.501 281.370 C 149.770 280.527,150.408 279.474,150.920 279.029 C 151.431 278.585,151.971 277.664,152.119 276.983 C 152.267 276.302,152.885 275.177,153.492 274.483 C 154.099 273.788,154.714 272.683,154.858 272.027 C 155.002 271.371,155.556 270.548,156.089 270.199 C 156.641 269.837,157.058 269.179,157.058 268.668 C 157.058 267.671,158.030 266.081,159.125 265.286 C 159.519 265.000,159.841 264.369,159.841 263.883 C 159.841 263.001,160.577 261.716,161.915 260.263 C 162.305 259.839,162.624 259.182,162.624 258.802 C 162.624 258.423,163.060 257.595,163.592 256.962 C 164.125 256.329,164.862 255.058,165.231 254.137 C 165.599 253.216,166.206 252.299,166.578 252.099 C 166.951 251.900,167.466 251.035,167.723 250.178 C 167.979 249.321,168.727 247.944,169.383 247.118 C 170.039 246.292,170.577 245.323,170.577 244.964 C 170.577 244.606,171.122 243.715,171.788 242.986 C 172.455 242.256,173.106 241.130,173.235 240.484 C 173.364 239.838,173.852 239.060,174.318 238.754 C 174.785 238.449,175.409 237.376,175.706 236.371 C 176.021 235.304,176.637 234.287,177.188 233.926 C 177.707 233.586,178.131 232.959,178.131 232.533 C 178.131 231.555,178.769 230.303,179.918 229.026 C 180.410 228.479,180.926 227.547,181.065 226.955 C 181.205 226.363,181.777 225.384,182.337 224.780 C 182.897 224.176,183.456 223.179,183.579 222.564 C 183.702 221.950,184.226 221.113,184.744 220.706 C 185.262 220.298,185.686 219.818,185.686 219.638 C 185.686 218.612,187.090 215.891,187.724 215.690 C 188.134 215.560,188.469 215.179,188.469 214.844 C 188.469 213.902,189.747 211.389,190.507 210.834 C 190.882 210.561,191.304 209.813,191.445 209.174 C 191.586 208.534,192.111 207.595,192.614 207.087 C 193.116 206.579,193.773 205.474,194.074 204.632 C 194.376 203.790,195.069 202.654,195.615 202.108 C 197.094 200.629,197.069 196.847,195.572 195.669 C 195.003 195.222,194.434 194.338,194.308 193.706 C 194.181 193.074,193.616 192.008,193.052 191.338 C 192.489 190.668,191.822 189.530,191.570 188.809 C 191.319 188.089,190.714 187.100,190.226 186.612 C 189.738 186.123,189.116 185.049,188.843 184.224 C 188.571 183.398,187.973 182.428,187.514 182.066 C 187.055 181.705,186.443 180.603,186.152 179.617 C 185.862 178.631,185.209 177.462,184.701 177.021 C 184.193 176.579,183.661 175.686,183.518 175.037 C 183.376 174.388,182.824 173.448,182.292 172.949 C 181.760 172.449,181.212 171.439,181.074 170.705 C 180.936 169.971,180.441 169.060,179.973 168.681 C 179.029 167.917,178.131 166.151,178.131 165.058 C 178.131 164.668,177.715 164.126,177.206 163.854 C 176.349 163.396,175.348 161.462,175.348 160.268 C 175.348 159.987,174.921 159.421,174.399 159.010 C 173.876 158.599,173.329 157.784,173.182 157.199 C 173.035 156.614,172.389 155.497,171.746 154.716 C 171.103 153.936,170.577 152.987,170.577 152.607 C 170.577 152.227,170.027 151.291,169.356 150.526 C 168.684 149.761,167.949 148.461,167.721 147.636 C 167.493 146.811,167.002 145.922,166.629 145.661 C 166.257 145.400,165.609 144.414,165.190 143.468 C 164.771 142.523,164.180 141.492,163.878 141.178 C 163.575 140.864,162.987 139.880,162.572 138.991 C 162.157 138.103,161.372 136.768,160.829 136.025 C 160.285 135.282,159.841 134.325,159.841 133.898 C 159.841 133.471,159.320 132.635,158.683 132.040 C 158.046 131.445,157.335 130.255,157.102 129.396 C 156.870 128.536,156.335 127.618,155.912 127.356 C 155.490 127.094,154.927 126.199,154.661 125.368 C 154.396 124.537,153.777 123.410,153.286 122.863 C 152.796 122.316,152.191 121.259,151.942 120.514 C 151.692 119.768,151.136 118.912,150.706 118.610 C 150.276 118.309,149.725 117.308,149.482 116.387 C 149.240 115.466,148.625 114.317,148.116 113.835 C 147.607 113.353,146.968 112.279,146.696 111.449 C 146.423 110.619,145.883 109.716,145.496 109.442 C 145.109 109.168,144.574 108.273,144.308 107.454 C 144.041 106.635,143.329 105.396,142.725 104.702 C 142.121 104.007,141.504 102.880,141.354 102.197 C 141.204 101.515,140.740 100.743,140.322 100.482 C 139.905 100.221,139.289 99.182,138.953 98.172 C 138.618 97.163,137.902 95.922,137.363 95.415 C 136.823 94.908,136.382 94.211,136.382 93.866 C 136.382 93.521,135.773 92.382,135.030 91.336 C 134.286 90.290,133.568 89.000,133.435 88.469 C 133.302 87.938,132.762 87.072,132.235 86.546 C 131.709 86.019,131.100 84.945,130.883 84.157 C 130.666 83.370,130.056 82.318,129.529 81.820 C 129.002 81.322,128.346 80.238,128.072 79.411 C 127.798 78.585,127.140 77.475,126.610 76.944 C 126.080 76.414,125.646 75.641,125.646 75.226 C 125.646 74.811,125.120 73.921,124.477 73.248 C 123.833 72.575,123.189 71.394,123.044 70.624 C 122.892 69.814,122.401 68.974,121.879 68.632 C 121.370 68.298,120.742 67.244,120.437 66.213 C 120.141 65.208,119.516 64.136,119.050 63.830 C 118.583 63.525,118.095 62.740,117.964 62.087 C 117.834 61.434,117.183 60.280,116.517 59.523 C 115.029 57.827,114.895 56.001,116.192 55.092 C 117.334 54.292,197.631 54.135,199.373 54.929 " stroke="none" fill="#2c2c2c" fill-rule="evenodd"></path><path id="path2" d="M118.021 55.550 C 116.206 55.828,115.822 56.713,116.973 57.967 C 117.519 58.560,118.201 59.672,118.490 60.437 C 118.779 61.203,119.341 62.195,119.739 62.642 C 120.414 63.401,121.407 65.135,123.373 68.986 C 123.819 69.861,124.504 70.937,124.896 71.377 C 125.287 71.817,125.979 73.017,126.433 74.044 C 126.888 75.071,127.453 76.031,127.690 76.178 C 127.927 76.324,128.538 77.388,129.049 78.543 C 129.560 79.698,130.181 80.768,130.429 80.922 C 130.678 81.075,131.236 82.031,131.670 83.046 C 132.104 84.060,132.791 85.249,133.196 85.686 C 133.601 86.123,134.229 87.228,134.592 88.140 C 134.954 89.053,135.470 89.884,135.739 89.987 C 136.007 90.090,136.467 90.904,136.762 91.796 C 137.056 92.689,137.626 93.771,138.027 94.202 C 138.428 94.632,139.227 95.979,139.802 97.194 C 140.378 98.409,140.993 99.404,141.169 99.404 C 141.345 99.404,141.697 100.034,141.952 100.805 C 142.206 101.576,142.826 102.696,143.329 103.294 C 143.832 103.891,144.529 105.066,144.880 105.904 C 145.230 106.741,145.966 107.961,146.515 108.615 C 147.065 109.268,147.515 110.030,147.515 110.309 C 147.515 110.587,148.044 111.546,148.692 112.440 C 149.339 113.333,150.140 114.657,150.472 115.382 C 150.804 116.107,151.793 117.863,152.670 119.284 C 153.547 120.706,154.549 122.478,154.897 123.223 C 155.245 123.968,156.142 125.487,156.890 126.598 C 157.638 127.709,158.250 128.767,158.250 128.949 C 158.250 129.131,158.761 130.028,159.385 130.942 C 160.009 131.856,160.835 133.275,161.220 134.095 C 161.605 134.916,162.054 135.586,162.218 135.586 C 162.382 135.586,162.818 136.378,163.188 137.344 C 163.557 138.311,164.137 139.333,164.476 139.615 C 164.816 139.897,165.502 141.051,166.002 142.180 C 166.501 143.309,167.097 144.348,167.326 144.490 C 167.555 144.631,168.212 145.683,168.786 146.827 C 170.179 149.599,171.359 151.679,172.889 154.054 C 173.585 155.136,174.155 156.226,174.155 156.478 C 174.155 156.730,174.507 157.342,174.937 157.837 C 175.367 158.333,176.115 159.568,176.599 160.582 C 177.084 161.596,177.608 162.515,177.765 162.624 C 178.028 162.808,178.906 164.323,181.106 168.390 C 181.580 169.264,182.542 170.875,183.246 171.968 C 183.949 173.062,184.626 174.359,184.751 174.851 C 184.875 175.343,185.120 175.746,185.296 175.746 C 185.471 175.746,185.987 176.506,186.441 177.435 C 186.895 178.365,187.805 179.930,188.463 180.915 C 189.120 181.899,189.659 182.883,189.660 183.103 C 189.661 183.322,190.288 184.382,191.054 185.459 C 191.819 186.535,192.445 187.639,192.445 187.912 C 192.445 188.185,192.889 188.936,193.431 189.580 C 193.974 190.225,194.755 191.538,195.166 192.499 C 195.578 193.460,196.186 194.470,196.516 194.745 C 198.292 196.218,198.233 200.990,196.415 202.982 C 196.016 203.419,195.379 204.558,195.000 205.513 C 194.621 206.468,193.891 207.702,193.378 208.255 C 192.865 208.808,192.445 209.483,192.445 209.755 C 192.445 210.027,191.819 211.159,191.054 212.272 C 190.288 213.385,189.662 214.495,189.662 214.740 C 189.662 214.985,189.259 215.740,188.767 216.418 C 187.832 217.707,186.172 220.537,184.158 224.278 C 183.503 225.494,182.684 226.724,182.339 227.011 C 181.993 227.298,181.710 227.782,181.710 228.087 C 181.710 228.391,181.123 229.577,180.405 230.722 C 178.755 233.353,177.991 234.703,176.787 237.108 C 176.259 238.164,175.479 239.416,175.055 239.892 C 174.631 240.367,174.043 241.382,173.749 242.147 C 173.455 242.913,172.815 244.026,172.327 244.622 C 171.839 245.218,171.237 246.320,170.989 247.072 C 170.741 247.824,170.306 248.528,170.022 248.637 C 169.738 248.746,169.099 249.835,168.603 251.058 C 168.107 252.280,167.533 253.280,167.328 253.280 C 167.122 253.280,166.526 254.248,166.003 255.431 C 165.480 256.613,164.854 257.703,164.612 257.853 C 164.370 258.002,163.755 259.070,163.244 260.224 C 162.733 261.379,162.117 262.446,161.875 262.596 C 161.632 262.746,161.054 263.753,160.589 264.834 C 160.124 265.915,159.601 266.799,159.427 266.799 C 159.254 266.799,158.809 267.591,158.439 268.560 C 158.069 269.528,157.431 270.681,157.020 271.122 C 156.610 271.562,155.803 272.917,155.227 274.132 C 154.652 275.348,154.045 276.342,153.879 276.342 C 153.713 276.342,153.197 277.226,152.732 278.307 C 152.267 279.388,151.693 280.392,151.457 280.538 C 151.221 280.684,150.673 281.634,150.239 282.648 C 149.805 283.663,149.118 284.851,148.713 285.288 C 148.308 285.726,147.674 286.844,147.305 287.773 C 146.935 288.703,146.464 289.463,146.257 289.463 C 146.050 289.463,145.426 290.492,144.870 291.750 C 144.314 293.007,143.704 294.132,143.516 294.249 C 143.327 294.365,142.802 295.297,142.350 296.320 C 141.898 297.342,141.334 298.298,141.097 298.444 C 140.860 298.590,140.249 299.655,139.738 300.810 C 139.228 301.964,138.606 303.035,138.358 303.188 C 138.110 303.342,137.560 304.276,137.136 305.264 C 136.713 306.252,135.922 307.588,135.380 308.233 C 134.837 308.878,134.394 309.633,134.394 309.911 C 134.394 310.190,133.893 311.115,133.282 311.968 C 132.670 312.821,131.935 314.094,131.648 314.798 C 131.362 315.501,130.876 316.286,130.569 316.540 C 130.262 316.795,129.648 317.823,129.205 318.825 C 128.762 319.827,128.144 320.929,127.832 321.274 C 127.519 321.619,126.751 322.878,126.124 324.072 C 124.223 327.694,122.913 329.989,121.869 331.525 C 121.322 332.330,120.875 333.153,120.875 333.355 C 120.875 333.557,120.427 334.309,119.881 335.025 C 119.334 335.742,118.887 336.502,118.887 336.713 C 118.887 336.924,118.280 337.999,117.538 339.102 C 115.175 342.613,111.892 342.347,157.487 342.340 C 202.634 342.334,198.818 342.568,200.166 339.722 C 200.725 338.541,201.319 337.573,201.486 337.571 C 201.783 337.568,202.783 335.700,202.783 335.150 C 202.783 334.996,203.410 333.941,204.175 332.803 C 204.940 331.666,205.567 330.516,205.567 330.248 C 205.567 329.980,205.987 329.366,206.502 328.883 C 207.016 328.399,207.669 327.301,207.952 326.441 C 208.236 325.582,208.889 324.483,209.403 324.000 C 209.917 323.517,210.338 322.880,210.338 322.585 C 210.338 322.128,211.194 320.582,213.819 316.302 C 214.088 315.865,214.780 314.612,215.358 313.519 C 215.936 312.425,216.832 311.025,217.350 310.407 C 217.867 309.789,218.290 309.048,218.290 308.762 C 218.290 308.475,218.917 307.330,219.682 306.217 C 220.447 305.105,221.074 304.007,221.074 303.777 C 221.074 303.548,221.700 302.450,222.465 301.337 C 223.231 300.225,223.857 299.151,223.857 298.952 C 223.857 298.752,224.483 297.679,225.249 296.566 C 226.014 295.453,226.640 294.383,226.640 294.187 C 226.640 293.990,227.177 293.089,227.833 292.183 C 228.489 291.278,229.026 290.327,229.026 290.071 C 229.026 289.815,229.558 288.902,230.208 288.043 C 230.858 287.184,231.394 286.278,231.400 286.029 C 231.407 285.780,232.038 284.666,232.803 283.553 C 233.569 282.441,234.195 281.343,234.195 281.113 C 234.195 280.884,234.821 279.786,235.586 278.673 C 236.352 277.561,236.978 276.464,236.978 276.235 C 236.978 276.007,237.400 275.267,237.916 274.590 C 238.431 273.914,239.371 272.396,240.003 271.219 C 240.636 270.041,241.406 268.610,241.716 268.038 C 242.026 267.466,242.876 266.128,243.605 265.065 C 244.334 264.001,244.930 262.897,244.930 262.610 C 244.930 262.323,245.341 261.583,245.843 260.965 C 246.345 260.347,247.085 259.086,247.488 258.163 C 247.892 257.240,248.555 256.183,248.962 255.815 C 249.369 255.447,249.702 254.940,249.702 254.688 C 249.702 254.437,250.272 253.346,250.968 252.265 C 252.567 249.782,253.754 247.674,255.023 245.066 C 255.572 243.938,256.230 242.886,256.485 242.729 C 256.740 242.571,257.277 241.705,257.678 240.804 C 258.079 239.902,258.863 238.549,259.422 237.796 C 259.980 237.042,260.437 236.219,260.437 235.967 C 260.437 235.714,260.938 234.809,261.549 233.956 C 262.161 233.103,262.911 231.779,263.217 231.014 C 263.522 230.249,263.961 229.495,264.192 229.339 C 264.649 229.031,266.591 225.635,268.132 222.449 C 268.665 221.347,269.369 220.223,269.696 219.952 C 270.023 219.680,270.669 218.579,271.131 217.505 C 271.593 216.431,272.149 215.442,272.366 215.308 C 272.583 215.174,273.199 214.107,273.734 212.937 C 274.269 211.767,274.910 210.684,275.160 210.530 C 275.409 210.376,275.968 209.420,276.403 208.406 C 276.838 207.391,277.494 206.230,277.861 205.825 C 278.500 205.121,279.517 203.331,280.910 200.456 C 281.617 198.997,281.432 197.195,280.478 196.241 C 279.852 195.614,278.115 192.570,276.602 189.447 C 276.068 188.345,275.363 187.221,275.036 186.950 C 274.709 186.678,274.070 185.595,273.618 184.542 C 273.165 183.489,272.519 182.399,272.182 182.120 C 271.846 181.841,271.570 181.411,271.569 181.164 C 271.569 180.917,270.853 179.642,269.980 178.330 C 269.107 177.018,268.392 175.765,268.391 175.545 C 268.390 175.326,267.763 174.266,266.998 173.189 C 266.233 172.113,265.606 171.009,265.606 170.736 C 265.606 170.463,265.185 169.734,264.669 169.116 C 264.153 168.498,263.369 167.165,262.925 166.155 C 262.481 165.144,261.930 164.201,261.701 164.060 C 261.472 163.918,260.813 162.866,260.238 161.722 C 258.203 157.672,257.448 156.334,256.788 155.606 C 256.421 155.202,255.765 154.041,255.330 153.026 C 254.895 152.011,254.325 151.049,254.064 150.888 C 253.803 150.726,253.145 149.678,252.603 148.557 C 251.091 145.437,249.391 142.333,248.823 141.656 C 248.541 141.320,247.742 140.041,247.048 138.813 C 243.862 133.181,243.216 132.069,241.935 130.020 C 241.183 128.817,240.107 126.897,239.543 125.753 C 238.979 124.609,238.340 123.564,238.124 123.430 C 237.908 123.297,237.313 122.243,236.803 121.088 C 236.292 119.933,235.666 118.860,235.411 118.702 C 235.156 118.545,234.501 117.493,233.956 116.365 C 232.451 113.253,230.597 109.975,230.203 109.732 C 230.010 109.613,229.482 108.679,229.030 107.657 C 228.578 106.635,228.014 105.678,227.777 105.532 C 227.539 105.385,226.982 104.438,226.538 103.428 C 226.095 102.417,225.310 101.085,224.794 100.467 C 224.279 99.848,223.857 99.119,223.857 98.847 C 223.857 98.574,223.231 97.470,222.465 96.393 C 221.700 95.317,221.074 94.225,221.074 93.968 C 221.074 93.711,220.671 92.994,220.179 92.375 C 218.999 90.890,218.290 89.600,218.290 88.934 C 218.290 88.637,217.933 88.070,217.497 87.675 C 217.060 87.280,216.244 86.045,215.683 84.930 C 214.112 81.809,212.838 79.536,211.783 77.969 C 211.254 77.184,210.513 75.870,210.137 75.050 C 209.760 74.230,209.316 73.559,209.149 73.559 C 208.982 73.559,208.479 72.707,208.031 71.666 C 207.583 70.625,206.846 69.345,206.392 68.822 C 205.938 68.299,205.567 67.647,205.567 67.375 C 205.567 67.102,204.940 65.949,204.175 64.811 C 203.410 63.674,202.783 62.607,202.783 62.441 C 202.783 62.275,202.308 61.443,201.727 60.592 C 201.146 59.742,200.295 58.331,199.834 57.458 C 199.231 56.314,198.666 55.800,197.809 55.617 C 196.530 55.343,119.793 55.279,118.021 55.550 M198.261 57.051 C 198.586 57.376,199.124 58.442,199.457 59.420 C 199.796 60.415,200.380 61.300,200.783 61.428 C 201.229 61.569,201.674 62.335,201.952 63.442 C 202.200 64.424,202.843 65.612,203.382 66.081 C 203.922 66.550,204.475 67.529,204.611 68.258 C 204.748 68.986,205.019 69.583,205.213 69.583 C 205.408 69.583,205.567 69.832,205.567 70.136 C 205.567 70.441,205.817 70.786,206.123 70.904 C 206.429 71.021,206.899 71.801,207.167 72.636 C 207.435 73.472,208.053 74.513,208.540 74.950 C 209.027 75.388,209.632 76.486,209.885 77.392 C 210.155 78.361,210.751 79.305,211.335 79.687 C 211.880 80.044,212.326 80.702,212.326 81.149 C 212.326 82.209,213.015 83.484,214.176 84.573 C 214.689 85.055,215.109 85.802,215.109 86.233 C 215.109 86.664,215.553 87.544,216.095 88.188 C 216.638 88.833,217.430 90.172,217.855 91.165 C 218.280 92.157,218.875 93.120,219.176 93.304 C 219.478 93.488,220.043 94.488,220.432 95.528 C 220.821 96.567,221.459 97.640,221.849 97.913 C 222.238 98.186,222.675 98.946,222.819 99.602 C 222.963 100.258,223.703 101.581,224.463 102.541 C 225.223 103.501,225.845 104.588,225.845 104.957 C 225.845 105.325,226.266 106.022,226.780 106.505 C 227.294 106.988,227.953 108.106,228.245 108.989 C 228.536 109.872,229.189 110.920,229.695 111.318 C 230.202 111.717,230.616 112.273,230.616 112.554 C 230.616 113.749,231.618 115.682,232.474 116.140 C 232.983 116.413,233.400 116.975,233.400 117.390 C 233.400 118.317,234.018 119.526,235.248 121.005 C 235.762 121.623,236.183 122.481,236.183 122.912 C 236.183 123.343,236.629 124.110,237.175 124.615 C 237.721 125.121,238.435 126.293,238.762 127.220 C 239.089 128.147,239.785 129.242,240.308 129.654 C 240.832 130.066,241.375 131.010,241.514 131.752 C 241.653 132.494,242.300 133.659,242.951 134.340 C 243.602 135.022,244.135 135.898,244.135 136.287 C 244.135 136.677,244.644 137.618,245.266 138.379 C 245.888 139.139,246.507 140.209,246.643 140.755 C 246.778 141.302,247.410 142.317,248.047 143.012 C 248.683 143.706,249.325 144.915,249.472 145.699 C 249.629 146.539,250.114 147.369,250.653 147.722 C 251.156 148.052,251.774 149.010,252.026 149.852 C 252.278 150.693,252.909 151.809,253.428 152.331 C 253.947 152.853,254.500 153.868,254.656 154.586 C 254.812 155.304,255.352 156.162,255.857 156.492 C 256.409 156.854,256.950 157.795,257.218 158.858 C 257.492 159.947,258.026 160.861,258.612 161.245 C 259.183 161.620,259.667 162.431,259.827 163.284 C 259.973 164.064,260.547 165.155,261.102 165.710 C 261.657 166.265,262.295 167.274,262.521 167.952 C 262.747 168.630,263.333 169.632,263.823 170.179 C 264.314 170.726,264.929 171.843,265.191 172.663 C 265.453 173.482,266.013 174.395,266.436 174.691 C 266.859 174.987,267.478 176.151,267.812 177.277 C 268.147 178.403,268.580 179.324,268.774 179.324 C 269.432 179.324,270.378 180.568,270.382 181.440 C 270.384 181.916,271.010 183.092,271.773 184.052 C 272.537 185.012,273.161 186.076,273.161 186.416 C 273.161 186.756,273.585 187.491,274.103 188.050 C 274.621 188.608,275.359 189.911,275.743 190.943 C 276.141 192.012,276.763 192.923,277.187 193.058 C 277.597 193.188,277.932 193.649,277.932 194.082 C 277.932 195.176,279.047 197.285,280.040 198.071 L 280.868 198.727 279.637 200.129 C 278.960 200.900,278.277 202.118,278.120 202.835 C 277.962 203.552,277.441 204.447,276.962 204.824 C 276.483 205.201,275.838 206.283,275.530 207.228 C 275.222 208.173,274.563 209.272,274.066 209.671 C 273.568 210.070,273.161 210.785,273.161 211.261 C 273.161 211.738,272.534 212.831,271.769 213.691 C 270.887 214.682,270.378 215.659,270.378 216.360 C 270.378 217.058,270.085 217.623,269.587 217.890 C 268.661 218.386,267.594 220.288,267.594 221.442 C 267.594 221.885,267.156 222.535,266.620 222.886 C 266.085 223.237,265.437 224.181,265.181 224.983 C 264.925 225.785,264.314 226.889,263.823 227.435 C 263.333 227.982,262.729 229.034,262.482 229.773 C 262.236 230.512,261.589 231.528,261.046 232.032 C 260.466 232.569,259.954 233.597,259.806 234.521 C 259.631 235.616,259.284 236.218,258.666 236.500 C 258.083 236.766,257.600 237.541,257.259 238.760 C 256.973 239.780,256.229 241.125,255.606 241.748 C 254.983 242.371,254.473 243.184,254.473 243.555 C 254.473 243.926,253.936 244.840,253.280 245.588 C 252.624 246.335,252.087 247.292,252.087 247.714 C 252.087 248.136,251.576 249.069,250.952 249.787 C 250.327 250.506,249.584 251.805,249.301 252.674 C 249.017 253.544,248.398 254.560,247.923 254.933 C 247.449 255.307,246.851 256.311,246.595 257.165 C 246.339 258.019,245.777 259.037,245.346 259.427 C 244.915 259.817,244.350 260.781,244.090 261.569 C 243.830 262.358,243.203 263.328,242.698 263.725 C 242.193 264.123,241.659 265.086,241.513 265.866 C 241.362 266.669,240.769 267.710,240.145 268.266 C 239.539 268.806,238.932 269.838,238.797 270.558 C 238.662 271.279,238.018 272.426,237.367 273.107 C 236.716 273.789,236.183 274.706,236.183 275.145 C 236.183 275.585,235.859 276.268,235.463 276.664 C 234.180 277.947,233.400 279.282,233.400 280.194 C 233.400 280.684,233.041 281.277,232.604 281.511 C 231.790 281.947,230.616 284.268,230.616 285.441 C 230.616 285.800,230.237 286.270,229.774 286.486 C 229.282 286.716,228.662 287.663,228.283 288.764 C 227.926 289.801,227.232 290.929,226.740 291.272 C 226.248 291.614,225.845 292.299,225.845 292.794 C 225.845 293.289,225.313 294.289,224.664 295.017 C 224.014 295.745,223.277 296.985,223.027 297.773 C 222.777 298.560,222.170 299.592,221.678 300.066 C 221.186 300.539,220.541 301.747,220.245 302.750 C 219.933 303.809,219.413 304.667,219.007 304.796 C 218.623 304.918,218.106 305.691,217.860 306.512 C 217.614 307.334,216.894 308.600,216.261 309.326 C 215.628 310.051,215.109 311.057,215.109 311.562 C 215.109 312.067,214.793 312.714,214.407 312.999 C 213.312 313.809,212.326 315.573,212.326 316.723 C 212.326 317.441,212.072 317.835,211.515 317.980 C 210.701 318.193,209.543 320.362,209.543 321.673 C 209.543 322.058,209.111 322.657,208.583 323.002 C 208.056 323.348,207.509 324.152,207.369 324.789 C 207.229 325.426,206.588 326.538,205.943 327.260 C 205.299 327.982,204.771 328.800,204.771 329.079 C 204.771 329.976,203.863 331.610,203.364 331.610 C 202.868 331.610,202.214 332.947,201.759 334.896 C 201.617 335.500,201.218 336.153,200.870 336.348 C 200.523 336.542,199.782 337.654,199.225 338.820 C 197.858 341.675,201.042 341.467,158.052 341.506 C 120.203 341.540,117.737 341.484,118.429 340.607 C 118.624 340.361,118.985 339.531,119.231 338.764 C 119.478 337.997,120.131 336.883,120.683 336.288 C 121.235 335.693,121.796 334.659,121.930 333.990 C 122.063 333.322,122.480 332.557,122.856 332.292 C 123.702 331.694,124.851 329.520,124.851 328.516 C 124.851 328.105,125.262 327.548,125.765 327.279 C 126.321 326.982,126.880 326.112,127.189 325.064 C 127.470 324.115,128.132 322.932,128.661 322.435 C 129.190 321.938,129.622 321.230,129.622 320.861 C 129.622 320.493,130.247 319.406,131.010 318.446 C 131.773 317.485,132.400 316.324,132.402 315.864 C 132.404 315.405,132.932 314.477,133.576 313.804 C 134.219 313.131,134.930 311.896,135.156 311.061 C 135.382 310.226,135.912 309.328,136.334 309.066 C 136.756 308.803,137.324 307.909,137.594 307.078 C 137.865 306.247,138.506 305.142,139.018 304.623 C 139.531 304.104,140.108 303.106,140.302 302.406 C 140.495 301.706,141.112 300.674,141.672 300.114 C 142.232 299.553,142.810 298.457,142.957 297.678 C 143.116 296.831,143.600 296.014,144.160 295.646 C 144.705 295.290,145.288 294.327,145.551 293.351 C 145.800 292.426,146.329 291.442,146.726 291.164 C 147.123 290.885,147.752 289.863,148.122 288.893 C 148.493 287.923,149.025 287.041,149.304 286.934 C 149.584 286.826,150.138 285.876,150.535 284.821 C 150.933 283.766,151.736 282.449,152.319 281.895 C 152.971 281.275,153.488 280.247,153.661 279.227 C 153.842 278.157,154.190 277.489,154.644 277.345 C 155.317 277.131,156.262 275.578,156.262 274.686 C 156.262 274.452,156.799 273.649,157.455 272.901 C 158.111 272.154,158.648 271.190,158.648 270.758 C 158.648 270.326,159.190 269.405,159.853 268.712 C 160.516 268.018,161.252 266.684,161.488 265.746 C 161.751 264.700,162.197 263.953,162.642 263.811 C 163.078 263.673,163.642 262.756,164.052 261.520 C 164.429 260.387,165.156 259.130,165.669 258.727 C 166.181 258.324,166.600 257.586,166.600 257.088 C 166.600 256.589,167.142 255.614,167.805 254.921 C 168.467 254.228,169.117 253.121,169.249 252.462 C 169.381 251.803,169.832 251.023,170.251 250.730 C 170.671 250.436,171.376 249.242,171.819 248.076 C 172.262 246.911,172.936 245.739,173.317 245.473 C 173.697 245.206,174.247 244.265,174.539 243.382 C 174.830 242.499,175.491 241.380,176.008 240.895 C 176.525 240.409,177.131 239.329,177.356 238.495 C 177.580 237.661,177.933 236.978,178.138 236.978 C 178.594 236.978,180.119 234.073,180.119 233.204 C 180.119 232.861,180.395 232.474,180.733 232.344 C 181.396 232.090,182.903 229.414,182.903 228.491 C 182.903 228.179,183.325 227.648,183.842 227.309 C 184.358 226.971,184.887 226.160,185.018 225.507 C 185.149 224.854,185.800 223.700,186.465 222.942 C 187.130 222.185,187.674 221.177,187.674 220.704 C 187.674 220.230,188.094 219.449,188.608 218.967 C 189.769 217.878,190.457 216.603,190.457 215.542 C 190.457 215.096,190.912 214.432,191.468 214.068 C 192.107 213.649,192.654 212.749,192.957 211.619 C 193.228 210.603,193.811 209.585,194.306 209.260 C 194.786 208.946,195.295 208.159,195.437 207.512 C 195.579 206.865,196.205 205.777,196.829 205.094 C 197.453 204.411,198.076 203.181,198.215 202.359 C 198.354 201.538,198.812 200.554,199.234 200.173 C 200.206 199.293,200.209 198.325,199.244 197.451 C 198.828 197.075,198.377 196.171,198.240 195.443 C 198.103 194.715,197.459 193.450,196.809 192.631 C 196.158 191.813,195.626 190.906,195.626 190.615 C 195.626 190.325,195.116 189.500,194.493 188.781 C 193.870 188.063,193.234 186.956,193.079 186.321 C 192.924 185.686,192.271 184.675,191.627 184.074 C 190.984 183.473,190.457 182.633,190.457 182.208 C 190.457 181.079,189.292 178.926,188.681 178.926 C 188.120 178.926,187.676 178.085,187.670 177.005 C 187.668 176.640,187.042 175.556,186.278 174.596 C 185.515 173.636,184.891 172.424,184.891 171.904 C 184.891 171.280,184.552 170.803,183.897 170.504 C 183.350 170.255,182.899 169.767,182.894 169.419 C 182.878 168.239,181.354 165.408,180.735 165.408 C 180.380 165.408,180.119 165.064,180.119 164.596 C 180.119 163.516,178.706 160.789,178.006 160.521 C 177.700 160.403,177.347 159.795,177.222 159.170 C 177.097 158.544,176.457 157.357,175.800 156.530 C 175.144 155.704,174.490 154.495,174.346 153.843 C 174.203 153.191,173.695 152.401,173.217 152.088 C 172.740 151.775,172.106 150.696,171.809 149.691 C 171.494 148.624,170.878 147.607,170.327 147.246 C 169.808 146.906,169.384 146.267,169.384 145.826 C 169.384 144.911,167.906 142.346,167.379 142.346 C 167.186 142.346,166.837 141.633,166.602 140.762 C 166.368 139.891,165.830 138.994,165.408 138.768 C 164.986 138.542,164.427 137.599,164.167 136.673 C 163.906 135.748,163.206 134.510,162.611 133.922 C 162.016 133.335,161.411 132.225,161.267 131.454 C 161.122 130.684,160.579 129.720,160.059 129.311 C 159.539 128.902,158.924 127.865,158.692 127.007 C 158.460 126.149,157.917 125.227,157.484 124.958 C 157.051 124.690,156.476 123.732,156.206 122.831 C 155.936 121.930,155.320 120.934,154.837 120.617 C 154.342 120.293,153.845 119.437,153.699 118.660 C 153.556 117.901,152.938 116.702,152.324 115.995 C 151.710 115.289,150.994 114.055,150.732 113.252 C 150.471 112.450,149.974 111.558,149.627 111.270 C 149.280 110.982,148.655 109.950,148.238 108.977 C 147.821 108.003,147.137 106.967,146.718 106.674 C 146.299 106.380,145.840 105.521,145.698 104.765 C 145.556 104.008,144.939 102.895,144.327 102.291 C 143.715 101.687,143.017 100.452,142.777 99.546 C 142.523 98.593,141.942 97.640,141.397 97.283 C 140.844 96.920,140.349 96.100,140.198 95.296 C 140.057 94.542,139.524 93.503,139.014 92.987 C 138.504 92.470,137.867 91.375,137.600 90.554 C 137.332 89.732,136.776 88.879,136.363 88.658 C 135.951 88.437,135.414 87.515,135.170 86.609 C 134.922 85.688,134.213 84.511,133.566 83.942 C 132.843 83.308,132.406 82.535,132.406 81.892 C 132.406 81.276,131.845 80.231,131.014 79.297 C 130.249 78.437,129.623 77.344,129.623 76.868 C 129.622 76.392,129.192 75.663,128.666 75.250 C 128.140 74.836,127.480 73.731,127.199 72.795 C 126.919 71.859,126.276 70.822,125.770 70.491 C 125.265 70.160,124.851 69.543,124.851 69.119 C 124.851 68.101,123.941 66.383,122.904 65.444 C 122.444 65.028,122.068 64.371,122.068 63.985 C 122.068 63.598,121.435 62.453,120.662 61.440 C 119.888 60.426,119.154 59.090,119.030 58.469 C 118.906 57.849,118.420 57.155,117.951 56.928 C 117.354 56.639,129.221 56.507,157.384 56.488 C 192.493 56.465,197.747 56.537,198.261 57.051 " stroke="none" fill="#a87c18" fill-rule="evenodd"></path><path id="path3" d="M116.192 55.092 C 114.895 56.001,115.029 57.827,116.517 59.523 C 117.183 60.280,117.834 61.434,117.964 62.087 C 118.095 62.740,118.583 63.525,119.050 63.830 C 119.516 64.136,120.141 65.208,120.437 66.213 C 120.742 67.244,121.370 68.298,121.879 68.632 C 122.401 68.974,122.892 69.814,123.044 70.624 C 123.189 71.394,123.833 72.575,124.477 73.248 C 125.120 73.921,125.646 74.811,125.646 75.226 C 125.646 75.641,126.080 76.414,126.610 76.944 C 127.140 77.475,127.798 78.585,128.072 79.411 C 128.346 80.238,129.002 81.322,129.529 81.820 C 130.056 82.318,130.666 83.370,130.883 84.157 C 131.100 84.945,131.709 86.019,132.235 86.546 C 132.762 87.072,133.302 87.938,133.435 88.469 C 133.568 89.000,134.286 90.290,135.030 91.336 C 135.773 92.382,136.382 93.521,136.382 93.866 C 136.382 94.211,136.823 94.908,137.363 95.415 C 137.902 95.922,138.618 97.163,138.953 98.172 C 139.289 99.182,139.905 100.221,140.322 100.482 C 140.740 100.743,141.204 101.515,141.354 102.197 C 141.504 102.880,142.121 104.007,142.725 104.702 C 143.329 105.396,144.041 106.635,144.308 107.454 C 144.574 108.273,145.109 109.168,145.496 109.442 C 145.883 109.716,146.423 110.619,146.696 111.449 C 146.968 112.279,147.607 113.353,148.116 113.835 C 148.625 114.317,149.240 115.466,149.482 116.387 C 149.725 117.308,150.276 118.309,150.706 118.610 C 151.136 118.912,151.692 119.768,151.942 120.514 C 152.191 121.259,152.796 122.316,153.286 122.863 C 153.777 123.410,154.396 124.537,154.661 125.368 C 154.927 126.199,155.490 127.094,155.912 127.356 C 156.335 127.618,156.870 128.536,157.102 129.396 C 157.335 130.255,158.046 131.445,158.683 132.040 C 159.320 132.635,159.841 133.471,159.841 133.898 C 159.841 134.325,160.285 135.282,160.829 136.025 C 161.372 136.768,162.157 138.103,162.572 138.991 C 162.987 139.880,163.575 140.864,163.878 141.178 C 164.180 141.492,164.771 142.523,165.190 143.468 C 165.609 144.414,166.257 145.400,166.629 145.661 C 167.002 145.922,167.493 146.811,167.721 147.636 C 167.949 148.461,168.684 149.761,169.356 150.526 C 170.027 151.291,170.577 152.227,170.577 152.607 C 170.577 152.987,171.103 153.936,171.746 154.716 C 172.389 155.497,173.035 156.614,173.182 157.199 C 173.329 157.784,173.876 158.599,174.399 159.010 C 174.921 159.421,175.348 159.987,175.348 160.268 C 175.348 161.462,176.349 163.396,177.206 163.854 C 177.715 164.126,178.131 164.668,178.131 165.058 C 178.131 166.151,179.029 167.917,179.973 168.681 C 180.441 169.060,180.936 169.971,181.074 170.705 C 181.212 171.439,181.760 172.449,182.292 172.949 C 182.824 173.448,183.376 174.388,183.518 175.037 C 183.661 175.686,184.193 176.579,184.701 177.021 C 185.209 177.462,185.862 178.631,186.152 179.617 C 186.443 180.603,187.055 181.705,187.514 182.066 C 187.973 182.428,188.571 183.398,188.843 184.224 C 189.116 185.049,189.738 186.123,190.226 186.612 C 190.714 187.100,191.319 188.089,191.570 188.809 C 191.822 189.530,192.489 190.668,193.052 191.338 C 193.616 192.008,194.181 193.074,194.308 193.706 C 194.434 194.338,195.003 195.222,195.572 195.669 C 197.069 196.847,197.094 200.629,195.615 202.108 C 195.069 202.654,194.376 203.790,194.074 204.632 C 193.773 205.474,193.116 206.579,192.614 207.087 C 192.111 207.595,191.586 208.534,191.445 209.174 C 191.304 209.813,190.882 210.561,190.507 210.834 C 189.747 211.389,188.469 213.902,188.469 214.844 C 188.469 215.179,188.134 215.560,187.724 215.690 C 187.090 215.891,185.686 218.612,185.686 219.638 C 185.686 219.818,185.262 220.298,184.744 220.706 C 184.226 221.113,183.702 221.950,183.579 222.564 C 183.456 223.179,182.897 224.176,182.337 224.780 C 181.777 225.384,181.205 226.363,181.065 226.955 C 180.926 227.547,180.410 228.479,179.918 229.026 C 178.769 230.303,178.131 231.555,178.131 232.533 C 178.131 232.959,177.707 233.586,177.188 233.926 C 176.637 234.287,176.021 235.304,175.706 236.371 C 175.409 237.376,174.785 238.449,174.318 238.754 C 173.852 239.060,173.364 239.838,173.235 240.484 C 173.106 241.130,172.455 242.256,171.788 242.986 C 171.122 243.715,170.577 244.606,170.577 244.964 C 170.577 245.323,170.039 246.292,169.383 247.118 C 168.727 247.944,167.979 249.321,167.723 250.178 C 167.466 251.035,166.951 251.900,166.578 252.099 C 166.206 252.299,165.599 253.216,165.231 254.137 C 164.862 255.058,164.125 256.329,163.592 256.962 C 163.060 257.595,162.624 258.423,162.624 258.802 C 162.624 259.182,162.305 259.839,161.915 260.263 C 160.577 261.716,159.841 263.001,159.841 263.883 C 159.841 264.369,159.519 265.000,159.125 265.286 C 158.030 266.081,157.058 267.671,157.058 268.668 C 157.058 269.179,156.641 269.837,156.089 270.199 C 155.556 270.548,155.002 271.371,154.858 272.027 C 154.714 272.683,154.099 273.788,153.492 274.483 C 152.885 275.177,152.267 276.302,152.119 276.983 C 151.971 277.664,151.431 278.585,150.920 279.029 C 150.408 279.474,149.770 280.527,149.501 281.370 C 149.233 282.213,148.603 283.297,148.102 283.779 C 147.601 284.261,146.975 285.335,146.710 286.165 C 146.446 286.995,145.819 288.069,145.317 288.552 C 144.815 289.035,144.290 289.952,144.150 290.590 C 144.010 291.227,143.466 292.152,142.942 292.644 C 142.418 293.136,141.874 294.067,141.732 294.712 C 141.590 295.357,140.980 296.452,140.377 297.147 C 139.773 297.841,139.047 299.121,138.764 299.990 C 138.481 300.860,137.829 301.902,137.315 302.305 C 136.802 302.709,136.382 303.353,136.382 303.736 C 136.382 304.119,135.755 305.313,134.990 306.390 C 134.225 307.467,133.598 308.635,133.598 308.985 C 133.598 309.336,133.072 310.175,132.428 310.848 C 131.785 311.522,131.074 312.756,130.848 313.591 C 130.622 314.426,130.096 315.322,129.678 315.581 C 129.261 315.840,128.652 316.836,128.326 317.794 C 128.000 318.751,127.263 320.041,126.689 320.660 C 126.116 321.280,125.646 322.126,125.646 322.542 C 125.646 322.958,125.211 323.702,124.678 324.195 C 124.146 324.688,123.475 325.859,123.187 326.797 C 122.900 327.734,122.351 328.671,121.968 328.877 C 121.235 329.273,120.080 331.647,120.080 332.757 C 120.080 333.116,119.700 333.586,119.236 333.802 C 118.771 334.018,118.170 334.855,117.899 335.663 C 117.628 336.470,116.934 337.692,116.357 338.377 C 115.132 339.833,114.967 341.801,116.004 342.588 C 117.339 343.601,198.980 343.366,200.000 342.346 C 200.437 341.909,200.795 341.290,200.795 340.970 C 200.795 340.651,201.236 339.980,201.774 339.479 C 202.312 338.978,203.030 337.778,203.370 336.813 C 203.709 335.847,204.310 334.831,204.704 334.555 C 205.098 334.279,205.671 333.280,205.977 332.335 C 206.283 331.390,207.031 330.142,207.640 329.562 C 208.249 328.982,208.748 328.146,208.748 327.704 C 208.748 327.262,209.197 326.365,209.747 325.712 C 210.297 325.059,211.032 323.840,211.382 323.004 C 211.731 322.168,212.329 321.265,212.711 320.998 C 213.093 320.730,213.636 319.691,213.916 318.689 C 214.197 317.687,214.743 316.697,215.131 316.489 C 215.518 316.282,216.154 315.261,216.544 314.219 C 216.933 313.178,217.664 311.932,218.169 311.450 C 218.673 310.969,219.087 310.253,219.089 309.860 C 219.091 309.467,219.718 308.360,220.481 307.399 C 221.244 306.439,221.869 305.235,221.869 304.725 C 221.869 304.182,222.267 303.535,222.825 303.169 C 223.391 302.798,224.000 301.798,224.316 300.720 C 224.610 299.717,225.232 298.646,225.698 298.340 C 226.164 298.034,226.771 296.978,227.047 295.992 C 227.323 295.007,227.861 293.982,228.243 293.714 C 228.625 293.446,229.223 292.543,229.573 291.707 C 229.922 290.871,230.658 289.653,231.207 289.000 C 231.757 288.346,232.207 287.466,232.207 287.043 C 232.207 286.621,232.745 285.712,233.402 285.024 C 234.060 284.336,234.814 283.041,235.079 282.145 C 235.344 281.250,235.970 280.191,236.469 279.792 C 236.968 279.394,237.376 278.830,237.376 278.540 C 237.376 278.250,238.002 277.082,238.767 275.944 C 239.533 274.807,240.159 273.610,240.159 273.284 C 240.159 272.958,240.785 271.959,241.551 271.065 C 242.316 270.171,242.942 269.051,242.942 268.576 C 242.942 268.101,243.467 267.164,244.108 266.493 C 244.748 265.823,245.451 264.627,245.669 263.837 C 245.888 263.047,246.412 262.093,246.835 261.717 C 247.258 261.341,247.844 260.408,248.136 259.642 C 248.428 258.877,248.972 258.029,249.345 257.758 C 249.717 257.488,250.287 256.487,250.611 255.536 C 250.935 254.584,251.656 253.350,252.214 252.792 C 252.771 252.235,253.347 251.141,253.493 250.362 C 253.650 249.526,254.136 248.698,254.678 248.343 C 255.183 248.012,255.717 247.194,255.864 246.525 C 256.011 245.856,256.566 244.792,257.097 244.161 C 257.628 243.530,258.339 242.353,258.676 241.546 C 259.013 240.738,259.633 239.709,260.053 239.258 C 260.473 238.808,261.025 237.797,261.280 237.013 C 261.535 236.228,262.143 235.182,262.631 234.688 C 263.118 234.194,263.742 232.987,264.017 232.004 C 264.292 231.022,264.742 230.219,265.016 230.219 C 265.491 230.219,266.799 227.949,266.799 227.126 C 266.799 226.912,267.097 226.492,267.460 226.192 C 267.823 225.892,268.518 224.751,269.004 223.658 C 269.490 222.565,270.256 221.338,270.706 220.933 C 271.157 220.528,271.642 219.664,271.785 219.015 C 271.928 218.365,272.537 217.265,273.139 216.571 C 273.742 215.876,274.352 214.824,274.496 214.232 C 274.640 213.639,275.208 212.669,275.758 212.076 C 276.309 211.482,276.867 210.535,276.999 209.971 C 277.131 209.408,277.642 208.499,278.134 207.952 C 279.241 206.722,279.920 205.430,279.920 204.557 C 279.920 204.191,280.354 203.551,280.883 203.134 C 282.888 201.557,282.913 195.905,280.920 194.599 C 280.388 194.251,279.893 193.418,279.743 192.619 C 279.601 191.861,278.956 190.700,278.311 190.040 C 277.665 189.380,277.137 188.501,277.137 188.088 C 277.137 187.675,276.693 186.810,276.151 186.165 C 275.609 185.521,274.808 184.161,274.372 183.144 C 273.936 182.127,273.316 181.194,272.993 181.070 C 272.671 180.946,272.115 179.966,271.758 178.892 C 271.401 177.818,270.802 176.715,270.427 176.442 C 270.052 176.168,269.426 175.094,269.035 174.056 C 268.644 173.017,268.173 172.167,267.988 172.167 C 267.803 172.167,267.182 171.174,266.608 169.959 C 266.033 168.745,265.325 167.660,265.033 167.548 C 264.741 167.436,264.284 166.564,264.017 165.609 C 263.749 164.654,263.108 163.477,262.592 162.992 C 262.076 162.507,261.447 161.465,261.195 160.677 C 260.943 159.889,260.410 158.884,260.010 158.444 C 259.610 158.004,258.996 156.957,258.645 156.117 C 258.294 155.278,257.570 154.154,257.036 153.620 C 256.501 153.085,256.064 152.396,256.064 152.088 C 256.064 151.107,255.170 149.525,254.495 149.311 C 254.131 149.196,253.631 148.312,253.364 147.314 C 253.100 146.329,252.454 145.148,251.927 144.690 C 251.399 144.232,250.861 143.288,250.731 142.592 C 250.600 141.896,249.973 140.757,249.337 140.060 C 248.701 139.364,248.061 138.250,247.915 137.584 C 247.769 136.919,247.321 136.199,246.919 135.985 C 246.518 135.770,245.891 134.696,245.527 133.598 C 245.162 132.501,244.527 131.423,244.115 131.202 C 243.704 130.982,243.187 130.134,242.967 129.317 C 242.747 128.501,242.025 127.240,241.363 126.516 C 240.701 125.792,240.159 124.791,240.159 124.292 C 240.159 123.792,239.775 123.043,239.306 122.626 C 238.837 122.210,238.045 120.954,237.546 119.835 C 237.046 118.716,236.401 117.710,236.112 117.599 C 235.823 117.487,235.340 116.558,235.038 115.533 C 234.717 114.441,234.104 113.416,233.558 113.058 C 233.026 112.710,232.519 111.879,232.377 111.122 C 232.241 110.394,231.603 109.209,230.960 108.489 C 230.318 107.769,229.686 106.728,229.557 106.175 C 229.427 105.622,228.918 104.722,228.425 104.175 C 227.932 103.628,227.284 102.485,226.985 101.634 C 226.686 100.783,226.039 99.824,225.547 99.501 C 225.055 99.178,224.652 98.568,224.652 98.145 C 224.652 97.118,223.715 95.390,222.695 94.537 C 222.241 94.156,221.867 93.440,221.865 92.946 C 221.863 92.452,221.237 91.262,220.473 90.302 C 219.710 89.342,219.080 88.268,219.073 87.916 C 219.057 87.103,218.144 85.885,217.551 85.885 C 217.301 85.885,217.097 85.667,217.097 85.401 C 217.097 84.277,215.750 81.515,215.101 81.310 C 214.686 81.178,214.291 80.518,214.137 79.700 C 213.994 78.937,213.373 77.735,212.758 77.029 C 212.142 76.323,211.499 75.298,211.328 74.751 C 211.158 74.205,210.615 73.221,210.121 72.565 C 209.627 71.909,208.941 70.688,208.596 69.852 C 208.251 69.016,207.633 68.031,207.222 67.665 C 206.812 67.298,206.167 66.148,205.790 65.109 C 205.412 64.071,204.937 63.221,204.733 63.221 C 204.530 63.221,203.910 62.194,203.355 60.939 C 202.800 59.684,202.100 58.520,201.799 58.351 C 201.498 58.183,201.055 57.447,200.814 56.716 C 200.560 55.948,199.952 55.193,199.373 54.929 C 197.631 54.135,117.334 54.292,116.192 55.092 M197.809 55.617 C 198.666 55.800,199.231 56.314,199.834 57.458 C 200.295 58.331,201.146 59.742,201.727 60.592 C 202.308 61.443,202.783 62.275,202.783 62.441 C 202.783 62.607,203.410 63.674,204.175 64.811 C 204.940 65.949,205.567 67.102,205.567 67.375 C 205.567 67.647,205.938 68.299,206.392 68.822 C 206.846 69.345,207.583 70.625,208.031 71.666 C 208.479 72.707,208.982 73.559,209.149 73.559 C 209.316 73.559,209.760 74.230,210.137 75.050 C 210.513 75.870,211.254 77.184,211.783 77.969 C 212.838 79.536,214.112 81.809,215.683 84.930 C 216.244 86.045,217.060 87.280,217.497 87.675 C 217.933 88.070,218.290 88.637,218.290 88.934 C 218.290 89.600,218.999 90.890,220.179 92.375 C 220.671 92.994,221.074 93.711,221.074 93.968 C 221.074 94.225,221.700 95.317,222.465 96.393 C 223.231 97.470,223.857 98.574,223.857 98.847 C 223.857 99.119,224.279 99.848,224.794 100.467 C 225.310 101.085,226.095 102.417,226.538 103.428 C 226.982 104.438,227.539 105.385,227.777 105.532 C 228.014 105.678,228.578 106.635,229.030 107.657 C 229.482 108.679,230.010 109.613,230.203 109.732 C 230.597 109.975,232.451 113.253,233.956 116.365 C 234.501 117.493,235.156 118.545,235.411 118.702 C 235.666 118.860,236.292 119.933,236.803 121.088 C 237.313 122.243,237.908 123.297,238.124 123.430 C 238.340 123.564,238.979 124.609,239.543 125.753 C 240.107 126.897,241.183 128.817,241.935 130.020 C 243.216 132.069,243.862 133.181,247.048 138.813 C 247.742 140.041,248.541 141.320,248.823 141.656 C 249.391 142.333,251.091 145.437,252.603 148.557 C 253.145 149.678,253.803 150.726,254.064 150.888 C 254.325 151.049,254.895 152.011,255.330 153.026 C 255.765 154.041,256.421 155.202,256.788 155.606 C 257.448 156.334,258.203 157.672,260.238 161.722 C 260.813 162.866,261.472 163.918,261.701 164.060 C 261.930 164.201,262.481 165.144,262.925 166.155 C 263.369 167.165,264.153 168.498,264.669 169.116 C 265.185 169.734,265.606 170.463,265.606 170.736 C 265.606 171.009,266.233 172.113,266.998 173.189 C 267.763 174.266,268.390 175.326,268.391 175.545 C 268.392 175.765,269.107 177.018,269.980 178.330 C 270.853 179.642,271.569 180.917,271.569 181.164 C 271.570 181.411,271.846 181.841,272.182 182.120 C 272.519 182.399,273.165 183.489,273.618 184.542 C 274.070 185.595,274.709 186.678,275.036 186.950 C 275.363 187.221,276.068 188.345,276.602 189.447 C 278.115 192.570,279.852 195.614,280.478 196.241 C 281.432 197.195,281.617 198.997,280.910 200.456 C 279.517 203.331,278.500 205.121,277.861 205.825 C 277.494 206.230,276.838 207.391,276.403 208.406 C 275.968 209.420,275.409 210.376,275.160 210.530 C 274.910 210.684,274.269 211.767,273.734 212.937 C 273.199 214.107,272.583 215.174,272.366 215.308 C 272.149 215.442,271.593 216.431,271.131 217.505 C 270.669 218.579,270.023 219.680,269.696 219.952 C 269.369 220.223,268.665 221.347,268.132 222.449 C 266.591 225.635,264.649 229.031,264.192 229.339 C 263.961 229.495,263.522 230.249,263.217 231.014 C 262.911 231.779,262.161 233.103,261.549 233.956 C 260.938 234.809,260.437 235.714,260.437 235.967 C 260.437 236.219,259.980 237.042,259.422 237.796 C 258.863 238.549,258.079 239.902,257.678 240.804 C 257.277 241.705,256.740 242.571,256.485 242.729 C 256.230 242.886,255.572 243.938,255.023 245.066 C 253.754 247.674,252.567 249.782,250.968 252.265 C 250.272 253.346,249.702 254.437,249.702 254.688 C 249.702 254.940,249.369 255.447,248.962 255.815 C 248.555 256.183,247.892 257.240,247.488 258.163 C 247.085 259.086,246.345 260.347,245.843 260.965 C 245.341 261.583,244.930 262.323,244.930 262.610 C 244.930 262.897,244.334 264.001,243.605 265.065 C 242.876 266.128,242.026 267.466,241.716 268.038 C 241.406 268.610,240.636 270.041,240.003 271.219 C 239.371 272.396,238.431 273.914,237.916 274.590 C 237.400 275.267,236.978 276.007,236.978 276.235 C 236.978 276.464,236.352 277.561,235.586 278.673 C 234.821 279.786,234.195 280.884,234.195 281.113 C 234.195 281.343,233.569 282.441,232.803 283.553 C 232.038 284.666,231.407 285.780,231.400 286.029 C 231.394 286.278,230.858 287.184,230.208 288.043 C 229.558 288.902,229.026 289.815,229.026 290.071 C 229.026 290.327,228.489 291.278,227.833 292.183 C 227.177 293.089,226.640 293.990,226.640 294.187 C 226.640 294.383,226.014 295.453,225.249 296.566 C 224.483 297.679,223.857 298.752,223.857 298.952 C 223.857 299.151,223.231 300.225,222.465 301.337 C 221.700 302.450,221.074 303.548,221.074 303.777 C 221.074 304.007,220.447 305.105,219.682 306.217 C 218.917 307.330,218.290 308.475,218.290 308.762 C 218.290 309.048,217.867 309.789,217.350 310.407 C 216.832 311.025,215.936 312.425,215.358 313.519 C 214.780 314.612,214.088 315.865,213.819 316.302 C 211.194 320.582,210.338 322.128,210.338 322.585 C 210.338 322.880,209.917 323.517,209.403 324.000 C 208.889 324.483,208.236 325.582,207.952 326.441 C 207.669 327.301,207.016 328.399,206.502 328.883 C 205.987 329.366,205.567 329.980,205.567 330.248 C 205.567 330.516,204.940 331.666,204.175 332.803 C 203.410 333.941,202.783 334.996,202.783 335.150 C 202.783 335.700,201.783 337.568,201.486 337.571 C 201.319 337.573,200.725 338.541,200.166 339.722 C 198.818 342.568,202.634 342.334,157.487 342.340 C 111.892 342.347,115.175 342.613,117.538 339.102 C 118.280 337.999,118.887 336.924,118.887 336.713 C 118.887 336.502,119.334 335.742,119.881 335.025 C 120.427 334.309,120.875 333.557,120.875 333.355 C 120.875 333.153,121.322 332.330,121.869 331.525 C 122.913 329.989,124.223 327.694,126.124 324.072 C 126.751 322.878,127.519 321.619,127.832 321.274 C 128.144 320.929,128.762 319.827,129.205 318.825 C 129.648 317.823,130.262 316.795,130.569 316.540 C 130.876 316.286,131.362 315.501,131.648 314.798 C 131.935 314.094,132.670 312.821,133.282 311.968 C 133.893 311.115,134.394 310.190,134.394 309.911 C 134.394 309.633,134.837 308.878,135.380 308.233 C 135.922 307.588,136.713 306.252,137.136 305.264 C 137.560 304.276,138.110 303.342,138.358 303.188 C 138.606 303.035,139.228 301.964,139.738 300.810 C 140.249 299.655,140.860 298.590,141.097 298.444 C 141.334 298.298,141.898 297.342,142.350 296.320 C 142.802 295.297,143.327 294.365,143.516 294.249 C 143.704 294.132,144.314 293.007,144.870 291.750 C 145.426 290.492,146.050 289.463,146.257 289.463 C 146.464 289.463,146.935 288.703,147.305 287.773 C 147.674 286.844,148.308 285.726,148.713 285.288 C 149.118 284.851,149.805 283.663,150.239 282.648 C 150.673 281.634,151.221 280.684,151.457 280.538 C 151.693 280.392,152.267 279.388,152.732 278.307 C 153.197 277.226,153.713 276.342,153.879 276.342 C 154.045 276.342,154.652 275.348,155.227 274.132 C 155.803 272.917,156.610 271.562,157.020 271.122 C 157.431 270.681,158.069 269.528,158.439 268.560 C 158.809 267.591,159.254 266.799,159.427 266.799 C 159.601 266.799,160.124 265.915,160.589 264.834 C 161.054 263.753,161.632 262.746,161.875 262.596 C 162.117 262.446,162.733 261.379,163.244 260.224 C 163.755 259.070,164.370 258.002,164.612 257.853 C 164.854 257.703,165.480 256.613,166.003 255.431 C 166.526 254.248,167.122 253.280,167.328 253.280 C 167.533 253.280,168.107 252.280,168.603 251.058 C 169.099 249.835,169.738 248.746,170.022 248.637 C 170.306 248.528,170.741 247.824,170.989 247.072 C 171.237 246.320,171.839 245.218,172.327 244.622 C 172.815 244.026,173.455 242.913,173.749 242.147 C 174.043 241.382,174.631 240.367,175.055 239.892 C 175.479 239.416,176.259 238.164,176.787 237.108 C 177.991 234.703,178.755 233.353,180.405 230.722 C 181.123 229.577,181.710 228.391,181.710 228.087 C 181.710 227.782,181.993 227.298,182.339 227.011 C 182.684 226.724,183.503 225.494,184.158 224.278 C 186.172 220.537,187.832 217.707,188.767 216.418 C 189.259 215.740,189.662 214.985,189.662 214.740 C 189.662 214.495,190.288 213.385,191.054 212.272 C 191.819 211.159,192.445 210.027,192.445 209.755 C 192.445 209.483,192.865 208.808,193.378 208.255 C 193.891 207.702,194.621 206.468,195.000 205.513 C 195.379 204.558,196.016 203.419,196.415 202.982 C 198.233 200.990,198.292 196.218,196.516 194.745 C 196.186 194.470,195.578 193.460,195.166 192.499 C 194.755 191.538,193.974 190.225,193.431 189.580 C 192.889 188.936,192.445 188.185,192.445 187.912 C 192.445 187.639,191.819 186.535,191.054 185.459 C 190.288 184.382,189.661 183.322,189.660 183.103 C 189.659 182.883,189.120 181.899,188.463 180.915 C 187.805 179.930,186.895 178.365,186.441 177.435 C 185.987 176.506,185.471 175.746,185.296 175.746 C 185.120 175.746,184.875 175.343,184.751 174.851 C 184.626 174.359,183.949 173.062,183.246 171.968 C 182.542 170.875,181.580 169.264,181.106 168.390 C 178.906 164.323,178.028 162.808,177.765 162.624 C 177.608 162.515,177.084 161.596,176.599 160.582 C 176.115 159.568,175.367 158.333,174.937 157.837 C 174.507 157.342,174.155 156.730,174.155 156.478 C 174.155 156.226,173.585 155.136,172.889 154.054 C 171.359 151.679,170.179 149.599,168.786 146.827 C 168.212 145.683,167.555 144.631,167.326 144.490 C 167.097 144.348,166.501 143.309,166.002 142.180 C 165.502 141.051,164.816 139.897,164.476 139.615 C 164.137 139.333,163.557 138.311,163.188 137.344 C 162.818 136.378,162.382 135.586,162.218 135.586 C 162.054 135.586,161.605 134.916,161.220 134.095 C 160.835 133.275,160.009 131.856,159.385 130.942 C 158.761 130.028,158.250 129.131,158.250 128.949 C 158.250 128.767,157.638 127.709,156.890 126.598 C 156.142 125.487,155.245 123.968,154.897 123.223 C 154.549 122.478,153.547 120.706,152.670 119.284 C 151.793 117.863,150.804 116.107,150.472 115.382 C 150.140 114.657,149.339 113.333,148.692 112.440 C 148.044 111.546,147.515 110.587,147.515 110.309 C 147.515 110.030,147.065 109.268,146.515 108.615 C 145.966 107.961,145.230 106.741,144.880 105.904 C 144.529 105.066,143.832 103.891,143.329 103.294 C 142.826 102.696,142.206 101.576,141.952 100.805 C 141.697 100.034,141.345 99.404,141.169 99.404 C 140.993 99.404,140.378 98.409,139.802 97.194 C 139.227 95.979,138.428 94.632,138.027 94.202 C 137.626 93.771,137.056 92.689,136.762 91.796 C 136.467 90.904,136.007 90.090,135.739 89.987 C 135.470 89.884,134.954 89.053,134.592 88.140 C 134.229 87.228,133.601 86.123,133.196 85.686 C 132.791 85.249,132.104 84.060,131.670 83.046 C 131.236 82.031,130.678 81.075,130.429 80.922 C 130.181 80.768,129.560 79.698,129.049 78.543 C 128.538 77.388,127.927 76.324,127.690 76.178 C 127.453 76.031,126.888 75.071,126.433 74.044 C 125.979 73.017,125.287 71.817,124.896 71.377 C 124.504 70.937,123.819 69.861,123.373 68.986 C 121.407 65.135,120.414 63.401,119.739 62.642 C 119.341 62.195,118.779 61.203,118.490 60.437 C 118.201 59.672,117.519 58.560,116.973 57.967 C 115.822 56.713,116.206 55.828,118.021 55.550 C 119.793 55.279,196.530 55.343,197.809 55.617 " stroke="none" fill="#6c5424" fill-rule="evenodd"></path></g></svg>