<svg id="svg" version="1.1" xmlns="http://www.w3.org/2000/svg" xmlns:xlink="http://www.w3.org/1999/xlink" width="400" height="400" viewBox="0, 0, 400,400"><g id="svgg"><path id="path0" d="M174.400 0.400 C 174.400 0.648,172.276 0.800,168.827 0.800 C 163.605 0.800,163.238 0.850,163.000 1.600 C 162.771 2.321,162.395 2.400,159.173 2.400 C 157.135 2.400,155.600 2.566,155.600 2.787 C 155.600 3.001,155.330 3.071,155.000 2.945 C 154.620 2.799,154.400 2.950,154.400 3.357 C 154.400 3.851,153.961 4.010,152.500 4.043 C 151.455 4.066,150.330 4.125,150.000 4.174 C 149.670 4.223,148.995 4.294,148.500 4.332 C 147.889 4.378,147.600 4.657,147.600 5.200 C 147.600 5.924,147.333 6.000,144.803 6.000 C 142.440 6.000,141.929 6.124,141.507 6.800 C 141.100 7.452,140.574 7.600,138.666 7.600 C 136.662 7.600,136.295 7.715,136.116 8.400 C 135.921 9.146,134.228 9.499,132.121 9.235 C 131.857 9.202,131.446 9.540,131.207 9.987 C 130.882 10.594,130.371 10.800,129.186 10.800 C 127.867 10.800,127.600 10.935,127.600 11.600 C 127.600 12.303,127.333 12.400,125.403 12.400 C 123.640 12.400,123.108 12.558,122.707 13.200 C 122.432 13.640,121.816 14.000,121.336 14.000 C 119.939 14.000,119.200 14.430,119.200 15.243 C 119.200 15.860,118.903 16.000,117.600 16.000 C 116.533 16.000,115.733 16.267,115.200 16.800 C 114.725 17.275,113.867 17.600,113.088 17.600 C 112.235 17.600,111.575 17.880,111.200 18.400 C 110.866 18.863,110.165 19.200,109.534 19.200 C 108.925 19.200,108.215 19.529,107.923 19.946 C 107.635 20.357,106.803 20.824,106.073 20.984 C 105.343 21.144,104.649 21.528,104.530 21.838 C 104.412 22.147,104.062 22.400,103.753 22.400 C 103.445 22.400,102.884 22.760,102.507 23.200 C 102.130 23.640,101.517 24.000,101.144 24.000 C 99.934 24.000,99.200 24.469,99.200 25.243 C 99.200 25.928,97.873 26.296,96.300 26.047 C 96.135 26.021,96.021 26.135,96.047 26.300 C 96.194 27.226,95.892 27.600,95.000 27.600 C 94.450 27.600,93.640 27.960,93.200 28.400 C 92.760 28.840,92.040 29.200,91.600 29.200 C 91.067 29.200,90.800 29.467,90.800 30.000 C 90.800 30.590,90.533 30.800,89.782 30.800 C 89.222 30.800,88.310 31.253,87.756 31.808 C 87.202 32.362,86.580 32.711,86.374 32.584 C 86.168 32.457,86.000 32.723,86.000 33.176 C 86.000 33.739,85.741 34.000,85.182 34.000 C 84.732 34.000,83.914 34.450,83.364 35.000 C 82.814 35.550,82.012 36.000,81.582 36.000 C 81.067 36.000,80.800 36.273,80.800 36.800 C 80.800 37.333,80.533 37.600,80.000 37.600 C 79.467 37.600,79.200 37.867,79.200 38.400 C 79.200 39.022,78.933 39.200,78.003 39.200 C 77.240 39.200,76.626 39.490,76.307 40.000 C 76.032 40.440,75.491 40.800,75.104 40.800 C 74.667 40.800,74.400 41.103,74.400 41.600 C 74.400 42.145,74.133 42.400,73.563 42.400 C 73.075 42.400,72.642 42.719,72.526 43.163 C 72.416 43.583,71.983 44.016,71.563 44.126 C 71.119 44.242,70.800 44.675,70.800 45.163 C 70.800 45.721,70.545 46.000,70.033 46.000 C 68.841 46.000,68.000 46.431,68.000 47.043 C 68.000 47.349,67.820 47.623,67.600 47.650 C 67.380 47.678,66.975 47.727,66.700 47.760 C 66.425 47.792,66.225 48.130,66.256 48.510 C 66.294 48.986,66.015 49.200,65.356 49.200 C 64.667 49.200,64.400 49.423,64.400 50.000 C 64.400 50.545,64.133 50.800,63.563 50.800 C 63.075 50.800,62.642 51.119,62.526 51.563 C 62.416 51.983,61.983 52.416,61.563 52.526 C 61.143 52.635,60.800 53.000,60.800 53.336 C 60.800 53.671,60.440 54.060,60.000 54.200 C 59.560 54.340,59.200 54.802,59.200 55.227 C 59.200 55.733,58.924 56.000,58.400 56.000 C 57.867 56.000,57.600 56.267,57.600 56.800 C 57.600 57.333,57.333 57.600,56.800 57.600 C 56.267 57.600,56.000 57.867,56.000 58.400 C 56.000 58.924,55.733 59.200,55.227 59.200 C 54.802 59.200,54.346 59.541,54.214 59.957 C 54.082 60.373,53.619 60.806,53.187 60.919 C 52.754 61.033,52.400 61.391,52.400 61.716 C 52.400 62.041,52.040 62.401,51.600 62.516 C 51.121 62.641,50.800 63.062,50.800 63.563 C 50.800 64.133,50.545 64.400,50.000 64.400 C 49.423 64.400,49.200 64.667,49.200 65.356 C 49.200 66.015,48.986 66.294,48.510 66.256 C 48.130 66.225,47.792 66.425,47.760 66.700 C 47.727 66.975,47.678 67.380,47.650 67.600 C 47.623 67.820,47.349 68.000,47.043 68.000 C 46.431 68.000,46.000 68.841,46.000 70.033 C 46.000 70.545,45.721 70.800,45.163 70.800 C 44.675 70.800,44.242 71.119,44.126 71.563 C 44.016 71.983,43.583 72.416,43.163 72.526 C 42.719 72.642,42.400 73.075,42.400 73.563 C 42.400 74.133,42.145 74.400,41.600 74.400 C 41.067 74.400,40.800 74.667,40.800 75.200 C 40.800 75.640,40.549 76.000,40.243 76.000 C 39.598 76.000,39.200 76.852,39.200 78.233 C 39.200 78.933,38.979 79.200,38.400 79.200 C 37.867 79.200,37.600 79.467,37.600 80.000 C 37.600 80.502,37.333 80.800,36.885 80.800 C 36.472 80.800,36.146 81.118,36.113 81.553 C 36.082 81.968,35.594 82.770,35.028 83.335 C 34.463 83.901,34.000 84.732,34.000 85.182 C 34.000 85.741,33.739 86.000,33.176 86.000 C 32.723 86.000,32.457 86.168,32.584 86.374 C 32.711 86.580,32.362 87.202,31.808 87.756 C 31.253 88.310,30.800 89.222,30.800 89.782 C 30.800 90.533,30.590 90.800,30.000 90.800 C 29.467 90.800,29.200 91.067,29.200 91.600 C 29.200 92.040,28.840 92.760,28.400 93.200 C 27.960 93.640,27.600 94.450,27.600 95.000 C 27.600 95.733,27.387 96.000,26.800 96.000 C 26.133 96.000,26.000 96.267,26.000 97.600 C 26.000 98.903,25.860 99.200,25.243 99.200 C 24.469 99.200,24.000 99.934,24.000 101.144 C 24.000 101.517,23.640 102.130,23.200 102.507 C 22.760 102.884,22.400 103.445,22.400 103.753 C 22.400 104.062,22.147 104.412,21.838 104.530 C 21.528 104.649,21.150 105.316,20.997 106.014 C 20.844 106.711,20.377 107.623,19.959 108.041 C 19.542 108.458,19.200 109.210,19.200 109.712 C 19.200 110.213,18.840 110.883,18.400 111.200 C 17.880 111.575,17.600 112.235,17.600 113.088 C 17.600 113.867,17.275 114.725,16.800 115.200 C 16.267 115.733,16.000 116.533,16.000 117.600 C 16.000 118.903,15.860 119.200,15.243 119.200 C 14.429 119.200,14.000 119.939,14.000 121.344 C 14.000 121.827,13.640 122.530,13.200 122.907 C 12.598 123.423,12.400 124.087,12.400 125.596 C 12.400 127.333,12.294 127.600,11.600 127.600 C 10.935 127.600,10.800 127.867,10.800 129.186 C 10.800 130.371,10.594 130.882,9.987 131.207 C 9.540 131.446,9.202 131.857,9.235 132.121 C 9.499 134.228,9.146 135.921,8.400 136.116 C 7.715 136.295,7.600 136.662,7.600 138.666 C 7.600 140.574,7.452 141.100,6.800 141.507 C 6.124 141.929,6.000 142.440,6.000 144.803 C 6.000 147.333,5.924 147.600,5.200 147.600 C 4.657 147.600,4.378 147.889,4.332 148.500 C 4.294 148.995,4.223 149.670,4.174 150.000 C 4.125 150.330,4.066 151.455,4.043 152.500 C 4.010 153.961,3.851 154.400,3.357 154.400 C 2.950 154.400,2.799 154.620,2.945 155.000 C 3.071 155.330,3.001 155.600,2.787 155.600 C 2.566 155.600,2.400 157.135,2.400 159.173 C 2.400 162.395,2.321 162.771,1.600 163.000 C 0.857 163.236,0.800 163.605,0.800 168.227 C 0.800 171.276,0.645 173.200,0.400 173.200 C 0.137 173.200,0.000 182.400,0.000 200.000 C 0.000 217.600,0.137 226.800,0.400 226.800 C 0.645 226.800,0.800 228.746,0.800 231.837 C 0.800 236.538,0.853 236.889,1.600 237.084 C 2.307 237.269,2.400 237.630,2.400 240.197 C 2.400 243.838,2.742 245.600,3.450 245.600 C 3.839 245.600,4.001 246.157,4.004 247.500 C 4.012 250.810,4.417 252.400,5.252 252.400 C 5.911 252.400,6.000 252.732,6.000 255.197 C 6.000 257.560,6.124 258.071,6.800 258.493 C 7.452 258.900,7.600 259.426,7.600 261.334 C 7.600 263.338,7.715 263.705,8.400 263.884 C 9.069 264.059,9.200 264.430,9.200 266.150 C 9.200 267.774,9.368 268.313,10.000 268.707 C 10.583 269.071,10.800 269.640,10.800 270.803 C 10.800 272.133,10.934 272.400,11.600 272.400 C 12.294 272.400,12.400 272.667,12.400 274.404 C 12.400 275.913,12.598 276.577,13.200 277.093 C 13.640 277.470,14.000 278.173,14.000 278.656 C 14.000 280.061,14.429 280.800,15.243 280.800 C 15.851 280.800,16.000 281.095,16.000 282.304 C 16.000 283.374,16.230 283.951,16.800 284.307 C 17.396 284.679,17.600 285.240,17.600 286.507 C 17.600 287.737,17.808 288.337,18.350 288.676 C 18.763 288.934,19.218 289.770,19.361 290.534 C 19.504 291.298,19.887 292.024,20.211 292.149 C 20.535 292.273,20.800 292.716,20.800 293.134 C 20.800 293.551,21.160 294.350,21.600 294.909 C 22.040 295.469,22.400 296.116,22.400 296.348 C 22.400 296.579,22.739 297.091,23.153 297.484 C 23.568 297.878,24.032 298.785,24.185 299.500 C 24.382 300.419,24.689 300.800,25.232 300.800 C 25.861 300.800,26.000 301.089,26.000 302.400 C 26.000 303.733,26.133 304.000,26.800 304.000 C 27.387 304.000,27.600 304.267,27.600 305.000 C 27.600 305.550,27.960 306.360,28.400 306.800 C 28.840 307.240,29.200 307.960,29.200 308.400 C 29.200 308.933,29.467 309.200,30.000 309.200 C 30.582 309.200,30.800 309.467,30.800 310.179 C 30.800 310.718,31.247 311.641,31.793 312.230 C 32.338 312.819,32.688 313.458,32.569 313.650 C 32.450 313.843,32.723 314.000,33.176 314.000 C 33.739 314.000,34.000 314.259,34.000 314.818 C 34.000 315.268,34.450 316.086,35.000 316.636 C 35.550 317.186,36.000 317.988,36.000 318.418 C 36.000 318.933,36.273 319.200,36.800 319.200 C 37.333 319.200,37.600 319.467,37.600 320.000 C 37.600 320.533,37.867 320.800,38.400 320.800 C 39.022 320.800,39.200 321.067,39.200 321.997 C 39.200 322.760,39.490 323.374,40.000 323.693 C 40.440 323.968,40.800 324.488,40.800 324.850 C 40.800 325.211,41.160 325.601,41.600 325.716 C 42.040 325.831,42.400 326.200,42.400 326.536 C 42.400 326.871,42.741 327.254,43.157 327.386 C 43.573 327.518,44.006 327.981,44.119 328.413 C 44.241 328.880,44.666 329.200,45.163 329.200 C 45.721 329.200,46.000 329.455,46.000 329.967 C 46.000 331.159,46.431 332.000,47.043 332.000 C 47.349 332.000,47.600 332.377,47.600 332.837 C 47.600 333.338,47.921 333.759,48.400 333.884 C 48.840 333.999,49.200 334.348,49.200 334.659 C 49.200 334.970,49.484 335.334,49.831 335.467 C 50.177 335.600,50.623 336.135,50.821 336.655 C 51.018 337.175,51.455 337.600,51.790 337.600 C 52.126 337.600,52.400 337.887,52.400 338.237 C 52.400 338.588,52.754 338.967,53.187 339.081 C 53.619 339.194,54.082 339.627,54.214 340.043 C 54.346 340.459,54.802 340.800,55.227 340.800 C 55.733 340.800,56.000 341.076,56.000 341.600 C 56.000 342.133,56.267 342.400,56.800 342.400 C 57.333 342.400,57.600 342.667,57.600 343.200 C 57.600 343.733,57.867 344.000,58.400 344.000 C 58.945 344.000,59.200 344.267,59.200 344.837 C 59.200 345.338,59.521 345.759,60.000 345.884 C 60.440 345.999,60.800 346.359,60.800 346.684 C 60.800 347.009,61.143 347.365,61.563 347.474 C 61.983 347.584,62.416 348.017,62.526 348.437 C 62.642 348.881,63.075 349.200,63.563 349.200 C 64.133 349.200,64.400 349.455,64.400 350.000 C 64.400 350.517,64.667 350.800,65.153 350.800 C 65.570 350.800,66.000 351.157,66.116 351.600 C 66.241 352.079,66.662 352.400,67.163 352.400 C 67.623 352.400,68.000 352.651,68.000 352.957 C 68.000 353.569,68.841 354.000,70.033 354.000 C 70.545 354.000,70.800 354.279,70.800 354.837 C 70.800 355.338,71.121 355.759,71.600 355.884 C 72.040 355.999,72.400 356.339,72.400 356.639 C 72.400 356.939,72.850 357.298,73.400 357.436 C 74.026 357.593,74.400 357.970,74.400 358.443 C 74.400 358.899,74.680 359.200,75.104 359.200 C 75.491 359.200,76.032 359.560,76.307 360.000 C 76.626 360.510,77.240 360.800,78.003 360.800 C 78.933 360.800,79.200 360.978,79.200 361.600 C 79.200 362.133,79.467 362.400,80.000 362.400 C 80.533 362.400,80.800 362.667,80.800 363.200 C 80.800 363.727,81.067 364.000,81.582 364.000 C 82.012 364.000,82.814 364.450,83.364 365.000 C 83.914 365.550,84.732 366.000,85.182 366.000 C 85.733 366.000,86.000 366.261,86.000 366.800 C 86.000 367.254,86.267 367.600,86.617 367.600 C 86.956 367.600,87.620 367.960,88.092 368.400 C 88.564 368.840,89.367 369.200,89.875 369.200 C 90.533 369.200,90.800 369.431,90.800 370.000 C 90.800 370.533,91.067 370.800,91.600 370.800 C 92.040 370.800,92.760 371.160,93.200 371.600 C 93.640 372.040,94.450 372.400,95.000 372.400 C 95.733 372.400,96.000 372.613,96.000 373.200 C 96.000 373.864,96.267 374.000,97.572 374.000 C 98.898 374.000,99.164 374.141,99.272 374.900 C 99.370 375.590,99.704 375.829,100.699 375.925 C 101.483 376.001,102.163 376.358,102.414 376.825 C 102.642 377.251,103.189 377.600,103.631 377.600 C 104.072 377.600,104.820 377.960,105.292 378.400 C 105.764 378.840,106.387 379.200,106.675 379.200 C 106.964 379.200,107.560 379.560,108.000 380.000 C 108.440 380.440,109.248 380.800,109.797 380.800 C 110.360 380.800,111.010 381.148,111.293 381.600 C 111.626 382.134,112.226 382.400,113.096 382.400 C 113.867 382.400,114.727 382.727,115.200 383.200 C 115.729 383.729,116.533 384.000,117.572 384.000 C 118.898 384.000,119.164 384.141,119.272 384.900 C 119.372 385.606,119.702 385.829,120.800 385.933 C 121.570 386.005,122.522 386.410,122.916 386.833 C 123.435 387.390,124.174 387.600,125.616 387.600 C 127.333 387.600,127.600 387.708,127.600 388.400 C 127.600 389.081,127.867 389.200,129.400 389.200 C 130.672 389.200,131.200 389.363,131.200 389.757 C 131.200 390.491,132.084 390.800,134.186 390.800 C 135.570 390.800,135.948 390.956,136.116 391.600 C 136.295 392.285,136.662 392.400,138.674 392.400 C 140.527 392.400,141.167 392.569,141.707 393.200 C 142.262 393.848,142.887 394.000,144.996 394.000 C 147.275 394.000,147.600 394.093,147.600 394.750 C 147.600 395.628,148.985 396.000,152.250 396.000 C 153.808 396.000,154.400 396.152,154.400 396.550 C 154.400 397.249,156.156 397.600,159.650 397.600 C 161.867 397.600,162.555 397.755,163.200 398.400 C 163.918 399.118,164.533 399.200,169.200 399.200 C 172.400 399.200,174.400 399.354,174.400 399.600 C 174.400 399.863,183.267 400.000,200.200 400.000 C 217.133 400.000,226.000 399.863,226.000 399.600 C 226.000 399.355,227.922 399.200,230.967 399.200 C 236.255 399.200,237.200 399.042,237.200 398.157 C 237.200 397.731,237.895 397.600,240.150 397.600 C 243.836 397.600,245.600 397.260,245.600 396.550 C 245.600 396.161,246.157 395.999,247.500 395.996 C 250.810 395.988,252.400 395.583,252.400 394.748 C 252.400 394.095,252.727 394.000,254.967 394.000 C 257.892 394.000,258.800 393.753,258.800 392.957 C 258.800 392.542,259.421 392.400,261.237 392.400 C 263.338 392.400,263.704 392.290,263.884 391.600 C 264.060 390.928,264.430 390.800,266.198 390.800 C 268.174 390.800,269.579 390.112,268.930 389.463 C 268.785 389.318,269.507 389.200,270.533 389.200 C 272.133 389.200,272.400 389.086,272.400 388.400 C 272.400 387.708,272.667 387.600,274.384 387.600 C 275.826 387.600,276.565 387.390,277.084 386.833 C 277.478 386.410,278.430 386.005,279.200 385.933 C 280.298 385.829,280.628 385.606,280.728 384.900 C 280.838 384.121,281.095 384.000,282.628 384.000 C 283.867 384.000,284.641 383.759,285.200 383.200 C 285.640 382.760,286.533 382.400,287.186 382.400 C 287.938 382.400,288.519 382.124,288.775 381.647 C 288.997 381.232,289.796 380.777,290.551 380.636 C 291.305 380.494,292.024 380.113,292.149 379.789 C 292.273 379.465,292.716 379.200,293.134 379.200 C 293.551 379.200,294.350 378.840,294.909 378.400 C 295.469 377.960,296.230 377.600,296.601 377.600 C 296.971 377.600,297.366 377.250,297.478 376.822 C 297.625 376.263,298.093 376.009,299.141 375.922 C 300.304 375.825,300.626 375.618,300.728 374.900 C 300.836 374.141,301.102 374.000,302.428 374.000 C 303.733 374.000,304.000 373.864,304.000 373.200 C 304.000 372.613,304.267 372.400,305.000 372.400 C 305.550 372.400,306.360 372.040,306.800 371.600 C 307.240 371.160,307.887 370.800,308.237 370.800 C 308.588 370.800,308.969 370.440,309.084 370.000 C 309.219 369.482,309.630 369.200,310.247 369.200 C 310.771 369.200,311.560 368.840,312.000 368.400 C 312.440 367.960,313.070 367.600,313.400 367.600 C 313.733 367.600,314.000 367.244,314.000 366.800 C 314.000 366.261,314.267 366.000,314.818 366.000 C 315.268 366.000,316.086 365.550,316.636 365.000 C 317.186 364.450,317.988 364.000,318.418 364.000 C 318.933 364.000,319.200 363.727,319.200 363.200 C 319.200 362.667,319.467 362.400,320.000 362.400 C 320.533 362.400,320.800 362.133,320.800 361.600 C 320.800 361.013,321.067 360.800,321.800 360.800 C 322.350 360.800,323.160 360.440,323.600 360.000 C 324.040 359.560,324.658 359.200,324.973 359.200 C 325.288 359.200,325.654 358.859,325.786 358.443 C 325.918 358.027,326.381 357.594,326.813 357.481 C 327.246 357.367,327.600 357.009,327.600 356.684 C 327.600 356.359,327.960 355.999,328.400 355.884 C 328.879 355.759,329.200 355.338,329.200 354.837 C 329.200 354.237,329.455 353.998,330.100 353.994 C 331.204 353.986,331.778 353.617,332.118 352.696 C 332.261 352.309,332.518 352.016,332.689 352.044 C 333.520 352.180,334.000 351.944,334.000 351.400 C 334.000 351.067,334.356 350.800,334.800 350.800 C 335.250 350.800,335.600 350.533,335.600 350.190 C 335.600 349.855,336.050 349.409,336.600 349.200 C 337.150 348.991,337.600 348.557,337.600 348.237 C 337.600 347.916,337.960 347.540,338.400 347.400 C 338.840 347.260,339.200 346.909,339.200 346.620 C 339.200 346.330,339.560 345.999,340.000 345.884 C 340.479 345.759,340.800 345.338,340.800 344.837 C 340.800 344.267,341.055 344.000,341.600 344.000 C 342.133 344.000,342.400 343.733,342.400 343.200 C 342.400 342.667,342.667 342.400,343.200 342.400 C 343.733 342.400,344.000 342.133,344.000 341.600 C 344.000 341.055,344.267 340.800,344.837 340.800 C 345.338 340.800,345.759 340.479,345.884 340.000 C 345.999 339.560,346.330 339.200,346.620 339.200 C 346.909 339.200,347.260 338.840,347.400 338.400 C 347.540 337.960,347.916 337.600,348.237 337.600 C 348.557 337.600,348.991 337.150,349.200 336.600 C 349.409 336.050,349.855 335.600,350.190 335.600 C 350.533 335.600,350.800 335.250,350.800 334.800 C 350.800 334.356,351.067 334.000,351.400 334.000 C 351.944 334.000,352.180 333.520,352.044 332.689 C 352.016 332.518,352.309 332.261,352.696 332.118 C 353.617 331.778,353.986 331.204,353.994 330.100 C 353.998 329.455,354.237 329.200,354.837 329.200 C 355.338 329.200,355.759 328.879,355.884 328.400 C 355.999 327.960,356.347 327.600,356.657 327.600 C 356.966 327.600,357.391 327.150,357.600 326.600 C 357.809 326.050,358.255 325.600,358.590 325.600 C 358.926 325.600,359.200 325.283,359.200 324.896 C 359.200 324.509,359.560 323.968,360.000 323.693 C 360.510 323.374,360.800 322.760,360.800 321.997 C 360.800 321.067,360.978 320.800,361.600 320.800 C 362.117 320.800,362.400 320.533,362.400 320.047 C 362.400 319.630,362.757 319.200,363.200 319.084 C 363.640 318.969,364.000 318.596,364.000 318.256 C 364.000 317.915,364.450 317.186,365.000 316.636 C 365.550 316.086,366.000 315.268,366.000 314.818 C 366.000 314.267,366.261 314.000,366.800 314.000 C 367.244 314.000,367.600 313.733,367.600 313.400 C 367.600 313.070,367.960 312.440,368.400 312.000 C 368.840 311.560,369.200 310.750,369.200 310.200 C 369.200 309.467,369.413 309.200,370.000 309.200 C 370.533 309.200,370.800 308.933,370.800 308.400 C 370.800 307.960,371.160 307.240,371.600 306.800 C 372.040 306.360,372.400 305.550,372.400 305.000 C 372.400 304.267,372.613 304.000,373.200 304.000 C 373.864 304.000,374.000 303.733,374.000 302.428 C 374.000 301.102,374.141 300.836,374.900 300.728 C 375.618 300.626,375.825 300.304,375.922 299.141 C 376.009 298.093,376.263 297.625,376.822 297.478 C 377.250 297.366,377.600 296.971,377.600 296.601 C 377.600 296.230,377.960 295.469,378.400 294.909 C 378.840 294.350,379.200 293.646,379.200 293.346 C 379.200 293.046,379.560 292.440,380.000 292.000 C 380.440 291.560,380.800 290.756,380.800 290.214 C 380.800 289.638,381.132 289.050,381.600 288.800 C 382.164 288.498,382.400 287.962,382.400 286.986 C 382.400 286.133,382.708 285.292,383.200 284.800 C 383.729 284.271,384.000 283.467,384.000 282.428 C 384.000 281.102,384.141 280.836,384.900 280.728 C 385.649 280.621,385.821 280.313,385.923 278.891 C 385.991 277.951,386.196 277.274,386.378 277.386 C 386.709 277.591,387.502 276.866,387.566 276.300 C 387.585 276.135,387.600 275.190,387.600 274.200 C 387.600 272.667,387.719 272.400,388.400 272.400 C 389.081 272.400,389.200 272.133,389.200 270.600 C 389.200 269.267,389.356 268.800,389.800 268.800 C 390.130 268.800,390.423 268.620,390.450 268.400 C 390.478 268.180,390.545 267.820,390.600 267.600 C 390.655 267.380,390.723 266.501,390.750 265.647 C 390.788 264.454,390.986 264.045,391.600 263.884 C 392.285 263.705,392.400 263.338,392.400 261.334 C 392.400 259.426,392.548 258.900,393.200 258.493 C 393.876 258.071,394.000 257.560,394.000 255.197 C 394.000 252.732,394.089 252.400,394.748 252.400 C 395.583 252.400,395.988 250.810,395.996 247.500 C 395.999 246.157,396.161 245.600,396.550 245.600 C 397.260 245.600,397.600 243.836,397.600 240.150 C 397.600 237.895,397.731 237.200,398.157 237.200 C 399.032 237.200,399.200 236.260,399.200 231.367 C 399.200 228.589,399.357 226.800,399.600 226.800 C 399.863 226.800,400.000 217.600,400.000 200.000 C 400.000 182.400,399.863 173.200,399.600 173.200 C 399.355 173.200,399.200 171.254,399.200 168.163 C 399.200 163.462,399.147 163.111,398.400 162.916 C 397.683 162.728,397.599 162.368,397.595 159.453 C 397.588 155.677,397.325 154.400,396.553 154.400 C 396.142 154.400,395.999 153.759,395.995 151.900 C 395.987 148.637,395.688 147.600,394.753 147.600 C 394.087 147.600,394.000 147.276,394.000 144.803 C 394.000 142.440,393.876 141.929,393.200 141.507 C 392.548 141.100,392.400 140.574,392.400 138.666 C 392.400 136.662,392.285 136.295,391.600 136.116 C 390.931 135.941,390.800 135.570,390.800 133.850 C 390.800 132.226,390.632 131.687,390.000 131.293 C 389.417 130.929,389.200 130.360,389.200 129.197 C 389.200 127.867,389.066 127.600,388.400 127.600 C 387.698 127.600,387.600 127.333,387.600 125.423 C 387.600 123.729,387.429 123.126,386.832 122.707 C 386.390 122.398,386.007 121.581,385.932 120.785 C 385.829 119.703,385.603 119.372,384.900 119.272 C 384.141 119.164,384.000 118.898,384.000 117.572 C 384.000 116.533,383.729 115.729,383.200 115.200 C 382.727 114.727,382.400 113.867,382.400 113.096 C 382.400 112.226,382.134 111.626,381.600 111.293 C 381.148 111.010,380.800 110.360,380.800 109.797 C 380.800 109.248,380.440 108.440,380.000 108.000 C 379.560 107.560,379.200 106.954,379.200 106.654 C 379.200 106.354,378.840 105.650,378.400 105.091 C 377.960 104.531,377.600 103.794,377.600 103.451 C 377.600 103.108,377.251 102.642,376.825 102.414 C 376.358 102.163,376.001 101.483,375.925 100.699 C 375.829 99.704,375.590 99.370,374.900 99.272 C 374.141 99.164,374.000 98.898,374.000 97.572 C 374.000 96.267,373.864 96.000,373.200 96.000 C 372.613 96.000,372.400 95.733,372.400 95.000 C 372.400 94.450,372.040 93.640,371.600 93.200 C 371.160 92.760,370.800 92.040,370.800 91.600 C 370.800 91.067,370.533 90.800,370.000 90.800 C 369.431 90.800,369.200 90.533,369.200 89.875 C 369.200 89.367,368.840 88.564,368.400 88.092 C 367.960 87.620,367.600 86.956,367.600 86.617 C 367.600 86.278,367.260 86.000,366.845 86.000 C 366.293 86.000,366.016 85.609,365.818 84.556 C 365.640 83.605,365.282 83.042,364.774 82.909 C 364.282 82.780,364.000 82.359,364.000 81.753 C 364.000 81.067,363.776 80.800,363.200 80.800 C 362.667 80.800,362.400 80.533,362.400 80.000 C 362.400 79.467,362.133 79.200,361.600 79.200 C 361.021 79.200,360.800 78.933,360.800 78.233 C 360.800 76.925,360.395 75.956,359.960 76.225 C 359.764 76.346,359.394 75.985,359.137 75.423 C 358.881 74.860,358.450 74.400,358.179 74.400 C 357.908 74.400,357.574 73.950,357.436 73.400 C 357.298 72.850,356.939 72.400,356.639 72.400 C 356.339 72.400,355.999 72.040,355.884 71.600 C 355.759 71.121,355.338 70.800,354.837 70.800 C 354.279 70.800,354.000 70.545,354.000 70.033 C 354.000 68.841,353.569 68.000,352.957 68.000 C 352.651 68.000,352.400 67.623,352.400 67.163 C 352.400 66.662,352.079 66.241,351.600 66.116 C 351.157 66.000,350.800 65.570,350.800 65.153 C 350.800 64.667,350.517 64.400,350.000 64.400 C 349.455 64.400,349.200 64.133,349.200 63.563 C 349.200 63.075,348.881 62.642,348.437 62.526 C 348.017 62.416,347.584 61.983,347.474 61.563 C 347.365 61.143,347.009 60.800,346.684 60.800 C 346.359 60.800,345.999 60.440,345.884 60.000 C 345.759 59.521,345.338 59.200,344.837 59.200 C 344.267 59.200,344.000 58.945,344.000 58.400 C 344.000 57.867,343.733 57.600,343.200 57.600 C 342.667 57.600,342.400 57.333,342.400 56.800 C 342.400 56.267,342.133 56.000,341.600 56.000 C 341.076 56.000,340.800 55.733,340.800 55.227 C 340.800 54.802,340.459 54.346,340.043 54.214 C 339.627 54.082,339.189 53.601,339.070 53.147 C 338.943 52.659,338.667 52.435,338.400 52.600 C 338.130 52.767,337.854 52.527,337.718 52.010 C 337.593 51.531,337.065 50.977,336.545 50.779 C 336.025 50.582,335.600 50.145,335.600 49.810 C 335.600 49.474,335.261 49.200,334.847 49.200 C 334.430 49.200,334.000 48.843,333.884 48.400 C 333.759 47.921,333.338 47.600,332.837 47.600 C 332.377 47.600,332.000 47.349,332.000 47.043 C 332.000 46.431,331.159 46.000,329.967 46.000 C 329.455 46.000,329.200 45.721,329.200 45.163 C 329.200 44.666,328.880 44.241,328.413 44.119 C 327.981 44.006,327.518 43.573,327.386 43.157 C 327.254 42.741,326.882 42.400,326.560 42.400 C 326.238 42.400,325.824 41.995,325.641 41.500 C 325.458 41.005,325.194 40.645,325.054 40.700 C 324.433 40.944,324.000 40.757,324.000 40.243 C 324.000 39.598,323.148 39.200,321.767 39.200 C 321.067 39.200,320.800 38.979,320.800 38.400 C 320.800 37.867,320.533 37.600,320.000 37.600 C 319.284 37.600,319.013 37.184,319.153 36.300 C 319.179 36.135,318.848 36.000,318.418 36.000 C 317.988 36.000,317.186 35.550,316.636 35.000 C 316.086 34.450,315.268 34.000,314.818 34.000 C 314.267 34.000,314.000 33.739,314.000 33.200 C 314.000 32.760,313.865 32.421,313.700 32.447 C 312.891 32.575,312.400 32.347,312.400 31.843 C 312.400 31.198,311.548 30.800,310.167 30.800 C 309.467 30.800,309.200 30.579,309.200 30.000 C 309.200 29.467,308.933 29.200,308.400 29.200 C 307.960 29.200,307.240 28.840,306.800 28.400 C 306.360 27.960,305.550 27.600,305.000 27.600 C 304.267 27.600,304.000 27.387,304.000 26.800 C 304.000 26.133,303.733 26.000,302.400 26.000 C 301.097 26.000,300.800 25.860,300.800 25.243 C 300.800 24.469,300.066 24.000,298.856 24.000 C 298.483 24.000,297.870 23.640,297.493 23.200 C 297.116 22.760,296.536 22.400,296.204 22.400 C 295.872 22.400,295.600 22.138,295.600 21.818 C 295.600 21.466,295.026 21.129,294.145 20.963 C 293.345 20.813,292.355 20.355,291.945 19.945 C 291.535 19.535,290.752 19.200,290.203 19.200 C 289.640 19.200,288.990 18.852,288.707 18.400 C 288.404 17.914,287.774 17.600,287.104 17.600 C 286.497 17.600,285.640 17.240,285.200 16.800 C 284.637 16.237,283.867 16.000,282.600 16.000 C 281.101 16.000,280.800 15.874,280.800 15.243 C 280.800 14.429,280.061 14.000,278.656 14.000 C 278.173 14.000,277.470 13.640,277.093 13.200 C 276.577 12.598,275.913 12.400,274.404 12.400 C 272.667 12.400,272.400 12.294,272.400 11.600 C 272.400 10.942,272.133 10.800,270.896 10.800 C 269.826 10.800,269.249 10.570,268.893 10.000 C 268.494 9.361,267.960 9.200,266.243 9.200 C 264.430 9.200,264.061 9.075,263.884 8.400 C 263.704 7.710,263.338 7.600,261.237 7.600 C 259.421 7.600,258.800 7.458,258.800 7.043 C 258.800 6.250,257.893 6.000,255.014 6.000 C 252.899 6.000,252.462 5.881,252.300 5.261 C 252.080 4.420,250.497 4.000,247.550 4.000 C 246.156 4.000,245.600 3.842,245.600 3.447 C 245.600 2.675,244.323 2.412,240.547 2.405 C 237.632 2.401,237.272 2.317,237.084 1.600 C 236.888 0.849,236.538 0.800,231.437 0.800 C 228.079 0.800,226.000 0.647,226.000 0.400 C 226.000 0.137,217.133 0.000,200.200 0.000 C 183.267 0.000,174.400 0.137,174.400 0.400 M220.800 14.018 C 222.010 14.213,225.070 14.647,227.600 14.983 C 230.130 15.319,233.280 15.850,234.600 16.164 C 235.920 16.477,238.080 16.857,239.400 17.008 C 240.719 17.159,242.249 17.509,242.800 17.787 C 243.350 18.064,244.773 18.416,245.963 18.568 C 247.152 18.720,248.618 19.099,249.221 19.411 C 249.823 19.722,251.100 20.097,252.058 20.244 C 253.016 20.391,254.256 20.741,254.814 21.021 C 255.371 21.302,256.541 21.663,257.414 21.824 C 258.286 21.985,259.627 22.451,260.394 22.859 C 261.161 23.266,262.124 23.600,262.534 23.600 C 262.944 23.600,263.846 23.862,264.540 24.182 C 265.806 24.767,267.859 25.543,271.200 26.699 C 272.190 27.041,273.284 27.564,273.631 27.861 C 273.979 28.157,274.459 28.400,274.699 28.400 C 275.117 28.400,282.361 31.650,283.600 32.394 C 283.930 32.592,285.640 33.494,287.400 34.398 C 289.160 35.302,291.320 36.470,292.200 36.994 C 293.080 37.517,294.340 38.229,295.000 38.576 C 296.873 39.560,300.907 42.153,307.792 46.800 C 310.494 48.624,311.275 49.195,314.200 51.492 C 315.960 52.873,317.583 54.138,317.807 54.302 C 318.156 54.557,326.152 61.433,327.452 62.595 C 334.973 69.319,344.678 80.342,352.813 91.400 C 353.461 92.280,354.131 93.180,354.303 93.400 C 354.474 93.620,355.198 94.700,355.910 95.800 C 356.623 96.900,357.386 98.070,357.606 98.400 C 359.108 100.650,360.972 103.614,361.632 104.800 C 362.060 105.570,363.216 107.640,364.200 109.400 C 366.671 113.821,371.500 123.664,371.817 124.927 C 371.961 125.499,372.331 126.177,372.639 126.433 C 372.948 126.689,373.200 127.141,373.200 127.438 C 373.200 127.734,374.010 129.967,375.000 132.400 C 375.990 134.833,376.800 137.138,376.800 137.522 C 376.800 137.907,377.049 138.577,377.353 139.011 C 377.657 139.445,378.210 140.880,378.583 142.200 C 378.955 143.520,379.629 145.860,380.081 147.400 C 380.532 148.940,381.157 151.280,381.471 152.600 C 381.784 153.920,382.297 155.810,382.611 156.800 C 382.925 157.790,383.343 159.590,383.540 160.800 C 383.737 162.010,384.185 164.530,384.535 166.400 C 386.163 175.085,386.470 177.734,387.089 188.445 C 388.082 205.599,387.255 219.959,384.409 235.000 C 383.993 237.200,383.529 239.810,383.380 240.800 C 383.230 241.790,382.919 242.958,382.688 243.396 C 382.458 243.834,382.051 245.364,381.784 246.796 C 381.518 248.228,381.113 249.940,380.884 250.600 C 380.085 252.906,378.386 258.603,378.380 259.000 C 378.376 259.220,378.025 260.120,377.600 261.000 C 377.175 261.880,376.821 262.910,376.814 263.289 C 376.806 263.668,376.440 264.793,376.000 265.789 C 375.560 266.785,374.864 268.365,374.454 269.300 C 374.043 270.235,373.582 271.573,373.428 272.272 C 373.274 272.972,372.890 273.759,372.574 274.021 C 372.258 274.283,372.000 274.741,372.000 275.038 C 372.000 275.555,368.784 282.755,367.998 284.000 C 367.789 284.330,367.196 285.410,366.680 286.400 C 363.081 293.304,362.434 294.449,360.108 298.029 C 359.169 299.475,358.400 300.862,358.400 301.109 C 358.400 301.357,358.166 301.704,357.880 301.880 C 357.594 302.056,356.891 303.010,356.318 304.000 C 355.745 304.990,354.944 306.200,354.538 306.690 C 354.132 307.179,353.350 308.223,352.800 309.010 C 351.220 311.271,348.514 314.941,347.932 315.613 C 347.639 315.950,346.863 316.940,346.208 317.813 C 342.619 322.589,332.380 333.422,326.285 338.892 C 320.751 343.858,319.907 344.577,316.000 347.650 C 314.650 348.711,310.771 351.570,309.010 352.800 C 308.223 353.350,307.179 354.132,306.690 354.538 C 306.200 354.944,304.990 355.745,304.000 356.318 C 303.010 356.891,302.056 357.594,301.880 357.880 C 301.704 358.166,301.361 358.400,301.118 358.400 C 300.875 358.400,300.119 358.818,299.438 359.329 C 298.757 359.841,297.930 360.389,297.600 360.549 C 297.270 360.708,296.280 361.271,295.400 361.800 C 294.520 362.328,292.990 363.188,292.000 363.710 C 287.867 365.888,284.562 367.664,284.000 368.008 C 283.670 368.211,282.050 368.993,280.400 369.746 C 278.750 370.500,276.193 371.675,274.717 372.358 C 273.241 373.041,271.829 373.600,271.578 373.600 C 271.328 373.600,270.646 373.863,270.062 374.184 C 268.550 375.016,263.845 376.800,263.163 376.800 C 262.847 376.800,261.916 377.160,261.096 377.600 C 260.275 378.040,259.287 378.408,258.901 378.418 C 258.516 378.427,257.480 378.709,256.600 379.044 C 254.492 379.847,249.993 381.116,247.000 381.754 C 245.680 382.035,244.235 382.460,243.789 382.699 C 243.343 382.937,241.543 383.331,239.789 383.572 C 238.035 383.814,236.060 384.182,235.400 384.390 C 223.139 388.248,190.736 388.662,169.600 385.230 C 162.039 384.002,157.879 383.158,156.451 382.562 C 155.709 382.253,154.678 382.000,154.160 382.000 C 153.641 382.000,151.998 381.630,150.508 381.179 C 143.452 379.038,139.744 377.819,138.815 377.334 C 138.257 377.043,137.440 376.803,137.000 376.800 C 136.560 376.797,135.722 376.546,135.139 376.241 C 134.555 375.937,133.385 375.462,132.539 375.187 C 131.692 374.911,130.645 374.442,130.211 374.143 C 129.777 373.844,129.159 373.600,128.837 373.600 C 128.516 373.600,127.521 373.256,126.626 372.836 C 125.732 372.416,123.920 371.589,122.600 370.998 C 118.496 369.162,116.635 368.226,115.646 367.500 C 115.121 367.115,114.471 366.800,114.201 366.800 C 113.931 366.800,112.053 365.855,110.028 364.700 C 108.003 363.545,105.774 362.281,105.073 361.890 C 104.373 361.500,103.260 360.830,102.600 360.401 C 101.940 359.973,100.758 359.271,99.973 358.841 C 99.189 358.410,98.311 357.775,98.024 357.429 C 97.737 357.083,97.350 356.800,97.165 356.800 C 96.980 356.800,96.057 356.257,95.114 355.593 C 94.171 354.929,92.410 353.720,91.200 352.906 C 88.905 351.364,80.025 344.339,77.600 342.149 C 70.323 335.576,65.953 331.325,62.400 327.362 C 60.090 324.785,57.610 322.030,56.889 321.238 C 56.168 320.447,54.728 318.669,53.689 317.287 C 52.125 315.207,48.966 311.064,47.675 309.400 C 46.256 307.572,43.488 303.358,43.190 302.573 C 42.986 302.038,42.669 301.600,42.484 301.600 C 42.299 301.600,41.843 301.015,41.469 300.300 C 41.096 299.585,40.432 298.460,39.994 297.800 C 39.557 297.140,38.908 295.970,38.554 295.200 C 38.200 294.430,37.769 293.710,37.597 293.600 C 37.308 293.415,32.972 285.466,31.924 283.200 C 31.670 282.650,30.932 281.030,30.285 279.600 C 29.637 278.170,28.612 275.920,28.007 274.600 C 26.224 270.711,23.259 262.805,21.782 258.000 C 21.478 257.010,20.756 254.670,20.179 252.800 C 19.601 250.930,18.942 248.500,18.714 247.400 C 18.487 246.300,17.989 244.230,17.607 242.800 C 16.748 239.573,15.310 232.138,14.978 229.200 C 14.841 227.990,14.482 225.560,14.181 223.800 C 12.669 214.968,12.683 186.427,14.203 177.000 C 14.522 175.020,14.961 172.039,15.177 170.375 C 15.394 168.711,15.848 166.289,16.186 164.991 C 16.523 163.694,16.800 162.136,16.800 161.530 C 16.800 160.924,17.096 159.567,17.458 158.514 C 17.820 157.461,18.344 155.430,18.621 154.000 C 18.898 152.570,19.419 150.500,19.778 149.400 C 20.137 148.300,20.812 146.140,21.278 144.600 C 22.373 140.985,23.157 138.752,25.140 133.600 C 26.029 131.290,26.874 128.912,27.017 128.316 C 27.161 127.720,27.526 127.027,27.829 126.776 C 28.131 126.525,28.492 125.714,28.631 124.974 C 28.770 124.234,29.135 123.420,29.442 123.165 C 29.749 122.910,30.000 122.502,30.000 122.257 C 30.000 121.831,31.694 118.058,32.450 116.800 C 32.648 116.470,33.161 115.480,33.590 114.600 C 34.018 113.720,35.184 111.560,36.180 109.800 C 37.176 108.040,38.208 106.150,38.473 105.600 C 38.738 105.050,39.219 104.284,39.542 103.897 C 40.182 103.131,40.893 101.967,41.689 100.382 C 41.970 99.822,42.428 99.102,42.707 98.782 C 42.986 98.462,44.149 96.760,45.292 95.000 C 46.434 93.240,47.578 91.669,47.832 91.509 C 48.087 91.350,48.515 90.688,48.784 90.038 C 49.053 89.389,49.527 88.760,49.837 88.641 C 50.146 88.522,50.400 88.189,50.400 87.901 C 50.400 87.613,50.715 87.102,51.100 86.764 C 51.485 86.426,52.250 85.548,52.800 84.813 C 58.389 77.342,69.207 65.970,77.547 58.800 C 78.699 57.810,80.217 56.493,80.920 55.874 C 81.624 55.255,83.325 53.922,84.700 52.912 C 86.075 51.902,87.200 50.945,87.200 50.785 C 87.200 50.624,87.515 50.387,87.900 50.256 C 88.285 50.126,89.410 49.395,90.400 48.632 C 93.417 46.307,97.435 43.600,97.867 43.600 C 98.092 43.600,98.602 43.240,99.000 42.800 C 99.398 42.360,99.907 42.000,100.130 42.000 C 100.354 42.000,100.867 41.701,101.271 41.336 C 102.158 40.533,103.246 39.888,105.500 38.828 C 106.435 38.388,107.200 37.856,107.200 37.646 C 107.200 37.436,107.738 37.145,108.395 37.001 C 109.053 36.857,109.698 36.565,109.829 36.352 C 109.961 36.140,110.773 35.684,111.634 35.340 C 112.495 34.995,113.200 34.560,113.200 34.372 C 113.200 34.184,113.899 33.843,114.753 33.613 C 115.608 33.382,116.530 32.926,116.802 32.597 C 117.075 32.269,117.591 31.999,117.949 31.997 C 118.307 31.996,119.140 31.637,119.800 31.200 C 120.460 30.763,121.242 30.404,121.538 30.403 C 121.834 30.401,122.554 30.062,123.138 29.650 C 123.722 29.237,124.773 28.776,125.472 28.624 C 126.172 28.473,126.944 28.109,127.187 27.816 C 127.430 27.523,128.297 27.158,129.114 27.005 C 129.931 26.852,131.050 26.487,131.600 26.194 C 134.054 24.888,136.453 23.942,137.867 23.723 C 138.710 23.593,140.068 23.152,140.884 22.743 C 141.700 22.334,142.690 21.994,143.084 21.986 C 143.478 21.979,144.520 21.625,145.400 21.200 C 146.280 20.775,147.507 20.421,148.126 20.414 C 148.745 20.406,150.095 20.054,151.126 19.632 C 152.157 19.210,153.973 18.750,155.163 18.610 C 156.352 18.470,157.821 18.099,158.428 17.785 C 159.035 17.472,160.582 17.106,161.866 16.972 C 163.149 16.838,165.010 16.483,166.000 16.182 C 166.990 15.882,169.600 15.442,171.800 15.206 C 174.000 14.969,176.520 14.577,177.400 14.334 C 181.176 13.292,214.783 13.047,220.800 14.018 M216.935 76.900 C 216.439 77.693,216.796 262.902,217.295 263.509 C 217.611 263.893,219.393 263.992,224.557 263.909 L 231.400 263.800 231.855 261.959 C 232.105 260.946,232.487 259.776,232.703 259.359 C 232.920 258.941,233.224 257.700,233.379 256.600 C 233.533 255.500,233.908 253.790,234.211 252.800 C 234.514 251.810,234.963 250.219,235.208 249.263 C 235.748 247.160,236.985 247.179,238.724 249.318 C 242.554 254.026,249.696 259.623,254.400 261.601 C 254.950 261.832,255.940 262.275,256.600 262.586 C 267.455 267.694,288.605 267.707,300.200 262.613 C 302.386 261.652,305.731 259.926,306.773 259.220 C 307.338 258.838,308.604 258.002,309.587 257.363 C 313.648 254.720,321.218 246.151,323.507 241.607 C 323.786 241.053,324.637 239.430,325.398 238.000 C 326.160 236.570,326.787 235.144,326.791 234.831 C 326.796 234.519,327.052 233.979,327.360 233.631 C 327.667 233.284,328.194 232.010,328.530 230.800 C 328.866 229.590,329.609 226.980,330.180 225.000 C 330.751 223.020,331.400 219.960,331.622 218.200 C 331.844 216.440,332.216 214.288,332.450 213.418 C 333.541 209.356,333.554 186.040,332.467 182.532 C 332.251 181.835,331.946 179.855,331.790 178.132 C 331.634 176.409,331.285 174.460,331.016 173.800 C 330.746 173.140,330.399 171.880,330.244 171.000 C 327.529 155.594,311.419 135.879,299.515 133.396 C 298.792 133.245,297.784 132.858,297.276 132.536 C 296.768 132.214,295.418 131.790,294.276 131.594 C 293.134 131.397,290.850 130.945,289.200 130.589 C 285.775 129.849,271.896 129.683,268.800 130.345 C 267.810 130.557,265.600 131.013,263.889 131.360 C 262.178 131.707,260.252 132.263,259.609 132.595 C 258.966 132.928,258.206 133.201,257.920 133.202 C 254.643 133.213,242.566 142.050,238.600 147.339 C 236.729 149.834,236.566 148.997,236.850 138.362 C 237.334 120.258,237.243 77.403,236.720 76.880 C 236.019 76.179,217.374 76.198,216.935 76.900 M114.200 130.011 C 112.220 130.175,109.622 130.599,108.427 130.954 C 107.232 131.309,105.918 131.600,105.505 131.600 C 105.093 131.600,103.995 131.947,103.064 132.371 C 102.134 132.795,100.851 133.272,100.213 133.432 C 98.928 133.755,94.586 136.116,91.200 138.334 C 86.549 141.380,80.382 148.348,76.097 155.400 C 75.397 156.551,73.200 161.120,73.200 161.423 C 73.200 161.564,72.939 162.246,72.621 162.940 C 71.277 165.863,69.439 172.332,68.740 176.600 C 68.523 177.920,68.043 180.620,67.673 182.600 C 66.701 187.799,66.701 208.601,67.673 213.800 C 68.043 215.780,68.523 218.480,68.738 219.800 C 69.265 223.023,70.547 227.996,71.129 229.074 C 71.388 229.554,71.600 230.262,71.600 230.647 C 71.600 232.149,76.410 241.758,79.171 245.774 C 81.194 248.715,88.847 256.800,89.608 256.800 C 89.792 256.800,90.181 257.025,90.471 257.300 C 100.276 266.575,127.898 269.258,142.644 262.368 C 143.548 261.946,144.411 261.600,144.562 261.600 C 144.914 261.600,151.144 258.012,152.052 257.286 C 153.531 256.104,159.924 249.715,161.096 248.248 C 162.439 246.566,164.830 246.311,164.208 247.917 C 163.071 250.853,162.712 322.527,163.833 322.957 C 164.738 323.305,181.712 323.246,182.241 322.894 C 182.803 322.520,183.341 134.424,182.785 132.961 L 182.420 132.000 175.001 132.000 C 166.432 132.000,167.127 131.628,166.426 136.600 C 166.209 138.140,165.760 140.840,165.429 142.600 C 165.099 144.360,164.822 146.370,164.814 147.067 C 164.781 150.062,163.160 150.566,161.492 148.100 C 157.862 142.732,145.131 133.200,141.593 133.200 C 141.255 133.200,140.614 132.945,140.169 132.633 C 139.723 132.321,138.648 131.946,137.780 131.800 C 136.911 131.653,135.390 131.280,134.400 130.969 C 130.815 129.846,121.535 129.406,114.200 130.011 M134.800 147.586 C 136.230 147.984,137.986 148.416,138.701 148.545 C 140.202 148.817,146.171 151.713,147.058 152.601 C 147.388 152.931,147.792 153.200,147.956 153.200 C 149.308 153.200,155.831 161.265,156.763 164.087 C 157.028 164.891,157.374 165.605,157.533 165.674 C 158.496 166.096,161.399 177.374,161.992 183.000 C 162.224 185.200,162.585 188.260,162.794 189.800 C 163.284 193.409,163.285 205.380,162.795 209.000 C 162.587 210.540,162.230 213.510,162.001 215.600 C 160.791 226.654,156.581 236.564,151.014 241.460 C 148.925 243.297,143.227 246.798,142.319 246.802 C 142.033 246.804,141.283 247.075,140.651 247.404 C 137.116 249.248,123.340 250.635,118.400 249.645 C 112.910 248.545,110.671 247.955,109.877 247.399 C 109.407 247.070,108.760 246.800,108.440 246.800 C 107.439 246.800,102.301 243.161,99.968 240.800 C 90.282 230.996,85.974 212.580,87.969 189.498 C 88.401 184.492,88.849 180.245,88.963 180.060 C 89.077 179.876,89.526 178.212,89.961 176.362 C 91.272 170.792,94.413 163.174,96.225 161.173 C 96.541 160.823,96.800 160.319,96.800 160.053 C 96.800 159.425,103.941 152.282,105.294 151.556 C 114.632 146.549,125.723 145.057,134.800 147.586 M284.200 147.566 C 284.860 147.836,286.245 148.218,287.277 148.414 C 289.302 148.799,295.492 151.577,296.842 152.707 C 299.400 154.849,303.455 159.256,304.468 160.995 C 305.110 162.098,305.795 163.270,305.990 163.600 C 311.596 173.111,314.417 201.538,311.169 215.800 C 310.918 216.900,310.552 218.610,310.355 219.600 C 309.829 222.243,307.952 228.077,307.335 228.989 C 307.041 229.423,306.800 230.034,306.800 230.346 C 306.800 230.862,303.001 237.526,302.437 238.000 C 302.306 238.110,301.592 238.906,300.850 239.770 C 294.687 246.945,283.798 250.697,272.280 249.614 C 266.962 249.114,261.891 248.171,260.416 247.408 C 259.769 247.074,259.003 246.800,258.714 246.800 C 255.898 246.800,244.800 237.605,244.800 235.272 C 244.800 235.066,244.548 234.689,244.239 234.433 C 243.931 234.177,243.557 233.480,243.408 232.884 C 243.259 232.288,242.909 231.530,242.630 231.200 C 241.358 229.698,238.710 219.144,237.963 212.600 C 236.299 198.018,237.854 175.798,241.015 169.000 C 241.321 168.340,241.693 167.260,241.840 166.600 C 241.987 165.940,242.332 165.130,242.606 164.800 C 242.881 164.470,243.234 163.778,243.392 163.262 C 244.172 160.707,248.996 155.086,252.152 153.056 C 257.368 149.702,259.191 149.035,268.200 147.185 C 270.594 146.693,282.777 146.984,284.200 147.566 " stroke="none" fill="#def1fb" fill-rule="evenodd"></path><path id="path1" d="M185.400 13.579 C 181.880 13.752,178.280 14.091,177.400 14.334 C 176.520 14.577,174.000 14.969,171.800 15.206 C 169.600 15.442,166.990 15.882,166.000 16.182 C 165.010 16.483,163.149 16.838,161.866 16.972 C 160.582 17.106,159.035 17.472,158.428 17.785 C 157.821 18.099,156.352 18.470,155.163 18.610 C 153.973 18.750,152.157 19.210,151.126 19.632 C 150.095 20.054,148.745 20.406,148.126 20.414 C 147.507 20.421,146.280 20.775,145.400 21.200 C 144.520 21.625,143.478 21.979,143.084 21.986 C 142.690 21.994,141.700 22.334,140.884 22.743 C 140.068 23.152,138.710 23.593,137.867 23.723 C 136.453 23.942,134.054 24.888,131.600 26.194 C 131.050 26.487,129.931 26.852,129.114 27.005 C 128.297 27.158,127.430 27.523,127.187 27.816 C 126.944 28.109,126.172 28.473,125.472 28.624 C 124.773 28.776,123.722 29.237,123.138 29.650 C 122.554 30.062,121.834 30.401,121.538 30.403 C 121.242 30.404,120.460 30.763,119.800 31.200 C 119.140 31.637,118.307 31.996,117.949 31.997 C 117.591 31.999,117.075 32.269,116.802 32.597 C 116.530 32.926,115.608 33.382,114.753 33.613 C 113.899 33.843,113.200 34.184,113.200 34.372 C 113.200 34.560,112.495 34.995,111.634 35.340 C 110.773 35.684,109.961 36.140,109.829 36.352 C 109.698 36.565,109.053 36.857,108.395 37.001 C 107.738 37.145,107.200 37.436,107.200 37.646 C 107.200 37.856,106.435 38.388,105.500 38.828 C 103.246 39.888,102.158 40.533,101.271 41.336 C 100.867 41.701,100.354 42.000,100.130 42.000 C 99.907 42.000,99.398 42.360,99.000 42.800 C 98.602 43.240,98.092 43.600,97.867 43.600 C 97.435 43.600,93.417 46.307,90.400 48.632 C 89.410 49.395,88.285 50.126,87.900 50.256 C 87.515 50.387,87.200 50.624,87.200 50.785 C 87.200 50.945,86.075 51.902,84.700 52.912 C 83.325 53.922,81.624 55.255,80.920 55.874 C 80.217 56.493,78.699 57.810,77.547 58.800 C 69.207 65.970,58.389 77.342,52.800 84.813 C 52.250 85.548,51.485 86.426,51.100 86.764 C 50.715 87.102,50.400 87.613,50.400 87.901 C 50.400 88.189,50.146 88.522,49.837 88.641 C 49.527 88.760,49.053 89.389,48.784 90.038 C 48.515 90.688,48.087 91.350,47.832 91.509 C 47.578 91.669,46.434 93.240,45.292 95.000 C 44.149 96.760,42.986 98.462,42.707 98.782 C 42.428 99.102,41.970 99.822,41.689 100.382 C 40.893 101.967,40.182 103.131,39.542 103.897 C 39.219 104.284,38.738 105.050,38.473 105.600 C 38.208 106.150,37.176 108.040,36.180 109.800 C 35.184 111.560,34.018 113.720,33.590 114.600 C 33.161 115.480,32.648 116.470,32.450 116.800 C 31.694 118.058,30.000 121.831,30.000 122.257 C 30.000 122.502,29.749 122.910,29.442 123.165 C 29.135 123.420,28.770 124.234,28.631 124.974 C 28.492 125.714,28.131 126.525,27.829 126.776 C 27.526 127.027,27.161 127.720,27.017 128.316 C 26.874 128.912,26.029 131.290,25.140 133.600 C 23.157 138.752,22.373 140.985,21.278 144.600 C 20.812 146.140,20.137 148.300,19.778 149.400 C 19.419 150.500,18.898 152.570,18.621 154.000 C 18.344 155.430,17.820 157.461,17.458 158.514 C 17.096 159.567,16.800 160.924,16.800 161.530 C 16.800 162.136,16.523 163.694,16.186 164.991 C 15.848 166.289,15.394 168.711,15.177 170.375 C 14.961 172.039,14.522 175.020,14.203 177.000 C 12.683 186.427,12.669 214.968,14.181 223.800 C 14.482 225.560,14.841 227.990,14.978 229.200 C 15.310 232.138,16.748 239.573,17.607 242.800 C 17.989 244.230,18.487 246.300,18.714 247.400 C 18.942 248.500,19.601 250.930,20.179 252.800 C 20.756 254.670,21.478 257.010,21.782 258.000 C 23.259 262.805,26.224 270.711,28.007 274.600 C 28.612 275.920,29.637 278.170,30.285 279.600 C 30.932 281.030,31.670 282.650,31.924 283.200 C 32.972 285.466,37.308 293.415,37.597 293.600 C 37.769 293.710,38.200 294.430,38.554 295.200 C 38.908 295.970,39.557 297.140,39.994 297.800 C 40.432 298.460,41.096 299.585,41.469 300.300 C 41.843 301.015,42.299 301.600,42.484 301.600 C 42.669 301.600,42.986 302.038,43.190 302.573 C 43.488 303.358,46.256 307.572,47.675 309.400 C 48.966 311.064,52.125 315.207,53.689 317.287 C 54.728 318.669,56.168 320.447,56.889 321.238 C 57.610 322.030,60.090 324.785,62.400 327.362 C 65.953 331.325,70.323 335.576,77.600 342.149 C 80.025 344.339,88.905 351.364,91.200 352.906 C 92.410 353.720,94.171 354.929,95.114 355.593 C 96.057 356.257,96.980 356.800,97.165 356.800 C 97.350 356.800,97.737 357.083,98.024 357.429 C 98.311 357.775,99.189 358.410,99.973 358.841 C 100.758 359.271,101.940 359.973,102.600 360.401 C 103.260 360.830,104.373 361.500,105.073 361.890 C 105.774 362.281,108.003 363.545,110.028 364.700 C 112.053 365.855,113.931 366.800,114.201 366.800 C 114.471 366.800,115.121 367.115,115.646 367.500 C 116.635 368.226,118.496 369.162,122.600 370.998 C 123.920 371.589,125.732 372.416,126.626 372.836 C 127.521 373.256,128.516 373.600,128.837 373.600 C 129.159 373.600,129.777 373.844,130.211 374.143 C 130.645 374.442,131.692 374.911,132.539 375.187 C 133.385 375.462,134.555 375.937,135.139 376.241 C 135.722 376.546,136.560 376.797,137.000 376.800 C 137.440 376.803,138.257 377.043,138.815 377.334 C 139.744 377.819,143.452 379.038,150.508 381.179 C 151.998 381.630,153.641 382.000,154.160 382.000 C 154.678 382.000,155.709 382.253,156.451 382.562 C 157.193 382.872,159.420 383.430,161.400 383.804 C 186.353 388.509,205.369 388.954,229.800 385.406 C 232.220 385.055,234.740 384.598,235.400 384.390 C 236.060 384.182,238.035 383.814,239.789 383.572 C 241.543 383.331,243.343 382.937,243.789 382.699 C 244.235 382.460,245.680 382.035,247.000 381.754 C 249.993 381.116,254.492 379.847,256.600 379.044 C 257.480 378.709,258.516 378.427,258.901 378.418 C 259.287 378.408,260.275 378.040,261.096 377.600 C 261.916 377.160,262.847 376.800,263.163 376.800 C 263.845 376.800,268.550 375.016,270.062 374.184 C 270.646 373.863,271.328 373.600,271.578 373.600 C 271.829 373.600,273.241 373.041,274.717 372.358 C 276.193 371.675,278.750 370.500,280.400 369.746 C 282.050 368.993,283.670 368.211,284.000 368.008 C 284.562 367.664,287.867 365.888,292.000 363.710 C 292.990 363.188,294.520 362.328,295.400 361.800 C 296.280 361.271,297.270 360.708,297.600 360.549 C 297.930 360.389,298.757 359.841,299.438 359.329 C 300.119 358.818,300.875 358.400,301.118 358.400 C 301.361 358.400,301.704 358.166,301.880 357.880 C 302.056 357.594,303.010 356.891,304.000 356.318 C 304.990 355.745,306.200 354.944,306.690 354.538 C 307.179 354.132,308.223 353.350,309.010 352.800 C 310.771 351.570,314.650 348.711,316.000 347.650 C 319.907 344.577,320.751 343.858,326.285 338.892 C 332.380 333.422,342.619 322.589,346.208 317.813 C 346.863 316.940,347.639 315.950,347.932 315.613 C 348.514 314.941,351.220 311.271,352.800 309.010 C 353.350 308.223,354.132 307.179,354.538 306.690 C 354.944 306.200,355.745 304.990,356.318 304.000 C 356.891 303.010,357.594 302.056,357.880 301.880 C 358.166 301.704,358.400 301.357,358.400 301.109 C 358.400 300.862,359.169 299.475,360.108 298.029 C 362.434 294.449,363.081 293.304,366.680 286.400 C 367.196 285.410,367.789 284.330,367.998 284.000 C 368.784 282.755,372.000 275.555,372.000 275.038 C 372.000 274.741,372.258 274.283,372.574 274.021 C 372.890 273.759,373.274 272.972,373.428 272.272 C 373.582 271.573,374.043 270.235,374.454 269.300 C 374.864 268.365,375.560 266.785,376.000 265.789 C 376.440 264.793,376.806 263.668,376.814 263.289 C 376.821 262.910,377.175 261.880,377.600 261.000 C 378.025 260.120,378.376 259.220,378.380 259.000 C 378.386 258.603,380.085 252.906,380.884 250.600 C 381.113 249.940,381.518 248.228,381.784 246.796 C 382.051 245.364,382.458 243.834,382.688 243.396 C 382.919 242.958,383.230 241.790,383.380 240.800 C 383.529 239.810,383.993 237.200,384.409 235.000 C 387.255 219.959,388.082 205.599,387.089 188.445 C 386.470 177.734,386.163 175.085,384.535 166.400 C 384.185 164.530,383.737 162.010,383.540 160.800 C 383.343 159.590,382.925 157.790,382.611 156.800 C 382.297 155.810,381.784 153.920,381.471 152.600 C 381.157 151.280,380.532 148.940,380.081 147.400 C 379.629 145.860,378.955 143.520,378.583 142.200 C 378.210 140.880,377.657 139.445,377.353 139.011 C 377.049 138.577,376.800 137.907,376.800 137.522 C 376.800 137.138,375.990 134.833,375.000 132.400 C 374.010 129.967,373.200 127.734,373.200 127.438 C 373.200 127.141,372.948 126.689,372.639 126.433 C 372.331 126.177,371.961 125.499,371.817 124.927 C 371.500 123.664,366.671 113.821,364.200 109.400 C 363.216 107.640,362.060 105.570,361.632 104.800 C 360.972 103.614,359.108 100.650,357.606 98.400 C 357.386 98.070,356.623 96.900,355.910 95.800 C 355.198 94.700,354.474 93.620,354.303 93.400 C 354.131 93.180,353.461 92.280,352.813 91.400 C 344.678 80.342,334.973 69.319,327.452 62.595 C 326.152 61.433,318.156 54.557,317.807 54.302 C 317.583 54.138,315.960 52.873,314.200 51.492 C 311.275 49.195,310.494 48.624,307.792 46.800 C 300.907 42.153,296.873 39.560,295.000 38.576 C 294.340 38.229,293.080 37.517,292.200 36.994 C 291.320 36.470,289.160 35.302,287.400 34.398 C 285.640 33.494,283.930 32.592,283.600 32.394 C 282.361 31.650,275.117 28.400,274.699 28.400 C 274.459 28.400,273.979 28.157,273.631 27.861 C 273.284 27.564,272.190 27.041,271.200 26.699 C 267.859 25.543,265.806 24.767,264.540 24.182 C 263.846 23.862,262.944 23.600,262.534 23.600 C 262.124 23.600,261.161 23.266,260.394 22.859 C 259.627 22.451,258.286 21.985,257.414 21.824 C 256.541 21.663,255.371 21.302,254.814 21.021 C 254.256 20.741,253.016 20.391,252.058 20.244 C 251.100 20.097,249.823 19.722,249.221 19.411 C 248.618 19.099,247.152 18.720,245.963 18.568 C 244.773 18.416,243.350 18.064,242.800 17.787 C 242.249 17.509,240.719 17.159,239.400 17.008 C 238.080 16.857,235.920 16.477,234.600 16.164 C 233.280 15.850,230.130 15.319,227.600 14.983 C 225.070 14.647,222.010 14.213,220.800 14.018 C 217.668 13.512,193.010 13.207,185.400 13.579 M236.720 76.880 C 237.243 77.403,237.334 120.258,236.850 138.362 C 236.566 148.997,236.729 149.834,238.600 147.339 C 242.566 142.050,254.643 133.213,257.920 133.202 C 258.206 133.201,258.966 132.928,259.609 132.595 C 260.252 132.263,262.178 131.707,263.889 131.360 C 265.600 131.013,267.810 130.557,268.800 130.345 C 271.896 129.683,285.775 129.849,289.200 130.589 C 290.850 130.945,293.134 131.397,294.276 131.594 C 295.418 131.790,296.768 132.214,297.276 132.536 C 297.784 132.858,298.792 133.245,299.515 133.396 C 311.419 135.879,327.529 155.594,330.244 171.000 C 330.399 171.880,330.746 173.140,331.016 173.800 C 331.285 174.460,331.634 176.409,331.790 178.132 C 331.946 179.855,332.251 181.835,332.467 182.532 C 333.554 186.040,333.541 209.356,332.450 213.418 C 332.216 214.288,331.844 216.440,331.622 218.200 C 331.400 219.960,330.751 223.020,330.180 225.000 C 329.609 226.980,328.866 229.590,328.530 230.800 C 328.194 232.010,327.667 233.284,327.360 233.631 C 327.052 233.979,326.796 234.519,326.791 234.831 C 326.787 235.144,326.160 236.570,325.398 238.000 C 324.637 239.430,323.786 241.053,323.507 241.607 C 321.218 246.151,313.648 254.720,309.587 257.363 C 308.604 258.002,307.338 258.838,306.773 259.220 C 305.731 259.926,302.386 261.652,300.200 262.613 C 288.605 267.707,267.455 267.694,256.600 262.586 C 255.940 262.275,254.950 261.832,254.400 261.601 C 249.696 259.623,242.554 254.026,238.724 249.318 C 236.985 247.179,235.748 247.160,235.208 249.263 C 234.963 250.219,234.514 251.810,234.211 252.800 C 233.908 253.790,233.533 255.500,233.379 256.600 C 233.224 257.700,232.920 258.941,232.703 259.359 C 232.487 259.776,232.105 260.946,231.855 261.959 L 231.400 263.800 224.557 263.909 C 219.393 263.992,217.611 263.893,217.295 263.509 C 216.796 262.902,216.439 77.693,216.935 76.900 C 217.374 76.198,236.019 76.179,236.720 76.880 M127.800 130.009 C 130.440 130.227,133.410 130.659,134.400 130.969 C 135.390 131.280,136.911 131.653,137.780 131.800 C 138.648 131.946,139.723 132.321,140.169 132.633 C 140.614 132.945,141.255 133.200,141.593 133.200 C 145.131 133.200,157.862 142.732,161.492 148.100 C 163.160 150.566,164.781 150.062,164.814 147.067 C 164.822 146.370,165.099 144.360,165.429 142.600 C 165.760 140.840,166.209 138.140,166.426 136.600 C 167.127 131.628,166.432 132.000,175.001 132.000 L 182.420 132.000 182.785 132.961 C 183.341 134.424,182.803 322.520,182.241 322.894 C 181.712 323.246,164.738 323.305,163.833 322.957 C 162.712 322.527,163.071 250.853,164.208 247.917 C 164.830 246.311,162.439 246.566,161.096 248.248 C 156.896 253.507,146.874 261.600,144.562 261.600 C 144.411 261.600,143.548 261.946,142.644 262.368 C 127.898 269.258,100.276 266.575,90.471 257.300 C 90.181 257.025,89.792 256.800,89.608 256.800 C 86.400 256.800,71.600 235.306,71.600 230.647 C 71.600 230.262,71.388 229.554,71.129 229.074 C 70.547 227.996,69.265 223.023,68.738 219.800 C 68.523 218.480,68.043 215.780,67.673 213.800 C 66.701 208.601,66.701 187.799,67.673 182.600 C 68.043 180.620,68.523 177.920,68.740 176.600 C 69.439 172.332,71.277 165.863,72.621 162.940 C 72.939 162.246,73.200 161.564,73.200 161.423 C 73.200 161.120,75.397 156.551,76.097 155.400 C 80.382 148.348,86.549 141.380,91.200 138.334 C 94.586 136.116,98.928 133.755,100.213 133.432 C 100.851 133.272,102.134 132.795,103.064 132.371 C 103.995 131.947,105.093 131.600,105.505 131.600 C 105.918 131.600,107.232 131.309,108.427 130.954 C 112.401 129.773,120.285 129.389,127.800 130.009 M119.400 146.790 C 114.824 147.116,111.449 148.256,105.294 151.556 C 103.941 152.282,96.800 159.425,96.800 160.053 C 96.800 160.319,96.541 160.823,96.225 161.173 C 94.413 163.174,91.272 170.792,89.961 176.362 C 89.526 178.212,89.077 179.876,88.963 180.060 C 88.849 180.245,88.401 184.492,87.969 189.498 C 85.974 212.580,90.282 230.996,99.968 240.800 C 102.301 243.161,107.439 246.800,108.440 246.800 C 108.760 246.800,109.407 247.070,109.877 247.399 C 110.671 247.955,112.910 248.545,118.400 249.645 C 123.340 250.635,137.116 249.248,140.651 247.404 C 141.283 247.075,142.033 246.804,142.319 246.802 C 143.227 246.798,148.925 243.297,151.014 241.460 C 156.581 236.564,160.791 226.654,162.001 215.600 C 162.230 213.510,162.587 210.540,162.795 209.000 C 163.285 205.380,163.284 193.409,162.794 189.800 C 162.585 188.260,162.224 185.200,161.992 183.000 C 161.399 177.374,158.496 166.096,157.533 165.674 C 157.374 165.605,157.028 164.891,156.763 164.087 C 155.831 161.265,149.308 153.200,147.956 153.200 C 147.792 153.200,147.388 152.931,147.058 152.601 C 146.171 151.713,140.202 148.817,138.701 148.545 C 137.986 148.416,136.230 147.984,134.800 147.586 C 131.841 146.761,124.865 146.401,119.400 146.790 M268.200 147.185 C 259.191 149.035,257.368 149.702,252.152 153.056 C 248.996 155.086,244.172 160.707,243.392 163.262 C 243.234 163.778,242.881 164.470,242.606 164.800 C 242.332 165.130,241.987 165.940,241.840 166.600 C 241.693 167.260,241.321 168.340,241.015 169.000 C 237.854 175.798,236.299 198.018,237.963 212.600 C 238.710 219.144,241.358 229.698,242.630 231.200 C 242.909 231.530,243.259 232.288,243.408 232.884 C 243.557 233.480,243.931 234.177,244.239 234.433 C 244.548 234.689,244.800 235.066,244.800 235.272 C 244.800 237.605,255.898 246.800,258.714 246.800 C 259.003 246.800,259.769 247.074,260.416 247.408 C 261.891 248.171,266.962 249.114,272.280 249.614 C 283.798 250.697,294.687 246.945,300.850 239.770 C 301.592 238.906,302.306 238.110,302.437 238.000 C 303.001 237.526,306.800 230.862,306.800 230.346 C 306.800 230.034,307.041 229.423,307.335 228.989 C 307.952 228.077,309.829 222.243,310.355 219.600 C 310.552 218.610,310.918 216.900,311.169 215.800 C 314.417 201.538,311.596 173.111,305.990 163.600 C 305.795 163.270,305.110 162.098,304.468 160.995 C 303.455 159.256,299.400 154.849,296.842 152.707 C 295.492 151.577,289.302 148.799,287.277 148.414 C 286.245 148.218,284.860 147.836,284.200 147.566 C 282.777 146.984,270.594 146.693,268.200 147.185 " stroke="none" fill="#4e8dd7" fill-rule="evenodd"></path></g></svg>